<?xml version="1.0" encoding="UTF-8"?>
<svg version="1.1" viewBox="0 0 900 900" width="225" height="225" xmlns="http://www.w3.org/2000/svg">
<path transform="translate(0)" d="m0 0h900v900h-900z" fill="#FEFEFE"/>
<path transform="translate(363,105)" d="m0 0h214l29 2 26 3 31 6 25 7 21 8 25 12 15 9 17 12 11 9 15 14 7 8 11 13 14 21 10 18 10 23 6 19 5 23 2 22v32l-3 23-5 21-8 23-9 19-11 19-8 11-11 14-11 12-12 12-14 11-12 9-19 12-19 10-25 10-24 8-24 6-20 3-24 2-31 1h-204l-2-1v-80l1-47 25-1 77-1v-106l-70-1-32-1-1-5v-168l1-75z" fill="#017EC1"/>
<path transform="translate(250,155)" d="m0 0h2v190l-1 9h-228l2-4 10-8 11-10 8-7 14-12 10-9 11-9 10-9 8-7 28-24 11-10 11-9 12-11 11-9 11-10 8-7 14-12 10-9 11-9 11-10z" fill="#017EC1"/>
<path transform="translate(681,660)" d="m0 0h16l8 5 6 9 2 6 1 7v17l-2 12-6 10-6 5-7 2h-10l-9-3-8-9-4-10-1-10v-11l2-12 5-9 8-7z" fill="#FEFEFE"/>
<path transform="translate(227,659)" d="m0 0h8l8 3 7 7 4 9 1 6v23l-2 11-6 9-8 5-4 1h-9l-8-2-7-5-4-7-4-13v-19l3-12 5-8 6-5 4-2z" fill="#FEFEFE"/>
<path transform="translate(783,659)" d="m0 0h8l9 3 5 5 4 6 3 15v17l-3 13-6 10-6 4-5 1h-11l-8-3-5-5-4-6-2-13v-21l2-11 6-9 7-5z" fill="#FEFEFE"/>
<path transform="translate(64,652)" d="m0 0 5 1 3 7 5 17 9 31 4 17 3 2 4-17 15-50 4-7 4-1 5 5 6 18 4 15 10 34 3 3 4-18 10-36 6-18 1-2 7 1-1 8-15 49-7 22-3 6-6 1-4-5-6-20-12-39-3-8-4 11-9 31-8 25-4 5h-5l-4-6-8-27-13-44-1-10z" fill="#324E67"/>
<path transform="translate(787,652)" d="m0 0 14 2 7 4 6 8 5 14 1 10v16l-2 10-5 12-8 8-13 4h-8l-8-2-6-3-4-3v-2h-2l-2 49-3 2h-5l-1-1v-124l2-3h5l2 2 1 6 4-2 6-4zm-4 7-8 2-7 6-5 10-1 8v21l2 13 6 9 7 4 4 1h11l9-3 6-8 4-11 1-6v-17l-3-15-7-10-6-3-5-1z" fill="#314F68"/>
<path transform="translate(374,611)" d="m0 0h5l1 1v89l4-1 2-4 12-14 13-15 9-10 6-5 4 1 1 5-13 14-9 11-1 4 28 44 1 8-3 1-5-3-12-19-11-17-4-7-4 1-13 14-4 4-1 19-1 7-3 1-3-1-1-4v-115l1-8z" fill="#324E66"/>
<path transform="translate(561,610)" d="m0 0 4 2 1 49 1 2 8-7 8-3 12-1 12 3 9 6 6 9 1 5v63l-3 2-4-1-1-57-3-10-6-8-5-3-4-1h-12l-8 3-8 9-2 5-1 11-1 52h-5l-2-5v-119l1-5z" fill="#324E66"/>
<path transform="translate(686,652)" d="m0 0 10 1 9 3 8 6 6 10 4 14v21l-4 14-7 10-10 6-12 3-11-1-9-3-9-8-6-12-2-14v-12l2-13 4-10 7-8 6-4zm-5 8-8 4-7 8-3 6-2 12v11l2 13 5 10 8 7 7 2h10l8-3 5-4 6-10 2-12v-17l-2-11-6-10-5-4-4-2z" fill="#314E67"/>
<path transform="translate(230,652)" d="m0 0 14 3 8 5 6 7 5 11 2 10v17l-3 12-5 10-7 7-12 5-12 1-13-4-6-4-7-8-4-11-1-12v-10l1-13 4-10 9-10 9-4zm-3 7-8 2-6 4-5 6-4 11-1 5v19l4 13 4 7 9 6 6 1h9l10-4 7-9 2-6 1-7v-23l-3-12-9-10-8-3z" fill="#324E67"/>
<path transform="translate(482,653)" d="m0 0h18l12 3 6 4 2 2-1 4-2 1-12-6-7-1h-13l-8 2-6 5-1 2v14l4 5 12 3 22 2 9 3 7 8 2 7v7l-3 8-6 7-8 4-12 3h-10l-15-3-7-3-7-4-1-4 1-2h6l9 6 13 2h12l10-2 5-4 3-6 1-8-3-7-8-4-7-1-17-1-11-4-7-6-3-8v-10l5-10 6-5z" fill="#314E67"/>
<path transform="translate(326,652)" d="m0 0 10 1 11 4 1 1v7l-3 2-9-6-5-1h-8l-7 2-5 5-6 9-1 17-1 45-4 2h-3l-1-5v-80l1-2h6l1 1 1 8 4-2 5-4z" fill="#304F69"/>
</svg>
