<?xml version="1.0" encoding="UTF-8"?>
<svg version="1.1" viewBox="0 0 2048 2048" width="128" height="128" xmlns="http://www.w3.org/2000/svg">
<path transform="translate(1134,189)" d="m0 0h219l14 1 2 2 2 59 6 156 2 63v31l222-1 7-2 8-8 8-11 15-16 15-15 14-11 10-8 19-12 29-15 20-8 20-6 23-5 23-3h39l24 3 28 7 20 8 19 10 15 10 10 8 12 11 8 8 9 11 12 17 9 16 9 19 7 21 5 21 2 16v41l-3 21-6 27-7 20-9 20-12 23-12 18-12 16-9 11-9 10-12 12-11 9-8 7-19 13-18 11-16 8-15 7-30 10-26 6-22 3-15 1h-14l-24-2-24-5-24-8-18-8-18-10-15-11-14-12-10-10-9-11-13-18-7-9-104 1h-84l3 81 4 105 2 61v9l131-1 5-3 11-13 11-14 20-20 17-13 14-10 19-12 25-13 23-9 21-6 32-6 21-2h17l27 3 25 5 27 9 25 13 17 12 11 9 7 7 6 5 7 8 9 11 10 15 12 23 10 28 5 22 2 17v39l-2 19-5 24-6 20-9 22-8 16-10 18-12 18-9 12-9 10-7 8-12 12-11 9-8 7-18 13-15 9-15 8-27 12-28 9-29 6-28 3h-22l-20-2-26-6-21-7-18-8-15-8-14-10-13-11-18-18-11-14-7-11-6-7-10-2-60 1h-28l1 6 4 100 2 44 2 66 2 32v8h27l12-4 8-6 15-16 7-8 19-19 14-11 13-10 13-8 16-9 25-12 22-8 26-6 25-4 12-1h23l24 3 24 5 17 5 19 8 20 11 19 14 13 12 9 9 9 11 12 17 10 18 10 24 6 21 4 21 1 8v39l-5 31-6 24-7 19-11 24-11 20-11 16-11 14-12 14-12 13-12 11-14 11-20 14-21 12-23 11-30 10-24 6-17 3-9 1h-43l-22-3-16-4-21-7-22-10-17-10-18-14-13-12-12-14-8-11-10-14-4-4h-227l-283-1h-91l-507 1h-140l-34-1-27-2-26-4-28-7-19-7-19-10-11-8-15-14-6-5v-31l11-20 8-16 11-23 12-22 14-27 7-12 7-14 9-15 7-14 9-15 7-14 12-22 17-32 13-24 14-26 12-22 10-19 11-19 6-12 10-17 7-14 12-22 9-16 7-14 12-22 16-30 12-22 15-28 9-16 16-30 10-18 11-20 7-14 12-22 30-56 9-16 24-44 30-56 13-24 14-26 26-48 12-22 7-12 7-14 12-22 14-26 15-28 13-24 12-22 12-23 13-23 17-32 9-16 14-24 8-13 10-15 13-18 8-10 7-9 11-14 9-10 7-8 9-10 17-17 11-9 11-10 17-13 21-16 15-10 19-12 19-11 23-12 19-9 31-12 27-9 37-10 31-6 29-4 36-3zm677 343-19 2-16 5-14 7-14 11-5 4-9 11-7 10-9 19-4 14-2 15 1 16 4 13 8 16 10 13 11 9 10 5 16 5 17 2 16-2 14-4 19-9 14-10 13-13 9-13 9-19 4-16 1-9v-15l-2-12-5-13-10-15-11-11-11-7-12-5-12-3zm-83 513-17 4-13 5-11 6-13 10-11 11-10 16-7 15-5 19-1 8v14l4 17 5 12 7 11 10 10 10 7 15 6 10 3 7 1h18l17-4 15-6 16-10 11-9 11-12 12-19 7-25 1-8v-15l-3-14-6-16-8-12-9-9-11-7-13-6-12-3zm-73 512-14 3-16 6-10 6-14 11-9 10-9 13-9 19-5 19-1 7v14l4 16 8 16 7 10 5 5 9 8 12 6 16 5 6 1h22l20-6 16-8 12-8 12-11 10-12 9-17 5-14 3-19v-14l-2-12-5-12-7-12-11-12-10-8-13-6-16-4z" fill="#40444D"/>
<path transform="translate(619,1374)" d="m0 0h56l270 1 21 1 1 1-2 47-5 84-2 30-1 6-2 33-2 21v20l1 1 17 1 94 2h291l44-1 17-1 5-2v-78l1-13 1-1 12-1h12l12-4 8-6 15-16 7-8 19-19 14-11 13-10 13-8 16-9 25-12 22-8 26-6 25-4 12-1h23l24 3 24 5 17 5 19 8 20 11 19 14 13 12 9 9 9 11 12 17 10 18 10 24 6 21 4 21 1 8v39l-5 31-6 24-7 19-11 24-11 20-11 16-11 14-12 14-12 13-12 11-14 11-20 14-21 12-23 11-30 10-24 6-17 3-9 1h-43l-22-3-16-4-21-7-22-10-17-10-18-14-13-12-12-14-8-11-10-14-4-4h-227l-283-1h-91l-507 1h-140l-34-1-27-2-26-4-28-7-19-7-19-10-11-8-15-14-6-5v-31l11-20 4-8 9-4 21-9 15-5 21-5 27-4 32-3 37-2 31-1h229l40-1 18-1 10-4 3-5 16-34 8-18 7-16 11-25 11-26 13-31 9-21 12-27 10-22 6-15 6-8zm1036 183-14 3-16 6-10 6-14 11-9 10-9 13-9 19-5 19-1 7v14l4 16 8 16 7 10 5 5 9 8 12 6 16 5 6 1h22l20-6 16-8 12-8 12-11 10-12 9-17 5-14 3-19v-14l-2-12-5-12-7-12-11-12-10-8-13-6-16-4z" fill="#E1BB5F"/>
<path transform="translate(1812,380)" d="m0 0h39l24 3 28 7 20 8 19 10 15 10 10 8 12 11 8 8 9 11 12 17 9 16 9 19 7 21 5 21 2 16v41l-3 21-6 27-7 20-9 20-12 23-12 18-12 16-9 11-9 10-12 12-11 9-8 7-19 13-18 11-16 8-15 7-30 10-26 6-22 3-15 1h-14l-24-2-24-5-24-8-18-8-18-10-15-11-14-12-10-10-9-11-13-18-7-9-104 1h-83l-2-10-2-29-4-100-3-84v-25l1-8 219-1 7-2 8-8 8-11 15-16 15-15 14-11 10-8 19-12 29-15 20-8 20-6 23-5zm-1 152-19 2-16 5-14 7-14 11-5 4-9 11-7 10-9 19-4 14-2 15 1 16 4 13 8 16 10 13 11 9 10 5 16 5 17 2 16-2 14-4 19-9 14-10 13-13 9-13 9-19 4-16 1-9v-15l-2-12-5-13-10-15-11-11-11-7-12-5-12-3z" fill="#E0BB5F"/>
<path transform="translate(1750,891)" d="m0 0h17l27 3 25 5 27 9 25 13 17 12 11 9 7 7 6 5 7 8 9 11 10 15 12 23 10 28 5 22 2 17v39l-2 19-5 24-6 20-9 22-8 16-10 18-12 18-9 12-9 10-7 8-12 12-11 9-8 7-18 13-15 9-15 8-27 12-28 9-29 6-28 3h-22l-20-2-26-6-21-7-18-8-15-8-14-10-13-11-18-18-11-14-7-11-6-7-10-2-60 1h-26l-2-16-1-13-2-51-2-39-3-88v-46l1-3 128-1 5-3 11-13 11-14 20-20 17-13 14-10 19-12 25-13 23-9 21-6 32-6zm-22 154-17 4-13 5-11 6-13 10-11 11-10 16-7 15-5 19-1 8v14l4 17 5 12 7 11 10 10 10 7 15 6 10 3 7 1h18l17-4 15-6 16-10 11-9 11-12 12-19 7-25 1-8v-15l-3-14-6-16-8-12-9-9-11-7-13-6-12-3z" fill="#E0BA5F"/>
<path transform="translate(619,1374)" d="m0 0h56l270 1 21 1 1 1-2 47-5 84-2 30h-1l-1-9-6 6-10 1-5-1-7-1h-95l-63-1-4-1h-73l-10 1-3 1-2 5-4 6-4 8-5 12-4 8-3 8-5 12-7 17-5 11-3 8-5 12-6 13-9 21-7 16-6 12-10 21-8 14-5 11-5 8-4 3-14 3-33 3h-12l-11 1-25 1h-106l-16 1-48 1-22-1-34 1h-130l-19-5-14-2-4-2-19-3-8-4-8-3-8-4-7-3-4-2-1-2-15-9-2-1-5-9-5-5-3-2v-23l11-20 4-8 9-4 21-9 15-5 21-5 27-4 32-3 37-2 31-1h229l40-1 18-1 10-4 3-5 16-34 8-18 7-16 11-25 11-26 13-31 9-21 12-27 10-22 6-15 6-8z" fill="#C19949"/>
<path transform="translate(956,1523)" d="m0 0h1v21l-2 33-2 21v20l1 1 10 2 63 2 2 2-2 17-1 49-1 35-1 24v9l6 1 19 2 11 1 15 1 3 2 25 2 22 1 15 1 6-1 5 1h9l5-1 16 1 4-1 6 1h35l6 1 11-1h13l6 1h16l39 2 9 2 16 1 9 2 74 1v1h-219l-283-1h-91l-507 1h-140l-34-1-27-2-26-4-28-7-19-7-19-10-11-8-15-14-6-5v-8l5 1 3 5 5 7 2 3 10 6 10 7 8 4 10 4 13 6 19 3 4 1v2h10l16 4 9 2h132l33-1 21 1 48-1 15-1h108l27-1 11-1h9l23-2 12-2 12-3 4-5 26-52 7-15 11-24 4-10 5-11 25-60 4-10 5-10 3-8 7-13 4-6 3-2 15-1h69l6 1 77 1h79l10 1 4 1 7-1 3-3h2z" fill="#E0BA5E"/>
<path transform="translate(1504,1480)" d="m0 0h6l2 1v2l7 1 2 9 1 14 4 111 4 66 2 24 1 21 1 15 2 34v48l-1 9-4 6-1 1h-9l-12-6-8-6-4-2-7-5v-2l-4-2-10-9v-2l-5-2v-2l-4-2-9-9-5-7-8-6-5-1-4-1v2l-85-1-9-2-16-1-9-2-45-2h-11l-10-1h-14l-6 1-7-1h-35l-5-1-7 1-13-1-6 1h-10l-5-1-4 1-15-1-21-1-25-2-5-2-18-1-10-1-15-2-6-2-1-9 1-31 1-36 1-45 2-13-1-1-63-2-3-2 104 2h291l44-1 17-1 5-2v-78l1-13 1-1 12-1h12l12-4 8-6 15-16 7-8 8-8h4v-2z" fill="#C19949"/>
<path transform="translate(1016,502)" d="m0 0 4 1 1 10-3 32-5 43-3 45-3 55-3 49-3 34-2 79-3 67-5 91-4 80-2 10-2 2-6 1-21 1h-164l-55-1-1-4 8-15 9-16h2l2-9 19-41 16-34 15-33 17-36 14-30 17-36 18-39 13-28 14-30 11-23 8-18 11-24 7-15 9-20 24-52 9-21 9-20 10-21 10-19 7-14z" fill="#C19949"/>
<path transform="translate(955,220)" d="m0 0h3l-1 4-6 3 1 3 3 2v2h-2l-1 4 1 6v5l-9 3-2 5-6 3-1 5h-2v2h-3v4l2 1-7 6-5 2-1 4-6 7-3 1-3 6-8 7-3 1v2l-4 4 1 4h-3l-5 2-6 9-5 4v2h-2v2l-4 2-3 3-5 2-4 11-4 2-2 3-2-1 1 3-5 6-12 6-1 4h-3v2h-2l-2 5-2 2-8 1-2 5-1 2h-2v2l-14 7h-2v3l-6 5-6 8h-2l-2 4-2 5h-2v3h-2l-2 6-4 5h-2l-2 4-5 4-7 12-8 9-3 6-4 5-3 3-7 11-4 5-7 12-3 4-5 10-3 1-1 5-5 7-4 9h-2l-1 5-5 7-4 8h-2l-1 4-5 7-3 8-5 8-5 9-1 4h-2l-1 4-3 7h-2l-1 5-5 10-3 5-7 14-6 10-7 12-4 7-7 13-6 11-6 10-4 8-6 9-2 7h-2l-2 6h-2l-2 6-6 9-6 11-4 7-3 4-3 7-4 7-5 8-2 5-3 3-14 22-7 10-2 6h-2l-2 6-3 6h-2l-1 5-6 10-1 3h-2l-2 6-5 8-3 6-5 8-8 14h-2l-1 5-2 3h-2l-2 6-4 8-3 5-7 10h-2l-2 5-9 17-4 4-3 8-4 5-1 3h-2v3h-2l-2 6-5 7-4 8-9 15-4 8-6 8-3 7-4 6h-2l-2 6-12 18-6 11-8 12h-2l-2 6-4 6-3 4-3 6-3 5h-2l-1 5-8 11h-2l-1 4-3 5h-2l-1 7-3 3-1 2h-2l1 3-4 4-6 11-3 3-2 7h-2l-2 7-5 6-4 8-6 5-4 5-4 3-2 7-4 3h-2l-3 9-6 8-3 1-3 9-2 3h-2l-2 4-15 20-3 5-7 8-5 10h-2l-2 5-3 5h-2l-2 5-6 9-5 10-5 7h-2l-1 5h-2v2l-3 3-7 16-6 5-2 10-5 8-3 2-1 4h-2l-1 2-7 7-2 5-6 4-4 5h-3v6h-2v3l-2 1v3h-3l1 3-1 3h-2l-1 6-3 3h-3l2-6 13-24 28-52 12-22 10-19 11-19 6-12 10-17 7-14 12-22 9-16 7-14 12-22 16-30 12-22 15-28 9-16 16-30 10-18 11-20 7-14 12-22 30-56 9-16 24-44 30-56 13-24 14-26 26-48 12-22 7-12 7-14 12-22 14-26 15-28 13-24 12-22 12-23 13-23 17-32 9-16 14-24 8-13 10-15 13-18 8-10 7-9 11-14 9-10 7-8 9-10 17-17 11-9 11-10 17-13 21-16 15-10 19-12 19-11 23-12 19-9 31-12z" fill="#5F6372"/>
<path transform="translate(1400,1086)" d="m0 0h1l1 5 1 15 1 3 1 11 2 52 2 41 1 27 2 29h-2l1 6 4 100 2 44 2 66 2 32v8l3 1-1 14v78l-2 2-4 1-17 1-44 1h-291l-94-2-17-1-1-1v-10l6-2 1-3 5-2 1-8 8-3 7 1v2l10-2 9-1 4-1h7l2-4 7-1 6 2h8v-3l5-2 4 2 7-1 10-2h8v-2l6-1 8 1v-2l4 1 3 4 3-1 1-4 4-1v2l2-1h8l5 3 1-4 6 2 11-1 4-2 9 1 3-1 4 1 5-2 6 2h2v-2l8-1 2-2 5 1h3l1-1h5l5 2 2-1v2h12l4 1h8l9-3 8 2 3-2 10 2 15-2 7-1h11l5 1h14l10 1 9-1 1 1 13 1h10l8-2 8-1-1 4h4l1-3 3-1v-5h5v-2l4-1-2-5h2l-2-4 1-1 1-15h2l-1-5 1-2h2l-1-8h2l-1-5 2-4v-3h-2l-2-6 4-2-1-3h-3l-1 2-2-1 1-3 6-2-1-5-5-4 1-3 3-2 1-3-2-1 1-3-1-4 3-3v-5h-2l1-5 2-2-1-4-2-3 3-5v-14l2-4 4-17 1-9 1-1v-16l2-3-2-7 2-8v-11l1-13-2-30-1-12v-68l3-43v-9l2-32v-10l1-10v-19l1-17 2-3z" fill="#272930"/>
<path transform="translate(495,1628)" d="m0 0 4 1-3 1-14 1-30 1-90 1-24 1v3h-4l2 4-3 2-3 7-2 9-3 8-4 2-1 4-5 8-3 2-3 7-3 3-2 5-6 7-2 6-5 4-3 8-4 3-3 2-6 5-7 5-10 2-4 3-7 3-5 2-16 2-11 3-11 1-7 1-36 3-2-1h-17l-7-1h-11l-3-1-11-2-18-2-7-2-9-1-16-6-5-2-9-4-6-3v-2l-4-1-4-3v-2l-4-1v-3h-2l-1-5-4-2-3-8-3-3-6-18-3-1 1-6 8-15 9-4 21-9 15-5 21-5 27-4 32-3 37-2 31-1h229l40-1z" fill="#886429"/>
<path transform="translate(753,1345)" d="m0 0h32l17 1 6-1 25 1 9-1 10 1 4-1 5 1 1-1h6l6 1h20l8 1 16 1 33 1 11 2 5 2v4l-3 2 3 10 1 7-293-1h-56l-6 7-6 14-7 16-20 45-13 31-11 26-7 16-9 21-14 31-12 26-7 15-8 5-4 1-18 1-40 1h-229l-52 2-39 3-30 4-19 4-14 4-19 7-17 8h-2l1-5 10-19 2-3 17-5 12-4 13-4 10-3 10-4 10-2v-2l19-6 3-1 26-3 22-1h14l21-1h46l27-1 9-1 25-1 28-2h26l27 1h15l20 1h17l5-1h10l10-3 5-4h5v-5l5-3 4-10 4-4 3-8 4-3 3-11 2-2 2-9 4-10 15-30 3-4 3-9 5-10 3-7 5-9 5-10 2-2 4-11 3-9 5-6 5-10 5-13 6-12 4-5 3-5 4-4 5-8 8-6 11-5h28l31-1h15l52-1z" fill="#272930"/>
<path transform="translate(868,260)" d="m0 0 2 1-1 3-5 1-2 5-6 8-2 6-9 14-7 10-5 4-4 6-3 1-1 6-3 4h-2l-2 5-5 8-3 1 1 3h-2l-2 4-7 9-2 4h-2v3h-2l-1 5-3 3-9 14-5 7-3 6-5 6-5 8h-2l-2 6h-2l-1 4-3 5h-2l-1 5-4 6h-2l-2 5-6 8-6 11-4 5-6 10-2 5-3 5-5 6-5 9h-2l-2 7-3 6-2 1-3 6-6 9-6 7-3 6-10 15h-3l-2 7-7 10-1 3h-2l-3 9-4 4h-2l-1 5-9 15-3 4-6 10-2 6-2 3h-2l-2 5-5 6-2 6-5 5-4 8-4 4-3 6-3 1-1 6h-2l-1 4h-2l-3 9-6 7-1 3h-2v2l-5 5-3 6-4 4-5 10-5 7-5 2-1 5-9 11-5 7-4 7-5 8-8 11-5 10h-2l-1 4-8 13-5 8-2 6h-2l-2 5-4 7-3 5h-2l-1 4h-2l-2 6-2 3h-2l-2 5-6 7-3 7-7 7-6 10-8 10-3 6-9 11-4 7-3 5h-2l-3 6h-2l-2 6-6 8-4 10-4 6-4 7-4 5-3 8-4 9-2 1-3 7h-2l-2 4-3 7h-2l-2 9-6 11-2 3h-2l-2 6h-2v2h-2l-1 3-4 1-1 3h-2l2-6 12-22 30-56 24-44 10-18 16-30 12-22 16-30 12-22 15-28 12-22 13-24 24-44 16-30 12-22 12-23 11-19 8-16 36-66 13-24 13-23 14-23 10-15 13-18 8-10 7-9 11-14 9-10 7-8 9-10 17-17 11-9 11-10 17-13 21-16 15-10 19-12z" fill="#727888"/>
<path transform="translate(1403,1013)" d="m0 0h61l40 1-4 4-1 10 1 26 1 17 1 36 1 33-1 2v12l1 24v17l1 27v13l-2 17-5 12-4 3h-31l-1-1-15-2-5-3-9-2-6 1-4-2-8-1v11l-2 1-2-16-1-13-2-51-2-39-3-88v-46z" fill="#C29A4A"/>
<path transform="translate(1382,501)" d="m0 0h79l10 1-1 12 1 21 1 29 2 28 1 10 1 15-1 5 3 39 3 56v11l-1 11-5 3-2 1h-65l-14 1v12l-3-1-2-20-3-63-4-104-1-34v-25z" fill="#C29A4A"/>
<path transform="translate(989,853)" d="m0 0 3 1 1 3 1 34-1 21-1 51-1 3-2 35-1 27-4 57-3 9-7 2-20 1-46 1-26-1-7-1-3-5 4-13 3-6 3-8 8-16 9-17 9-20 7-14 8-17 10-22 5-12 8-18 7-15 5-12 5-11h2l1-4 4-9 8-15 5-5z" fill="#E0BA5E"/>
<path transform="translate(495,1628)" d="m0 0 4 1-3 1-14 1-30 1-90 1-24 1v3h-4l2 4-3 2-3 7-2 9-3 8-4 2-1 4-5 8-3 2-3 7-3 3-2 5-6 7-2 6-5 4-3 8-4 3-3 2-6 5-7 5-10 2-4 3-7 3-5 2-16 2-11 3-11 1-7 1-36 3-2-1h-17l-7-1h-11l-3-1-11-2-18-2-7-2-9-1-16-6-5-2-9-4-6-3v-2l-4-1-4-3v-2l-4-1v-3h-2l-1-5-4-2-3-8-3-3-6-18-3-1 1-6 3-3 1 3 4 2 4 3 3 12v2l4 2 4 7 2 5h2v2l4 2 1 3h2v2l9 3 9 2 3 3 14 3 16 2h7l5 1h20l3-1h16l4-2h7l16-5 4-1 1-2 3-1 2-3h2l1-4h2v-3l7-2 3-6 7-6 2-4 5-2v-7l2-3 5-1 1-5 4-5v-5l3-5 4-3h2l1-4 3-3h2v-2l5-2 1-5 6-1 2-7 2-2 26-1 159-1 40-1z" fill="#987332"/>
<path transform="translate(362,1632)" d="m0 0h89v1l-52 1-5 1-1 3 6 4 3 8-3 2 1 13 1 5-1 2h-3l4 6-1 6-3 8-1 4-3 2-1 9-3 5-3 3v6l-1 1h-5l-1 8-6 3-7 6-7 3-5 3-15 6-12 3-18 3-25 3-28 1-10 1h-15l-7 1-4-1h-11l-10 1h-22l-8 1-29-1-8-1-27-3-7-2-10-3-15-2-9-3-9-4-16-8-3-1-2-5-5-2-9-10-6-10-5-12-3-5v-3l-3-1 1-5 2-1v2l4 1 6 18v2l3 1 4 9 3 3v3h2v3l4 1 5 5 3 1v2l6 2 9 4 5 2 16 6 13 2 12 2 11 1 11 2 5 1h10l5 1h16l3 1 39-3 3-1 11-1 13-3 15-2 7-4 7-3 12-4 10-7 1-3 7-3 4-9 5-4 2-6 6-7 2-5 3-3 3-7 4-3 4-7v-4l5-1 1-7 2-4 2-8 3-6 2-2-1-3h4v-3l2-1z" fill="#B28C40"/>
<path transform="translate(619,1376)" d="m0 0h12l11 1 6 3 12 2 3 2-13 2-8 4v4h2v5l-5 3-1 2h2l1 3-2 3h-3l-2 7-4 6v5l-1 2 2 1-1 4-4 6h-4l-4 9-4 7-2 1 1 6-5 5-2 7-5 2-1 5h2v5l-3 2h-4l-3 5-2 7-1 4 3 1v7l-5 4-7 3-3 6h-2l-2 5-3 2 3 3-3 5 1 3-2 1-1 4-2 1-1 3h-2v2l-2 1-3 6v6l-3 3v4h-2l-1-2-3-1v2h-2v3h-2v5l-3 6h-2l-2 6-8 11-3 3-1 3-13 13-5 1 2-7 3-11 14-30 12-27 11-25 11-26 13-31 9-21 12-27 10-22 6-15 5-5z" fill="#CEA650"/>
<path transform="translate(564,1362)" d="m0 0 1 2-6 12-3 3-4 8v5l-3 1-3 10h-2l-2 5-3 8-5 5h-2l-1 9-6 6-4 2-4 6-1 5-4 3v6l-5 1-6-1 3 7v5l-3 3h-9l-1 3-3 1v-2l-8 5-5-5-4 2-5-1-7 3-3-7-3-1-2 1-1-4 1-4-1-3-5 1 1 3-2 1-3-2h-6l-7 3-4-1-6-3v2l-5 4h-2v-2l-9-1-7-2-2 5-5 1-1-2-7 1-2 3h-2v2l-5 3h-7l2-1v-2l5-1 1-6 1-2 8-2 1-4h2l1-2 1 4v-2h6l1-2 7-1 1 1 4-7 6-3 1 4 3 2 1-1-3-3 3-3 4 1 2 3-2 2v3l6-3h10l2-5 4 1v2l6-2 5-5 2-7 5 1v-3l9-2-3-1v-2h-4l-5-1-2-5 5-6 4-2 4-1 10-2 5-3 4 3v4h2v2l5 1v4h2v6l-1-2h-2l-1 3h-2l1 2 7 1v-2l4-4-2-4v-2l-3-2v-2h-2v-2l5-3 5 3 8 1 3-3 6 2v-2h2l-4-6v-2l2-1-1-2 6-2 1-2-4-2 4-1 3-5 9-3v2h-2l-1 2-4 2-1 5 2 1-2 4h-2l-2 8-1 6h2v-7l3-5 7-2 1-6h4v-6l4-4h2l2-5v-8l3-3 5-1z" fill="#272930"/>
<path transform="translate(1027,1631)" d="m0 0h1l1 7v28l-1 17v35l-1 24 1 10 8 5 14 2 30 2 38 2h15l16 1h100l16 1h66l26 2 21 2 30 4h22l3-2 11 1 10 7 4 5v2l4 2 11 8v2l5 2 6 4 5 5 2 1v2l4 2 12 8h3 13l3-6 4-2 2-10v-12l1-8-1-4 1-5-1-32 2 1 2 34v48l-1 9-4 6-1 1h-9l-12-6-8-6-4-2-7-5v-2l-4-2-10-9v-2l-5-2v-2l-4-2-9-9-5-7-8-6-5-1-4-1v2l-85-1-9-2-16-1-9-2-45-2h-11l-10-1h-14l-6 1-7-1h-35l-5-1-7 1-13-1-6 1h-10l-5-1-4 1-15-1-21-1-25-2-5-2-18-1-10-1-15-2-6-2-1-9 1-31 1-36 1-45z" fill="#D0A852"/>
<path transform="translate(1387,750)" d="m0 0 4 1 1 6v21l4 113 3 84v39l-5 6-7-4-3-7-2-23v-64l-1-25 1-20v-91l1-9 1-5v-7l-1-5 2-7z" fill="#292B32"/>
<path transform="translate(825,892)" d="m0 0 2 3 1 6-2 10-14 29-15 33-16 34-15 33-9 19-2 7h-2l-2 6-10 17-4 8-5 1-4-3-1-9 3-5 4-14 5-12 12-30 5-5 6-12 5-9 1-4h2l2-4 4-5 2-8 10-19 7-14h2l2-8h2l3-9 3-3h2l1-6h2l3-10 4-9z" fill="#282A31"/>
<path transform="translate(1757,832)" d="m0 0h11l4 1h12l8 1h8l2 1h16l6 2 7 1 2 2 7 1-4 2 1 4-1 2-30 7-22 3-15 1h-14l-24-2-24-5-10-4v-4l10-5 15-4v-1l12-1 19-1z" fill="#C39B4A"/>
<path transform="translate(1016,502)" d="m0 0 4 1 1 10-3 32-5 43-3 45-3 55-3 49-3 34-2 79-3 67-5 91-4 80-2 10-2 2-6 1-21 1h-164l-55-1-1-4 3-3-1 5 140 1h70l28-1 6-2 2-7 4-60 3-67 4-83 1-45-1-3v-20l4-59 5-63 3-48 3-44 1-22v-24l-2-16-4-5-6 10-8 16-7 15-6 14-6 13-7 16-10 21-4 11-8 16-9 20-10 21-7 15-8 18-4 5 1-5 8-17 13-28 6-14 4-8 9-20 24-52 9-21 9-20 10-21 10-19 7-14z" fill="#997433"/>
<path transform="translate(1692,1345)" d="m0 0 1 2 6-1h18v2h12l9 1v1l10 3 5 2-1 2 1 5-1 2-31 6-22 2h-22l-20-2-18-4-2-4 3-7h2l1-2 8-3 10-2 9-1 7-1h14z" fill="#C39B4A"/>
<path transform="translate(1e3 530)" d="m0 0 4 4 1 2 2 16v24l-3 52-2 27h-1v-35l-2-15-6 1-1-7-4-1v2l-5 3-4-2h-3l-4-1-3 10-3 8h-2v3h-2v5l-4 10-8 11-3 5v3h-2l-1 6-3 6-3 3-3 6-3 8-2 2-3 9-3 7h-3l-1 4-2 1 1-5 13-27 7-16 8-16 4-11 14-30 6-15 6-12 7-16 8-16 5-9z" fill="#B28C40"/>
<path transform="translate(1010,485)" d="m0 0 2 1v8l-3 16-2 7-2 5-1 4-22 46-13 30-13 28-9 20-8 17-5 5-5 3-2 1v-7l4-11 3-7h2l2-7 6-15 5-13 5-8 4-10 4-11 1-5h2l3-10 5-12 3-9 5-9 3-9h2v-5l4-9 6-15 6-10 4-7z" fill="#282A31"/>
<path transform="translate(1475,619)" d="m0 0h1l2 16 2 22 1 26 1 13 1 3 3 30 2 5 2 9 5 3h42l12 2 4 2-10 3h-4v2l-64 2h-83l2-1-1-10 1-2 3-1 15-1h61l6-3 1-19-1-20-2-39-1-14-2-26z" fill="#D0A852"/>
<path transform="translate(857,1376)" d="m0 0h23l85 1v12l-2 13-1 6-3-3v-6l-4-2-2-7-5-1h-21l-16-1-4-1-31-1-14-1-9 1-1-1h-12l-4 1-5-2-2 1h-13l-3-1h-20l-30-4-1-2 32-1z" fill="#CFA751"/>
<path transform="translate(583,1742)" d="m0 0 1 3-6 11-5 4-14 3-33 3h-12l-11 1-25 1h-106l-16 1-48 1-22-1-34 1h-130l-15-4v-1h10l2 1 15 1h125l4-1h47l39-1h15l40-1h26l24-1h40l27-2 35-2 16-3 6-5z" fill="#D0A852"/>
<path transform="translate(1370,270)" d="m0 0h1l1 10 5 127 1 31v51l-4-4-2-5-2-20v-12l-1-4v-59l-1-26-1-18v-30l1-8v-16l1-16z" fill="#2A2D34"/>
<path transform="translate(1382,501)" d="m0 0h4v28l1 26 1 13v22l1 25 1 16 2 10 1 22-1 2h2v19l-2 6v65h-1l-2-20-3-63-4-104-1-34v-25z" fill="#B28C40"/>
<path transform="translate(1015,562)" d="m0 0h1v10l-2 24-1 16v11l2 1-1 14-1 15-2-1-1 25-1 11-2 50h1v22l-2-3v5l2 1-2 50-2 15-2 4 2 2-3 1v31l-1 5-1 6v18l-1 5v14l-2 1v-18l2-47 2-79 3-34 4-63 3-59 3-37z" fill="#5C606E"/>
<path transform="translate(1016,502)" d="m0 0 4 1 1 10-3 32-5 43h-2v-36l-2-16-4-5-6 10-8 16-7 15-6 14-6 13-7 16-10 21-4 11-8 16-9 20-10 21-7 15-8 18-4 5 1-5 8-17 13-28 6-14 4-8 9-20 24-52 9-21 9-20 10-21 10-19 7-14z" fill="#977232"/>
<path transform="translate(861,1376)" d="m0 0 104 1v12l-2 13-1 6-3-3-2-13-2-5-7-2-42-2-37-1h-9l-7-1-4 1-6-1h-3l-12-2v-1l33-1z" fill="#E0BA5E"/>
<path transform="translate(1757,832)" d="m0 0h11l4 1h12l8 1h8l2 1h16l6 2 7 1 2 2 7 1-4 2 1 4-1 2h-3l-1-4-9-2-36-3h-44l-18 1-15 5-4 3v3l-9-3v-4l10-5 15-4v-1l12-1 19-1z" fill="#D0A852"/>
<path transform="translate(1692,1345)" d="m0 0 1 2 6-1h18v2h12l9 1v1l10 3 5 2-1 2 1 5-1 2h-5l-2-4-13-4-11-1-6-2-29-1-23 2-5 2-7 2-5 1-2 5-1 2-5-1-1-3 3-7h2l1-2 8-3 10-2 9-1 7-1h14z" fill="#D0A852"/>
<path transform="translate(1403,1618)" d="m0 0h19l-1 2-4 1-17 1-44 1h-291v-1l100-1h55l26-1h104v-1h53z" fill="#4E525E"/>
<path transform="translate(921,689)" d="m0 0 1 4 1 3-1 7-2 6-12 26-10 21-7 14-4 2-4-3 3-10 6-7 6-12v-1l1-9 3-6 3-1 2-9 5-6 5-18z" fill="#272A31"/>
<path transform="translate(995,904)" d="m0 0h1v13l-5 91-4 80-2 10-2 2-6 1-21 1h-164l-55-1-1-4 3-3-1 5 140 1h70l28-1 6-2 2-7 4-60 3-67 3-58z" fill="#997433"/>
<path transform="translate(1502,1141)" d="m0 0h1l1 34 1 23v48l-2 17-1 3-5 2-59 1h-25l1-12h8l4 2 8-1 10 3 2 2 15 2 1 1h31l4-2 3-10 2-8 1-19v-15l-1-21v-15l-1-28v-6z" fill="#D0A852"/>
<path transform="translate(1026,470)" d="m0 0h2l1 7 2 2v3h2l1 5-3 1 1 4 2-1v7l-4 3-4 8v15l-2 11h-2l1 10-4 2-1-10 2-29-1-5-5 1 3-10 3-12z" fill="#5E6271"/>
<path transform="translate(654,1368)" d="m0 0h13l3 2 42 1 32 1v1h154v1l-5 1h-218l-33-1-15-1 4-2 4-1h11l7-1z" fill="#434751"/>
<path transform="translate(1424,1526)" d="m0 0 1 3v91l-5 3-12 1-76 1h-49l-104-1v-1l177-1 44-1 17-1 5-2v-78l1-13z" fill="#936E2F"/>
<path transform="translate(1403,1013)" d="m0 0h1l2 80 3 65 2 72 2 30v9l-2-4-2-25-2-51-2-39-3-88v-46z" fill="#906B2D"/>
<path transform="translate(1504,1480)" d="m0 0h6l2 1v2l7 1 2 9 1 14v20h-1l-2-20-3-7-12-3h-5v-2l-11 4-2-1v2l-4 1 4-6 12-12h4v-2z" fill="#D0A852"/>
<path transform="translate(358,1627)" d="m0 0h9l1 1h13l17-1 69 1 10 1v1l-40 1h-66l-148-1-13-1v-1h148z" fill="#464A54"/>
<path transform="translate(1382,501)" d="m0 0h2v22l2 76 3 66 1 47 1 22 1 2v19h-1l-2-20-3-63-4-104-1-34v-25z" fill="#936E2F"/>
<path transform="translate(1395,746)" d="m0 0 9 1 1 4h8l15 2h20l6-2h15l7 3-1 3h-83l2-1v-8z" fill="#E1BB5F"/>
<path transform="translate(1e3 533)" d="m0 0 1 4-9 17-11 25-9 20-7 16-10 21-4 11-8 16-9 20-10 21-7 15-8 18-4 5 1-5 8-17 13-28 6-14 4-8 9-20 24-52 9-21 9-20 10-21z" fill="#906B2D"/>
<path transform="translate(1424,1556)" d="m0 0h1l1 23 1 10v15l-1 17-6 4-17 2h-32l-95-1-39-1v-1h111l60-1 12-1 4-2z" fill="#B28C40"/>
<path transform="translate(1404,1013)" d="m0 0h2l2 3v3l2 1-2 7h-1v11l1 7-1 7 1 11v44l3 50v21l-1 23h-1l-1-45-3-63-1-46z" fill="#B28C40"/>
<path transform="translate(558,1515)" d="m0 0 2 2-5 15-5 11-4 10-3 7h-2l1 3-7 13-4 1v-8l8-18 11-25 2-4h3l1-5z" fill="#D4AE57"/>
<path transform="translate(654,1368)" d="m0 0h13l3 2 42 1 32 1v1h-54l-1 1h-47l-15-1 4-2 4-1h11l7-1z" fill="#3B3F48"/>
<path transform="translate(1601,1871)" d="m0 0h7l3 2-1 1 6 2 1-2 9 3 1 6h-31l-3-2 2-5 3-3z" fill="#C49C4B"/>
<path transform="translate(817,1096)" d="m0 0h16l35 2 3 2h-129v-1l21-1h16l13-1z" fill="#B28C40"/>
<path transform="translate(738,1094)" d="m0 0 1 2-1 3 140 1 3 2h-89l-55-1-1-4z" fill="#916D2E"/>
<path transform="translate(1382,501)" d="m0 0h2v22l1 42v53h-1l-3-84v-25z" fill="#8D682C"/>
<path transform="translate(718,1529)" d="m0 0h19l5 1 17-1 4 1h24l4 1 45 1-3 2-63-1-4-1h-57l-1-2z" fill="#D0A852"/>
<path transform="translate(906,733)" d="m0 0 2 2-10 21-7 14-4 2-4-3 3-10 6-7 4 1v-2h2l2-6z" fill="#3D414A"/>
<path transform="translate(683,1378)" d="m0 0h12l19 1v3l-13 2h-10l-7-1-4 2-14-1 4-3 7-2 6 1z" fill="#CFA751"/>
<path transform="translate(957,1508)" d="m0 0h1v30h-1l-1-9-6 6-10 1-5-1-7-1h-15l4-2 8-1 11 1h10l5-6h2l1-7 2-5z" fill="#CCA450"/>
<path transform="translate(530,1578)" d="m0 0h2v6l-4 9-4 7h-3l-2 9h-2l-2 5h-2l2-6 2-4 2-9 4-8 3-3z" fill="#D5AE57"/>
<path transform="translate(946,650)" d="m0 0 1 3-11 26-12 25-7 15-8 18-4 5 1-5 8-17 13-28 6-14 4-8z" fill="#8F6B2D"/>
<path transform="translate(619,1376)" d="m0 0h6l2 3-6 5-5 8-3 5-2 1-1-6 2-10z" fill="#DDB65C"/>
<path transform="translate(1454,751)" d="m0 0h15l7 3-1 3h-27l-3-2 5-3z" fill="#E0BA5E"/>
<path transform="translate(1500,1014)" d="m0 0 4 1-4 3-1 10 1 26 1 17v9h-2l-1-20-2-22v-17l3-6z" fill="#D0A852"/>
<path transform="translate(2016,679)" d="m0 0 5 1-3 9-6 11-4-4-1-3 2-5h2l2-6z" fill="#D0A852"/>
<path transform="translate(1503,1246)" d="m0 0h1v12l-2 8-5 2h-39v-1l35-1 4-2 3-10z" fill="#D5AE56"/>
<path transform="translate(0,1706)" d="m0 0 1 2h2l2 5h2v3h2v2l3 1 3 5 2 2 6 7 1 2-5-2-6-3-5-9-5-5-3-2z" fill="#D0A852"/>
<path transform="translate(1601,1871)" d="m0 0h7l3 2-1 1 6 2 1-2 9 3v2l-4 1-5-2-11-1-1 1-10 1v-3l3-3z" fill="#D0A852"/>
<path transform="translate(1403,1618)" d="m0 0h19l-1 2-4 1-17 1h-43v-1l13-1 1-1h32z" fill="#4F535F"/>
<path transform="translate(390,1627)" d="m0 0 46 1v2h-57l2-2z" fill="#3A3E46"/>
<path transform="translate(986,851)" d="m0 0h5l2 2-1 4-1-3-5 2-4 3h-2l-2 5-8 15-5 11h-2l-1 5-5 10-1-3 8-17h2l1-6 6-12h2l1-4 6-9z" fill="#D0A852"/>
<path transform="translate(957,1558)" d="m0 0h1l1 12v17l-1 2h-2l-1 3h-1v-15l1-13z" fill="#2A2C34"/>
<path transform="translate(999,846)" d="m0 0h1l1 5v15l-1 5-1 6v18l-1 5v14l-2 1v-18l2-47z" fill="#5F6372"/>
<path transform="translate(666,1557)" d="m0 0 1 4-6 12-3 8-5 12-7 17-5 11-1-2 13-32 4-12 7-14z" fill="#D0A852"/>
<path transform="translate(1382,501)" d="m0 0h2v22l1 35-1 7h-1v-31h-2v-25z" fill="#947030"/>
<path transform="translate(1417,1259)" d="m0 0 8 6 6 2 7 1v1h-25l1-9z" fill="#E1BB5F"/>
<path transform="translate(1385,599)" d="m0 0h1l2 43v23h-1l-1-15-1-2z" fill="#957030"/>
<path transform="translate(130,1447)" d="m0 0 4 2h-3v6h-2v3l-2 1v3h-3l1 3-1 3h-2l-1 6-3 3h-3l2-6z" fill="#616572"/>
<path transform="translate(177,1575)" d="m0 0 1 4 1 3-1 2h-10l-5-3h-3v-2l3-1 6 1z" fill="#272930"/>
<path transform="translate(890,755)" d="m0 0 2 3v6l-3 5-1 3-5-2 3-11z" fill="#272930"/>
<path transform="translate(1009,650)" d="m0 0h1v27l-1 11h-2v-14l1-23z" fill="#5F6372"/>
<path transform="translate(564,1362)" d="m0 0 1 2-6 12-3 3-3 6h-2l1-7 1-5 4-2 3-1z" fill="#272930"/>
<path transform="translate(985,1096)" d="m0 0h2l-1 4-4 2-12 1h-30v-1l37-2 7-2z" fill="#5F6372"/>
<path transform="translate(1006,779)" d="m0 0h1l-1 34-2 10h-1v-18l2-22z" fill="#5F6372"/>
<path transform="translate(1011,627)" d="m0 0h1v9h2l-1 17-4-3v-16z" fill="#585C6A"/>
<path transform="translate(919,704)" d="m0 0 3 1-8 17-3 7-2-1 1-6 4-9z" fill="#3B3F48"/>
<path transform="translate(873,791)" d="m0 0 1 3h2v4l1 3-3 3-4 3-2-5 1-5z" fill="#282A32"/>
<path transform="translate(1e3 533)" d="m0 0 1 4-9 17-6 13-2 1 1-5 13-27z" fill="#8F6B2D"/>
<path transform="translate(1468,513)" d="m0 0 2 1 1 21 1 24-2 1-1-10v-14l-1-9z" fill="#D0A852"/>
<path transform="translate(481,1425)" d="m0 0h4l2 5-3 2h-6l2 6-4-2v-4l-5-1v-1h8v-4z" fill="#3F434C"/>
<path transform="translate(839,862)" d="m0 0 1 3 2 1-3 9-5 4-2-2z" fill="#272930"/>
<path transform="translate(152,1579)" d="m0 0h2l-1 4 7-2-1 3-10 2-8-1 3-2-1-2z" fill="#272930"/>
<path transform="translate(722,1379)" d="m0 0 18 1-1 3h-18l-3-2z" fill="#D0A852"/>
<path transform="translate(2017,681)" d="m0 0h3l-1 6-6 11-3-1v-4h2l2-4z" fill="#C69E4C"/>
<path transform="translate(1966,1102)" d="m0 0h1v15l-2 16h-1v-19l1-10z" fill="#C09949"/>
<path transform="translate(1016,502)" d="m0 0 4 1 1 10-2 24h-1v-31l-3 1-2 2 1-5z" fill="#886429"/>
<path transform="translate(1433,1525)" d="m0 0 3 1-7 9-3 1v-10z" fill="#E1BB5F"/>
<path transform="translate(904,745)" d="m0 0 1 3-5 12-8 16-3 3 3-9 10-21z" fill="#B28C40"/>
<path transform="translate(488,1462)" d="m0 0h6l-1 4-1 2-5 1h-3l-3-2 2-3 4-1z" fill="#40444D"/>
<path transform="translate(1424,1580)" d="m0 0h1v40l-2 2-6-1 4-2 3-1z" fill="#967131"/>
<path transform="translate(946,650)" d="m0 0 1 3-11 26h-1v-5l6-13z" fill="#8E692C"/>
<path transform="translate(920,711)" d="m0 0 1 3-5 13-6 10-1-3 8-17z" fill="#B28C40"/>
<path transform="translate(822,914)" d="m0 0 2 1-9 19h-2l3-9 3-8h2z" fill="#3A3D46"/>
<path transform="translate(130,1447)" d="m0 0 4 2h-3v6h-2v3l-2 1v3h-4l2-5z" fill="#626676"/>
<path transform="translate(891,1044)" d="m0 0 1 2-8 17-4 5 1-6 4-8 5-9z" fill="#D0A852"/>
<path transform="translate(1377,926)" d="m0 0h1l1 14-1 8-1 4-1-3v-15z" fill="#272930"/>
<path transform="translate(888,779)" d="m0 0 1 3-5 13-5 8-1-2z" fill="#B28C40"/>
<path transform="translate(924,1531)" d="m0 0 10 1 1 3-7-1h-15l4-2z" fill="#D0A852"/>
<path transform="translate(906,733)" d="m0 0 2 2-7 15h-2l1-5z" fill="#3B3F47"/>
<path transform="translate(1403,1618)" d="m0 0h19l-1 2-4 1h-12z" fill="#464A55"/>
<path transform="translate(677,1536)" d="m0 0 2 1-5 8-4 8-1-3 3-8h2l2-5z" fill="#D0A852"/>
<path transform="translate(1729,1409)" d="m0 0h9l5 2v2l-9-1-5-1z" fill="#C8A04E"/>
<path transform="translate(610,1386)" d="m0 0h1l-1 9-4 9h-2l1-5z" fill="#A8823B"/>
<path transform="translate(520,1600)" d="m0 0 1 2-2 7h-2l-2 5h-2l2-6z" fill="#E0B95E"/>
<path transform="translate(944,650)" d="m0 0 2 2-7 15-2-1 2-6z" fill="#3B3E47"/>
<path transform="translate(195,1568)" d="m0 0 2 1-7 3-9 3-1-2 4-3z" fill="#272930"/>
<path transform="translate(468,1419)" d="m0 0 4 1-1 2-3 2v3h-4v-5h3z" fill="#40444D"/>
<path transform="translate(543,1542)" d="m0 0h1v5l-5 11h-2l3-10z" fill="#A7813A"/>
<path transform="translate(634,1370)" d="m0 0 10 1-2 2h-15l4-2z" fill="#40444D"/>
<path transform="translate(426,1455)" d="m0 0h2v4h-2l-1 3h-5v-3l4-2z" fill="#40444D"/>
<path transform="translate(951,643)" d="m0 0 1 2-4 9-3 5-1-2 5-13z" fill="#957030"/>
<path transform="translate(544,1376)" d="m0 0h2l-2 5-1 3h-2l-1 3-1-6h2v-2h2z" fill="#272930"/>
<path transform="translate(149,1630)" d="m0 0h2v2h5v1h-11l-7-1v-1z" fill="#40444D"/>
<path transform="translate(574,1354)" d="m0 0h1v6l-6 1-2-2 6-3z" fill="#272930"/>
</svg>
