<?xml version="1.0" encoding="UTF-8"?>
<svg version="1.1" viewBox="0 0 2048 834" width="437" height="178" xmlns="http://www.w3.org/2000/svg">
<path transform="translate(0)" d="m0 0h2048v834h-2048z" fill="#FDFDFD"/>
<path transform="translate(1501,194)" d="m0 0h24l15 2 14 5 9 6 7 9 7 15 14-14 10-7 15-8 20-6 14-2h24l14 2 15 5 10 6 7 8 4 8 2 13-1 17-5 23-35 140-7 14-9 11-12 9-13 6-17 4h-50l4-17 20-81 16-64 4-18v-8l-4-7-6-4-5-1h-11l-9 2-9 6-6 8-5 12-20 79-23 92-1 1h-96l2-11 20-79 19-76 3-15-1-9-4-6-5-3-5-1h-11l-10 3-8 5-7 11-6 20-40 160-1 1h-97l48-192 16-65 1-1h98l-6 24v4l11-12 10-8 17-9 16-5z" fill="#010002"/>
<path transform="translate(441,119)" d="m0 0h59l1 13 5 136 7 185v7l-3 1-109-1 3-50 1-9-82 1-11 26-13 30-2 2h-110l2-6 14-27 12-22 15-28 17-32 30-56 17-32 12-22 13-25 12-22 11-17 12-14 11-10 16-11 16-8 18-6 11-2z" fill="#010002"/>
<path transform="translate(1290,201)" d="m0 0 4 1-15 62-18 71-22 89-9 35-1 1h-96l2-10 4-16v-3l-11 12-14 10-15 7-18 5-8 1h-28l-16-3-12-5-9-6-8-9-4-11v-25l5-23 32-128 13-53 1-1h96l-1 8-40 160-2 9v9l3 8 6 4 4 1h13l10-3 6-4 6-7 5-11 18-71 22-88 4-15z" fill="#010002"/>
<path transform="translate(757,123)" d="m0 0h97l-2 11-11 42-7 26 39-1 1 2-14 55-1 2h-40l-4 19-25 101-1 5v8l6 7 6 1 23 1-4 18-10 39-4 2-18 1h-57l-18-3-11-4-10-6-5-8-2-6-1-7v-8l4-23 27-107 37-147z" fill="#010002"/>
<path transform="translate(618,119)" d="m0 0h95l-2 11-27 109-16 64-16 63-18 73-6 21h-97l16-63 37-148 18-73 14-56z" fill="#010102"/>
<path transform="translate(909,201)" d="m0 0h96l-16 65-16 63-18 73-14 55-2 3h-95l1-8 39-156 18-73 5-19z" fill="#010002"/>
<path transform="translate(823,556)" d="m0 0h55l23 2 13 4 9 7 6 8 4 12v19l-3 19-8 30-8 22-8 15-11 14-10 8-16 8-18 4-13 1h-58l-7-1 11-42 17-67 16-62z" fill="#5169A4"/>
<path transform="translate(1309,596)" d="m0 0h19l10 4 8 9 2 1 1-9 1-2h37l-3 15-17 65-11 43-5 15-9 14-7 7-14 8-15 5-15 2h-17l-14-2-10-4-8-7-4-8-1-9 2-5 1-1h35l3 10 9 3h7l11-4 7-8 5-12 3-12-13 8-10 4-4 1h-18l-11-4-7-7-4-8-1-5v-22l4-20 8-24 9-17 9-11 14-9z" fill="#5169A4"/>
<path transform="translate(1e3 596)" d="m0 0h27l12 3 9 6 7 10 2 7v20l-4 18-3 9-4 1h-71l-4 19v7l3 8 3 3 8 1 11-4 7-8 6-11 2-1h32l1 2-5 13-7 10-5 6-12 9-15 6-11 2h-21l-14-3-10-5-7-8-4-9-1-6v-11l4-22 6-21 10-21 7-9 8-8 14-8 12-4z" fill="#5169A4"/>
<path transform="translate(1590,596)" d="m0 0h27l12 3 9 6 7 10 3 11-1 16-6 25-1 2-4 1h-71l-2 10-1 4v16l4 6 9 2 9-3 7-6 8-14 5-1h30l-1 6-8 16-11 12-11 7-13 5-11 2h-22l-13-3-9-5-6-5-5-9-2-10 1-17 5-22 7-21 8-15 8-10 9-8 16-8z" fill="#5169A4"/>
<path transform="translate(1477,596)" d="m0 0h23l10 4 6 7 3 7v11l-7 30-14 54-5 17-2 3h-31l-6-1 2-10 21-82v-8l-4-4-3-1h-11l-7 3-5 5-4 6-7 24-16 62-3 6h-27l-10-1 2-10 18-71 12-47 1-1h36l-1 9-1 3 15-10 10-4z" fill="#5169A4"/>
<path transform="translate(1123,596)" d="m0 0h30l12 3 9 6 5 6 2 6v12l-2 8-3 2h-31l-1-1v-12l-1-4-6-2h-10l-10 5-5 6v8l4 4 9 4 27 9 9 5 6 7 3 7v11l-4 13-6 10-9 9-14 8-17 5-7 1h-23l-15-3-10-5-6-7-3-8v-12l2-9 2-2h34l1 2-2 4v8l4 5 4 2h14l10-5 5-8v-7l-4-4-12-5-20-7-11-6-7-7-3-6-1-4v-8l3-12 6-10 6-7 10-7 12-5z" fill="#5169A4"/>
<path transform="translate(1741,596)" d="m0 0h15l-1 8-6 20-3 4-21 2-10 4-7 6-5 11-13 50-7 24-2 4h-36l1-9 16-64 13-51 2-6h37l-1 6-1 8 7-6 10-7 7-3z" fill="#5169A4"/>
<path transform="translate(854,583)" d="m0 0 25 1 6 3 6 7 1 3v17l-5 24-8 28-7 16-6 9-8 7-7 3-5 1-23 1-2-1 1-9 22-86 6-21 1-2z" fill="#FDFDFD"/>
<path transform="translate(1211,599)" d="m0 0h39l-4 17-13 51-15 58-2 4h-28l-10-1 4-17 27-106z" fill="#5169A4"/>
<path transform="translate(415,199)" d="m0 0h1l-1 25-6 107-1 4h-56l9-20 36-78 11-25 6-12z" fill="#FDFDFD"/>
<path transform="translate(1318,622)" d="m0 0h10l6 3 4 5 1 7-2 14-5 19-6 15-6 9-9 6-3 1h-9l-6-4-2-5v-14l5-21 6-17 5-9 5-5z" fill="#FDFDFD"/>
<path transform="translate(1592,619)" d="m0 0h10l6 4 3 5v9l-2 10-3 2h-33l-2-1 1-7 6-11 6-7z" fill="#FDFDFD"/>
<path transform="translate(1e3 619)" d="m0 0h9l6 3 3 4v16l-2 6-2 1h-30l-6-1 3-10 7-11 7-6z" fill="#FDFDFD"/>
</svg>
