<?xml version="1.0" encoding="UTF-8"?>
<svg version="1.1" xmlns="http://www.w3.org/2000/svg" width="300" height="300">
<path d="M0 0 C1.55214684 -0.00435758 3.10429153 -0.00954418 4.65643311 -0.01548767 C8.83850623 -0.02877837 13.02048844 -0.02946737 17.20257854 -0.02692437 C20.71096326 -0.02584759 24.21933011 -0.03075611 27.72771096 -0.03552979 C36.01510241 -0.04659128 44.30244851 -0.04708177 52.58984375 -0.04101562 C61.09903813 -0.03498222 69.6080669 -0.0472785 78.11723304 -0.06858569 C85.45865158 -0.08628327 92.80001779 -0.09219016 100.14145684 -0.08894795 C104.5103025 -0.08714745 108.87903008 -0.08964627 113.24785614 -0.10366249 C117.36187971 -0.11636943 121.47564798 -0.11417721 125.58966827 -0.1012516 C127.08586214 -0.09891373 128.58207471 -0.10151819 130.07824707 -0.10987473 C150.05435663 -0.21326231 169.33450613 3.43854296 185.20410156 16.2746582 C186.28111328 17.1428418 186.28111328 17.1428418 187.37988281 18.02856445 C189.3873312 19.71845038 191.30801264 21.46118753 193.20410156 23.2746582 C193.70296875 23.74774414 194.20183594 24.22083008 194.71582031 24.70825195 C210.35015495 41.19926246 214.5194447 63.32783491 214.47875977 85.16235352 C214.48311725 86.72435243 214.48830382 88.28634921 214.49424744 89.8483429 C214.50753914 94.05727451 214.50822702 98.26611579 214.50568414 102.47506428 C214.50460743 106.0058169 214.50951569 109.53655177 214.51428956 113.06730056 C214.52535138 121.40742963 214.52584134 129.74751365 214.51977539 138.08764648 C214.51374192 146.65137203 214.52603836 155.21493301 214.54734546 163.7786305 C214.56504223 171.16675771 214.57095005 178.55483293 214.56770772 185.94298053 C214.56590709 190.33977157 214.5684073 194.73644528 214.58242226 199.13321686 C214.59512788 203.27350472 214.59293817 207.41353887 214.58001137 211.55382347 C214.57767322 213.05969268 214.580279 214.56558046 214.58863449 216.0714283 C214.71001744 239.67884619 208.50759193 260.69754244 192.01660156 278.0871582 C183.42579816 286.17821958 174.37615509 291.89664115 163.20410156 295.7121582 C162.51759521 295.94717041 161.83108887 296.18218262 161.1237793 296.42431641 C149.36521779 300.10133616 137.17317559 300.57370448 124.94726562 300.54931641 C123.47688543 300.55367746 122.00650749 300.55886517 120.53613281 300.56480408 C116.58543987 300.57805739 112.63484338 300.57878807 108.68413258 300.57624078 C105.3647206 300.57516144 102.04532739 300.58007891 98.72591949 300.5848462 C90.88236919 300.59589471 83.03886679 300.59640553 75.1953125 300.59033203 C67.15303902 300.58429955 59.11094082 300.59659555 51.06869721 300.6179021 C44.11955995 300.63562322 37.17047794 300.64150293 30.22131896 300.63826436 C26.09053376 300.6364676 21.95987354 300.63892402 17.82910919 300.6529789 C-12.96044665 300.74860724 -40.45204453 299.45191397 -64.15917969 277.0637207 C-81.70257916 258.5067026 -85.93874295 235.39539401 -85.95703125 210.79077148 C-85.96166722 209.33112973 -85.96669291 207.87148917 -85.97207642 206.41184998 C-85.98513302 202.46289437 -85.99163289 198.51395573 -85.99608707 194.56498194 C-85.99903053 192.08900257 -86.0031378 189.61302771 -86.00759125 187.13705063 C-86.02125243 179.36506903 -86.03092414 171.59309788 -86.03479314 163.82110512 C-86.03926165 154.89739854 -86.05675907 145.97384606 -86.08579373 137.05018628 C-86.10753899 130.12240933 -86.11750432 123.19467531 -86.11883426 116.26686466 C-86.11987374 112.14380309 -86.12559529 108.02088662 -86.14365387 103.89786148 C-86.27245022 72.67057658 -85.03809401 45.29668277 -62.54589844 21.4621582 C-44.94981027 4.67143884 -23.58071502 -0.04422661 0 0 Z " fill="#239FA3" transform="translate(85.7958984375,-0.274658203125)"/>
<path d="M0 0 C5.97763268 5.01799479 11.60658045 10.51426877 16.35595703 16.71484375 C16.35595703 17.37484375 16.35595703 18.03484375 16.35595703 18.71484375 C19.26620055 15.89278943 21.94965552 13.01859344 24.54345703 9.90234375 C33.10247458 0.13110483 46.90812841 -10.08324239 60.35595703 -11.28515625 C77.34198825 -12.08722488 91.60337038 -9.24634987 104.85595703 2.02734375 C113.22148716 10.09067082 118.94447746 20.90464501 119.55908203 32.5703125 C119.85467215 48.82215638 115.82611963 60.54485856 104.54736328 72.6796875 C93.55250293 82.89060058 78.83711617 86.41273032 64.24658203 86.12109375 C46.31903931 85.13062178 32.97596339 73.2545462 21.35595703 60.71484375 C20.78748047 59.93496094 20.21900391 59.15507812 19.63330078 58.3515625 C19.00101563 57.54138672 19.00101563 57.54138672 18.35595703 56.71484375 C17.69595703 56.71484375 17.03595703 56.71484375 16.35595703 56.71484375 C14.92419165 58.40128973 14.92419165 58.40128973 13.41845703 60.58984375 C4.40373687 72.35700921 -9.03290119 83.16310019 -24.19091797 85.53515625 C-41.43320831 86.79812656 -55.19416992 84.27628287 -68.89404297 72.8359375 C-78.12266812 64.18410142 -84.03910955 52.73313128 -84.80419922 40.0625 C-85.23249879 25.59342304 -80.50383588 13.57862083 -70.64404297 2.96484375 C-64.64100704 -2.75974303 -58.31986925 -6.1548437 -50.64404297 -9.28515625 C-49.94923828 -9.57132812 -49.25443359 -9.8575 -48.53857422 -10.15234375 C-32.58957667 -15.29263877 -12.76816308 -9.98093413 0 0 Z " fill="#DEE8E8" transform="translate(132.64404296875,109.28515625)"/>
<path d="M0 0 C1.55214684 -0.00435758 3.10429153 -0.00954418 4.65643311 -0.01548767 C8.83850623 -0.02877837 13.02048844 -0.02946737 17.20257854 -0.02692437 C20.71096326 -0.02584759 24.21933011 -0.03075611 27.72771096 -0.03552979 C36.01510241 -0.04659128 44.30244851 -0.04708177 52.58984375 -0.04101562 C61.09903813 -0.03498222 69.6080669 -0.0472785 78.11723304 -0.06858569 C85.45865158 -0.08628327 92.80001779 -0.09219016 100.14145684 -0.08894795 C104.5103025 -0.08714745 108.87903008 -0.08964627 113.24785614 -0.10366249 C117.36187971 -0.11636943 121.47564798 -0.11417721 125.58966827 -0.1012516 C127.08586214 -0.09891373 128.58207471 -0.10151819 130.07824707 -0.10987473 C150.05435663 -0.21326231 169.33450613 3.43854296 185.20410156 16.2746582 C186.28111328 17.1428418 186.28111328 17.1428418 187.37988281 18.02856445 C189.3873312 19.71845038 191.30801264 21.46118753 193.20410156 23.2746582 C193.70296875 23.74774414 194.20183594 24.22083008 194.71582031 24.70825195 C210.35015495 41.19926246 214.5194447 63.32783491 214.47875977 85.16235352 C214.48311725 86.72435243 214.48830382 88.28634921 214.49424744 89.8483429 C214.50753914 94.05727451 214.50822702 98.26611579 214.50568414 102.47506428 C214.50460743 106.0058169 214.50951569 109.53655177 214.51428956 113.06730056 C214.52535138 121.40742963 214.52584134 129.74751365 214.51977539 138.08764648 C214.51374192 146.65137203 214.52603836 155.21493301 214.54734546 163.7786305 C214.56504223 171.16675771 214.57095005 178.55483293 214.56770772 185.94298053 C214.56590709 190.33977157 214.5684073 194.73644528 214.58242226 199.13321686 C214.59512788 203.27350472 214.59293817 207.41353887 214.58001137 211.55382347 C214.57767322 213.05969268 214.580279 214.56558046 214.58863449 216.0714283 C214.71001744 239.67884619 208.50759193 260.69754244 192.01660156 278.0871582 C183.42579816 286.17821958 174.37615509 291.89664115 163.20410156 295.7121582 C162.51759521 295.94717041 161.83108887 296.18218262 161.1237793 296.42431641 C149.36521779 300.10133616 137.17317559 300.57370448 124.94726562 300.54931641 C123.47688543 300.55367746 122.00650749 300.55886517 120.53613281 300.56480408 C116.58543987 300.57805739 112.63484338 300.57878807 108.68413258 300.57624078 C105.3647206 300.57516144 102.04532739 300.58007891 98.72591949 300.5848462 C90.88236919 300.59589471 83.03886679 300.59640553 75.1953125 300.59033203 C67.15303902 300.58429955 59.11094082 300.59659555 51.06869721 300.6179021 C44.11955995 300.63562322 37.17047794 300.64150293 30.22131896 300.63826436 C26.09053376 300.6364676 21.95987354 300.63892402 17.82910919 300.6529789 C-12.96044665 300.74860724 -40.45204453 299.45191397 -64.15917969 277.0637207 C-81.70257916 258.5067026 -85.93874295 235.39539401 -85.95703125 210.79077148 C-85.96166722 209.33112973 -85.96669291 207.87148917 -85.97207642 206.41184998 C-85.98513302 202.46289437 -85.99163289 198.51395573 -85.99608707 194.56498194 C-85.99903053 192.08900257 -86.0031378 189.61302771 -86.00759125 187.13705063 C-86.02125243 179.36506903 -86.03092414 171.59309788 -86.03479314 163.82110512 C-86.03926165 154.89739854 -86.05675907 145.97384606 -86.08579373 137.05018628 C-86.10753899 130.12240933 -86.11750432 123.19467531 -86.11883426 116.26686466 C-86.11987374 112.14380309 -86.12559529 108.02088662 -86.14365387 103.89786148 C-86.27245022 72.67057658 -85.03809401 45.29668277 -62.54589844 21.4621582 C-44.94981027 4.67143884 -23.58071502 -0.04422661 0 0 Z M-61.92871094 34.00512695 C-71.40659393 48.22195145 -74.09739393 61.81979769 -74.10229492 78.55029297 C-74.10992497 80.20199454 -74.11835391 81.85369258 -74.1275177 83.50538635 C-74.14939119 87.97685851 -74.15825241 92.44826231 -74.16334414 96.91978192 C-74.16699738 99.72004257 -74.17324255 102.52028558 -74.18034554 105.32053947 C-74.20481899 115.10904596 -74.21788656 124.89749965 -74.22143555 134.68603516 C-74.22506515 143.77805492 -74.25492464 152.86973596 -74.29684013 161.96165234 C-74.33166106 169.79214351 -74.34698605 177.62252311 -74.34768158 185.45309108 C-74.34847063 190.11884353 -74.35703626 194.78425084 -74.38567924 199.44992256 C-74.41206185 203.84552409 -74.41395399 208.24049934 -74.39802361 212.63614464 C-74.3962248 214.23758447 -74.40275569 215.83906201 -74.41884232 217.44042206 C-74.57896293 234.43389693 -69.86253275 247.50554992 -59.79589844 261.2746582 C-59.17972656 262.11899414 -58.56355469 262.96333008 -57.92871094 263.83325195 C-48.53844389 275.46025643 -33.42021214 283.07519818 -18.79589844 285.2746582 C-13.40892364 285.57116412 -8.02753532 285.55887676 -2.63452148 285.54931641 C-1.00736254 285.5536697 0.61979435 285.5588549 2.24694824 285.56480408 C6.64586436 285.57814011 11.04469427 285.57877869 15.44362664 285.57624078 C19.12621055 285.57516722 22.80877729 285.58006433 26.49135751 285.5848462 C35.1855764 285.59592311 43.87975208 285.59638927 52.57397461 285.59033203 C61.51886735 285.58429558 70.46360266 285.5965991 79.40846854 285.6179021 C87.10984554 285.63556372 94.81117264 285.64151222 102.51256913 285.63826436 C107.10265938 285.63645834 111.69263736 285.63901905 116.28270912 285.6529789 C120.60269143 285.6656268 124.92242985 285.66354788 129.24240875 285.65056801 C130.81929548 285.64821761 132.39619975 285.65088115 133.97306633 285.65919113 C154.30423747 285.75852981 169.76412909 280.19543316 184.54394531 266.0324707 C199.16660592 250.78491007 203.84916506 233.48817585 203.70581055 212.83105469 C203.70960537 211.24566165 203.71511491 209.66027196 203.72218323 208.07489014 C203.73600252 203.81656527 203.72506505 199.55865058 203.70847201 195.300349 C203.69449024 190.81595818 203.70109629 186.33158805 203.7046051 181.84718323 C203.70729667 174.32172129 203.69392183 166.79641982 203.6706543 159.27099609 C203.64404157 150.6043373 203.64230453 141.93794636 203.65404266 133.27126068 C203.66486828 124.88898233 203.65859662 116.50679968 203.64448738 108.12452888 C203.63876989 104.57744106 203.63877651 101.03042424 203.64355278 97.48333549 C203.64836919 93.29784263 203.63803067 89.11263842 203.61659813 84.92720032 C203.61109331 83.40276119 203.61050591 81.87829395 203.61555099 80.35385323 C203.65200333 67.7466323 202.58697738 55.35263448 196.57910156 44.0246582 C196.23427734 43.35700439 195.88945312 42.68935059 195.53417969 42.00146484 C192.26972915 35.94069302 188.19385181 31.01800103 183.20410156 26.2746582 C182.54539062 25.63141602 181.88667969 24.98817383 181.20800781 24.32543945 C169.75797379 13.70478415 155.80474859 8.19236602 140.20558167 8.12075806 C139.52500181 8.1163758 138.84442195 8.11199355 138.14321846 8.1074785 C135.87517976 8.09418295 133.60717983 8.08793253 131.33911133 8.08178711 C129.70741098 8.07387863 128.07571234 8.06560922 126.4440155 8.05700684 C121.09452974 8.03086562 115.74503648 8.01548371 110.39550781 8.0012207 C108.54778476 7.99585714 106.70006176 7.99047962 104.85233879 7.98508835 C97.15991804 7.96346821 89.46749931 7.94473585 81.77505589 7.93346596 C70.78503641 7.91725428 59.79537196 7.88413424 48.80548626 7.82706511 C41.0599721 7.78822848 33.31455234 7.76881691 25.56894344 7.76354539 C20.95232573 7.75990973 16.33608734 7.74808059 11.71957588 7.71544266 C7.36834338 7.6851206 3.01771494 7.67913501 -1.333601 7.69082642 C-2.91892258 7.69104517 -4.50427421 7.68290685 -6.08949661 7.66517258 C-28.15518825 7.43202369 -48.1626011 16.38148084 -61.92871094 34.00512695 Z " fill="#010202" transform="translate(85.7958984375,-0.274658203125)"/>
<path d="M0 0 C7.54634999 5.9717179 12.06423121 12.4071678 13.29296875 21.97265625 C13.73770676 30.50353996 11.15867455 38.3418174 5.734375 44.9453125 C2.24874085 48.59515212 -1.5702355 51.21882609 -6.015625 53.5703125 C-6.92699219 54.10140625 -7.83835938 54.6325 -8.77734375 55.1796875 C-12.52301117 56.78820089 -15.75717855 57.06869908 -19.765625 57.0078125 C-20.47082275 56.99951416 -21.17602051 56.99121582 -21.90258789 56.98266602 C-33.61931085 56.60574568 -41.56082238 51.04144686 -49.625 42.953125 C-60.27069594 31.5830178 -60.27069594 31.5830178 -62.015625 26.5703125 C-61.56640337 18.34819541 -52.65118184 9.54313117 -46.8828125 4.09375 C-32.72916756 -7.45420299 -15.60059216 -10.42119556 0 0 Z " fill="#129A9E" transform="translate(222.015625,121.4296875)"/>
<path d="M0 0 C8.82118027 5.85944098 14.34113282 13.7128711 20.15234375 22.4296875 C19.9161163 27.33646902 18.28972728 30.14475129 15.33984375 33.9921875 C14.65277344 34.90097656 13.96570313 35.80976563 13.2578125 36.74609375 C12.56300781 37.63167969 11.86820312 38.51726562 11.15234375 39.4296875 C10.49878906 40.29464844 9.84523437 41.15960938 9.171875 42.05078125 C2.64605588 49.73786798 -7.91622671 55.40347585 -17.85546875 56.875 C-27.83752923 57.26594232 -36.59106797 54.74492436 -44.28515625 48.3046875 C-51.41025253 41.21401198 -54.29751943 34.9190132 -54.47265625 24.9296875 C-54.33450214 16.53522416 -52.54412958 10.52655252 -46.828125 4.19140625 C-33.12628372 -8.93452576 -15.99754821 -9.50293725 0 0 Z " fill="#0F9A9E" transform="translate(119.84765625,121.5703125)"/>
<path d="M0 0 C1.6355372 -0.00407187 3.27107165 -0.00941718 4.90660095 -0.01593018 C9.3241655 -0.02953973 13.74151849 -0.0243307 18.15908647 -0.01479292 C22.8001295 -0.00715933 27.44115529 -0.01425251 32.0821991 -0.01895142 C39.87709783 -0.02439987 47.67191113 -0.017243 55.46679688 -0.00292969 C64.45089355 0.01337786 73.43478574 0.00811842 82.41887742 -0.0084089 C90.15766474 -0.02207034 97.89639088 -0.02392024 105.63518637 -0.0160929 C110.24596386 -0.01143967 114.85664561 -0.01072591 119.46741676 -0.02070236 C123.80712778 -0.02943722 128.14657819 -0.0232325 132.48626137 -0.00601959 C134.06917389 -0.00208853 135.65210874 -0.00312998 137.23501205 -0.00980759 C156.62434904 -0.08399329 171.95239049 4.33545068 186.64916992 17.38818359 C187.3478418 17.98115234 188.04651367 18.57412109 188.76635742 19.18505859 C198.40358902 27.95981421 205.73901986 41.84300156 206.98071289 54.86523438 C207.07529743 58.44425449 207.04943863 61.99667082 206.96166992 65.57568359 C206.95200195 66.8009375 206.94233398 68.02619141 206.93237305 69.28857422 C206.81832505 78.21902847 206.81832505 78.21902847 205.64916992 79.38818359 C205.4126347 81.91414619 205.22743301 84.41925566 205.08666992 86.95068359 C205.04348633 87.66160156 205.00030273 88.37251953 204.95581055 89.10498047 C204.84945216 90.86580271 204.74878146 92.62696679 204.64916992 94.38818359 C204.31916992 94.38818359 203.98916992 94.38818359 203.64916992 94.38818359 C203.63982422 93.44724854 203.63047852 92.50631348 203.62084961 91.53686523 C203.42842412 54.02696806 203.42842412 54.02696806 184.77026367 22.34521484 C169.69980691 8.44042877 151.7810325 4.90283403 131.83813477 5.01586914 C130.30875909 5.01343393 128.77938502 5.0097076 127.25001526 5.00480652 C123.14057841 4.99549509 119.03138382 5.00473896 114.92196608 5.01813865 C110.59679149 5.02955777 106.27162701 5.02533773 101.94644165 5.02339172 C94.68910828 5.02251221 87.43186894 5.03351853 80.17456055 5.05200195 C71.8118244 5.07318024 63.44922565 5.07667395 55.0864681 5.07043999 C47.00267135 5.06472504 38.91892245 5.07041602 30.8351326 5.08161354 C27.41200491 5.08622974 23.98890676 5.08714642 20.56577682 5.08502769 C16.52892195 5.08312959 12.49220486 5.09136431 8.45538139 5.10708809 C6.98331332 5.1112923 5.51123117 5.11220791 4.03915977 5.10939789 C-13.86936193 5.08042401 -29.81414764 7.15885059 -43.15942383 20.13037109 C-44.24416992 21.24798828 -44.24416992 21.24798828 -45.35083008 22.38818359 C-46.68340721 23.74309442 -48.01666239 25.09733895 -49.35083008 26.45068359 C-49.88708008 27.01916016 -50.42333008 27.58763672 -50.97583008 28.17333984 C-52.35083008 29.38818359 -52.35083008 29.38818359 -54.35083008 29.38818359 C-54.60993164 30.08943359 -54.8690332 30.79068359 -55.13598633 31.51318359 C-56.35083008 34.38818359 -56.35083008 34.38818359 -57.97192383 37.13818359 C-64.73538096 49.23968108 -65.14728631 62.2597225 -66.07299805 75.85058594 C-66.35083008 78.38818359 -66.35083008 78.38818359 -67.35083008 79.38818359 C-67.5815809 80.73565444 -67.76236071 82.09195924 -67.91333008 83.45068359 C-68.05770508 84.75005859 -68.20208008 86.04943359 -68.35083008 87.38818359 C-68.68083008 87.38818359 -69.01083008 87.38818359 -69.35083008 87.38818359 C-69.45130484 82.94488057 -69.52303621 78.50221619 -69.57055664 74.05810547 C-69.59040984 72.5531052 -69.61750198 71.04817924 -69.65258789 69.54345703 C-70.0679904 51.24131134 -65.76900033 35.4955315 -53.41333008 21.45068359 C-38.47636548 5.976257 -21.1638057 -0.08890612 0 0 Z " fill="#BAE0E1" transform="translate(81.350830078125,7.61181640625)"/>
<path d="M0 0 C0.66 0 1.32 0 2 0 C2.77113322 12.85222026 -0.44825 24.75663144 -8.9453125 34.4140625 C-19.18892393 45.53586617 -30.49312948 52.92943907 -45.875 54.24609375 C-58.62314224 54.76164362 -71.00333823 51.44996508 -82 45 C-82 44.34 -82 43.68 -82 43 C-82.639375 42.896875 -83.27875 42.79375 -83.9375 42.6875 C-84.618125 42.460625 -85.29875 42.23375 -86 42 C-86.33 41.01 -86.66 40.02 -87 39 C-87.87398437 38.566875 -87.87398437 38.566875 -88.765625 38.125 C-91.77541054 36.6095835 -93.51767586 34.50954087 -95.75 32 C-96.54921875 31.113125 -97.3484375 30.22625 -98.171875 29.3125 C-100 27 -100 27 -100 25 C-103.88912443 28.32343361 -107.69705536 31.63022648 -111.1875 35.375 C-122.37892016 46.61706007 -137.0330556 54.01164395 -153.0625 54.25 C-163.04165956 54.15989472 -173.10425045 51.60639442 -182 47 C-182.33 46.34 -182.66 45.68 -183 45 C-185.01669827 43.86649466 -185.01669827 43.86649466 -187 43 C-187 42.34 -187 41.68 -187 41 C-187.59296875 40.74089844 -188.1859375 40.48179687 -188.796875 40.21484375 C-191.15858141 38.91255529 -192.50886446 37.60701522 -194.25 35.5625 C-194.77078125 34.96566406 -195.2915625 34.36882812 -195.828125 33.75390625 C-197 32 -197 32 -197 29 C-197.66 29 -198.32 29 -199 29 C-200.5625 26.1875 -200.5625 26.1875 -202 23 C-201.505 21.515 -201.505 21.515 -201 20 C-200.50371094 20.78503906 -200.00742188 21.57007813 -199.49609375 22.37890625 C-191.19093447 35.2227484 -181.55385353 44.96286736 -166.04296875 48.56640625 C-149.45538907 50.92997665 -134.68505989 47.72308609 -121 38 C-114.40204513 32.85106696 -108.44222601 27.1392918 -104 20 C-100.32255785 21.50403252 -98.36604911 23.62027736 -95.8125 26.625 C-89.10820683 34.22905101 -82.3061414 40.76856678 -73 45 C-71.71222656 45.58974609 -71.71222656 45.58974609 -70.3984375 46.19140625 C-58.58000663 50.86343058 -43.78671423 50.86842544 -32 46 C-17.56970561 39.42265587 -8.72094872 29.85857515 -3 15 C-2.30905484 12.37408172 -1.79229983 9.73417227 -1.3125 7.0625 C-1.11817383 6.03672852 -1.11817383 6.03672852 -0.91992188 4.99023438 C-0.60610402 3.32816202 -0.30200834 1.66425873 0 0 Z " fill="#0E7276" transform="translate(253,145)"/>
<path d="M0 0 C0 0.33 0 0.66 0 1 C1.16197906 0.83799606 2.32395813 0.67599213 3.52114868 0.50907898 C10.54903936 -0.2650585 17.60133685 -0.14795806 24.66162109 -0.14526367 C26.23441649 -0.14826006 27.80721116 -0.15166369 29.38000488 -0.15544128 C33.62747575 -0.16422981 37.87492645 -0.16661702 42.12240553 -0.16725707 C44.77700604 -0.16796971 47.43160147 -0.17010791 50.08620071 -0.17275429 C59.34864883 -0.18198574 68.61108259 -0.18609133 77.87353516 -0.18530273 C86.50842318 -0.18470029 95.14324907 -0.19529034 103.77812135 -0.2110464 C111.1982488 -0.22410382 118.61835585 -0.2294875 126.03849471 -0.22884732 C130.46786861 -0.22859211 134.89718707 -0.23145737 139.32654953 -0.24202538 C143.48476354 -0.25167782 147.64286867 -0.2518053 151.80108643 -0.24450874 C153.32853987 -0.24345982 154.85600001 -0.24584393 156.38344193 -0.2518692 C158.46428412 -0.25954789 160.54474625 -0.25497236 162.62557983 -0.24723816 C163.79102011 -0.24778293 164.95646038 -0.24832769 166.15721703 -0.24888897 C169 0 169 0 172 2 C171.17615688 1.99815641 170.35231377 1.99631283 169.50350571 1.99441338 C149.42075207 1.95016813 129.33800688 1.91711127 109.25521469 1.89637566 C99.54317215 1.88608052 89.83116223 1.87205402 80.11914062 1.84912109 C71.65022708 1.82913311 63.18133716 1.81627076 54.71240067 1.81182301 C50.2317374 1.80922477 45.75114171 1.80315477 41.27050018 1.78853989 C37.04508386 1.77487037 32.81976236 1.77079612 28.59432602 1.77378464 C27.05130623 1.77323864 25.50828297 1.76931738 23.96528244 1.76158905 C5.87254696 1.67548581 -10.29460005 3.60667467 -23.80859375 16.7421875 C-24.89333984 17.85980469 -24.89333984 17.85980469 -26 19 C-27.33257713 20.35491082 -28.66583231 21.70915536 -30 23.0625 C-30.53625 23.63097656 -31.0725 24.19945313 -31.625 24.78515625 C-33 26 -33 26 -35 26 C-35.25910156 26.70125 -35.51820312 27.4025 -35.78515625 28.125 C-37 31 -37 31 -38.62109375 33.75 C-45.38455088 45.85149748 -45.79645623 58.87153891 -46.72216797 72.46240234 C-47 75 -47 75 -48 76 C-48.23075082 77.34747084 -48.41153063 78.70377565 -48.5625 80.0625 C-48.706875 81.361875 -48.85125 82.66125 -49 84 C-49.33 84 -49.66 84 -50 84 C-50.10047476 79.55669698 -50.17220613 75.1140326 -50.21972656 70.66992188 C-50.23957976 69.16492161 -50.2666719 67.65999565 -50.30175781 66.15527344 C-50.71716032 47.85312774 -46.41817025 32.10734791 -34.0625 18.0625 C-26.94136548 10.68513275 -11.10143698 -3.44527355 0 0 Z " fill="#9DD5D6" transform="translate(62,11)"/>
<path d="M0 0 C2.97 0 5.94 0 9 0 C9 3.3 9 6.6 9 10 C12.3 10 15.6 10 19 10 C19 12.97 19 15.94 19 19 C15.7 19 12.4 19 9 19 C9 22.3 9 25.6 9 29 C6.03 29 3.06 29 0 29 C0 25.7 0 22.4 0 19 C-3.3 19 -6.6 19 -10 19 C-10 16.03 -10 13.06 -10 10 C-6.7 10 -3.4 10 0 10 C0 6.7 0 3.4 0 0 Z " fill="#E3EBEB" transform="translate(196,132)"/>
<path d="M0 0 C8.82118027 5.85944098 14.34113282 13.7128711 20.15234375 22.4296875 C19.77734375 25.1171875 19.77734375 25.1171875 19.15234375 27.4296875 C18.86617188 26.84832031 18.58 26.26695312 18.28515625 25.66796875 C15.03117829 19.23855712 11.62584138 14.56368563 5.921875 10.0703125 C4.03169583 8.3178285 3.24726446 6.73245796 2.15234375 4.4296875 C0.3393776 3.80876032 0.3393776 3.80876032 -1.84765625 3.4296875 C-2.81703125 2.9346875 -3.78640625 2.4396875 -4.78515625 1.9296875 C-12.48254594 -1.84046255 -22.43359683 -1.65458962 -30.734375 0.0078125 C-38.76863621 2.78259659 -45.00758932 8.93405199 -49.41015625 16.1171875 C-52.30387579 22.62805647 -51.89915619 31.69142754 -49.84765625 38.4296875 C-53.48485191 34.95063079 -54.0244777 32.81213838 -54.19165039 27.71655273 C-54.32065441 18.2017447 -53.42960646 11.5079418 -46.828125 4.19140625 C-33.12628372 -8.93452576 -15.99754821 -9.50293725 0 0 Z " fill="#177F83" transform="translate(119.84765625,121.5703125)"/>
<path d="M0 0 C4.71793089 3.76509386 9.99668498 8.40651118 10.9921875 14.58984375 C10.3321875 14.58984375 9.6721875 14.58984375 8.9921875 14.58984375 C7.5546875 12.875 7.5546875 12.875 5.9921875 10.65234375 C3.94401946 7.60351738 3.94401946 7.60351738 0.9921875 5.58984375 C0.9921875 4.92984375 0.9921875 4.26984375 0.9921875 3.58984375 C0.2290625 3.46609375 -0.5340625 3.34234375 -1.3203125 3.21484375 C-4.0078125 2.58984375 -4.0078125 2.58984375 -7.0078125 0.58984375 C-16.52745405 -1.43124938 -25.37312196 -2.71166929 -34.33203125 1.8359375 C-39.0572725 4.93321242 -43.03328188 8.59457644 -47.0078125 12.58984375 C-47.65621094 13.19054687 -48.30460938 13.79125 -48.97265625 14.41015625 C-53.46309583 18.63529634 -56.76975405 23.35913394 -60.0078125 28.58984375 C-60.6678125 27.92984375 -61.3278125 27.26984375 -62.0078125 26.58984375 C-61.5818787 18.38351921 -52.62706056 9.54725551 -46.875 4.11328125 C-32.6842024 -7.46498458 -15.65455705 -10.34206681 0 0 Z " fill="#17787C" transform="translate(222.0078125,121.41015625)"/>
<path d="M0 0 C9.9 0 19.8 0 30 0 C30 2.97 30 5.94 30 9 C20.1 9 10.2 9 0 9 C0 6.03 0 3.06 0 0 Z " fill="#E2EAEA" transform="translate(85,142)"/>
<path d="M0 0 C0.66 0.33 1.32 0.66 2 1 C0.21427748 2.83947337 -1.57802449 4.67157741 -3.375 6.5 C-3.88289063 7.02464844 -4.39078125 7.54929687 -4.9140625 8.08984375 C-6.23832604 9.43153181 -7.61605865 10.71995815 -9 12 C-9.66 12 -10.32 12 -11 12 C-11.25910156 12.70125 -11.51820312 13.4025 -11.78515625 14.125 C-13 17 -13 17 -14.62109375 19.75 C-21.38455088 31.85149748 -21.79645623 44.87153891 -22.72216797 58.46240234 C-23 61 -23 61 -24 62 C-24.23075082 63.34747084 -24.41153063 64.70377565 -24.5625 66.0625 C-24.706875 67.361875 -24.85125 68.66125 -25 70 C-25.33 70 -25.66 70 -26 70 C-26.10047476 65.55669698 -26.17220613 61.1140326 -26.21972656 56.66992188 C-26.23957976 55.16492161 -26.2666719 53.65999565 -26.30175781 52.15527344 C-26.59824229 39.09251601 -25.03811521 27.49501385 -18.5 15.875 C-17.9328125 14.84117188 -17.365625 13.80734375 -16.78125 12.7421875 C-15.07535192 10.11600229 -13.30154564 8.10975017 -11 6 C-11 7.32 -11 8.64 -11 10 C-9.72799029 8.89718873 -8.45744147 7.79269231 -7.1875 6.6875 C-6.47980469 6.07261719 -5.77210937 5.45773438 -5.04296875 4.82421875 C-3.29863261 3.26665665 -1.63221959 1.67341125 0 0 Z " fill="#84C7C9" transform="translate(38,25)"/>
<path d="M0 0 C2 0 2 0 3.625 1.5 C4.07875 1.995 4.5325 2.49 5 3 C5.33 2.01 5.66 1.02 6 0 C7.26488951 2.07540124 8.5112457 4.15905303 9.75 6.25 C10.27207031 7.10078125 10.27207031 7.10078125 10.8046875 7.96875 C16.91008789 18.37054326 18.60567757 28.23237001 18.3125 40.1875 C18.30283203 41.41275391 18.29316406 42.63800781 18.28320312 43.90039062 C18.16915513 52.83084487 18.16915513 52.83084487 17 54 C16.76346477 56.52596259 16.57826308 59.03107207 16.4375 61.5625 C16.39431641 62.27341797 16.35113281 62.98433594 16.30664062 63.71679688 C16.20028223 65.47761912 16.09961154 67.2387832 16 69 C15.67 69 15.34 69 15 69 C14.9906543 68.05906494 14.98130859 67.11812988 14.97167969 66.14868164 C14.65101269 33.58912793 14.65101269 33.58912793 2 4 C1.31177899 2.67766341 0.63379659 1.34926799 0 0 Z " fill="#8CC9CB" transform="translate(270,33)"/>
<path d="M0 0 C12.67863646 2.88775885 21.77582073 10.12000652 31 19 C31.88171875 19.75023437 31.88171875 19.75023437 32.78125 20.515625 C34 22 34 22 34 26 C33.01 25.67 32.02 25.34 31 25 C31 24.34 31 23.68 31 23 C30.41734375 22.90847656 29.8346875 22.81695312 29.234375 22.72265625 C26.45559201 21.82392399 25.28745515 20.51977916 23.25 18.4375 C19.122827 14.63254815 14.86399125 12.09823898 9.875 9.625 C9.20629883 9.29169678 8.53759766 8.95839355 7.84863281 8.61499023 C3.64142315 6.5958821 -0.48087697 5.16206021 -5 4 C-5 3.67 -5 3.34 -5 3 C-3.35 2.67 -1.7 2.34 0 2 C0 1.34 0 0.68 0 0 Z " fill="#A5D7D8" transform="translate(241,10)"/>
<path d="M0 0 C3.67744215 1.50403252 5.63395089 3.62027736 8.1875 6.625 C16.63172523 16.20249277 25.32080684 24.03252926 38 27 C36.8125 28.5625 36.8125 28.5625 35 30 C30.26676347 29.86476467 26.0953829 27.18488169 22 25 C22 24.34 22 23.68 22 23 C21.360625 22.896875 20.72125 22.79375 20.0625 22.6875 C19.381875 22.460625 18.70125 22.23375 18 22 C17.67 21.01 17.34 20.02 17 19 C16.12601563 18.566875 16.12601563 18.566875 15.234375 18.125 C12.22458946 16.6095835 10.48232414 14.50954087 8.25 12 C7.45078125 11.113125 6.6515625 10.22625 5.828125 9.3125 C4 7 4 7 4 5 C2.8553125 5.556875 2.8553125 5.556875 1.6875 6.125 C0.800625 6.41375 -0.08625 6.7025 -1 7 C-1.99 6.34 -2.98 5.68 -4 5 C-2.68 3.35 -1.36 1.7 0 0 Z " fill="#16797D" transform="translate(149,165)"/>
<path d="M0 0 C2 3 2 3 2 5 C2.66 5 3.32 5 4 5 C4 3.35 4 1.7 4 0 C6.1287155 3.47438851 6.24548759 6.22695288 6.23046875 10.26171875 C6.22853516 11.46248047 6.22660156 12.66324219 6.22460938 13.90039062 C6.21236328 15.15013672 6.20011719 16.39988281 6.1875 17.6875 C6.18685547 18.94884766 6.18621094 20.21019531 6.18554688 21.50976562 C6.14023184 30.85976816 6.14023184 30.85976816 5 32 C4.76346477 34.52596259 4.57826308 37.03107207 4.4375 39.5625 C4.39431641 40.27341797 4.35113281 40.98433594 4.30664062 41.71679688 C4.20028223 43.47761912 4.09961154 45.2387832 4 47 C3.67 47 3.34 47 3 47 C2.98018066 46.01717041 2.96036133 45.03434082 2.93994141 44.02172852 C2.86323566 40.33691991 2.77462488 36.65247321 2.68261719 32.96801758 C2.64459343 31.38052574 2.60969679 29.79295552 2.578125 28.20532227 C2.41123179 19.91542361 2.12205662 12.0655404 0 4 C0 2.68 0 1.36 0 0 Z " fill="#6FC3C5" transform="translate(282,55)"/>
<path d="M0 0 C0.90878906 0.16371094 1.81757813 0.32742187 2.75390625 0.49609375 C8.12880056 1.26393579 13.52021545 1.1062149 18.9375 1.0625 C20.00291016 1.05798828 21.06832031 1.05347656 22.16601562 1.04882812 C24.77740291 1.03711787 27.38867124 1.02071724 30 1 C30 2.32 30 3.64 30 5 C19.70828218 7.35022654 9.98885027 6.02365197 0 3 C0 2.01 0 1.02 0 0 Z " fill="#0B7074" transform="translate(185,193)"/>
<path d="M0 0 C0.33 1.32 0.66 2.64 1 4 C1.99 3.67 2.98 3.34 4 3 C3.69487497 7.31305552 3.37967167 11.62531495 3.0625 15.9375 C2.97548828 17.16919922 2.88847656 18.40089844 2.79882812 19.66992188 C2.71181641 20.83974609 2.62480469 22.00957031 2.53515625 23.21484375 C2.456604 24.29886475 2.37805176 25.38288574 2.29711914 26.49975586 C2 29 2 29 1 30 C0.76924918 31.34747084 0.58846937 32.70377565 0.4375 34.0625 C0.2209375 36.0115625 0.2209375 36.0115625 0 38 C-0.33 38 -0.66 38 -1 38 C-1.02478935 33.39184965 -1.0429023 28.78373847 -1.05493164 24.17553711 C-1.05994856 22.60912398 -1.06676362 21.0427155 -1.07543945 19.47631836 C-1.08762094 17.21987761 -1.09325481 14.96349898 -1.09765625 12.70703125 C-1.10281754 12.01100296 -1.10797882 11.31497467 -1.11329651 10.59785461 C-1.11371546 6.93529848 -0.87148095 3.56131142 0 0 Z " fill="#79C7C9" transform="translate(13,57)"/>
<path d="M0 0 C0.33 0 0.66 0 1 0 C1 3.63 1 7.26 1 11 C-9.23 11 -19.46 11 -30 11 C-30 10.01 -30 9.02 -30 8 C-20.1 8 -10.2 8 0 8 C0 5.36 0 2.72 0 0 Z " fill="#09797E" transform="translate(115,144)"/>
<path d="M0 0 C0.33 0 0.66 0 1 0 C1 3.63 1 7.26 1 11 C-3.455 11.495 -3.455 11.495 -8 12 C-7.979375 13.464375 -7.95875 14.92875 -7.9375 16.4375 C-7.91607993 17.95832518 -7.92820036 19.48071962 -8 21 C-9 22 -9 22 -11.28515625 22.09765625 C-12.65994141 22.08025391 -12.65994141 22.08025391 -14.0625 22.0625 C-14.98160156 22.05347656 -15.90070313 22.04445312 -16.84765625 22.03515625 C-17.55792969 22.02355469 -18.26820313 22.01195312 -19 22 C-19.33 20.68 -19.66 19.36 -20 18 C-16.7 18 -13.4 18 -10 18 C-10 14.7 -10 11.4 -10 8 C-6.7 8 -3.4 8 0 8 C0 5.36 0 2.72 0 0 Z " fill="#09777B" transform="translate(216,144)"/>
<path d="M0 0 C6.08697048 -0.78038083 10.1478369 1.63302073 15 5 C19.09060477 8.46006839 22.63744899 12.13592439 25 17 C25 17.66 25 18.32 25 19 C24.34 19 23.68 19 23 19 C21.5625 17.28515625 21.5625 17.28515625 20 15.0625 C17.95183196 12.01367363 17.95183196 12.01367363 15 10 C15 9.34 15 8.68 15 8 C14.2575 7.9175 13.515 7.835 12.75 7.75 C10 7 10 7 8.125 5 C5.2562746 2.30002315 2.84336733 2.29564364 -1 2 C-0.67 1.34 -0.34 0.68 0 0 Z " fill="#0F7A7E" transform="translate(208,117)"/>
<path d="M0 0 C0 0.33 0 0.66 0 1 C-4.455 1.495 -4.455 1.495 -9 2 C-7.17662109 2.18175781 -7.17662109 2.18175781 -5.31640625 2.3671875 C-3.73171883 2.53597078 -2.1470861 2.70526816 -0.5625 2.875 C0.64116211 2.99294922 0.64116211 2.99294922 1.86914062 3.11328125 C3.92170994 3.33845763 5.96293009 3.66222587 8 4 C8.33 4.66 8.66 5.32 9 6 C8.43603516 5.98952637 7.87207031 5.97905273 7.29101562 5.96826172 C4.69405719 5.92625522 2.09717061 5.90053398 -0.5 5.875 C-1.386875 5.85824219 -2.27375 5.84148437 -3.1875 5.82421875 C-8.82323788 5.7827795 -13.59300232 6.39558714 -19 8 C-18 6 -18 6 -15 4 C-15.66 3.34 -16.32 2.68 -17 2 C-11.21642935 -0.01167675 -6.09781001 -0.22084624 0 0 Z M-21 8 C-19 9 -19 9 -19 9 Z " fill="#098185" transform="translate(103,115)"/>
<path d="M0 0 C-0.84820312 0.34289062 -1.69640625 0.68578125 -2.5703125 1.0390625 C-15.04263976 6.60363928 -24.75314896 15.38736309 -32 27 C-32.33 26.34 -32.66 25.68 -33 25 C-11.93843844 -5.96921922 -11.93843844 -5.96921922 0 0 Z " fill="#098286" transform="translate(196,120)"/>
<path d="M0 0 C0.66 0 1.32 0 2 0 C2.51070302 8.511717 1.83990698 19.39125373 -4 26 C-4.29665996 19.86902749 -3.6605159 15.18976498 -1.734375 9.375 C-0.7688041 6.25230261 -0.35257632 3.24370212 0 0 Z " fill="#118185" transform="translate(253,145)"/>
<path d="M0 0 C0 0.66 0 1.32 0 2 C-1.32 2.33 -2.64 2.66 -4 3 C-4 3.66 -4 4.32 -4 5 C-5.95224208 6.28406399 -7.96340762 7.47941678 -10 8.625 C-11.670625 9.57246094 -11.670625 9.57246094 -13.375 10.5390625 C-14.24125 11.02117188 -15.1075 11.50328125 -16 12 C-17 9 -17 9 -16.25 6.9375 C-15 5 -15 5 -12 3 C-8.8125 3.375 -8.8125 3.375 -6 4 C-5.67 3.01 -5.34 2.02 -5 1 C-2 0 -2 0 0 0 Z " fill="#A9DADB" transform="translate(56,13)"/>
<path d="M0 0 C2.19337757 3.48359967 1.79492861 5.07469735 1 9 C0.90836935 11.35275171 0.86996357 13.70797002 0.875 16.0625 C0.87242188 17.27035156 0.86984375 18.47820312 0.8671875 19.72265625 C0.97436319 22.36737407 1.21299863 24.49533692 2 27 C-1.13874655 23.99772069 -1.96495465 22.77996289 -2.16796875 18.26171875 C-2.17995334 16.73701237 -2.18622619 15.21225295 -2.1875 13.6875 C-2.19974609 12.92759766 -2.21199219 12.16769531 -2.22460938 11.38476562 C-2.23570015 7.12960614 -1.96104913 3.88334235 0 0 Z " fill="#188387" transform="translate(68,133)"/>
<path d="M0 0 C8.46833842 -0.47783728 15.46520043 -0.18769793 23 4 C23.66 4.66 24.32 5.32 25 6 C18.125 5.125 18.125 5.125 17 4 C15.66197814 3.77486899 14.31426977 3.60639193 12.96484375 3.46484375 C12.15595703 3.37783203 11.34707031 3.29082031 10.51367188 3.20117188 C9.66353516 3.11416016 8.81339844 3.02714844 7.9375 2.9375 C7.08349609 2.84662109 6.22949219 2.75574219 5.34960938 2.66210938 C3.23348465 2.43749278 1.11679106 2.21824773 -1 2 C-0.67 1.34 -0.34 0.68 0 0 Z " fill="#0E6F72" transform="translate(94,116)"/>
<path d="M0 0 C2.56403381 2.38478525 4.46661773 4.98671374 6.4375 7.875 C8.84204127 11.35954709 11.28733833 14.744806 14 18 C13.34 18.66 12.68 19.32 12 20 C10.82439821 18.73742767 9.65977135 17.46462916 8.5 16.1875 C7.52546875 15.12595703 7.52546875 15.12595703 6.53125 14.04296875 C5 12 5 12 5 9 C4.34 9 3.68 9 3 9 C0 3.375 0 3.375 0 0 Z " fill="#1D8184" transform="translate(51,165)"/>
<path d="M0 0 C-6 4 -6 4 -11 4 C-11 4.66 -11 5.32 -11 6 C-12.75 7.5078125 -12.75 7.5078125 -15 9.125 C-15.7425 9.66382813 -16.485 10.20265625 -17.25 10.7578125 C-17.8275 11.16773438 -18.405 11.57765625 -19 12 C-17.66938508 9.12333727 -16.17712023 6.78863364 -14.125 4.375 C-13.63257812 3.78460938 -13.14015625 3.19421875 -12.6328125 2.5859375 C-8.51225414 -1.41632732 -5.5047778 -1.05861112 0 0 Z " fill="#0D7175" transform="translate(91,119)"/>
<path d="M0 0 C0 3.07826849 -0.36223322 4.05608069 -1.75 6.6875 C-2.1109375 7.38230469 -2.471875 8.07710937 -2.84375 8.79296875 C-3.2253125 9.52128906 -3.606875 10.24960938 -4 11 C-4.75305136 12.49847044 -5.50320227 13.99840313 -6.25 15.5 C-6.8275 16.655 -7.405 17.81 -8 19 C-8.66 18.34 -9.32 17.68 -10 17 C-9.81069479 12.30029235 -7.25066757 9.23303891 -4.4375 5.6875 C-4.01275391 5.13771484 -3.58800781 4.58792969 -3.15039062 4.02148438 C-2.10818741 2.6748173 -1.05516157 1.33653799 0 0 Z " fill="#1D797D" transform="translate(170,131)"/>
<path d="M0 0 C-0.99 0.495 -0.99 0.495 -2 1 C-2 1.99 -2 2.98 -2 4 C-6.625 6.125 -6.625 6.125 -10 5 C-8.68 4.67 -7.36 4.34 -6 4 C-6 3.34 -6 2.68 -6 2 C-9.72614153 3.11854586 -9.72614153 3.11854586 -12 6 C-13.32 5.34 -14.64 4.68 -16 4 C-14.08959948 3.1319092 -12.17139263 2.28098217 -10.25 1.4375 C-9.18265625 0.96183594 -8.1153125 0.48617188 -7.015625 -0.00390625 C-4.01630163 -0.9946154 -2.86578759 -1.16161779 0 0 Z " fill="#A0D4D6" transform="translate(62,11)"/>
<path d="M0 0 C8.147806 0.19150826 8.147806 0.19150826 11.4375 3.3125 C12.71766916 5.51439095 13.9656397 7.67268933 15 10 C13.0625 9.1875 13.0625 9.1875 11 8 C10.67 7.01 10.34 6.02 10 5 C8.68225804 4.60955794 7.34332728 4.29044914 6 4 C3.98473831 3.03112419 1.98166034 2.0358679 0 1 C0 0.67 0 0.34 0 0 Z " fill="#0F7C80" transform="translate(112,121)"/>
<path d="M0 0 C-0.85714286 8.57142857 -0.85714286 8.57142857 -3 12 C-3.66 12 -4.32 12 -5 12 C-5.29554656 4.31578947 -5.29554656 4.31578947 -3 1 C-1 0 -1 0 0 0 Z " fill="#8FCED0" transform="translate(19,49)"/>
<path d="M0 0 C0 0.99 0 1.98 0 3 C-0.99 3.33 -1.98 3.66 -3 4 C-3.33 4.99 -3.66 5.98 -4 7 C-5.79935728 8.62531648 -7.66272568 10.18078244 -9.5625 11.6875 C-11.08037109 12.89986328 -11.08037109 12.89986328 -12.62890625 14.13671875 C-13.41136719 14.75160156 -14.19382813 15.36648437 -15 16 C-15 13 -15 13 -12.48046875 10.37109375 C-11.39036868 9.38481274 -10.29232966 8.40725245 -9.1875 7.4375 C-8.64029297 6.94314453 -8.09308594 6.44878906 -7.52929688 5.93945312 C-5.1031855 3.76624548 -2.7139278 1.8092852 0 0 Z " fill="#197376" transform="translate(147,170)"/>
<path d="M0 0 C0.33 1.32 0.66 2.64 1 4 C1.99 3.67 2.98 3.34 4 3 C3.67 7.62 3.34 12.24 3 17 C2.67 17 2.34 17 2 17 C1.67 13.7 1.34 10.4 1 7 C0.34 7.66 -0.32 8.32 -1 9 C-0.67 6.03 -0.34 3.06 0 0 Z " fill="#6CBABD" transform="translate(13,57)"/>
<path d="M0 0 C2.31 0.66 4.62 1.32 7 2 C6.67 2.66 6.34 3.32 6 4 C5.34 3.67 4.68 3.34 4 3 C4 3.99 4 4.98 4 6 C-0.455 5.01 -0.455 5.01 -5 4 C-5 3.67 -5 3.34 -5 3 C-3.35 2.67 -1.7 2.34 0 2 C0 1.34 0 0.68 0 0 Z " fill="#9CCCCE" transform="translate(241,10)"/>
<path d="M0 0 C-2.97 2.97 -5.94 5.94 -9 9 C-9.66 8.67 -10.32 8.34 -11 8 C-4.35887097 -2.17943548 -4.35887097 -2.17943548 0 0 Z " fill="#097074" transform="translate(242,181)"/>
<path d="M0 0 C1.0516399 3.15491969 0.98032423 4.03355588 0.1875 7.125 C0.01605469 7.82882813 -0.15539062 8.53265625 -0.33203125 9.2578125 C-1 11 -1 11 -3 12 C-3 11.01 -3 10.02 -3 9 C-3.99 9.495 -3.99 9.495 -5 10 C-3.66511872 6.40608886 -2.03977277 3.24509304 0 0 Z " fill="#197A7E" transform="translate(249,164)"/>
<path d="M0 0 C3.7952131 1.49097658 5.61042731 3.75700849 8 7 C7.34 7.66 6.68 8.32 6 9 C4.99406757 7.8803014 3.9954151 6.7540588 3 5.625 C2.443125 4.99851563 1.88625 4.37203125 1.3125 3.7265625 C0 2 0 2 0 0 Z " fill="#1E8084" transform="translate(155,172)"/>
<path d="M0 0 C0.33 0 0.66 0 1 0 C1 3.63 1 7.26 1 11 C-2.375 11.625 -2.375 11.625 -6 12 C-6.66 11.34 -7.32 10.68 -8 10 C-5.36 9.34 -2.72 8.68 0 8 C0 5.36 0 2.72 0 0 Z " fill="#098185" transform="translate(216,144)"/>
<path d="M0 0 C2.97 0 5.94 0 9 0 C9 0.99 9 1.98 9 3 C6.36 3 3.72 3 1 3 C0.67 2.01 0.34 1.02 0 0 Z " fill="#09797D" transform="translate(186,152)"/>
<path d="M0 0 C0.99 0.495 0.99 0.495 2 1 C2.6875 4.5 2.6875 4.5 3 8 C2.67 8.33 2.34 8.66 2 9 C1.63239269 11.32817964 1.29758419 13.6618385 1 16 C0.67 16 0.34 16 0 16 C0 10.72 0 5.44 0 0 Z " fill="#248F93" transform="translate(252,136)"/>
<path d="M0 0 C0.89203125 0.00902344 1.7840625 0.01804687 2.703125 0.02734375 C3.37859375 0.03894531 4.0540625 0.05054687 4.75 0.0625 C4.75 0.3925 4.75 0.7225 4.75 1.0625 C4.12351562 1.11148438 3.49703125 1.16046875 2.8515625 1.2109375 C2.03429687 1.28570312 1.21703125 1.36046875 0.375 1.4375 C-0.43710938 1.50710937 -1.24921875 1.57671875 -2.0859375 1.6484375 C-4.45334191 1.89142588 -4.45334191 1.89142588 -6.25 4.0625 C-9.375 3.6875 -9.375 3.6875 -12.25 3.0625 C-8.04248553 0.25749035 -5.00014586 -0.06579139 0 0 Z " fill="#3B888A" transform="translate(98.25,114.9375)"/>
<path d="M0 0 C4.87664009 -0.34833144 7.77050005 0.58314288 12 3 C12 3.33 12 3.66 12 4 C10.33388095 4.042721 8.66617115 4.04063832 7 4 C6.67 3.67 6.34 3.34 6 3 C3.67182036 2.63239269 1.3381615 2.29758419 -1 2 C-0.67 1.34 -0.34 0.68 0 0 Z " fill="#107275" transform="translate(208,117)"/>
<path d="M0 0 C3.52834378 0.60041144 3.90567885 0.87685849 6.25 3.9375 C8 7 8 7 8 9 C7.34 9 6.68 9 6 9 C4.4921875 7.03125 4.4921875 7.03125 2.875 4.5 C2.33617187 3.6646875 1.79734375 2.829375 1.2421875 1.96875 C0.83226562 1.3190625 0.42234375 0.669375 0 0 Z " fill="#1E8588" transform="translate(225,127)"/>
<path d="M0 0 C-1.1875 1.5625 -1.1875 1.5625 -3 3 C-5.625 2.8125 -5.625 2.8125 -8 2 C-8.33 1.34 -8.66 0.68 -9 0 C-5.93109813 -1.53445094 -3.29905734 -0.54984289 0 0 Z " fill="#1D7B7E" transform="translate(187,192)"/>
<path d="M0 0 C3.37503669 1.1858237 5.64722731 2.27573689 8 5 C6.35 5.33 4.7 5.66 3 6 C2.67 5.01 2.34 4.02 2 3 C1.34 3 0.68 3 0 3 C0 2.01 0 1.02 0 0 Z " fill="#177A7E" transform="translate(64,183)"/>
<path d="M0 0 C0.66 0.33 1.32 0.66 2 1 C0.02 2.98 -1.96 4.96 -4 7 C-4.66 6.67 -5.32 6.34 -6 6 C-6 5.01 -6 4.02 -6 3 C-4.03533587 1.93224776 -2.03144641 0.93446535 0 0 Z " fill="#2D7E81" transform="translate(127,186)"/>
<path d="M0 0 C1.65 0 3.3 0 5 0 C4.34 2.31 3.68 4.62 3 7 C2.34 6.01 1.68 5.02 1 4 C0.34 4 -0.32 4 -1 4 C-0.67 2.68 -0.34 1.36 0 0 Z " fill="#7FC4C6" transform="translate(17,46)"/>
<path d="M0 0 C2.96865509 2.54456151 4.3619751 5.48994665 6 9 C5.01 9 4.02 9 3 9 C0 3.375 0 3.375 0 0 Z " fill="#248A8E" transform="translate(51,165)"/>
<path d="M0 0 C0.66 0.33 1.32 0.66 2 1 C1.030625 1.45375 0.06125 1.9075 -0.9375 2.375 C-4.07079582 3.65786221 -4.07079582 3.65786221 -5 6 C-6.32 5.34 -7.64 4.68 -9 4 C-7.54618103 3.30300448 -6.08677047 2.61766134 -4.625 1.9375 C-3.40683594 1.36322266 -3.40683594 1.36322266 -2.1640625 0.77734375 C-1.44992188 0.52082031 -0.73578125 0.26429687 0 0 Z " fill="#9DC3C4" transform="translate(55,11)"/>
<path d="M0 0 C0.66 0.33 1.32 0.66 2 1 C1.67 2.32 1.34 3.64 1 5 C-0.32 5.33 -1.64 5.66 -3 6 C-3.33 4.68 -3.66 3.36 -4 2 C-2.125 0.9375 -2.125 0.9375 0 0 Z " fill="#207B7E" transform="translate(225,189)"/>
<path d="M0 0 C1.98 0.66 3.96 1.32 6 2 C6 2.66 6 3.32 6 4 C3.625 4.1875 3.625 4.1875 1 4 C0.34 3.01 -0.32 2.02 -1 1 C-0.67 0.67 -0.34 0.34 0 0 Z " fill="#0D7276" transform="translate(174,188)"/>
<path d="M0 0 C0.66 0.33 1.32 0.66 2 1 C2 2.98 2 4.96 2 7 C1.34 7 0.68 7 0 7 C-0.66 5.02 -1.32 3.04 -2 1 C-1.34 0.67 -0.68 0.34 0 0 Z " fill="#91D1D3" transform="translate(284,53)"/>
</svg>
