<?xml version="1.0" encoding="UTF-8"?>
<svg version="1.1" viewBox="0 0 1600 1523" width="209" height="199" xmlns="http://www.w3.org/2000/svg">
<path transform="translate(0)" d="m0 0h1600v1523h-1600z" fill="#F6F6F5"/>
<path transform="translate(637,22)" d="m0 0h55l37 2 26 5 36 9 40 13 28 11 25 12 22 12 17 10 18 12 14 10 19 14 14 12 10 10 8 7 25 25 7 8 11 13 9 11 10 13 8 10 8 11 14 21 13 23 16 28 13 23 18 34 11 25 7 24 1 4 1 15 2-5 6-7 8-5 3-1 12-1 3-1h9l6 4h5l1-1h7l10 5 12 4 12 7 5 8 8 25 4 11-1 7-1 3-1 33-2 6v11l1 5 9-1 9-6 14-6 5 1 11 8 1 2h-3v3l-5 4-4 8-12 7-14 9-12 6-6 1-17-9v-11l3-5 4-12-1-7-10-9-9-7-12-8-5-7v-20l-5-6-9-9-3-1-2 4-5 8-2 2-5 2-1 3 5 14 8 20 5 12 9 28 5 17 7 27 2 14 2 8v3l5-5 3-5 3-9 8-7 6-2 1 4 6 1 14-8 11-6 12-5 7-1 5-2v-2l21-7 7-2 15-2 10-7 11-7 7-3h18l20 5 9 7h11l8 3 11 7 7 2v2l5 1 5 4 7 11 4 9 5 12 4 12 3 8 1 5v8l-2 1-1 32-2 8v6l4 5 5 5 1 7 35-7 8-2h4l6 8 4 4-1 4-9 2-9 7-18 6-17 5-10 2h-14l-9-6-2-3v-12l4-5 3-7-1-9-2-4-5-4-6-7-6-4-10-5-12-15-4-10-1-18-4-2-4-6-7-4-8-2-5-4-5-5-4 1-5 6-25 10-16 5-10 4-16 2-33 11-15 6-4 1h-7l-6-1-1 1h-7l-13-5-3-1-1 4v30h-2l-2-7v11l2 4 2 1 3 7 8 1 9 6 14 6 10 5 23 10 15 7 13 5 7 4 10 4 11 7 23 16 24 16 13 10 18 13 10 6 3 1-1 5-3 5-8-2-10-9-19-14-46-32-21-12-16-8-19-9-15-8-11-5-12-6-11-4-9-1 2 7 6 7v7l3 5 13 10 11 8 5 8v11l-5 13-6 10-9 9-7 3h-11l-17-6-15-7-4 1-9 8-11 8-15 10 1 5 5 7 1 3v10l-5 13-8 12-9 8-5 3h-14l-23-11-9-3-2 1v4l-5 2 2 5 1 4 10 4v2l6 2 18 10 16 7 13 4 10 2 9 3 13 4 42 13 22 5 3 3-1 4-4 6-5-1-16-8-26-8-18-5-30-10-17-4-9-3-4 6h-2l-2 4-7 10-11 13-24 24-13 9-13 8-12 6-16 10-14 7-11 4-35 10-27 6-35 6-24 2h-63l-15 1-12-3-6-3-3-4-1-5h-3v3l-2 1-4 8-3 5-5 12-4 17-9 20-7 8-2 4-1 8-1 1-2 14-6 22-2 7-3 35-4 20-4 10-4 8-6 16-2 13-3 10-6 10-2 5-1 12-4 9 2 4 6 3 2 9h2v13l-4 9-5 9-8 16-8 14-9 10-5 5-5 6-2 1h-8l-4-3-13-2 3-10 10-25 8-19 5-12 4-16 4-9 5-6 4 1v-2h2v-28l-4-7v-54l3-23 3-16 3-24 3-20 4-33 4-27 4-16 5-15 8-11 4-6 3-7 7-12-6-3v-2h-2v-2l-11-3-13-5-28-6-29-9-8-4-17-6-12-5-18-7-43-10-10-4-11-7-8-7 1-6 2-5 1-1-4 1-20 11-7 2-9 18-10 9-10 6-2 2-4 16-5 12-4 7-6 10-3 7v10l1 1v14l-4 13-6 10-8 10-5 6-5 8-6 18-5 4-6 5-3 9-5 12v11l7 5 2 4 2 12 1 4-11 9-12 9-10 8-17 12-6 4-10 1-10 6-8-1-1-4 7-6 1-2-6 2-5 5-5-1-2-2 1-5 7-7 8-7 3-1v-2l11-9 13-10h2l2-4 1-16 4-6 7-8 8-4 2-8 2-10 1-6-4-4-2-6v-10l1-11v-14l-1-4v-9l7-28 7-22 5-17 7-21 6-15 12-22 4-6 4-10 9-10 10-9 7-6 2 1-3 3 12 3 10 5 5 1 4-8 5-3 1-7 1-4 5-1 1-4-13-2-3-2h-5l6-7 2-2h10l15 3 5-3 5-5 10-9 15-10 19-10 13-5 12-6-3-3-8-3-12-3-29-10-5-2-20-4-21-5-9-3-30-9-32-12-29-13-19-10-9-5-39-2-19-3-6 1-3 2h-12l-48-2-9-2-8-4-4 1-3 7-7 6-7 3-12 1-4 4-4 10-4 8-5 5-11 8v7l2 4v7l-4 13-4 10-14 8-8 4-4 6-6 11-10 9-4 5-3 10v6l8 4 1 9v12l-6 3-9 2-31 4-19 2h-18l-3-5v-5h-2v6l-1 2h-11v-20l24-4 31-3 7-2v-11l2-6 14-6 3-6 1-5v-43l-5-8v-9l6-17 5-11 5-13 4-9 9-16 3-3 7-3 4-9 11-8 7-4 11-4 3-4 1-4 11-7 18-5 12-5 14-4h18l9 3 10 6 4 1 7-3 5-1h9l-7-8-3-2-3-7-5-5-6-12-3-1-3-6-6-9-8-17-5-16-7-28-5-22-4-32-1-13v-60l2-25 7-49 9-42 8-27 7-19 11-24 13-26 13-22 9-14 16-21 12-14 14-14 8-7 9-9 8-7 16-13 18-13 21-13 24-13 24-12 28-12 25-8 30-8 26-5 24-3z" fill="#8D2309"/>
<path transform="translate(1100,408)" d="m0 0h25l7 3 9 6 14 9 11 9 4 2 2 6h4l2 6 2-5 6-7 8-5 3-1 12-1 3-1h9l6 4h5l1-1h7l10 5 12 4 12 7 5 8 8 25 4 11-1 7-1 3-1 33-2 6v11l1 5 9-1 9-6 14-6 5 1 11 8 1 2h-3v3l-5 4-4 8-12 7-14 9-12 6-6 1-17-9v-11l3-5 4-12-1-7-10-9-9-7-12-8-5-7v-20l-5-6-9-9-3-1-2 4-5 8-2 2-5 2-1 3 5 14 8 20 5 12 9 28 5 17 7 27 2 14 2 8v3l5-5 3-5 3-9 8-7 6-2 1 4 6 1 14-8 11-6 12-5 7-1 5-2v-2l21-7 7-2 15-2 10-7 11-7 7-3h18l20 5 9 7h11l8 3 11 7 7 2v2l5 1 5 4 7 11 4 9 5 12 4 12 3 8 1 5v8l-2 1-1 32-2 8v6l4 5 5 5 1 7 35-7 8-2h4l6 8 4 4-1 4-9 2-9 7-18 6-17 5-10 2h-14l-9-6-2-3v-12l4-5 3-7-1-9-2-4-5-4-6-7-6-4-10-5-12-15-4-10-1-18-4-2-4-6-7-4-8-2-5-4-5-5-4 1-5 6-25 10-16 5-10 4-16 2-33 11-15 6-4 1h-7l-6-1-1 1h-7l-13-5-3-1-1 4v30h-2l-2-7v11l2 4 2 1 3 7 8 1 9 6 14 6 10 5 23 10 15 7 13 5 7 4 10 4 11 7 23 16 24 16 13 10 18 13 10 6 3 1-1 5-3 5-8-2-10-9-19-14-46-32-21-12-16-8-19-9-15-8-11-5-12-6-11-4-9-1 2 7 6 7v7l3 5 13 10 11 8 5 8v11l-5 13-6 10-9 9-7 3h-11l-17-6-15-7-4 1-9 8-11 8-15 10 1 5 5 7 1 3v10l-5 13-8 12-9 8-5 3h-14l-23-11-9-3-2 1v4l-5 2 2 5 1 4 10 4v2l6 2 18 10 16 7 13 4 10 2 9 3 13 4 42 13 22 5 3 3-1 4-4 6-5-1-16-8-26-8-18-5-30-10-17-4-9-3-4 6h-2l-2 4-7 10-11 13-24 24-13 9-13 8-12 6-16 10-14 7-11 4-35 10-27 6-35 6-24 2h-63l-15 1-12-3-6-3-3-4-1-5h-3v3l-2 1-4 8-3 5-5 12-4 17-9 20-7 8-2 4-1 8-1 1-2 14-6 22-2 7-3 35-4 20-4 10-4 8-6 16-2 13-3 10-6 10-2 5-1 12-4 9 2 4 6 3 2 9h2v13l-4 9-5 9-8 16-8 14-9 10-5 5-5 6-2 1h-8l-4-3-13-2 3-10 10-25 8-19 5-12 4-16 4-9 5-6 4 1v-2h2v-28l-4-7v-54l3-23 3-16 3-24 3-20 4-33 4-27 4-16 5-15 8-11 4-6 3-7 7-12-6-3v-2h-2v-2l-11-3-13-5-28-6-29-9-8-4-17-6-12-5-18-7-43-10-10-4-11-7-8-7 1-6 2-5v-3l17-9 21-13 20-12h2v-2h3v-2h3v-2l7-4 3-4 5-3 6-7 5-3 10-8 11-8 3-1 2-4 2-2 20-3 9-2 9-6 4-8 6-16 5-15 11-29 4-12 8-18 10-18 10-15 10-17 22-33 3-6 18-22 10-12 10-13 13-15 12-14 11-12 12-13 8-7 7-7 8-7 13-11 14-12 19-14 16-12 13-9 7-4 1-2 6-3 3-4h2l2-4 4-7 32-15 30-11 21-7z" fill="#292A2A"/>
<path transform="translate(637,22)" d="m0 0h55l37 2 26 5 36 9 40 13 28 11 25 12 22 12 17 10 18 12 14 10 19 14 14 12 10 10 8 7 25 25 7 8 11 13 9 11 10 13 8 10 8 11 14 21 13 23 16 28 13 23 18 34 11 25 7 24 1 4v12l-2-2-4-1-1-4v-2l-5-2-14-11-15-9-5-4-6-2h-25l-19 3-30 10-25 10-8 2-11 5-9 1-7-7-10-16-2-2-2-5-2-2-3-8-10-17-9-14-11-19-13-22-6-11 1-3 15-9 4-5 2-4v-8l4-5 1-3v-9l-2-13-4-17-5-10-14-21-11-10-17-12-14-9-10-7-8-3-10-1-28-1-24 3-4 1-4 5-3 5-6 8-4 7h-2l-3 10v18l3 19 5 15 8 16 10 13 11 11 14 9 21 10 17 5 9 2 13 2 4 1 4 10h2v17l-4 16-7 20-21 49-1 1-21-1-34-3-49-2-82-2h-77l-64 3h-10l-7-3-8-13-10-18-14-32-10-28-8-29-8-36-5-26v-5h-2v-2l-4 3-1 15-3 7h-2l-1 5-5 7-1 3-6 3-3 3-6 1-2-6-8-2-15 5-8 4-9 3-9 1h-11l-7-3-6-4 1-3 4-1h9l10-3 16-8 9-7 12-9 14-10 12-11 13-13 10-16 11-30 3-12v-16l-4-8-2-3-15-4h-18l-23 6h-3v2l-8 4-2 2h-3v2l-10 7-9 9-9 11-7 6-12 18-8 14-7 16-5 17h-2v2l-4 4h-2v2l-8 6-8-2-4 2-4 11-5 6-8 16-3 4-1 5h-2l-2 6-6 15-4 6-2 13-4 12-2 5-3 12-1 11h-2l1 7 1 5-2 10-3 9-2 16-1 5-1 8-3 15-1 23 2 14v7l1 4-1 11 1 13 1 5-1 7 1 14 2 11 1 4-2 9v8l-1 3-3-1v-3h-2l-9-39-4-32-1-13v-60l2-25 7-49 9-42 8-27 7-19 11-24 13-26 13-22 9-14 16-21 12-14 14-14 8-7 9-9 8-7 16-13 18-13 21-13 24-13 24-12 28-12 25-8 30-8 26-5 24-3z" fill="#D63005"/>
<path transform="translate(434,133)" d="m0 0h18l15 4 6 9 1 3v16l-3 12-11 30-10 16-22 22-11 8-16 12-7 5h-2l-1 3-16 8-8 3-6 1h-7l-4 1v2l8 5 4 1h17l11-3 6-4 18-6 8 2 2 6 7-2 4-3 4-1 1-5 5-7 1-3 2-1 2-6 1-15 3-3h2v2h2l8 41 9 38 9 29 11 28 12 26 10 17 5 8 6 2 28-1 46-2h77l82 2 49 2 48 4h7l13-30 10-24 8-25 1-6v-16l-3-2-2-9-4-1 18-4h9l11 20 9 15 10 18 13 22 12 20 8 12 7 9v2l9 3-4 4-14 8-28 19-18 14-16 13-15 13-13 10h-2v2l-8 7-19 19-8 7-20 20-1 2h-2l-2 4-9 10-8 11-10 14-3 2v-3l-6 2-8 6-6 3-5-1v-2l-12 2-3 1v2h-8l-3 2-10 2-24 8-13 3-5 3-9 2h-23l-15-4-9-1-2-1-10-1-13-3-9-2-2-1-15-1-18-4-13-5-7-5-1-4-4-2-5-3-2-4-4-1-3-7-1-12-1-3v-12l6-24 1-7v-14l-5-21-4-12-8-16-8-11-12-11-7-3-13-6-17-4h-18l-9 2v2l-16 8-5 4-5 2-12 12-6 7-13-6h-2v12l5 5 3 4-3 21-1 30-3-3-3-6v-14l-5-14-1 3-3-1-3-3v2l-13 3h-9l-6-2-5 5-8 2h-8l-2-1-3 9-9 3-4 5h-2v5l-8 5-3 5-8 3v8l-2 7v13l3 19 1 5v12l3 8v3h-2l-1 4 1 5 1 14-5-2-2-4-3-1-3-6-6-9-8-17-5-16-2-7 1-4 1 3 2 1v-14l2-7-2-6-1-14-1-12 1-4-1-9-1-10 1-11-1-3-1-16-1-5 1-22 4-20v-7l2-7v-6l4-13 2-11-2-8 1-3h2l-1-3 3-17 3-8 5-16 1-9 6-10 5-14 2-3h2l1-7 5-8 6-12 4-4 5-12 6-2 5 2 4-2 3-3h2v-2h2l2-4h2v-2h2l1-8 7-19 9-17 12-18 4-5 6-5 9-11 11-11 6-4h2v-2l7-4 6-2v-2l17-5z" fill="#A72502"/>
<path transform="translate(1261,733)" d="m0 0h9l14 5 9 5 11 5 23 12 24 11 27 16 17 12 3 3 1 3-4 2-9-1h-2l3 10 6 10 3 7 1 12-3 9-12 20-6 16-2 3-2 7-4 4-7 18-5 9-2 9-16 32-5 12-5 11-13 26h-2l-2 4-6 8-6 12-9 10-6 10-7 10-14 15-5 5-4 5-9 7-8 7-11 8-5 4-16 8-24 11-21 8-16 8-25 11-37 12-25 8-44 14-16 6-21 7-12 3-10 4-9 3-13 5-20 6-14 7-18 7-8 4-15 6-8 5-11 4-15 12-7 3-8 6-1 2h-3l-2 4-6 4-4 4h-2l-1 3-8 7-5 13-3 4-2 7-4 8-6 17-6 9-8 6-8 1-7-3-5-5-2-10 4-9 1-13h-2l-2-9-6-2-3-3 2-5 2-6 1-12 7-14 2-3 3-16 4-14 4-9 6-12 4-17 2-16 2-26 2-7 7-27 1-9 1-1 2-10 4-6 5-6 8-18 5-20 6-13 4-6 2-4h2v-3h2l1-2 3 9 4 3 9 3 9 1 16-1h61l22-2 45-8 32-8 26-8 16-7 14-9 14-8 11-6 11-7 10-8 24-24 8-10 7-10 6-7 2-3 9 3 20 5 14 5 13 4 18 5 26 8 16 8 5 2 2-4 2-3-1-4-5-2-18-4-64-20-17-4-16-6-23-12-7-4v-2l-5-1-5-3-4-7 2-4 3-1 1-4 3-1 12 5 19 9h14l10-7 6-7 6-11 4-10v-10l-4-7-3-4 1-5 15-10 12-9 8-7 4-1 17 8 15 5h11l7-3 9-9 8-16 2-6v-11l-5-8-11-8-13-10-3-5v-7l-7-9z" fill="#D3D3D3"/>
<path transform="translate(641,143)" d="m0 0h27l18 2 31 6 22 6 28 10 10 4 8 2 1 2 5 2-2 5-6 10-1 4h-2l-3 10v18l3 19 5 15 8 16 10 13 11 11 14 9 21 10 17 5 9 2 13 2 4 1 4 10h2v17l-4 16-7 20-21 49-1 1-21-1-34-3-49-2-82-2h-77l-64 3h-10l-7-3-8-13-10-18-14-32-10-28-8-29-8-36-10-52v-5l6-8 13-7 17-12 30-18 23-9 26-8 30-8 22-4z" fill="#F44C22"/>
<path transform="translate(536,931)" d="m0 0 4 1-2 2-2 6 1 5 13 10 10 5 20 5 10 2 20 5 18 7 11 5 18 6 8 4 26 8 28 6 24 9v2h2v2l5 2 2-1-2 5-7 12-2 5-10 15-3 7-5 17-3 15-6 42-3 24-3 20-2 17-4 23-1 10v54l4 7-1 28h-2v2l-5 1-4 5-4 10-4 17-2 3-8 5-9-3-9-10-8-16-4-14-2-10-4-7-9-7-7-6-7-8v-2l-4-2-2-4-5-2-8-6v-2l-5-2-6-5-18-7-12-3-12-2-23-5-13-4-14-3-24-7-17-4-32-3-9-1-13-5-5-3-1-8 12-9 8-7h2l-3-7-1-9-1-4-4-2-4-3v-11l5-12 3-9 7-6 5-5 6-18 7-10 8-9 6-9 4-11 2-6v-14l-1-1v-10l4-9 7-11 5-12 3-9 3-11 6-5 11-7 7-8 5-11 5-5 16-8z" fill="#C4C5C5"/>
<path transform="translate(311,636)" d="m0 0 10 2 14 6 8 5 1 3 5 2 3 4 5 12 2 5 16 6v2l8 1 6 1 10 4 3 2 8 1 5 4 11 2 17 7 6 4 5 2 4 3 17 7v2l11 1 17 7 20 5 26 2 4 1h11l12-1 8 3 7-1 3-1 13-1 5-3 18-2h6l9-3 8-1 2 1h10l8 3h9l4-1 2-4 18-9 4 1-7 8-8 7-4 5-5 5h-2v2l-10 7h-2v2l-5 4-2 4-18 12 4-1 5-4h3v-2l9-5 3-1v-2l7-4 5-4h2v-2l7-4 15-13 13-12 11-11 7-8 12-14 13-15 14-14 9-8v3l-11 17-13 20-12 20-9 14-8 15-7 16-6 18-8 21-7 21-5 12-5 8-10 6-23 3-5 2-5 5-9 7-13 10-7 5-6 7h-3l-2 4-5 4h-3v2h-3v2h-3v2l-29 17-21 13-17 9-16 9-7 2-9 18-10 9-10 6-2 2-4 16-5 12-4 7-6 10-3 7v10l1 1v14l-4 13-6 10-8 10-5 6-5 8-6 18-5 4-6 5-3 9-5 12v11l7 5 2 4 2 12 1 4-11 9-12 9-10 8-17 12-6 4-10 1-10 6-8-1-1-4 7-6 1-2-6 2-5 5-5-1-2-2 1-5 7-7 8-7 3-1v-2l11-9 13-10h2l2-4 1-16 4-6 7-8 8-4 2-8 2-10 1-6-4-4-2-6v-10l1-11v-14l-1-4v-9l7-28 7-22 5-17 7-21 6-15 12-22 4-6 4-10 9-10 10-9 7-6 2 1-3 3 12 3 10 5 5 1 4-8 5-3 1-7 1-4 5-1 1-4-13-2-3-2h-5l6-7 2-2h10l15 3 5-3 5-5 10-9 15-10 19-10 13-5 12-6-3-3-8-3-12-3-29-10-5-2-20-4-21-5-9-3-30-9-32-12-29-13-19-10-9-5-39-2-19-3-6 1-3 2h-12l-48-2-9-2-8-4-4 1-3 7-7 6-7 3-12 1-4 4-4 10-4 8-5 5-11 8v7l2 4v7l-4 13-4 10-14 8-8 4-4 6-6 11-10 9-4 5-3 10v6l8 4 1 9v12l-6 3-9 2-31 4-19 2h-18l-3-5v-5h-2v6l-1 2h-11v-20l24-4 31-3 7-2v-11l2-6 14-6 3-6 1-5v-43l-5-8v-9l6-17 5-11 5-13 4-9 9-16 3-3 7-3 4-9 11-8 7-4 11-4 3-4 1-4 11-7 18-5 12-5 14-4h18l9 3 10 6 4 1 7-3 5-1h9l-7-8 2-1 4 1 3-1 2-6 2-11 4-10 8-9z" fill="#791D07"/>
<path transform="translate(310,742)" d="m0 0 9 1 14 2 39 2 23 12 16 8 23 10 36 13 29 8 9 3 26 6 11 2 10 4 26 9 12 3 6 4-4 4-13 6-13 5-17 9-15 11-11 9-4 5-5 1-13-3h-10l-7 7 5 1 13 3 2 1-1 4-5 1-1 11-6 4-4 8-5-1-10-5-6-2-7-1 2-4-14 13-8 7-6 10-3 8-6 9-8 15-8 20-6 19h-2l-6 10-6 5h-11l-12-5-8-6-12-11-16-16-6-7-11-9-8-8-9-6-10-7-13-11-8-6-7-10-6-7-5-9-6-7-3-7-10-15-4-9-3-13v-12l1-15 1-7v-26l2-9 5-12 4-6 3-4h2l2-4 4-5 8-3 14-1-8-1v-1l44 1z" fill="#A9AAAA"/>
<path transform="translate(225,737)" d="m0 0 5 1 9 4 6 1 25 2-1 2-14 1-9 4-5 7-5 5-7 14-2 5-1 8v27l-1 9-1 13v10l4 16 6 11 9 13 2 5 7 9 5 9 7 8 4 6 8 6 13 11 20 14 9 9 10 8 5 6 23 23 10 8 11 5 3 1h11l6-5 6-11h1l-1 8-6 20-8 29-2 9v9l1 4v14l-1 11v12l-1 1 1 12-3 15-15 15-3 5-2 10v10l-7 2h-8l-14-5-7-9-7-14-5-7-4-7-7-12-3-7-14-24-6-7-3-5-7-7-2-1v-2l-4-2-7-8-8-10-5-5-6-7-9-7-12-11-15-10v-2l-4-2-13-11-11-7-13-12-12-11-11-8-5-5-9-6-16-8-12-7-5-6-4-8-4-1h-29v-1l36-4 19-3 9-3v-12l-1-9-7-3-1-1 1-11 4-8 14-14 7-13 5-4 16-8 3-3 7-21v-7l-2-4v-7l12-9h2l7-14 4-9 4-4 12-1 10-5 4-4 3-7z" fill="#C4C5C5"/>
<path transform="translate(1024,870)" d="m0 0 7 1 19 7 5 2v2l6 1 11 6 7 3 17 9 9 5 19 10 18 11 4 3 20 8 15 5-3 1-13-4-7-2-4 6h-2l-2 4-7 10-11 13-24 24-13 9-13 8-12 6-16 10-14 7-11 4-35 10-27 6-35 6-24 2h-63l-15 1-12-3-6-3-3-4-1-5h-2l1-6 5-9 5-13 5-9 2-5 5-8 8-17 5-13h2l2-8 4-9h2l1-5 8-16 4-14 1-1h13l38 1 20-2 21-4 18-6 16-9 13-9 11-9z" fill="#838484"/>
<path transform="translate(912,124)" d="m0 0h10l15 6 7 2 7 5 7 4 14 12 12 11 18 18 7 8 12 14 10 14 8 11 2 4 7 12 6 9 4 5 4 4 3 4 2 5 10 7 1 3 4 1 3 4v2l3 1 4 4 2 5 4 4v3h2l6 9v2h2l3 6 4 5 3 5 4 8 3 5 4 5 6 12 6 9 7 14 2 6 3 10 3 8 6 12 6 7 4 1 3 7 1 6-4 1-2-4v-3l-5-2-14-11-15-9-5-4-6-2h-25l-19 3-30 10-25 10-8 2-11 5-9 1-7-7-10-16-2-2-2-5-2-2-3-8-10-17-9-14-11-19-13-22-6-11 1-3 15-9 4-5 2-4v-8l4-5 1-3v-9l-2-13-4-17-5-10-14-21-11-10-17-12-14-9-10-7-8-3v-1l8 1 4 1v2l6 2 5 3h5l-3-5v-5l7-1v-7l-3-5v-2l-5-2-9-7-1-7 7-2h8l3-3 3 1h10l1-7z" fill="#BE2E0C"/>
<path transform="translate(536,931)" d="m0 0 4 1-2 2-2 6 1 5 13 10 10 5 20 5 10 2 20 5 18 7 11 5 18 6 8 4 26 8 28 6 24 9v2h2v2l5 2 2-1-2 5-7 12-2 5-10 15-3 7-5 17-3 12h-2l-1 12-2 12-6 12-9 10-5 3-6 2h-8l-6-1-18-1-25-4-16-3-13-2-13-3-15-4-12-3-10-4-9-5-7-6-25-13-10-6-11-4-9-3-8-5-5-6-7-13-3-15-2-13-2 1 3-9 7-11 5-12 3-9 3-11 6-5 11-7 7-8 5-11 5-5 16-8z" fill="#A9AAAA"/>
<path transform="translate(786,652)" d="m0 0v3l-11 17-13 20-12 20-9 14-8 15-7 16-6 18-8 21-7 21-5 12-5 8-10 6-23 3-5 2-5 5-9 7-13 10-7 5-6 7h-3l-2 4-5 4h-3v2h-3v2h-3v2l-29 17-21 13-17 9-16 9-7 2-9 18-10 9-10 6-2 2-4 16-5 12-4 7-6 10-3 7v10l1 1v14l-4 13-6 10-8 10-5 6-5 8-6 18-5 4-6 5-3 9-5 12v11l7 5 2 4 2 12 1 4-11 9-12 9-10 8-17 12-6 4-10 1-10 6-8-1-1-4 7-6 1-2-6 2-5 5-5-1-2-2 1-5 7-7 8-7 3-1v-2l11-9 13-10h2l2-4 1-16 4-6 7-8 8-4 2-8 2-10 1-6-4-4-2-6v-10l1-11v-14l-1-4v-9l7-28 7-22 5-17 7-21 6-15 12-22 4-6 4-10 9-10 10-9 7-6 2 1-3 3 12 3 10 5 5 1 4-8 5-3 1-7 1-4 5-1 1-4-13-2-3-2h-5l6-7 2-2h10l15 3 5-3 5-5 10-9 15-10 19-10 13-5 12-6-3-3-8-3-12-3-29-10-5-2-20-4-21-5v-1l9 1 27 5h37l18-3 20-6 16-7 5-3h2v-2l12-6 10-7h3v-2l9-5 3-1v-2l7-4 5-4h2v-2l7-4 15-13 13-12 11-11 7-8 12-14 13-15 14-14z" fill="#292A2A"/>
<path transform="translate(1158,937)" d="m0 0 9 3 20 5 14 5 13 4 18 5 23 7v1l-11-1-8-2-1 6-7 16-7 11-8 10h-2l-2 4-8 8-7 8-10 10h-2v2h-2l-2 4-5 5-7 6h-2v2l-8 6-16 9-16 8-17 6-21 9-24 9-17 5-20 7-34 8-36 6-34 6-12 2-31 2h-38l-5-1-30-1-14-3-11-11-1-7-1-3 8-18 5-20 6-13 4-6 2-4h2v-3h2l1-2 3 9 4 3 9 3 9 1 16-1h61l22-2 45-8 32-8 26-8 16-7 14-9 14-8 11-6 11-7 10-8 24-24 8-10 7-10 6-7z" fill="#A9AAAA"/>
<path transform="translate(1236,964)" d="m0 0 8 1 14 2 16 8v3h3v2h3l2 6-3 15-4 14-6 11-7 10-9 14-11 12-9 8-12 12-6 4-17 12-14 8-11 6-11 7-19 9-21 9-20 6-35 10-17 5-22 6-48 15-30 8-21 5-24 6-15 4-27 4-9 1-6 2h-10l-16 2-14-2-21-2-10-3-5-5-5-7-3-12 2-26h-2l2-18 1-1 2-10 4-6 6-5 1 2 1 7 10 10 14 3 30 1 5 1h38l31-2 24-4 19-3 25-5 19-3 36-9 19-7 16-5 34-13 11-5 16-6 20-10 11-7 3-3h2v-2l10-8h2l2-4 2-3h2v-2l8-7 9-9 7-8 5-6 5-5 8-11 7-14z" fill="#C4C5C5"/>
<path transform="translate(671,845)" d="m0 0h8l18 7 20 12 20 11 35 15 35 13 26 9-2 6-4 5-3 6 12 1v3l-6 1h-5l-1-3-6 3-3 7-10 19-6 12-3 7-2 3-2 6-1 2h-3l-1 5-5 4-5 2-4 3h-2l-1 3-8 6-2 3h5l1 3h21v8l-8 28-2 4-13-2-15-3h-15l6-10 7-14 4-7h-3l-3-2v-2h-2v-2l-11-3-13-5-28-6-29-9-8-4-17-6-12-5-18-7-43-10-10-4-11-7-8-7 1-6 2-5v-3l17-9 21-13 20-12h2v-2h3v-2h3v-2l7-4 3-4 5-3 6-7 5-3 10-8 11-8 8-6z" fill="#6E6F6F"/>
<path transform="translate(310,742)" d="m0 0 9 1 14 2 39 2 23 12 16 8 23 10 36 13 29 8 9 3 26 6 11 2 10 4 26 9 12 3 6 4-4 4-13 6-13 5-17 9-15 11-11 9-4 5-5 1-13-3h-10l-7 7 5 1 13 3 2 1-1 4-5 1-1 11-6 4-4 8-5-1-10-5-6-2-7-1 2-4-14 13-8 7-5 5-5 6-3 1h-8l-10-5-7-6-14-14-2-5h-2v-2l-4-2-7-8-8-10-9-12-9-11-7-10-5-10-5-9-7-17-5-22-3-15v-9l4-10 2-11-10-2z" fill="#838484"/>
<path transform="translate(637,22)" d="m0 0h55l37 2 26 5 36 9 40 13 28 11 25 12 22 12 17 10 18 12 14 10 19 14 14 12 10 10 8 7 25 25 7 8 11 13 9 11 10 13 8 10 8 11 14 21 13 23 16 28 13 23 18 34 11 25 7 24 1 4v12l-2-4-3-11-5-2-8-10-5-12-5-13-1-5-4-10-4-6-2-4-6-9-5-10-6-8-2-6-4-5-4-7-2-2-1-5h-2l-6-9v-2h-2l-1-5-4-2-1-5-4-2-6-7v-2l-4-1-5-5-8-6-2-5-3-4v-2l-4-2-7-10-8-13-3-5-6-9-10-14-14-17-16-17-16-16-11-9-8-7-14-11-7-6-18-13-21-14-25-14-12-7-4-3-6-1-3-2-11-1-8-4v-2h-4v-2l-8-2v-2l-6-1-10-4-14-4-17-5-21-5-10-3-7-3-20-4-27-3h-55l-37 3-18 3-6 4-5 5-5 1-1 5 6-1h9v3l-7 3-31 8-32 12-24 10-16 8-18 10-16 10-16 12-10 7h-2l-1 3h-2l-1 4-5 5-6 5-2 6v4l-6 8-9 10-13 17-12 19-9 19-6 20h-2v2l-4 4h-2v2l-8 6-8-2-4 2-4 11-5 6-8 16-3 4-1 5h-2l-2 6-6 15-4 6-2 13-4 12-2 5-3 12-1 11h-2l1 7 1 5-2 10-3 9-2 16-1 5-1 8-3 15-1 23 2 14v7l1 4-1 11 1 13 1 5-1 7 1 14 2 11 1 4-2 9v8l-1 3-3-1v-3h-2l-9-39-4-32-1-13v-60l2-25 7-49 9-42 8-27 7-19 11-24 13-26 13-22 9-14 16-21 12-14 14-14 8-7 9-9 8-7 16-13 18-13 21-13 24-13 24-12 28-12 25-8 30-8 26-5 24-3z" fill="#F44D23"/>
<path transform="translate(1411,625)" d="m0 0 5 1 5 6 5 3 8 2 7 5 4 6 3 3 1 16 4 10 11 14 13 7 9 8 5 5 4 8v6l-5 10-2 2v12l5 5 5 3h14l18-4 3 1-10 5-12 3 1 2h11l4 1-2 4-4 2-12 3-8 4-7 5-13 3-18 2h-7l-13-2-15-4-13-4-30-6-16-5-2 2-12-6-15-7-19-8-18-8-15-7-24-11-5-4-8-1-3-4v-4l-4-2-1-3v-11l2-1 1 8h2l-1-9v-21l2-5 9 3 7 3h7l5-1 2 1h7l45-16 14-3 9-1 13-5 13-4 25-10z" fill="#D3D3D3"/>
<path transform="translate(909,703)" d="m0 0h6l5 4 7 10 4-1 5-5 5-6h7l7 7 6 8 4 1v-2l6-3 8 1-2 4-5 5-1 4 5 6 2 1h6l7-5h5v4l-5 5-4 6 1 4 3 4 7 1 8-6h4l-1 5-7 9 1 4 6 6 5 2 1 5v8l-9 4-6 5 1 4 8 7 4 3-1 6-5 5-10 8v7l2 4v6l-6-2-4-4-7 1-4 3v8l3 3 6 2-1 3h-2v2h-10l-8-7-5 2-4 6 2 9 1 3h-2l-3-4 2 4-4-1-2-4-7 1-9 9-5 2-9 2v-3l-5 4h-13l-11-5-6-4-7-9-3-2-4 1-6 3h-5l-3-4 10-6-1-6-4-4v-2l-7 3-6 5h-5l-3-4-1-5 9-4 3-3-2-6-4-2-16 1 2-4 3-5-1-7-9-8-4-10v-6l3 2 7-1 9-4-1-4-5-5-8-4-1-5 2-5 9-7 6-4 1-6-5-9v-2h5l7 6 5-1 6-3 1-1-1-7-4-7v-5l5 1 9 7 3 1v-2l7-2 1-6-5-9v-4l5 1 7 5 7-1z" fill="#F0F0EF"/>
<path transform="translate(440,446)" d="m0 0h18l17 4 16 8 8 7 8 8 7 10 8 16 6 17 3 13v17l-4 19-6 17-8 16-7 11-11 12-7 6-9 5-13 2-16-1-15-4-16-8-13-11-11-15-9-17-7-18-2-15v-17l3-23 5-14 6-10 9-10 8-8 11-7 10-5h2v-2z" fill="#282929"/>
<path transform="translate(1261,733)" d="m0 0h9l14 5 9 5 11 5 14 7-2 1 1 4 5 3v2h2v2l3 1 1 2 1 9 5 14 3 4 3 14-2 14-3 10-2 13-1 29-4 17-3 14-7 20-7 16-7 11-9 9-2 1-9-1-2-1-1 2-22-5-64-20-17-4-16-6-23-12-7-4v-2l-5-1-5-3-4-7 2-4 3-1 1-4 3-1 12 5 19 9h14l10-7 6-7 6-11 4-10v-10l-4-7-3-4 1-5 15-10 12-9 8-7 4-1 17 8 15 5h11l7-3 9-9 8-16 2-6v-11l-5-8-11-8-13-10-3-5v-7l-7-9z" fill="#C4C5C5"/>
<path transform="translate(229,676)" d="m0 0h18l9 3 10 6 4 1 7-3 5-1h11v2l4 2 10 11h-3l-4-1v6l4 4v2l4 2 5 4 13 3-4-5-6-5h3l8 7 36 27 7 5v1h-14l-23-1-19-3-6 1-3 2h-12l-48-2-9-2-8-4-4 1-3 7-7 6-7 3-12 1-4 4-4 10-4 8-5 5-11 8v7l2 4v7l-4 13-4 10-14 8-8 4-4 6-6 11-10 9-4 5-3 10v6l8 4 1 9v12l-6 3-9 2-31 4-19 2h-18l-3-5v-5h-2v6l-1 2h-11v-20l24-4 31-3 7-2v-11l2-6 14-6 3-6 1-5v-43l-5-8v-9l6-17 5-11 5-13 4-9 9-16 3-3 7-3 4-9 11-8 7-4 11-4 3-4 1-4 11-7 18-5 12-5z" fill="#292A2A"/>
<path transform="translate(1396,569)" d="m0 0h18l20 5 9 7h11l8 3 11 7 7 2v2l5 1 5 4 7 11 4 9 5 12 4 12 3 8 1 5v8l-2 1-1 32-2 8v6l4 5 5 5 1 7 35-7 8-2h4l6 8 4 4-1 4-9 2-9 7-18 6-17 5-10 2h-14l-9-6-2-3v-12l4-5 3-7-1-9-2-4-5-4-6-7-6-4-10-5-12-15-4-10-1-18-4-2-4-6-7-4-8-2-5-4-5-5-4 1-5 6-25 10-16 5-10 4-16 2-27 9-10 1-14 4-12 1-4 1-2-2h-9l1-3-2-1v-2l-3-1-2-5 1-12 7-2 2-4 5-7h2l1-9-10-2 3-3 4-1 1 4 6 1 14-8 11-6 12-5 7-1 5-2v-2l21-7 7-2 15-2 10-7 11-7z" fill="#2A2B2B"/>
<path transform="translate(1244,731)" d="m0 0h8l7 3 7 9 3 4v7l3 5 13 10 11 8 5 8v11l-5 13-6 10-9 9-7 3h-11l-17-6-15-7-4 1-9 8-11 8-15 10 1 5 5 7 1 3v10l-5 13-8 12-9 8-5 3h-14l-23-11-9-3-2 1v4l-8 1-8-5-14-10-12-9-6-4v-2l3-2h6l4 3h4l8-21 9-20 9-13 8-10 13-15 18-18 11-9 15-11 16-10 15-6 17-4z" fill="#0E0C0D"/>
<path transform="translate(1016,443)" d="m0 0 10 2 12 7 13 13 3 7v4l-7 3-22 12-14 10-9 5-7 6-7 5-5 5-4 3h-2v2l-5 2-1 4-10 8-4 3h-2l-1 5 12 14 3 2 4 7 5 4 3 6 8 8 1 5 3 1v2h2l1 5h2l1 3 3 3 6 11 8 14 4 6 1 6-5-2-9-6-16-5-14-3-61-5-42-4-24-1h-7l-15 3-9 4-14 7h-2l1-4 9-11 14-18 13-15 12-14 11-12 12-13 8-7 7-7 8-7 13-11 14-12 19-14 16-12 13-9 7-4 1-2 9-5 10-6 7-2 4-4z" fill="#545353"/>
<path transform="translate(1016,222)" d="m0 0 9 5 6 5 7 11 7 9 6 10 4 7v2h2l8 19 6 10 3 6 3 3 8 18 2 10h2l7 13v3l7 2 4 4 3 2 6 12v2h2l2 5 1 13 4 4-1 8 2 2 11 2 12 5 10 7 5 3 4 5 4 1 3 7 1 6-4 1-2-4v-3l-5-2-14-11-15-9-5-4-6-2h-25l-19 3-30 10-25 10-8 2-11 5-9 1-7-7-10-16-2-4 1-4v-44l-2-8-2-2 1-5 4-8 3-1 2 1 1-3 9-3h2l2-13h2v-3l7-3 5-2 4-4h2l1-23-4-16-3-14-2-6-4-6-1-11 6 2 1-1 1-13z" fill="#A62402"/>
<path transform="translate(1083,467)" d="m0 0 4 1 8 7 9 10 2 6-8 5-29 13-16 8-12 8-5 5-12 9-4 1v2l-14 11-11 9-8 7-3 4-1 5 8-6 10-9 14-11 13-11 18-13 17-10 23-10 22-9 6-2 8 7 1 4-18 8-26 12-16 9-10 7-5 5h-3v2h-3l-2 4h-3l-1 3-17 13-6 5h-2l-2 4-3 1-7 8-3 3-1 4 5-3 13-11 10-8 13-11 17-13 13-8 15-8 10-4 10-5 20-8 7-1 7 7-1 4-25 11-23 11-13 9-2 3-5 2-10 7-1 2-7 4-3 4-3 1-1 2-3 1-1 3-6 4-5 4-5 2-5 4-5 7v5l4-2 11-10 16-12 15-13 15-11 13-8 8-4 16-7 24-9 5-2 6 1 5 8-1 4-14 5-29 13-15 9-21 15-4 5-10 8-5 2-8 7-4 5-10 8-4 5 1 6 7-6 14-13 11-9 12-10 12-9 13-9 16-8 26-12 14-5 5 1 4 6-2 5-5 4-32 16-16 9-18 12-13 10-5 5-7 4-4 5-5 1-2 4-10 8-6 5h-2l-1 6-4-2-6-12-1-3-5-5-13-22-1-5-3-1v-3h-2l-1-5h-2l-4-5-2-4-4-4v-2l-3-1-3-6-6-5-2-3v-3l-4-2-10-11-2-5 5-5 10-8 5-2 16-13 16-12 14-10 10-6 14-8 23-10z" fill="#0F0D0E"/>
<path transform="translate(786,652)" d="m0 0v3l-11 17-13 20-12 20-9 14-8 15-7 16-6 18-8 21-7 21-5 12-5 8-10 6-23 3-5 2-5 5-9 7-13 10-7 5-6 7h-3l-2 4-5 4h-3v2h-3v2h-3v2l-29 17-21 13-17 9-3 2h-4l1-4h3l1-2 4-1 7-3 2-4 13-7 7-5 9-3 1-2 2 1 7-14-1-3-11 1-3 1-5-2-4-4-5 2-1 4-8 6-2 1h-11l-1-6-6-1-2-7 1-8 5-6 11-9 16-11 19-10 13-5 12-6-3-3-8-3-12-3-29-10-5-2-20-4-21-5v-1l9 1 27 5h37l18-3 20-6 16-7 5-3h2v-2l12-6 10-7h3v-2l9-5 3-1v-2l7-4 5-4h2v-2l7-4 15-13 13-12 11-11 7-8 12-14 13-15 14-14z" fill="#0E0C0D"/>
<path transform="translate(1024,870)" d="m0 0 7 1 19 7 5 2v2l6 1 7 4 4 10-1 9-6 8-7 7-8 7-3 1v2l-14 10-22 14-14 7-7 5-12 5-19 6-12 3-22 5-15 3-50 5-12-1-7-3-1-7-2-1 1-5 3-8h2l2-8 4-9h2l1-5 8-16 4-14 1-1h13l38 1 20-2 21-4 18-6 16-9 13-9 11-9z" fill="#6E6F6F"/>
<path transform="translate(705,1182)" d="m0 0h2v13l-5 29-1 10v54l4 7-1 28h-2v2l-5 1-4 5-4 10-4 17-2 3-8 5-9-3-9-10-8-16-4-14-2-10-4-7-9-7-7-6-7-8v-2l-4-2-2-4-5-2-8-6v-2l-5-2-6-5-18-7-12-3-12-2-23-5-13-4-14-3-24-7-17-4-32-3-9-1-13-5-5-3-1-8 5-2v6l9 3 13 1 26-3 12-2 26-2h50l17 1 34 7 15 4 20 10 7 6 9 7 16 8 9 6 3 1h7l5-2h3l3-9 6-11 7-12 6-27 3-12z" fill="#D2D2D2"/>
<path transform="translate(435,136)" d="m0 0h18l13 2 5 5 3 6v16l-3 12-11 30-10 16-22 22-11 8-16 12-11 7-15 7-12 3h-12l-8-4-5-5-6-10-2-6v-11l8-24 10-19 10-14 9-11 11-12 11-11 15-10 12-5 13-3z" fill="#282929"/>
<path transform="translate(536,931)" d="m0 0 4 1-2 2-2 6 1 5 13 10 10 5 20 5 10 2 20 5 18 7 11 5 18 6 8 4 26 8 28 6 24 9v2h2v2l5 2 2-1-2 5-7 12-2 5-10 15-3 1v3l-8 1-13-5-10-4-13-4-40-13-16-6-32-11-19-7-41-13-23-6-11-5-5-6-3-6-1-6 3-6 4-5 5-11 5-5 16-8z" fill="#8E8F8E"/>
<path transform="translate(64,925)" d="m0 0h26l8 4 5 4 21 7 16 4 14 4 16 8 15 8 23 15 10 7 7 4 9 6 10 7 18 12 7 7 6 4 7 8 5 6 3 3 6 8 7 8 7 10 16 24 5 6 8 15 5 15 3 17 3 7 4 4h9l8-7 6-10 3-9 1-6 1-24 1-13v-14l2-4 3 11v14l-1 11v12l-1 1 1 12-3 15-15 15-3 5-2 10v10l-7 2h-8l-14-5-7-9-7-14-5-7-4-7-7-12-3-7-14-24-6-7-3-5-7-7-2-1v-2l-4-2-7-8-8-10-5-5-6-7-9-7-12-11-15-10v-2l-4-2-13-11-11-7-13-12-12-11-11-8-5-5-9-6-16-8-12-7-5-6-4-8-4-1h-29v-1z" fill="#D2D2D2"/>
<path transform="translate(671,845)" d="m0 0h8l18 7 20 12 20 11 35 15 35 13 26 9-2 6-4 5-3 6 12 1v3l-6 1h-5l-1-3-6 3-3 7-9 17-1-3 1-2-9-2-9-3-21-6-19-3-6-2-15-3-15-4-22-5-18-3-12-3-29-10-27-4-4-4v-5l-2-2h3v-2h3v-2l7-4 3-4 5-3 6-7 5-3 10-8 11-8 8-6z" fill="#545353"/>
<path transform="translate(339,746)" d="m0 0h17l16 1 23 12 16 8 23 10 36 13 29 8 9 3 26 6 11 2 10 4 26 9 12 3 6 4-4 4-13 6-13 5-17 9-15 11-11 9-4 5-5 1-13-3h-10l-7 7 5 1 13 3 2 1-1 4-5 1-1 11-6 4-4 8-5-1-10-5-6-2-7-1 3-5 4-6 7-6-9-9-8-10-6-8-6-7-7-15-10-15-11-16v-2h-2l-12-16-6-9-6-12-9-11-2-4-9-3-6-3v-2h-13l-15-1z" fill="#6E6F6F"/>
<path transform="translate(326,248)" d="m0 0h2l1 9 2 5v9l-1 5-5 1-2 4-4 14-5 19-3 23-2 12-1 9-2 7-6 15-3 15-6 9-3 8-3 5h-3v2h-2l-1 6-2 7h-2l-2 6-2 9-3 5-3 15-2 3v14l-4 12v11l-2 11v19l-1 3v8l1 2v21l2 9 1 21 1 7 1 9 1 16 2 1v3l-2 1-4-2-2-6h-3l-9-20-5-18 1-4 1 3 2 1v-14l2-7-2-6-1-14-1-12 1-4-1-9-1-10 1-11-1-3-1-16-1-5 1-22 4-20v-7l2-7v-6l4-13 2-11-2-8 1-3h2l-1-3 3-17 3-8 5-16 1-9 6-10 5-14 2-3h2l1-7 5-8 6-12 4-4 5-12 6-2 5 2 4-2 3-3h2v-2h2l2-4h2z" fill="#BD2F0D"/>
<path transform="translate(1212,429)" d="m0 0h9l6 4h5l1-1h7l10 5 12 4 12 7 5 8 8 25 4 11-1 7-1 3-1 33-2 6v11l1 5 9-1 9-6 14-6 5 1 11 8 1 2h-3v3l-5 4-4 8-12 7-14 9-12 6-6 1-17-9v-11l3-5 4-12-1-7-10-9-9-7-12-8-5-7v-20l-5-6-9-9-3-1-2 4-5 8-2 2-5 2-1 3 5 14 6 15-1 4 1 4 3 2 1 9 1 5h-2l-5-13-12-25-5-22-3-6-3-10-5-12-6-15-1-4 3 2 2-5 6-7 8-5 3-1 12-1z" fill="#2A2A2A"/>
<path transform="translate(1126,415)" d="m0 0h9l7 4v2l6 2 16 13 8 7h4l1 5v3l9 22 4 10 3 9 3 10 3 14 13 27 3 7v4h2l-2-5v-9l-4-2-2-4 1-4 2 2 3 4 7 20 9 29 7 26 6 30v3l5-5 2-1v16l-2 4h-2l-2-10h-4v43l-3-3v-3h-2l-2-9h-2l-6-15-3-10-4-7-3-14-4-2h-9l-5-5-7-21-6-7-2-9-1-7-7-11-7-21-3-5-2-8-4-10-2-7-2-10-4-16-5-16-4-8-1-6h-2l-9-19-5-7v-2h-2l-3-8 1-7z" fill="#454242"/>
<path transform="translate(827,166)" d="m0 0 28 1 14 2 10 6 9 6 19 13 10 8 10 9 16 25 4 12 3 14 1 9v9l-3 6-2 2v8l-5 8-10 7-7 4-4-1-9-9-32-48-11-15-9-12-9-10-12-13-14-15-10-10-3-8 1-5 4-2z" fill="#545353"/>
<path transform="translate(1130,931)" d="m0 0h15v2l13 2 17 6 6 2-3 1-13-4-7-2-4 6h-2l-2 4-7 10-11 13-24 24-13 9-13 8-12 6-16 10-14 7-11 4-35 10-27 6-35 6-24 2h-63l-15 1-12-3-6-3-3-4-1-5h-2l1-6 5-9 4-11 4-2-1 13 10 5 4 1h19l36-1 45-3 31-5 26-7 43-14 16-8 22-14 15-14 8-9 11-9 7-8 7-9 5-5z" fill="#8E8F8E"/>
<path transform="translate(1228,817)" d="m0 0 5 1-4 3-4 2h12l6 5 7 9 9 18 1 9v23l-1 36-5 26-4 3-10 2-29-9-16-5-17-4-16-6-23-12-7-4v-2l-5-1-5-3-4-7 2-4 3-1 1-4 3-1 12 5 19 9h14l10-7 6-7 6-11 4-10v-10l-4-7-3-4 1-5 15-10 12-9 8-7z" fill="#A9AAAA"/>
<path transform="translate(794,180)" d="m0 0 3 1 4 6 9 3 8 6 6 6 3 5 9 8 3 5 7 7 5 4 3 5 3 2 2 4 3 2 4 7 10 15 6 12 4 10 3 10-1 27 3 1-16-1-17-4-16-6-21-11-10-8-11-11-9-13-8-16-5-17-2-15v-18l4-10h2l2-5 6-9z" fill="#545353"/>
<path transform="translate(1411,625)" d="m0 0 5 1 5 6 5 3 8 2 7 5 4 6 3 3 1 16 4 10 11 14 13 7 9 8 5 5 4 8v6l-5 10h-6l-3-4-27-7-8-1h-32l-15-5-5-4-7-4-10-6-3-2v-2h-2l-5-5-8-5v-2l-20-10-9-5-6-3v-3l3-5h-5l2-4 7-3 14-3 9-1 13-5 13-4 25-10z" fill="#F6F6F5"/>
<path transform="translate(1068,888)" d="m0 0 10 3 8 5 16 8-2 1 2 9-7 6-10 13-5 5-7 8-8 7-12 11-5 5-10 9-7 5-9 4-15 7-13 5-19 5-15 2-28 5-25 2-11 1-23 1-10 1h-22l-9-5-3-8 1-6 7-15 3-1 2 9 6 2 13 1 49-5 37-8 12-3 13-4 10-4 9-4 13-8 9-4 24-16 8-6h2v-2l8-7 10-9 5-7 1-9z" fill="#787A79"/>
<path transform="translate(1124,516)" d="m0 0 5 1 6 6-1 4-25 11-23 11-13 9-2 3-5 2-10 7-1 2-7 4-3 4-3 1-1 2-3 1-1 3-6 4-5 4-5 2-5 4-5 7v5l4-2 11-10 16-12 15-13 15-11 13-8 8-4 16-7 24-9 5-2 6 1 5 8-1 4-14 5-29 13-15 9-21 15-4 5-10 8-5 2-8 7-4 5-10 8-4 5 1 6 7-6 14-13 11-9 12-10 12-9 13-9 16-8 26-12 14-5 5 1 4 6-2 5-5 4-32 16-16 9-18 12-13 10-5 5-7 4-4 5-5 1-2 4-10 8-6 5h-2l-1 6-4-2-6-12-1-3-5-5-13-22-1-5-3-1v-3h-2l-2-7 5-2 14-12 10-8 13-11 17-13 13-8 15-8 10-4 10-5 20-8z" fill="#0F0D0E"/>
<path transform="translate(1153,708)" d="m0 0 6 1 15 10 18 11 10 7 3 3-15 9-17 12-11 9-12 11-13 13-18 22-9 14-1 3-5 2-45-14-5-2 2-5 18-27 14-20 11-13 12-14 12-11 13-10 13-9z" fill="#545353"/>
<path transform="translate(227,526)" d="m0 0h1l3 23 10 43 5 18 9 20 9 15 8 10 1 5 4 2 4 6v4l4 2 3 3v2l3 1v2l-14 2-7 3-4-1-10-6-9-3h-18l-16 5-10 4h-2v-2l-10 2-10 3-11 5-6-1-8-11v-11l3-7 3-4 3-7 8-14 8-11 7-11 7-8h2l2-4 7-7 10-5 16 1 6 5 3 4-3-14-3-12-2-5-2-13-2-8-2-16z" fill="#C4C5C5"/>
<path transform="translate(810,168)" d="m0 0 3 1-1 5 4 9 18 18 7 8 16 17 10 13 13 18 30 45 9 10 5 5 11 20 9 15 16 27 9 14 6 11 2 5 2 2 2 5 8 12 6 8 3 3 9-1 13-6 3 1-25 12-3 6-10 10-4 1-1 3-16 10-13 10-18 13-11 9-14 12-13 11-13 12-11 10-7 8-8 8-9 11-10 11-9 11-12 15-11 14-7 8-11 14-7 7-6 4-7 8-7 7-9 11-9 10-7 8-2 1 2-4 10-12 8-10 6-9 4-4 9-13 4-8 6-8 2-4h2v-3h2l2-5 12-16 10-14 8-10 6-7h2l2-4 25-25 8-7 19-19h2v-2l6-4 11-9 14-12 16-13 18-14 32-21 12-7-8-4-13-18-17-29-11-18-12-22-9-15-8-14v-2l-24 4-3-1-1-10 1-17-3-10-4-10-7-14-12-17-1-3-4-3-1-3-5-4-3-5-8-7-4-4-3-5-8-7-4-6-6-6-10-5-5-2-4-6-4-1 4-6 3-4z" fill="#7B1D07"/>
<path transform="translate(555,921)" d="m0 0 3 1-2 5 8 5 7 4 13 6 21 7 19 4 21 7 12 5 9 3 13 5 30 7 21 6 9 2 13 5 11 8h6l1-1h5v3l-4 1-1 3-8 6-2 3h5l1 3h21v8l-8 28-2 4-13-2-15-3h-15l6-10 7-14 4-7h-3l-3-2v-2h-2v-2l-11-3-13-5-28-6-29-9-8-4-17-6-12-5-18-7-43-10-10-4-11-7-8-7 1-6 2-5v-3z" fill="#787A79"/>
<path transform="translate(349,146)" d="m0 0 3 1-1 6-6 8-3 2-1 7v2l1 2-5 5-5 8-4 7-7 9-11 18-6 10-1 2h-2l-1 6-5 7-4 10-4 9-7 16-4 10-4 13-3 5h-2l-1 4-4 11-5 21-4 12-4 20-1 7-3 11 2 1-1 6-1 1-1 24-1 3v13l-2 6-2 17v31l1 7v21l3 1 1 10-1 7 1 14 2 11 1 4-2 9v8l-1 3-3-1v-3h-2l-9-39-4-32-1-13v-60l2-25 7-49 9-42 8-27 7-19 11-24 13-26 13-22 9-14 16-21 12-14 14-14z" fill="#E45639"/>
<path transform="translate(494,875)" d="m0 0h10l15 3h3l1 4-1 5 1 5 6 1 1 6 11-1 6-4 4-2 1-4 6-3 4 5 5 1 9-2 5 1 1 3-5 10-3 4-5 2-12 6-3 3-12 6-3 5-6 2-5 2h-3l-1 4 2 1-16 8h-2l-2 4-2 1h-4l-4 5-3 7-5 1 1-5 2-4-4-2-2 4-3 2v7l2 2-3 2h-4v-4h-3l-1-4-4-2v-2l-9-1-2 5h-2l-2 4-3 5-5 1h2l-2 5-3 5-2 5-2-1 1-2-4-2-8-6-5-1-5 4-1-3 1-6-2 1 2-6 12-22 4-6 4-10 9-10 10-9 7-6 2 1-3 3 12 3 10 5 5 1 4-8 5-3 1-7 1-4 5-1 1-4-13-2-3-2h-5l6-7z" fill="#292929"/>
<path transform="translate(1164,577)" d="m0 0h3l3 6-1 7-10 6-22 11-20 12-20 14-6 7-8 7-9 7-5 5-7 4-13 12-1 2v6l5-5 4-5 11-9 10-9 14-11 8-6 7-4 11-7 19-9 10-4 13-6 9-3h6l8 5 3 6v4l-18 8-26 14-16 10-19 14-35 24-13 12h-2l-2 5-5-3-5-12-6-15-3-11 3-2-2-5 3-7 11-9 8-6 10-9 9-7 13-10 18-10 23-11 24-10z" fill="#0E0D0E"/>
<path transform="translate(1216,482)" d="m0 0 4 1 6 7 6 5 2 3v20l4 5v2l4 2 11 7 11 10 6 5 1 7-5 15-2 2v11l16 8 6-1 12-6 8 1 3 5 6 4 2 3h1l7-1v2l-5 3-9 2-12 5-9 5-14 8-6-1-1-5-10 6-4 5-3 10-6 7h-2l-3-11-3-17-6-24-8-26-7-22-10-24-6-15-1-6 3-3 5-2 7-10z" fill="#C4C5C5"/>
<path transform="translate(536,931)" d="m0 0 4 1-2 2-2 6 1 5 13 10 10 5 20 5 10 2 20 5 18 7 11 5 18 6 8 4 26 8 28 6 24 9v2h2v2l5 2 2-1-2 5-7 12-5 2-46-14-21-6-12-5-18-5-26-9-24-9-17-6-20-6-22-6-10-5-5-4-6-8v-6l4-6 5-5 4-3z" fill="#838484"/>
<path transform="translate(963,136)" d="m0 0 6 2 6 4 4 3v2l4 2 5 3 6 5v2h2l5 5 6 5v-5h-2v-2h-2l-5-7 4 2 29 29 7 8 11 13 9 11 10 13 8 10 8 11 14 21 13 23 16 28 13 23 18 34 11 25 7 24 1 4v12l-2-4-3-11-5-2-8-10-5-12-5-13-1-5-4-10-4-6-2-4-6-9-5-10-6-8-2-6-4-5-4-7-2-2-1-5h-2l-6-9v-2h-2l-1-5-4-2-1-5-4-2-6-7v-2l-4-1-5-5-8-6-2-5-3-4v-2l-4-2-7-10-8-13-3-5-6-9-10-14-14-17-16-17-16-16-11-9-7-6v-2l4 1z" fill="#E55639"/>
<path transform="translate(310,742)" d="m0 0 9 1 14 2 2 6 6 2 3 7v10l4 15 4 11 4 8 9 24 4 10 6 11 8 10 12 16 18 20v2h2l11 14 12 8h5l3-2-2 4-5 6-5 5-5 3h-8l-10-5-7-6-14-14-2-5h-2v-2l-4-2-7-8-8-10-9-12-9-11-7-10-5-10-5-9-7-17-5-22-3-15v-9l4-10 2-11-10-2z" fill="#8E8F8E"/>
<path transform="translate(1024,870)" d="m0 0 7 1 14 5-4 2-6 4-5 2-6 10-8 8-8 5-7 3-8 5-1 2-10 5-3 3h-2v2h-3v2l-5 1-2 4-6 4-14 7-21 9-17 6-21 4-22 3-8-1-4-4v-13l-2 1 2-4 8-18 3-11 1-1h13l38 1 20-2 21-4 18-6 16-9 13-9 11-9z" fill="#646666"/>
<path transform="translate(598,895)" d="m0 0 3 1 1 7 13 3 16 2 32 11 19 4 18 3 24 6 11 3 10 2 14 3 12 2 17 5 18 6-2 9-5 10-3 7-2 3-2 6-1 2h-3l-1 5-2-1v-6l-4-10-5-6-14-4-17-5-31-8-24-5-26-6-24-7-9-2-9-3-15-4-11-5-15-5-2-2v-10l16-9z" fill="#646666"/>
<path transform="translate(1249,665)" d="m0 0 9 3 7 3v4l11 2 11 3 20 3 12 7 8 8 3 11 7 10 6 9 3 11-2 10-3 5-4 1-21-9-10-5-23-10-22-11-2-2-8-1-3-4v-4l-4-2-1-3v-11l2-1 1 8h2l-1-9v-21z" fill="#C4C5C5"/>
<path transform="translate(427,775)" d="m0 0 10 3 30 11 24 7 21 6 22 5 11 2 10 4 26 9 12 3 6 4-4 4-13 6-13 5-17 9-15 11-5 3-10 3-3-3-4-10-4-5-3-6-9-16-7-7v-2l-5-2-13-8-9-6-10-6-9-7-11-7v-2l-5-2z" fill="#545353"/>
<path transform="translate(1236,744)" d="m0 0h7l15 5 10 2 3 7 14 11 11 8 5 8v11l-5 13-6 10-9 9-7 3h-11l-17-6-7-3v-3l-6-3v-2h-2l-3-4 1-6 11-3-1-5-4-6-5-3-4-5-6-4-2-3-1-10 3-3 4-1 5-6 8 1 6 2v-2l2-1-12-7 1-3z" fill="#292A2A"/>
<path transform="translate(347,747)" d="m0 0 20 1v2l6 2 10 4 5 8 8 10 7 14 10 13 4 5v2h2l18 27 5 7 7 16 8 8 7 10 11 12 2 2-9 8-5 6-8-1-15-15-1-3h-2l-2-5h-2l-8-11-9-11-10-12-7-14-6-15-8-16-13-20-4-5-2-8-2-13-3-2-9-1-4-2z" fill="#787A79"/>
<path transform="translate(1137,420)" d="m0 0 7 1 9 6 11 9 8 7h4l1 5v3l9 22 4 10 3 9 3 10 3 14 13 27 5 13 5 14v6l-11 4h-10l-2-3-1-7v-9l9-3-9-1-2-1v-4l-6-2-7-7-2-6v-5h-2l-4-9-6-9-4-7-3-9-2-11-4-8-5-13-4-7-3-10-5-9-3-9v-9z" fill="#555454"/>
<path transform="translate(229,676)" d="m0 0h18l9 3 10 6 4 1 7-3 5-1h11v2l4 2 10 11h-3l-4-1v6l4 4v2l4 2 5 4 13 3-4-5-6-5h3l8 7 36 27 7 5v1h-14l-23-1-19-3-6 1-3 2h-12l-21-1-5-1v-2l13-1 1-4 5-3h3v-4l-3-3-1-4h-6l-3-2v-3h-9l-13 1-15-3v-2l3-2 9-2v-2l-4-2-1-3h-17l-2-4 5-1-1-4h10l9 1 5-1v-3l-11-3v-2l-4-1-2-4h-17v-3z" fill="#0F0D0E"/>
<path transform="translate(1125,830)" d="m0 0 7 1 14 9 20 11 7 1h10v9l1 2v14l-2 4h-2l-1 4-6 9-7 8-1 3h7v1h-14l-23-11-9-3-2-1 1-2-2-3-9-3-5-3-6-2-1-5 4-1-1-12 7-16 3-3 8-10z" fill="#292A2A"/>
<path transform="translate(227,526)" d="m0 0h1l3 23 10 43 5 18v4l-9-1-12 6-4 4h-2l-2 4-12 16-7 11-2 10 3 13 10 1 10-1-1 3-14 5-3 1v-2l-10 2-10 3-11 5-6-1-8-11v-11l3-7 3-4 3-7 8-14 8-11 7-11 7-8h2l2-4 7-7 10-5 16 1 6 5 3 4-3-14-3-12-2-5-2-13-2-8-2-16z" fill="#D3D3D3"/>
<path transform="translate(164,816)" d="m0 0h1v6l-4 10-14 8-8 4-4 6-6 11-10 9-4 5-3 10v6l8 4 1 9v12l-6 3-9 2-31 4-19 2h-18l-3-5v-5h-2v6l-1 2h-11v-20l24-4 31-3 7-2v-11l2-6 14-6 2-3h2v-2l5-1 2-3 5-1 7-3 5-5h2v-2h2l1-6 3-6 9-6 1-2 7-1 2-5 4-3h2l2-6z" fill="#110F10"/>
<path transform="translate(400,1152)" d="m0 0h2l1 12 7 5 2 4 2 12 1 4-11 9-12 9-10 8-17 12-6 4-10 1-10 6-8-1-1-4 7-6 1-2-6 2-5 5-5-1-2-2 1-5 7-7 8-7 3-1v-2l11-9 13-10h2l2-4 1-16 4-6 5-6 7-1 9-2 7 1z" fill="#0F0D0E"/>
<path transform="translate(502,171)" d="m0 0h8l1 4-4 4-16 11-5 5-17 12-10 5-5 7 1 10 2 11v5l-1-2-4 3-1 15-3 7h-2l-1 5-5 7-1 3-6 3-3 3-6 1-2-6-8-2-15 5-8 4-9 3-9 1h-11l-7-3-6-4 1-3 4-1h9l10-3 16-8 9-7 12-9 14-10 12-11 13-13 10-16 7-19 1 4-1 4 6-2 5-8h2v-2l6-4 6-7z" fill="#BC2E0C"/>
<path transform="translate(407,766)" d="m0 0 9 3 11 5 4 7 4 2v2l5 2 10 7 9 7 11 6 9 6 13 8 7 8 5 8 5 9 6 10 4 8 2 5 6-1 5-2-2 4-8 8-5 1-19-4 1-2-7-3-11-16-8-16-2-5h-2l-6-7-5-5-5-4-6-4v-2h-2l-7-8-8-7-7-7-9-12-6-5z" fill="#646666"/>
<path transform="translate(1222,483)" d="m0 0 5 2 5 4v2h2l3 6 10 5 5 6 2 10-1 3v7l5 5 5 4 2 1v2l4 2 6 4 4 5v2l7-1 1 5 9-1 9-6 14-6 5 1 11 8 1 2h-3v3l-5 4-4 8-12 7-14 9-12 6-6 1-17-9v-11l3-5 4-12-1-7-10-9-9-7-12-8-5-7v-20l-5-6-5-5z" fill="#110F10"/>
<path transform="translate(761,1167)" d="m0 0 1 4-2 12v16l2 13 2 10 1 11v17l-4 15-10 27-9 16-4 5-6 4-4 6v8l4 7 2 11-3 9h-1v-15h-2l-2-9-6-2-3-3 2-5 2-6 1-12 7-14 2-3 3-16 4-14 4-9 6-12 4-17 2-16 2-26 2-7z" fill="#F3F3F2"/>
<path transform="translate(1498,714)" d="m0 0 2 1v3l9 1-2-5 4 1 5 4 2 3 1 7 35-7 8-2h4l6 8 4 4-1 4-9 2-9 7-18 6-17 5-10 2h-14l-9-6-2-3v-12l4-5 3-7 1-9h3z" fill="#2C2D2D"/>
<path transform="translate(740,109)" d="m0 0h6l17 6 20 6 18 7 17 8 23 13 20 12 6 5-2 2-16-3-24 1-14 1-2 1h-7l-7-11-23-23-11-9-14-10-4-2v-2l-3-1z" fill="#F44D23"/>
<path transform="translate(810,168)" d="m0 0 3 1-1 5 4 9 18 18 7 8 16 17 10 13 13 18 30 45 9 10 2 4-5 4-17 5-8 1-3-1-1-10 1-17-3-10-4-10-7-14-12-17-1-3-4-3-1-3-5-4-3-5-8-7-4-4-3-5-8-7-4-6-6-6-10-5-5-2-4-6-4-1 4-6 3-4z" fill="#100E0F"/>
<path transform="translate(1216,482)" d="m0 0 4 1 6 7 6 5 2 3v20l4 5v2l4 2 11 7 11 10 6 5 1 7-1 4-3 1-22-11-6-2-8 1-5 5-1 9h-2l-6-19-10-24-6-15-1-6 3-3 5-2 7-10z" fill="#F4F4F3"/>
<path transform="translate(1258,719)" d="m0 0 5 1 14 7 22 10 16 7 15 7 13 5 7 4 10 4 11 7 23 16 24 16 13 10 18 13 10 6 3 1-1 5-3 5-8-2-10-9-19-14-46-32-21-12-16-8-19-9-15-8-11-5-12-6-13-5v-2h-8l-4-2-1-6-3-1v-2h5z" fill="#141313"/>
<path transform="translate(686,1351)" d="m0 0 3 3 3 8-1 4 1 3 10 4v-2l4 1 8 1 2-8 2-3 1 3-2 10-1 1 3 2-8 16-9 14-8 9-7 6-3 3h-8l-4-3-13-2 3-10 10-25 8-19 5-12z" fill="#2C2D2D"/>
<path transform="translate(1191,633)" d="m0 0 3 3 3 7-1 5-8 3-16 5-24 10-15 8-10 6-8 4-14 12h-2l-2 4-10 10-11 14-8 11-4 1-3-7-1-9 6-2 7-9 12-14 12-12 11-9 11-8 16-9 31-14z" fill="#0E0C0D"/>
<path transform="translate(742,114)" d="m0 0 9 3 11 8 14 12 20 20 6 10h7l2-1 29-2h9l16 3v1l-38-1-24 3-4 1-4 5-3 5-6 8-3 5-1-2 7-12 1-3-5-2v-2l-11-2-15-6-9-3-4-4-7-3v-2h-3l-1-4 2-1 9 1 9-1v-4l-4-2-6-7-3-6-3-12z" fill="#BE2E0C"/>
<path transform="translate(943,301)" d="m0 0h2l3 6v2h2l7 17 9 23 9 31 4 20v8l-4-2-11-20-10-15-12-21-13-22-6-11 1-3 15-9z" fill="#F44D23"/>
<path transform="translate(1131,814)" d="m0 0 7 1 14 7 24 15 10 7 8-1-2 2 1 5 5 7 1 3v10l-5 13-8 12-9 8-4 2h-8l1-4 8-9 6-11h2l1-4v-14l-1-2v-8h-13l-16-8-10-6-13-8-7 1-6 7v-3l7-11 3-1 4-1v-3l-2-1 1-4z" fill="#292A2A"/>
<path transform="translate(1221,578)" d="m0 0h3l6 15 2 13 3 7 2 20 2 12 1 1 1 45-3-3v-3h-2l-2-9h-2l-5-13v-10l2-3-4 1-4-6-2-7v-11l-4-4-3-11h-2l-2-7-3-9-1-9 4-3 7-3z" fill="#ABACAC"/>
<path transform="translate(1012,193)" d="m0 0 6 4v2l5 2 2 6 4 2 5 6 3 3v2h2l1 3 6 2 7 2 1 3h2l3 3 1 6h3l1 6h2l4 7 3 4v2h2l6 9 4 7 3 5 4 8 4 5 7 8 5 8 6 9v2h2l4 8 1 6h2l8 10 8 16 2 8 3 5 5 13 1 5-2-1-4-10-4-6-2-4-6-9-5-10-6-8-2-6-4-5-4-7-2-2-1-5h-2l-6-9v-2h-2l-1-5-4-2-1-5-4-2-6-7v-2l-4-1-5-5-8-6-2-5-3-4v-2l-4-2-7-10-8-13-3-5-6-9-10-14-10-12z" fill="#F54D23"/>
<path transform="translate(871,171)" d="m0 0 5 2 10 7 11 7 11 8 9 7 10 9 16 25 4 12 3 14 1 9v9l-3 6-2 2v7l-4-4-6-12-4-14-3-16-5-15-9-15-11-14-11-12-8-7v-2l-4-2-8-7z" fill="#282929"/>
<path transform="translate(119,895)" d="m0 0h1l1 9v12l-6 3-9 2-31 4-19 2h-18l-3-5v-5h-2v6l-1 2h-11v-20l11-2 4 1v4h-2l2 5 5-3 15-2h9l11-1h11l2 1 11-1 18-4z" fill="#2B2B2B"/>
<path transform="translate(411,1173)" d="m0 0h1l2 12 1 4-11 9-12 9-10 8-17 12-6 4-10 1-10 6-8-1-1-4 7-6v-3l2-1 2-4 5-6 3-5h2l2-5 3-3h2l2-4 6-4 12-2 2 2 14 2v-2l9-1 8-6z" fill="#292A2A"/>
<path transform="translate(759,1014)" d="m0 0 1 2h5l1 3h21v8l-8 28-2 4-13-2-15-3h-15l6-10 7-14 8-12z" fill="#545353"/>
<path transform="translate(1125,830)" d="m0 0 7 1 14 9 20 11 7 1h10l-2 6h-2v2h-2l-1 4-9 6-3 4-10-3-14-8-18-11-9-5 1-4 4-6 5-6z" fill="#535151"/>
<path transform="translate(720,1094)" d="m0 0 18 3 18 4 2 1-1 9-2 11-1 5h-2l-1 7-1 1h-8l-17-4-8-2-2 1 1-12z" fill="#545353"/>
<path transform="translate(225,737)" d="m0 0 5 1 4 2v2l-10 6-9 7-9 4-9 6-7 11-9 14-5 17-7 19-5 10-5 5-8 11-8 7-14 9-5 4h-2v2l-5 3-3 3 1-7 15-15 7-13 5-4 16-8 3-3 7-21v-7l-2-4v-7l12-9h2l7-14 4-9 4-4 12-1 10-5 4-4 3-7z" fill="#D2D2D2"/>
<path transform="translate(1234,759)" d="m0 0 9 2 19 10 11 7 10 4 1 1v11h2v13l-3 4-4-1-4-2-1-5h2l-5-5-13-5-14-7-10-8-4-7-1-3v-8z" fill="#545353"/>
<path transform="translate(1126,916)" d="m0 0 5 1 16 8-4-4 5 1 21 10 16 5 10 2 9 3 13 4 42 13 22 5 3 3-1 4-4 6-5-1-16-8-26-8-18-5-48-16-13-5-10-5-10-7-7-4z" fill="#151314"/>
<path transform="translate(1319,544)" d="m0 0 5 1 11 8 1 2h-3v3l-5 4-4 8-12 7-14 9-12 6-6 1-2-2 4-10 8-6 2-6-1-5-2-5-1-2 10-2 5-4z" fill="#2C2D2D"/>
<path transform="translate(784,191)" d="m0 0h1v11l-2 16 1 10 2 13 5 12 8 12 6 14 8 10 9 6 14 7 6 4 7 3 9 5 2 3-1 2h-7l-16-7-15-8-10-8-11-11-9-13-8-16-5-17-2-15v-18l4-10h2z" fill="#474242"/>
<path transform="translate(730,1059)" d="m0 0 1 2 3-1 11 4 20 4 6 1h5l1 3 5 1 1 4-7 10-2 3-7 1-6-2-9-2-11-3-7-2-9-2-2 1 1-6 5-15z" fill="#555454"/>
<path transform="translate(500,950)" d="m0 0h4l-1 7-5 8-9 8-10 6-2 2-4 16-5 12-4 7-5 8-2-1 1-4 1-2h2l1-4 2-7 1-11 1-1 1-17-6-1-10 6-5 4-3 1v-6l5-9h-2l1-2 4 1 2-5 6-7 3-3 4 1 3 1 5 6v2h3v4l6-2-2-2v-7l5-4 1-2 5 2-2 4-2 5 5-2 3-7z" fill="#100E0F"/>
<path transform="translate(435,933)" d="m0 0 3 4 8 11v3l3-1 1 2 5 3 3 4v3h-2l-2 4-3 5-5 1h2l-2 5-3 5-2 5-2-1 1-2-4-2-8-6-5-1-5 4-1-3 1-6-2 1 2-6 12-22 4-6z" fill="#545353"/>
<path transform="translate(1192,517)" d="m0 0 8 1 12 25 5 13 5 14v6l-11 4h-10l-2-3-1-7v-9l9-3-9-1-2-1-2-8-2-14-1-6v-10z" fill="#F3F3F2"/>
<path transform="translate(1126,891)" d="m0 0 11 4 17 8 4 2 13 1-3 2-5 1-2 4 2 9 3 4 10 4 6 3v2l6 1v2l-10-2-16-6-23-12-7-4v-2l-5-1-5-3-4-7 2-4 3-1 1-4z" fill="#8B8C8B"/>
<path transform="translate(488,883)" d="m0 0 4 1 13 3 2 1-1 4-5 1-1 11-6 4-4 8-5-1-10-5-6-2-7-1 3-5 4-6 13-11z" fill="#535252"/>
<path transform="translate(703,1201)" d="m0 0h1v10l-3 23v54l4 7-1 28h-2v2l-5 1-4 5-4 10-2 1 1-9 3-6 3-4v-10l-2-7v-11l3-9-1-32 2-18 1-2 4-27z" fill="#EEEEED"/>
<path transform="translate(440,446)" d="m0 0h18l17 4 16 8 7 6h-3l-7-5-14-4h-24l-25 7-13 7-4 4h-2v2l-8 7-10 8-3 3 2-6 8-11 13-13 11-7 10-5h2v-2z" fill="#0E0C0D"/>
<path transform="translate(1082,483)" d="m0 0h7v2l-4 2h-4v2l-21 8-21 11-16 11-17 14-10 8-11 9-12 11-4 1 1-6 2-4 5-5 7-6 10-8 9-6 1-2 6-3 9-9 7-3 14-9 23-11 13-4z" fill="#525151"/>
<path transform="translate(783,179)" d="m0 0 3 1-1 5-3 11h-2l-3 10v18l3 19 5 15 8 16 10 13 10 10h-3l-3-2-4-2-4-3v-2h-2l-6-9-2-4h-2l-2-5-4-1-1-3h-2l-5-7-4-10 1-17 3-12v-16l3-11 5-10h2z" fill="#E45639"/>
<path transform="translate(1186,851)" d="m0 0h5l5 3 3 6v10l-5 13-8 12-9 8-4 2h-8l1-4 8-9 6-11h2l1-4v-14l-1-6z" fill="#121011"/>
<path transform="translate(1291,778)" d="m0 0h5l4 5 1 2v11l-5 13-6 10-9 9-7 3h-11l-17-6-5-2 1-3 15 5h7l3-5 4-1 6 2v-2h2v-2h2l6-15 2-8v-15z" fill="#121011"/>
<path transform="translate(261,641)" d="m0 0 2 1 2 5 5 5 3 5v3l4 2 4 6v4l3 1-1 2-7 2-5 1-15-3-5-4-1-13 4-10 3-3h5z" fill="#A7A8A8"/>
<path transform="translate(1260,620)" d="m0 0h8l4 2-1 9h-2l-2 5-5 6-7 2v12l2 5 2 1v2l3 1-1 2h9l2 2 3-1 12-1 15-4 7-1-1 2-18 7-4 1h-7l-6-1-1 1h-7l-13-5-3-1-2 5-2-1v-11l-3-11 2-3 3 6v7h2l1-4 1-17 3-10z" fill="#110F10"/>
<path transform="translate(1498,714)" d="m0 0 2 1v3l9 1-2-5 4 1 5 4 2 3 2 7 2 1v3h-2l-1 4-8 4-9 3-3 4-9-1-2-3 1-7 4-11 1-1 1-9h3z" fill="#0F0D0E"/>
<path transform="translate(574,857)" d="m0 0 4 1v3h8l2 2-1 4-11 6-16 8-8 5h-5l-7-4v-3l-4-1 1-3 8-5 11-6 13-6z" fill="#555454"/>
<path transform="translate(696,1336)" d="m0 0 1 3h2l1 3h3l1 6 3 3 8 4 2 6-1 6-2 6-5 1-7-3v2l-6-1-5-3-1-4 1-4-4-8v-7l1-5 7-4z" fill="#0E0C0D"/>
<path transform="translate(684,1358)" d="m0 0 3 4 2 4-1 9 1 4-1 5 1-2h6l-2 5v2l2 1 2-8 2-1 3 6v2l3-3h2l-1 4-1 8-6 2v2l-9-1-11-7v3l-4-1 1-8-3 4v-2h-2l3-9 7-15z" fill="#545454"/>
<path transform="translate(1100,408)" d="m0 0h25l7 3 9 6 14 9 11 9 4 2 1 3h-3l-11-9-11-8-4-2v-2l-6-2-11-5-13-1-22 2-29 9-19 7-23 12-16 8-5 4-8 5-2-1 4-2 2-4 4-7 32-15 30-11 21-7z" fill="#0E0C0D"/>
<path transform="translate(502,171)" d="m0 0h8l1 4-4 4-16 11-5 5-17 12-10 5-6 8v-3l6-10 7-19 1 4-1 4 6-2 5-8h2v-2l6-4 6-7z" fill="#B92D0C"/>
<path transform="translate(1336,606)" d="m0 0h3l-2 4-8 15-9 4-20 7h-9l-2-3v-4l10-7 16-8 16-7z" fill="#F1F1F0"/>
<path transform="translate(875,264)" d="m0 0 4 4 8 14 12 15 7 10 2 4 2 7 2 3-13 4-8 1-3-1-1-10 1-17-3-10-4-10-6-12z" fill="#282929"/>
<path transform="translate(451,916)" d="m0 0h10l7 3 3 4-1 4h8l6 1-3 8-5 8-8-3-4-3-7-1-2-4-5-3-2-3-6 1-2-4 7-7z" fill="#525050"/>
<path transform="translate(1100,572)" d="m0 0h6l-4 5-10 5-28 21-10 9-11 9-16 15h-3l-1-6 7-8 10-8 11-11 5-2 14-11 13-9 11-6z" fill="#514F4F"/>
<path transform="translate(1092,549)" d="m0 0 4 2-3 3-12 6-16 11-10 8-14 12-16 12-12 11-3-1 1-7 6-7 5-4 7-3 6-5h2l1-4h3l1-3h3l2-4 5-4h3l2-4 10-7 7-3 15-8z" fill="#525151"/>
<path transform="translate(1209,530)" d="m0 0 4 2 7 17 11 36 7 26 6 30v3l5-5 2-1v16l-2 4h-2l-2-10h-4v33h-1l-1-35-1-1-3-18-1-14-3-7-2-13-6-16-3-11-4-10-1-7v-9l-4-2-2-4z" fill="#3D3D3D"/>
<path transform="translate(1071,510)" d="m0 0h5l-2 4-16 8-12 7-19 14-13 11-10 8-14 12-5 4h-2v-5l8-9 11-9 16-13h2v-2l5-3 14-10 5-5 15-7z" fill="#545454"/>
<path transform="translate(434,133)" d="m0 0h18l15 4 1 2-15-2h-18l-16 3-13 5-14 9-10 9-11 11-9 11-11 15-12 22-8 24v11l5 12 3 4v2l12 6h12l14-4 13-6 2 1-19 10-7 1h-17l-5-2-7-6-5-8-4-10v-13l7-21 10-19 12-18 4-5 6-5 9-11 11-11 6-4h2v-2l7-4 6-2v-2l17-5z" fill="#8F2207"/>
<path transform="translate(1080,529)" d="m0 0 7 1-2 4-10 4-16 9-14 10-13 11-10 8-17 14-7 6h-3l1-5 8-8 2-3 4-2 3-3 7-6 13-10 4-4 4-2 1-2h3v-2l6-3 25-15z" fill="#5F6060"/>
<path transform="translate(1262,574)" d="m0 0h1l1 10 16 8h6l3 1 4-3h4l-1 5-5 4-1 2-7 1-2 2-8 1h-5l-7-3v-2h-2l-3-5v-12l4-5z" fill="#A7A9A8"/>
<path transform="translate(1103,601)" d="m0 0 2 1-5 5-12 7-13 11-9 7-10 9-14 10-5 5h-3l-1-6 10-9 8-6 1-2 6-3 5-5 5-3 5-5 6-5 7-3 8-5z" fill="#504F4F"/>
<path transform="translate(1169,442)" d="m0 0 7 1 1 5v3l9 22 4 10 3 9 3 10 3 16h-7l-2 4-1-10-1-1-3-22-6-17-10-24z" fill="#636565"/>
<path transform="translate(375,169)" d="m0 0 1 3-4 10-11 15-10 18-7 14-10 9-1-2 6-16 11-20 12-16 12-14z" fill="#0E0C0D"/>
<path transform="translate(1105,406)" d="m0 0h12l20 3 12 5 10 7 5 3 4 5 4 1 3 7 1 6-4 1-2-4v-3l-5-2-14-11-15-9-5-4-6-2h-25l-19 3-30 10-8 3-3-1 19-7 21-7 12-3z" fill="#7F1E07"/>
<path transform="translate(696,751)" d="m0 0 2 4-2 11-3 16-4 27-4 17-4 4-4 1-1-5 3-9 6-28 5-21 5-16z" fill="#292A2A"/>
<path transform="translate(521,500)" d="m0 0 2 1 5 15 3 13v17l-4 19-6 17-7 14h-1v-9l5-17h2v-7l3-16v-10l2-5v-14l-4-15z" fill="#0E0C0D"/>
<path transform="translate(1237,637)" d="m0 0h1l1 8 1 1 1 45-3-3v-3h-2l-2-9h-2l-5-13v-10l2-3-4 1-4-6v-5l5 5 8-1 3-1z" fill="#AAABAB"/>
<path transform="translate(738,1353)" d="m0 0 7 1 6 4 2 7-3 7-5 5h-9l-7-4-2-6-2-2 3-4h3l5-7z" fill="#C4C5C5"/>
<path transform="translate(810,168)" d="m0 0 3 1-1 5 4 9 18 18 7 8 16 17 10 13 13 18 14 21-1 2-12-16-11-16-9-11-6-7v-2h-2v-2h-2l-5-5-5-2-4-5-2-7-4-2-4-7-2-4h-2v-2h-2l-7-8-9-7-8-3 2-4z" fill="#292A2A"/>
<path transform="translate(865,168)" d="m0 0 8 1 4 1v2l6 2 11 7 8 4 6 5v2l4 1 5 6 5 4 4 5 12 12 9 14 4 24 2 9v11l-2 2-2-18-5-21-5-10-14-21-11-10-17-12-14-9-10-7-8-3z" fill="#811E06"/>
<path transform="translate(1221,578)" d="m0 0h3l4 10 1 4v7l-12 4h-6l-4-3-2-4-1-9 4-3 7-3z" fill="#F4F4F3"/>
<path transform="translate(429,122)" d="m0 0 4 1-3 5-3 3v1l10-1 5-3h14l9-1 2 4 1 5 6 9 1 3v19l-2 3v-21l-4-8-2-3-15-4h-18l-23 6-3-1 4-3 1-6 3-1v-2l6-4z" fill="#BA2D0B"/>
<path transform="translate(1248,666)" d="m0 0 1 3h2l1 5v22l6 15 4 2 9 6 2 4-1 2-6-2-7-5-8-1-3-4v-4l-4-2-1-3v-11l2-1 1 8h2l-1-9v-21z" fill="#A5A6A6"/>
<path transform="translate(780,145)" d="m0 0 6 2 10 10 6 10h7l2-1 29-2h9l16 3v1l-38-1-24 3-4 1-4 5-3 5-6 8-3 5-1-2 7-12 6-9h-2l-3-5-5-9-5-8z" fill="#A92502"/>
<path transform="translate(1109,628)" d="m0 0 2 1-11 10-14 11-11 9-14 12-6 5-6 8-2-1v-6l7-8 12-10h3l2-4 13-10 11-10z" fill="#646565"/>
<path transform="translate(903,323)" d="m0 0h10l4 8v7l-1 3-4-1-4-4-2 4-4 3h-2l-1 11h-1l-1-16-3-2-2-9-4-1z" fill="#BB2E0C"/>
<path transform="translate(225,737)" d="m0 0 5 1 4 2v2l-10 6-9 7-15 3-4 3h-2l-2 6-7 13-4 5-7 4-2 3v13l-2 3v-6h-2l-2-4v-7l12-9h2l7-14 4-9 4-4 12-1 10-5 4-4 3-7z" fill="#EDEDEC"/>
<path transform="translate(1301,784)" d="m0 0h2l2 10 2 4v9l-4 8-7 8-15 9-4-1 13-13 8-16 2-6z" fill="#D2D2D2"/>
<path transform="translate(190,757)" d="m0 0 1 3-4 10-4 8-5 5-11 8v7l2 4v7l-1 3h-2l-2-3-5-2 1-8 2-7 3-6h2v-2h2l2-4 9-10 6-8 1-3z" fill="#141213"/>
<path transform="translate(340,194)" d="m0 0 5 1 3 3-1 5-6 10-7 15-5 1-2 1-1 3-1-5 2-1 1-10 9-19z" fill="#E55638"/>
<path transform="translate(1234,547)" d="m0 0 8 1 10 4 9 5 7 3 1 2-5 9h-2l1-10-11-3-3-1h-9l-10 4-2 3h-2v2h-2v-8l3-7 4-3z" fill="#D1D1D1"/>
<path transform="translate(464,902)" d="m0 0 2 1-3 3 7 2v2l6 1 1 5 6 4 1 4 6 2 8 4v2l-4-1-5-1-11-6-8-5-9-2h-10l-3 1v-2l8-7z" fill="#0E0C0D"/>
<path transform="translate(686,1351)" d="m0 0 3 3 3 8-1 4 1 3 10 5 2 5 1 3h2v-3l3-1 1 4-4 5-2-1-1 3h-2l-4-7-2 9-5-3 2-1 2-5-4 1-2-1 1 3-3-1 1-8-1-4 1-6-3-6z" fill="#464444"/>
<path transform="translate(927,242)" d="m0 0 2 4 3 13 4 17 5 12 5 8-5 8-5 4h-3v-11l-1-13v-13l-4-17z" fill="#454242"/>
<path transform="translate(846,910)" d="m0 0 11 1 8 3-2 4-6 4-10 3-2 1h-8l-3-3 5-7 3-5z" fill="#0E0C0D"/>
<path transform="translate(979,718)" d="m0 0 7 1 4 4 2 9-8 6h-6l-6-5-2-3 1-4 4-5z" fill="#131112"/>
<path transform="translate(666,1401)" d="m0 0 1 2h2l1 4-2 5v1l3-1 2-7 5-2-2 5 5 2v-2h2l-1 10v2l-3 1-4 4-3-2-13-2 3-10z" fill="#5F5F5F"/>
<path transform="translate(997,736)" d="m0 0 6 2 3 3 2 5-1 4-9 7-7-1-5-6 1-5z" fill="#111011"/>
<path transform="translate(768,1122)" d="m0 0 2 3-2 10-1 1-2 14-4-1-3 5h-3l-1-8 1-12 3-6h2l1-4 6-1z" fill="#474444"/>
<path transform="translate(131,796)" d="m0 0h8l3 1v8l-5 5h-11l-8-1-2-2v-5l10-5z" fill="#0E0C0D"/>
<path transform="translate(1212,429)" d="m0 0h9v1h-7l-1 3-3-1v2l-9 3-3 7h4v2h9v-2h2l-1 4-1 1h-10l-8-2 2-5-3 1-2 3h-7l-3-2 6-7 8-5 3-1 12-1z" fill="#555454"/>
<path transform="translate(1233,624)" d="m0 0h2l2 9v10l-7 3-6-1-4-8v-6l7-6z" fill="#DBDBDB"/>
<path transform="translate(867,748)" d="m0 0h9l5 7-1 5-7 6h-6l-5-5-3-7 4-4z" fill="#151314"/>
<path transform="translate(850,762)" d="m0 0 5 1 6 7v6l-5 4-9 1-6-6v-6l6-6z" fill="#161515"/>
<path transform="translate(1233,432)" d="m0 0h7l10 5 12 4 11 6v3l-2 1-6-3-14-4v-2l-5-1-9-3-1 1 6 1v1h-12l-8-4-1-2h4v-2h7z" fill="#5D5C5C"/>
<path transform="translate(967,371)" d="m0 0 4 2 3 8 3 9 2 10v8l-4-2-11-20-1-10 1-3h2z" fill="#E65637"/>
<path transform="translate(581,849)" d="m0 0h5l1 1 1 10h2l1 3-3 2-3-3-7-1v-3l-9 1-16 8-13 7h-3l8-7 12-7 15-7z" fill="#292A2A"/>
<path transform="translate(1227,601)" d="m0 0h3l3 7 1 14h-15l-3-2v-7l4-5 5-5z" fill="#F6F6F5"/>
<path transform="translate(32,903)" d="m0 0 4 1v4h-2v9l-2 8h-11v-20z" fill="#2B2C2C"/>
<path transform="translate(993,772)" d="m0 0 5 1 6 6v6l-6 5h-9l-6-6 2-6z" fill="#171616"/>
<path transform="translate(906,750)" d="m0 0 5 1 4 5 2 7-10 7-4-1-8-8 2-4 6-5z" fill="#191718"/>
<path transform="translate(956,772)" d="m0 0h7l5 6v7l-6 5-9-1-6-7 5-7z" fill="#171516"/>
<path transform="translate(943,716)" d="m0 0 4 1 8 7 1 6-5 4-2 1h-9l-4-6v-5z" fill="#1C1A1B"/>
<path transform="translate(908,716)" d="m0 0h6l5 4 1 7-5 5-2 1h-8l-5-6v-6l5-4z" fill="#151314"/>
<path transform="translate(385,1118)" d="m0 0h3l2 5 3 3-1 6-2 10-2 8-2 2-7 3-8 9-2 4-1 16h-1l-2-13 1-7 9-10 6-6h2l3-17z" fill="#E8E8E8"/>
<path transform="translate(1092,549)" d="m0 0 4 2-3 3-12 6-7 3-8 4h-2l-2 4h-4l-1 4h-3l-1 3-8 7-3 2h-3v-2l-2-1 4-1 1-3h3l2-4 5-4h3l2-4 10-7 7-3 15-8z" fill="#504E4E"/>
<path transform="translate(1441,580)" d="m0 0 5 1h8l8 3 11 7 7 2v2l5 1 5 4v2l-7-1v-2l-4-1 1 4h-2l-3-3-3-1v-2l-4-1-10-6-9-3-2-2-1 3-4 1-2-1z" fill="#595858"/>
<path transform="translate(84,880)" d="m0 0 3 3 9-1 2 1v2h8l-1 9-15 3-6-1-1-11z" fill="#2B2C2C"/>
<path transform="translate(434,133)" d="m0 0h18l15 4 1 2-15-2h-18l-16 3-13 5-14 9-10 9-11 11-6 7-2-1 11-12 7-8 9-8 5-2v-2l7-4 6-2v-2l17-5z" fill="#821E06"/>
<path transform="translate(1486,737)" d="m0 0h1l1 12 5 5 5 3h14l18-4 3 1-10 5-7 2-19 1-9-3-3-2-1-7-4-2 1-7 5-1z" fill="#C0C1C1"/>
<path transform="translate(922,735)" d="m0 0h8l5 6 1 6-6 5h-8l-6-7v-5z" fill="#181617"/>
<path transform="translate(884,767)" d="m0 0 7 1 6 7-1 5-5 4-2 1h-6l-5-6v-2h-2l2-5z" fill="#161415"/>
<path transform="translate(881,800)" d="m0 0h5v2l4 1 4 6-2 4-2 3-5 2h-6l-5-6v-6z" fill="#171617"/>
<path transform="translate(888,731)" d="m0 0 5 1 6 4 2 3-1 5-8 5h-6l-6-7 2-6z" fill="#191718"/>
<path transform="translate(759,671)" d="m0 0 1 2-6 9-10 12-9 11-5 8-10 10-3-1 7-8 3-5 1-3h2v-4h2l2-4 8-9 7-9 6-7z" fill="#A22402"/>
<path transform="translate(976,755)" d="m0 0 7 1 3 3 2 3-1 5-7 6h-6l-5-5-1-7z" fill="#181617"/>
<path transform="translate(1264,733)" d="m0 0 9 1 12 5 10 5 9 4 3 3-13-1-5-2-8-1-11-6-4-3z" fill="#A0A0A0"/>
<path transform="translate(1198,499)" d="m0 0 2 4v2h2l10 25-1 4 1 4 3 2 1 9 1 5h-2l-5-13-12-25-2-7v-8z" fill="#171616"/>
<path transform="translate(876,711)" d="m0 0 3 1 5 9-1 4-4 4h-4v2l-4-1-9-7v-2h2l1-3 10-6z" fill="#151314"/>
<path transform="translate(866,782)" d="m0 0 6 2 4 5 1 5-5 5-2 1h-7l-6-7v-2l-2-1z" fill="#161415"/>
<path transform="translate(1080,529)" d="m0 0 7 1-2 4-10 4-16 9-4 2-5 2-11 8h-2v2h-2l-1 3-3-1 2-4 4-4 4-2 1-2h3v-2l6-3 25-15z" fill="#535252"/>
<path transform="translate(902,786)" d="m0 0h5l6 7-1 6-6 4h-8l-4-5v-7z" fill="#131213"/>
<path transform="translate(959,738)" d="m0 0h8l5 5v6l-3 3-5 2h-7l-4-5-1-6 5-4z" fill="#161415"/>
<path transform="translate(920,771)" d="m0 0 9 1 4 6-1 4-5 5-8 1-4-4-2-4 1-5 3-3z" fill="#151415"/>
<path transform="translate(493,459)" d="m0 0 4 2 12 11 7 10 8 16 7 23 2 10v14l-4 20-6 15-1-3 6-20 2-11v-17l-5-20-8-19-8-13-11-12z" fill="#801F07"/>
<path transform="translate(698,1324)" d="m0 0 7 1 9 4 2 4h4v3l-1 2-5-2v-2l-8-1-4-1 4 4v2l-3 2-1 3-3-1v-3h-2l-1-2-4 2-1 2h-2l3-10z" fill="#121111"/>
<path transform="translate(936,789)" d="m0 0h6l7 6-1 6-9 4h-5l-6-6 1-5 5-4z" fill="#151415"/>
<path transform="translate(1126,891)" d="m0 0 11 4 17 8-4 1-13-2-7-1-1-2h-4l2 7 11 8v2l-6-2v-2l-5-1-5-3-4-7 2-4 3-1 1-4z" fill="#666767"/>
<path transform="translate(941,754)" d="m0 0 5 1 5 4 1 6-7 6h-7l-5-5-1-6z" fill="#161415"/>
<path transform="translate(844,798)" d="m0 0h7l5 5 2 3v3l-5 4-9 1-6-6v-5z" fill="#181718"/>
<path transform="translate(972,790)" d="m0 0 6 1 5 4 1 4 2 1-9 6-7 1-6-6 1-5z" fill="#161415"/>
<path transform="translate(451,916)" d="m0 0h10l7 3 1 5-7 3-6 4h-3l-1-3 3-4-10 2-5-1 6-7z" fill="#565555"/>
<path transform="translate(1e3 888)" d="m0 0 2 1-4 5-17 10-15 6-13 4-23 4-10 1h-36l-20-1-2 4v-5l1-1h13l38 1 20-2 21-4 18-6 16-9z" fill="#504F4F"/>
<path transform="translate(918,804)" d="m0 0 5 2 4 4 1 6-5 5-7 1-7-8 1-4z" fill="#171616"/>
<path transform="translate(893,853)" d="m0 0h6l6 7-2 6-5 3h-7l-5-4-1-6z" fill="#151314"/>
<path transform="translate(984,841)" d="m0 0h5l6 5 2 1v2h-2l-1 4-3 1-2 3h-9l-3-3v-8z" fill="#100F10"/>
<path transform="translate(861,817)" d="m0 0h7l5 7-1 5-7 4h-6l-4-5-1-6z" fill="#161415"/>
<path transform="translate(859,730)" d="m0 0h2l3 6v5l-3 3-7 3-4-1-8-6v-2h2v-2l7-3 7-2z" fill="#131212"/>
<path transform="translate(928,856)" d="m0 0h8l5 5-1 4-8 6-6 1-4-5v-7z" fill="#141213"/>
<path transform="translate(912,839)" d="m0 0h8l5 6-1 4-9 6h-5l-5-9 2-4z" fill="#171516"/>
<path transform="translate(874,836)" d="m0 0h9l5 5 1 5-6 5h-7l-5-4-1-2v-6z" fill="#191718"/>
<path transform="translate(826,779)" d="m0 0 7 1 7 5 2 3-1 4-9 4h-5l-2-3v-3h-2l1-8z" fill="#121011"/>
<path transform="translate(927,211)" d="m0 0 6 4 7 8 7 11 4 24 2 9v11l-2 2-2-18-5-21-5-10-12-18z" fill="#7F1E07"/>
<path transform="translate(300,695)" d="m0 0 5 2 11 9 10 9v2l-13-2-9-7-5-6v-6z" fill="#B8B9B9"/>
<path transform="translate(895,821)" d="m0 0h7l5 5 2 5-6 5-8 1-5-7 1-6z" fill="#191718"/>
<path transform="translate(952,808)" d="m0 0h7l4 4v6l-5 5-7 1-7-8 2-4z" fill="#171516"/>
<path transform="translate(1375,587)" d="m0 0h2v2l4 1-2 6 1 5h2l-1 4-6-2-6-4-4-1-7 4-5-3 3-4 8-1 4-2 4-3h3z" fill="#0E0C0D"/>
<path transform="translate(509,607)" d="m0 0 1 4-7 10-8 10-7 4-8 2-1 1h-6v-2l-2-1 5-2h3v-2l6-2 9-6 10-10z" fill="#A62402"/>
<path transform="translate(401,1154)" d="m0 0h1l1 10 1 2-5 2-1 5-3-3-1 9-3 1-5-2-3-2v-5l5-6 4-1v-2l7-2 1-4z" fill="#2B2C2C"/>
<path transform="translate(1237,637)" d="m0 0h1l1 8 1 1 1 45-3-3v-3h-2l-2-9h-2l-5-13v-10l2-1v10l4 9 6 5v-29h-6l-2 4-2-1-4 1-4-6v-5l5 5 8-1 3-1z" fill="#787979"/>
<path transform="translate(950,839)" d="m0 0 4 1 6 5-1 6-5 4-2 1h-6l-4-6 1-5z" fill="#181617"/>
<path transform="translate(924,702)" d="m0 0h8l6 1 1 6-5 6-4 3-4-1-7-10v-2z" fill="#131112"/>
<path transform="translate(910,869)" d="m0 0 4 1 6 8-1 4-2 2-5 1h-9l-3-1 2-7z" fill="#141213"/>
<path transform="translate(157,737)" d="m0 0h2v5h-2v2l-5 5-6 7-5 5h-3l-2-7 4-7 6-5 7-1z" fill="#0E0C0D"/>
<path transform="translate(1415,570)" d="m0 0 15 3 4 2h-2v6l1 4h-3l-1-2-5 1-9-4v-2l8-1-8-1h-13v-3l4 1v-2h9z" fill="#504E4E"/>
<path transform="translate(859,849)" d="m0 0h4v2l3 1 3 5-1 5-6 4-6-1-2-1v-2l-4-2 2-4 5-6z" fill="#151314"/>
<path transform="translate(153,836)" d="m0 0 2 1-6 7-6 4-9 11-12 12h-2l-2 4-4 5 1-7 15-15 7-13 5-4z" fill="#E9E9E8"/>
<path transform="translate(943,301)" d="m0 0h2l4 10-1 5-11 3 2 7h-3v-3h-2l-2-12 5-5z" fill="#E55638"/>
<path transform="translate(828,575)" d="m0 0 2 1-2 5h-2l-2 4-9 10-8 11-5 5-3 4h-2l2-9 9-11 5-7 8-6 5-5z" fill="#A32D10"/>
<path transform="translate(842,832)" d="m0 0 7 1 4 3 1 5-7 6h-7l-4-5v-8z" fill="#121011"/>
<path transform="translate(372,477)" d="m0 0 9 3 6 4-6 15-8-6-2-3v-12z" fill="#8E2409"/>
<path transform="translate(933,823)" d="m0 0 6 1 6 7-3 5-4 3h-7l-4-5 1-7z" fill="#141213"/>
<path transform="translate(970,824)" d="m0 0 5 1 4 4v6l-8 5-7-1-2-2v-7l6-5z" fill="#141314"/>
<path transform="translate(988,808)" d="m0 0 7 1 3 4-1 7-6 5-5-1-4-6v-5z" fill="#161516"/>
<path transform="translate(584,823)" d="m0 0 9 2 6 4-4 4-13 6h-3v-3h-2l-1-5 3-3 5-2z" fill="#413E3E"/>
<path transform="translate(1179,450)" d="m0 0h2v2l3-1v2h3v2h2l3 6v9l-3 3h-4l-7-18z" fill="#100E0F"/>
<path transform="translate(469,922)" d="m0 0 2 1-1 4h6l-5 4-5 3h-4l2 4-7-1-2-4-5-3-2-3-6 1-1-3 12-1 6-1-3 2h-2l-1 6 8-4 2-2 5-1z" fill="#444141"/>
<path transform="translate(461,127)" d="m0 0 5 1 1 3 1 5 6 9 1 3v19l-2 3v-21l-4-8-2-3-12-3v-2l-18-1 4-4h15z" fill="#B02B0B"/>
<path transform="translate(1e3 530)" d="m0 0h3v2h-2v2l-10 8-8 5-5 5-6 5v3l-1 2h-3l1-6 2-4 5-5 7-6 10-8 7-1z" fill="#4D4C4C"/>
<path transform="translate(1125,898)" d="m0 0 5 1v2l17 1 11 3v1h-11l-13-3 1 4 5 5 2 4 7 5-1 2-10-6-1-3-11-8-2-7z" fill="#818282"/>
<path transform="translate(1008,791)" d="m0 0h6l1 5-3 9-4 2-4-1-5-5 1-4z" fill="#131112"/>
<path transform="translate(839,743)" d="m0 0h2l4 8-1 6-5 4-5 2 1-4-4-1 1-7 3-5z" fill="#131112"/>
<path transform="translate(1109,628)" d="m0 0 2 1-11 10-14 11-6 5-2-1 2-2-4 2h-3l7-6 8-7 9-7z" fill="#636464"/>
<path transform="translate(879,273)" d="m0 0 2 2 4 11 3 8 1 4-1 27 3 1h-7v-3h-3l-2-5 1-4 6-4 1-11-6-13-2-7z" fill="#454242"/>
<path transform="translate(840,164)" d="m0 0h9l16 3v1l-38-1-24 3-4 1-4 5-3 5-6 8-3 5-1-2 7-12 7-10 2-2 1-2 3 1h7l2-1z" fill="#A22607"/>
<path transform="translate(964,856)" d="m0 0 5 2 4 4-1 5-7 3h-8l-1-5 4-6z" fill="#151314"/>
<path transform="translate(406,463)" d="m0 0 2 1-14 14-7 11-5 12-3 20-1 7v17l1 8h-2l-1-7v-26l3-21h2l1-6 6-11 12-13z" fill="#7B1D07"/>
<path transform="translate(1180,460)" d="m0 0 2 3 5 14 3 6 3 9 2 7v8h-3l-2-6-1-9-4-9-6-17-1-4h2z" fill="#6D6E6E"/>
<path transform="translate(221,737)" d="m0 0 2 1-1 7-8 7-7 3-9-1 3-3 11-6h2l1-5 2-2z" fill="#141213"/>
<path transform="translate(888,704)" d="m0 0h9l8 1-2 4-6 5-7 1-7-5 2-5z" fill="#111010"/>
<path transform="translate(1248,666)" d="m0 0h1l1 20v26l2 4h5v1h-6l-3-4v-4l-4-2-1-3v-11l2-1 1 8h2l-1-9v-21z" fill="#6C6C6C"/>
<path transform="translate(1045,527)" d="m0 0 2 1-17 13-10 8-16 13-14 12-3 1 2-4 10-9 8-7 9-6 1-2 5-3 13-11 4-2v-2z" fill="#757676"/>
<path transform="translate(439,106)" d="m0 0h7l-1 5-4 3h-2l-1 3-3 2h-10l-1-3 6-6 4-2z" fill="#BE2F0D"/>
<path transform="translate(1241,636)" d="m0 0 2 1 1 7 5-5 2-1v16l-2 4h-2l-2-10h-4v33h-1l-1-42z" fill="#3C3B3B"/>
<path transform="translate(937,262)" d="m0 0h2v3h2v-2l6-1 3 15-1 5h-4l-2-6h-2l-3-7z" fill="#0E0C0D"/>
<path transform="translate(747,1030)" d="m0 0 4 1-1 11 1 1v5l-12 3h-2l-1 3-2-1 7-10 3-7z" fill="#696B6B"/>
<path transform="translate(637,22)" d="m0 0h55l37 2 16 3v1l-20-1-17-1-18-2-53-1z" fill="#E5573A"/>
<path transform="translate(686,1351)" d="m0 0 3 3 3 8-1 4 1 3 7 3v3l2 2-2 1-2-1-1 3-5-1-2 1-2-5 1-9-3-6z" fill="#2A2B2B"/>
<path transform="translate(339,1207)" d="m0 0 2 1-2 1zm-2 2 2 1-2 4-3 1-2 5 1 3 3 2-5 3-4 4-5-1-2-2 1-5 7-7 8-7z" fill="#313232"/>
<path transform="translate(1307,662)" d="m0 0 2 1-11 5-12 4h-7l-6-1-1 1h-7l-7-3v-1l12-1 2 2 3-1 12-1 15-4z" fill="#181718"/>
<path transform="translate(997,178)" d="m0 0 5 4 7 8 12 14 10 14 3 4-1 2-3-3v-2l-4-2v-2l-5-2-2-6-4-2-2-6h-2l-4-7-7-8v-2h-2z" fill="#D73005"/>
<path transform="translate(750,1175)" d="m0 0 5 2 1 2-1 17h-1l-1-6-3 9-2-1-1-1v-16l2-2z" fill="#454343"/>
<path transform="translate(1009,821)" d="m0 0h2l-3 11-4 7-7 1-1-2v-7l11-9z" fill="#121011"/>
<path transform="translate(1220,702)" d="m0 0 8 1 7 7 7 6v4l-4 1-7-7-10-7z" fill="#454242"/>
<path transform="translate(455,1048)" d="m0 0h1v10l-4 13-6 10-8 10-3 1 2-6 9-13 5-11 3-13z" fill="#161515"/>
<path transform="translate(692,851)" d="m0 0 6 2 19 11 5 3v1l-12-1-10-4-5-8v-2l-3-1z" fill="#454242"/>
<path transform="translate(144,767)" d="m0 0 7 1-1 6-3 3-10 1-4-3 1-5 6-2z" fill="#0E0C0D"/>
<path transform="translate(1071,510)" d="m0 0h5l-2 4-24 12-4-3-4 3-2-1 5-4 10-4 13-6z" fill="#4C4A4A"/>
<path transform="translate(1330,763)" d="m0 0 6 1 16 8 18 10 3 2-1 2-11-4-4-3-10-5-3-3-6-1-6-4v-2z" fill="#EDEDEC"/>
<path transform="translate(1015,547)" d="m0 0h2l-2 4-9 6-4 2-1 3-10 8-3 3v3l-5 2v-5l8-9 11-9 10-5z" fill="#515050"/>
<path transform="translate(873,866)" d="m0 0 4 1 6 5 2 5-4 2-6-1-9-5 2-4z" fill="#141314"/>
<path transform="translate(574,857)" d="m0 0 4 1v3h8l2 2-1 4-1-2-3 1-12-2-4-2-10 4-5 4-8 2 1-2 11-6 13-6z" fill="#444141"/>
<path transform="translate(765,1069)" d="m0 0h11l1 3 5 1 1 4-7 10-2 3-7 1-5-2 4-2v2l4 1 3-9 2-3v-7h-9z" fill="#454242"/>
<path transform="translate(1257,619)" d="m0 0m-1 1 2 1-2 4-3 9-4 7-3 3h-2v-10l3-1 1-4-2-3 3-2 5-2z" fill="#D2D3D2"/>
<path transform="translate(1337,613)" d="m0 0 3 3 1 10-3 7-6-5-1-2 1-9h3z" fill="#100E0F"/>
<path transform="translate(225,737)" d="m0 0 5 1 4 2v2l-10 6-9 7-6 1-2-2 10-5 4-4 3-7z" fill="#D4D4D4"/>
<path transform="translate(1008,501)" d="m0 0 2 1-7 6-5 5-12 10-14 11-2-1 2-4 5-2v-2l9-6 5-5 10-8z" fill="#3C3A3A"/>
<path transform="translate(425,1108)" d="m0 0 1 4-4 11-5 4-6 5-3 7h-2l3-9 2-2 3-9 2-2 1 1 2-2 1-3z" fill="#141313"/>
<path transform="translate(820,936)" d="m0 0 9 1h12l1 4-5 4-8 1-4-5-6-2z" fill="#0E0C0D"/>
<path transform="translate(1067,561)" d="m0 0 2 1-10 8-2 5h-3l-1 3-8 7-3 2h-3v-2l-2-1 4-1 1-3h3l2-4 5-4h3l2-4z" fill="#474646"/>
<path transform="translate(434,133)" d="m0 0h18l15 4 1 2-15-2h-18l-16 2 2-3z" fill="#7C1D07"/>
<path transform="translate(740,1232)" d="m0 0h2l-1 8 2 1 1-6h4l1 3-7 14-2 5-2-2 1-1-2-7 1-7z" fill="#4A4747"/>
<path transform="translate(1088,480)" d="m0 0 5 1 1 3-3 2-4-1h2v-2l-10 2-8 4-10 3-23 11-5 2 4-4 22-11 17-6 6-3z" fill="#292A2A"/>
<path transform="translate(952,708)" d="m0 0 7 1 2 2 6 1v2l5 1-3 3-4 1v2l-5-1-8-10z" fill="#1A1819"/>
<path transform="translate(898,180)" d="m0 0 7 1 14 13 1 4 2 1-5-1-4-2-2-3-3-1-10-10z" fill="#D32F05"/>
<path transform="translate(826,810)" d="m0 0 5 3 6 7-1 7h-4l-2-4h-2l-2-3z" fill="#151314"/>
<path transform="translate(227,526)" d="m0 0h1l3 23 10 43 3 12-3-3-5-19-3-10-2-13-2-8-2-16z" fill="#989999"/>
<path transform="translate(834,312)" d="m0 0 6 1 6 4v5l-3 1v2l-4-2-5-2-2-4z" fill="#E25436"/>
<path transform="translate(330,260)" d="m0 0h2l6 12 1 3 12 6h12l14-4 13-6 2 1-19 10-7 1h-17l-5-2-7-6-5-8z" fill="#7F1E07"/>
<path transform="translate(1013,524)" d="m0 0 2 1-9 8-10 8-11 9-11 10-3-1 5-6 6-4 5-5 6-4 7-6h2v-2z" fill="#636363"/>
<path transform="translate(938,362)" d="m0 0 5 5 9 12 3 8 7 14-1 2-16-26-7-13z" fill="#8E2409"/>
<path transform="translate(951,286)" d="m0 0 2 4-2 4 1 14 2 11-3-4-1-6h-2l-3-6v-2l-2-1 4-8h2z" fill="#D53209"/>
<path transform="translate(277,691)" d="m0 0 9 2 2 2h12l-1 6h-8l-11-4-4-3z" fill="#292A2A"/>
<path transform="translate(1182,865)" d="m0 0h1v13l-1 3h-2l-1 4-4 6h-2v-6l6-13z" fill="#6E6F6F"/>
<path transform="translate(1257,791)" d="m0 0 18 4 4 6v3h3l2 6-4 1-5-3-1-5h2l-5-5-13-5z" fill="#454242"/>
<path transform="translate(1008,757)" d="m0 0 2 1 2 8-1 5-4 2-6-6 1-5z" fill="#121011"/>
<path transform="translate(1567,723)" d="m0 0 9 9-1 4-8 1-1-6h-8l4-4 5-2z" fill="#545353"/>
<path transform="translate(1379,578)" d="m0 0 4 2h3v3l4-1 4 2v2l-3 2 1 3h-3l-2-3-4 1v-6l-7 3-4-3 6-4z" fill="#555454"/>
<path transform="translate(1024,571)" d="m0 0 2 1-11 10-10 8-2 2-4-1 6-7 5-4h2l1-3z" fill="#7C7E7D"/>
<path transform="translate(1077,560)" d="m0 0v3l-12 8-10 8-14 12-3-1 13-12 3-3 3-1 1-3 5-2 3-3 10-5z" fill="#616262"/>
<path transform="translate(1082,483)" d="m0 0h7v2l-4 2h-4v2l-16 6h-2v-2l-4-1 9-3 9-4z" fill="#3E3C3C"/>
<path transform="translate(1428,574)" d="m0 0h6l-2 1v6l1 4h-3l-1-2-5 1-9-4v-2l9-1 2-2 1 1z" fill="#454242"/>
<path transform="translate(1112,910)" d="m0 0 14 7 16 10 1 2-6-2-6-3-8-3-5-4-7-2z" fill="#6F7170"/>
<path transform="translate(1123,895)" d="m0 0h2v6l3 6 10 7v2l-6-2v-2l-5-1-5-3-4-7 2-4z" fill="#727473"/>
<path transform="translate(944,872)" d="m0 0h7l4 5 2 2-11 1-7 2-2-1 2-4z" fill="#131112"/>
<path transform="translate(722,1102)" d="m0 0 6 2 2 5-2 1-2-1v2h-2l-1 3h-4l-2 2 1-10 1-3z" fill="#666868"/>
<path transform="translate(206,756)" d="m0 0 3 1-12 8-7 11-2 3h-2l2-7 6-11 6-4z" fill="#D3D3D3"/>
<path transform="translate(1222,573)" d="m0 0 2 4-3 2-16 8v6l-2-2-2-9v-3h10l11-3z" fill="#797A7A"/>
<path transform="translate(1441,580)" d="m0 0 5 1h8l8 3 2 3h-10l-5-1-2-2-1 3-4 1-2-1z" fill="#484747"/>
<path transform="translate(195,755)" d="m0 0h14l-3 2-7 2-5 2-2 6-3 5-4 2 3-9 3-6z" fill="#E7E7E6"/>
<path transform="translate(698,1381)" d="m0 0 3 4 1 4 3-3h2l-1 4-2 7-5 1-3-9 1-7z" fill="#585757"/>
<path transform="translate(1241,681)" d="m0 0h1l1 5h3 1l1 5v9h-2l-2-7-1 9-3-3-2-11 2 2z" fill="#4E4C4C"/>
<path transform="translate(677,1342)" d="m0 0 5 1 4 8-1 4-1-1h-6l-3-4 1-6z" fill="#C4C5C5"/>
<path transform="translate(1069,661)" d="m0 0 2 1-12 11-5 5-5 6-2-1v-6l7-8 3-3 2 1-8 8 4-3 6-4z" fill="#5C5C5C"/>
<path transform="translate(1045,501)" d="m0 0h3v2l-15 9-11 8-5 2 2-5 9-6 9-5z" fill="#6B6C6C"/>
<path transform="translate(230,737)" d="m0 0 22 3 5 1 7 1v1h-25l-9-4z" fill="#131112"/>
<path transform="translate(1094,680)" d="m0 0 3 1-8 6-5 5h-2l-1 3-5 1-2-3 5-4 6-4 5-4z" fill="#454242"/>
<path transform="translate(1228,817)" d="m0 0 5 1-4 3-4 2-5 6-11 7-7 5h-2l1-3 22-16z" fill="#B1B2B2"/>
<path transform="translate(1513,718)" d="m0 0 3 1 2 3 1 7-4 3h-5l-1-5z" fill="#2E2F2F"/>
<path transform="translate(1233,611)" d="m0 0 2 2v11l-9 3-5 4v9l-2-2v-11l-4-4 1-2 4 2 13-1z" fill="#767777"/>
<path transform="translate(1019,515)" d="m0 0 2 1-3 5-2 4-4 1-7 5-4-1v2l-4 1v-2l6-4 1-2 9-5z" fill="#575757"/>
<path transform="translate(1227,625)" d="m0 0h5l-4 3-4 4-1 5 3 5 5 1 4-2 1-8h1v10l-7 3-6-1-4-8v-6z" fill="#AAABAB"/>
<path transform="translate(460,137)" d="m0 0 6 1 5 5 3 6v8h-3l-2-8-4-6-6-4z" fill="#0E0C0D"/>
<path transform="translate(1237,637)" d="m0 0h1l1 8 1 1v8h-1v-7h-6l-2 4-2-1-4 1-4-6v-5l5 5 8-1 3-1z" fill="#7F8080"/>
<path transform="translate(896,352)" d="m0 0h1v8l-5 16-2 1-1-6 4-15 1-3z" fill="#E65537"/>
<path transform="translate(680,1411)" d="m0 0h1l1 9-3 1-4 4-3-3 1-3-1-6z" fill="#7E807F"/>
<path transform="translate(374,500)" d="m0 0h1l1 7v17l-1 12h-1l-1-9v-13l-1-13z" fill="#BE2F0D"/>
<path transform="translate(677,1380)" d="m0 0 4 6v8l-2 1v2l-4-1 1-8-3 4v-2h-2l2-6z" fill="#504E4E"/>
<path transform="translate(728,1352)" d="m0 0h1v7l-4 8-4 7-2 3-4-1 1-2 1-4 1-3 4-1 1-2h2v-8h2z" fill="#131112"/>
<path transform="translate(1243,645)" d="m0 0 3 3 1 3v7h2l1-2 1 9-2 1-2 5-2-1v-11l-3-11z" fill="#1C1B1B"/>
<path transform="translate(708,1185)" d="m0 0 2 2-1 11-1 7-2 12h-2v-12z" fill="#141213"/>
<path transform="translate(305,707)" d="m0 0 9 2 1 1 7 1 4 4v2l-13-2-8-7z" fill="#E4E4E3"/>
<path transform="translate(1215,623)" d="m0 0 4 2 1 4v9l3 8 2 5 5-2-2 4-1 8h-1l-3-10-4-7-3-16z" fill="#545353"/>
<path transform="translate(444,230)" d="m0 0 3 1-1 4-2 1-1 3h-3l-2 4-3 3h-5l2-4z" fill="#D22F06"/>
<path transform="translate(832,167)" d="m0 0h23l14 2 4 4v2l4 2 2 3-5-2-7-7h-11l-3-2-21-1z" fill="#3F3D3D"/>
<path transform="translate(1486,737)" d="m0 0h1l1 12 5 5 5 3 13 1-1 2h-10l-9-3-5-6-2-5v-4h2z" fill="#939494"/>
<path transform="translate(1250,638)" d="m0 0h1v16l-2 4h-2l-2-10 1-5z" fill="#6D6E6E"/>
<path transform="translate(777,215)" d="m0 0 3 2 1 14 1 7-2 4v-3h-2l-1-6z" fill="#313131"/>
<path transform="translate(798,166)" d="m0 0 4 1h14v1l-17 3-4 5-3 5-6 8-3 5-1-2 7-12 7-10 2-2z" fill="#8D2207"/>
<path transform="translate(1269,749)" d="m0 0 5 2 2 7 6 7-5-1-8-7-1-7z" fill="#D0D0D0"/>
<path transform="translate(1167,927)" d="m0 0 9 3 6 3v2l6 1v2l-10-2-9-3z" fill="#8D8E8D"/>
<path transform="translate(1514,748)" d="m0 0 1 3 2 1 2 3-2 2h-17v-1l9-1-3-3z" fill="#0E0C0D"/>
<path transform="translate(1109,628)" d="m0 0 2 1-11 10-5 4-2-1 2-3-4 1 4-5z" fill="#4E4C4C"/>
<path transform="translate(666,1401)" d="m0 0 1 2h2l1 4-2 5-1 4-6 1 1-6z" fill="#4D4C4C"/>
<path transform="translate(680,1381)" d="m0 0 5 2v2l3 1-1 7-3 2h-3l-1-9-1-4z" fill="#666868"/>
<path transform="translate(826,921)" d="m0 0 1 2-3 6 12 1v3l-6 1h-5l-1-3-3 2-3-1h2l2-6z" fill="#464343"/>
<path transform="translate(417,1180)" d="m0 0 3 1v6l-4 6-6 2-2-1 5-5h2l-2-6h2z" fill="#9FA0A0"/>
<path transform="translate(464,902)" d="m0 0 2 1-3 3 7 2-3 2-10 1-3 3 4 2-10 2v-2l8-7z" fill="#2D2D2D"/>
<path transform="translate(1239,612)" d="m0 0 2 1 2 5 2 1 1 5-3 9h-2l-2-14z" fill="#ccc"/>
<path transform="translate(758,678)" d="m0 0v3l-11 12-9 11-5 4 2-4 10-12 8-10z" fill="#7E1E07"/>
<path transform="translate(1053,548)" d="m0 0h2v2l-11 8-11 9-4 3h-2l2-4h2v-2l3-1 1-2h2v-2l9-6z" fill="#696A6A"/>
<path transform="translate(1190,488)" d="m0 0 2 1 3 10v8h-3l-2-6-1-9-1-3z" fill="#6A6B6B"/>
<path transform="translate(1142,418)" d="m0 0 9 5 11 9 8 5 1 3h-3l-11-9-11-8-4-2z" fill="#181718"/>
<path transform="translate(794,178)" d="m0 0 5 2 7 5 5 2 3 6-4-2-10-4-4-6-4-1z" fill="#292A2A"/>
<path transform="translate(1233,624)" d="m0 0h2l-1 3-3 7-6 1-2 4-1-4 4-7z" fill="#C4C5C5"/>
<path transform="translate(930,213)" d="m0 0 7 6 9 13 2 6v6h-1l-3-9-12-18z" fill="#A62402"/>
<path transform="translate(128,748)" d="m0 0h4v4h-2l-3 6-7 1-3 1-1 3-1-4 4-5h2v2h5l1-7z" fill="#110F10"/>
<path transform="translate(1229,593)" d="m0 0h1l1 10-1-2-10 6v-2l-8 1 3-3 10-4h4z" fill="#7F8080"/>
<path transform="translate(997,559)" d="m0 0h2l-2 4-3 2-3 5-3 3v3l-5 2v-5l8-9z" fill="#5B5A5A"/>
<path transform="translate(953,276)" d="m0 0h2l-1 9-3 1-2 6h-2l-1 3-1-7 4-5 1-3h2z" fill="#CB2E07"/>
<path transform="translate(682,1418)" d="m0 0h7v3l-5 5h-8l2-5 4-1z" fill="#4B4949"/>
<path transform="translate(438,1090)" d="m0 0h3l-2 4-7 12-3-1 1-5 6-8zm-10 16 2 1-2 2z" fill="#DBDBDB"/>
<path transform="translate(1175,443)" d="m0 0 2 3-1 3 4 9v4l-3-1-5-10-1-7z" fill="#737474"/>
<path transform="translate(1e3 888)" d="m0 0 2 1-4 5-17 10-5 2-3-1 16-9z" fill="#4D4B4B"/>
<path transform="translate(1108,897)" d="m0 0h8l3 2 2 5 1 3-6-2-6-4z" fill="#413F3F"/>
<path transform="translate(698,1324)" d="m0 0 4 2h-4l1 7-3 3-2 3h-2l-1 2h-2l3-10z" fill="#3A3B3B"/>
<path transform="translate(119,874)" d="m0 0v3l-3 9-1 6-4-1 1-11 2-3h2z" fill="#ccc"/>
<path transform="translate(1530,753)" d="m0 0 3 1-10 5-7 2h-6l2-4z" fill="#A3A4A4"/>
<path transform="translate(386,1170)" d="m0 0 4 1 4 6-1 3-7-2-2-2 1-5z" fill="#555454"/>
<path transform="translate(948,247)" d="m0 0h1l4 20v11l-2 2-2-18-1-4z" fill="#902105"/>
<path transform="translate(1212,429)" d="m0 0h9v1h-7l-1 3-3-1v2l-7 1v-2h-8v2l-3-1 2-2 3-1 12-1z" fill="#707070"/>
<path transform="translate(1249,669)" d="m0 0h2l1 5v18l-2 4-1-10z" fill="#AAABAB"/>
<path transform="translate(1235,624)" d="m0 0 2 1 1 5h2l1-4 2 11h-2l-1 7-1 2-1-1z" fill="#595858"/>
<path transform="translate(1196,554)" d="m0 0 17 3 3 3-10 1-7 2v7h-1v-9l9-3-9-1-2-1z" fill="#BCBDBD"/>
<path transform="translate(1326,547)" d="m0 0 7 4-4 2h-3v2l-5 3h-2v-5l4-3h2z" fill="#7A7B7B"/>
<path transform="translate(748,1208)" d="m0 0h1v10l-2 13-3 1v-7-4z" fill="#454242"/>
<path transform="translate(361,181)" d="m0 0h3l-2 4-11 15-3 1 2-5 10-14z" fill="#9C2406"/>
<path transform="translate(411,1173)" d="m0 0h1l2 12 1 4-9 7-1-2 6-9z" fill="#454545"/>
<path transform="translate(1218,609)" d="m0 0 2 1-3 3v7l2 1 14 1v1l-13 1-5-3-2-4v-6z" fill="#C0C1C1"/>
<path transform="translate(1e3 557)" d="m0 0 3 1-12 11-7 6h-2l2-4 10-9z" fill="#7A7B7A"/>
<path transform="translate(794,273)" d="m0 0 5 3 6 9 1 4-4-2-8-11z" fill="#313131"/>
<path transform="translate(676,1403)" d="m0 0 2 1-2 4 5 2v-2h2l-1 5-2-1-2 1h-7l2-8z" fill="#4F4D4D"/>
<path transform="translate(530,636)" d="m0 0h5v2h2l-1 3-6 4h-2l-1-4 1-4z" fill="#A72502"/>
<path transform="translate(1052,610)" d="m0 0v3l-14 13-6 5-2-1 14-14 4-3h2v-2z" fill="#606161"/>
<path transform="translate(101,870)" d="m0 0 1 3-2 5-3 2h-9l-1-2 12-5z" fill="#3A3B3B"/>
<path transform="translate(957,870)" d="m0 0h12l1 4-3 2h-5l-1-3-3 1z" fill="#565555"/>
<path transform="translate(168,814)" d="m0 0 1 3-4 12-7 8-2-1 5-6 5-15z" fill="#EBEBEA"/>
<path transform="translate(1046,639)" d="m0 0 3 1-5 4-3 6-6 3-1-4z" fill="#646666"/>
<path transform="translate(426,245)" d="m0 0 2 1-9 8-17 12-2-1 15-12 9-6z" fill="#7F1E07"/>
<path transform="translate(720,1307)" d="m0 0 2 3v8l-3 7-3 1v-7l3-6z" fill="#1B1A1B"/>
<path transform="translate(259,701)" d="m0 0h3l-1 8h-8l-1-3h2v-3z" fill="#292A2A"/>
<path transform="translate(1206,653)" d="m0 0 4 1 3 7v3l-3 1-5-7z" fill="#454242"/>
<path transform="translate(378,514)" d="m0 0h1l-1 14v17l1 8h-2l-1-7v-26z" fill="#7A1D07"/>
<path transform="translate(1200,444)" d="m0 0h2v2h9v-2h2l-1 4-1 1h-10l-5-2-1-2z" fill="#808080"/>
<path transform="translate(333,234)" d="m0 0 1 2-3 10v14l-3-3v-13l3-8z" fill="#8C2107"/>
<path transform="translate(119,908)" d="m0 0 2 3v5l-3 2h-6l1-4h2v-3z" fill="#110F10"/>
<path transform="translate(500,799)" d="m0 0 9 1 23 4 1 3-8-1-25-6z" fill="#1F1F1F"/>
<path transform="translate(1309,592)" d="m0 0 5 2 3 4-2 1 1 2-9 2 1-4 3-1z" fill="#D3D3D3"/>
<path transform="translate(766,1019)" d="m0 0h21v8l-3-2v-2l-16-2z" fill="#454242"/>
<path transform="translate(892,327)" d="m0 0h3l4 8v19h-1l-1-16-3-2z" fill="#D52F05"/>
<path transform="translate(365,1223)" d="m0 0m-5 1h5l-1 4-5 3h-8l3-4 5-2z" fill="#151314"/>
<path transform="translate(1248,765)" d="m0 0 5 1 14 8 4 4-7-1v-2l-4-1-2-1v-2l-10-5z" fill="#454242"/>
<path transform="translate(782,637)" d="m0 0 1 3-12 17-4 1 4-7 6-7 3-5h2z" fill="#A82502"/>
<path transform="translate(1013,602)" d="m0 0 2 1-4 5v5l5-2-2 5-4 2-3-2 1-8z" fill="#292A2A"/>
<path transform="translate(1327,604)" d="m0 0h7v3l-10 4-4-1 5-5z" fill="#131112"/>
<path transform="translate(443,444)" d="m0 0h13l12 3-4 1-6-1h-21l2-2z" fill="#852108"/>
<path transform="translate(1225,433)" d="m0 0h2v2l5 1 4 5h-6l-8-4-1-2h4z" fill="#454343"/>
<path transform="translate(1175,855)" d="m0 0h6v3h-2v2h-2l-1 4h-4l1-6z" fill="#727373"/>
<path transform="translate(139,741)" d="m0 0 1 2-8 16-3 4 2-11 6-10z" fill="#545353"/>
<path transform="translate(1072,660)" d="m0 0 2 1-7 7-8 7-8 8v-3l6-7 11-9z" fill="#232424"/>
<path transform="translate(1235,627)" d="m0 0h1v14l-5 3-6-2v-3l2 2h5l1-8z" fill="#C3C4C4"/>
<path transform="translate(1208,534)" d="m0 0h2l3 5 2 1 1 9 1 5h-2l-5-13-2-4z" fill="#181617"/>
<path transform="translate(703,1201)" d="m0 0h1v10l-2 10-2 1v-9l2-11z" fill="#EDEDEC"/>
<path transform="translate(716,1118)" d="m0 0 2 3h3l2 3-1 4h-5l-2 2z" fill="#666767"/>
<path transform="translate(1062,662)" d="m0 0 4 1-7 8-9 6 2-4z" fill="#777978"/>
<path transform="translate(493,459)" d="m0 0 4 2 12 11 3 4-1 3-14-15z" fill="#7E1E07"/>
<path transform="translate(849,319)" d="m0 0 9 1v3h-2l1 3-6-1-1-3-3-1z" fill="#E15335"/>
<path transform="translate(1330,763)" d="m0 0 6 1 10 5v2l-8-1-6-4v-2z" fill="#ECECEB"/>
<path transform="translate(1259,755)" d="m0 0 7 1 5 2 1 2-1 2-5-1-8-4z" fill="#4B4949"/>
<path transform="translate(1228,652)" d="m0 0 1 4 1 9 3 6 2 2 1 10h-1l-1-7h-2l-5-13v-10z" fill="#767776"/>
<path transform="translate(1192,528)" d="m0 0 2 3v4h2l3 3-1 5h-3v5h-1l-2-14z" fill="#BABBBB"/>
<path transform="translate(794,180)" d="m0 0 3 1 4 6 7 2v1h-7l-5-2-1-5h-5l1-2z" fill="#454242"/>
<path transform="translate(765,166)" d="m0 0 18 4 6 3v3l-4-1v-2l-11-2-9-4z" fill="#D73005"/>
<path transform="translate(696,1393)" d="m0 0h3l1 4h4l1-2v3l-6 2v2h-6l2-2z" fill="#484545"/>
<path transform="translate(744,1079)" d="m0 0 7 3 1 4-6-1-12-3v-1l9-1z" fill="#454242"/>
<path transform="translate(420,964)" d="m0 0 2 2-2 6 3 1-2 4-3 2-1-3 1-6-2 1 2-6z" fill="#444242"/>
<path transform="translate(31,907)" d="m0 0h2l1 10-2 8h-3z" fill="#7C7C7C"/>
<path transform="translate(1264,667)" d="m0 0h6l3 2-1 3h-7l-7-3v-1z" fill="#1D1C1C"/>
<path transform="translate(1379,578)" d="m0 0 4 2h3v2l-10 4-4-3 6-4z" fill="#4B4A4A"/>
<path transform="translate(1202,508)" d="m0 0 2 2 4 10v3l-4-2-3-7v-5z" fill="#333"/>
<path transform="translate(544,877)" d="m0 0 7 1v2h-2v2l-7 1-2-1 1-4z" fill="#676969"/>
<path transform="translate(816,167)" d="m0 0h5l-4 2-2 13-2-3-2-5 1-5z" fill="#454242"/>
<path transform="translate(450,953)" d="m0 0 4 1 4 5-1 3-5 1-2-3 1-5z" fill="#444141"/>
<path transform="translate(534,929)" d="m0 0h5l-4 4-7 4h-4l1-4h3l1-2 4-1z" fill="#131112"/>
<path transform="translate(455,923)" d="m0 0 4 1-5 1-1 4 1 3-4-2-2-3-6 1-1-3 12-1z" fill="#454242"/>
<path transform="translate(1234,759)" d="m0 0 3 1-6 2 3 12-1 2-3-5-1-3v-8z" fill="#454242"/>
<path transform="translate(276,680)" d="m0 0 14 1v1l-17 3-3 1 2-5z" fill="#969796"/>
<path transform="translate(959,379)" d="m0 0 4 4 7 12v2l-4-2-1-5h-2l-4-7z" fill="#AD2806"/>
<path transform="translate(428,1103)" d="m0 0 3 3-1 5-5 9h-1v-6zm0 3 1 3 1-3z" fill="#ccc"/>
<path transform="translate(127,737)" d="m0 0h1l-1 9-5 4h-2l2-6z" fill="#1B191A"/>
<path transform="translate(1238,616)" d="m0 0 2 3v11h-2l-3-6 1-5z" fill="#434242"/>
<path transform="translate(983,521)" d="m0 0 2 1-4 5-9 7-2-1 2-4 5-2v-2z" fill="#383737"/>
<path transform="translate(1180,460)" d="m0 0 2 3 4 10-1 2-3-1-4-10v-2h2z" fill="#6A6B6B"/>
<path transform="translate(1045,501)" d="m0 0h3v2l-15 9-2 1 1-4 10-6z" fill="#626363"/>
<path transform="translate(480,909)" d="m0 0h2l1 2h9l-2 5-5-1-7-4z" fill="#454242"/>
<path transform="translate(273,684)" d="m0 0h6l2 1v2l-10 3v-2l-3-1z" fill="#222"/>
<path transform="translate(1352,647)" d="m0 0 6 1-2 3h-14l3-3z" fill="#131112"/>
<path transform="translate(1084,645)" d="m0 0 3 4-7 6-2-1 2-2-4 2h-3l7-6z" fill="#5A5A5A"/>
<path transform="translate(1050,465)" d="m0 0 2 2 2 5v4l-7 2v-4h2z" fill="#454242"/>
<path transform="translate(1236,437)" d="m0 0 15 5-2 1v2h-5l-2-2-6-1 3-2-3-1z" fill="#423F3F"/>
<path transform="translate(567,859)" d="m0 0m-2 1h2v2l-10 4-5 4-8 2 1-2 11-6z" fill="#454242"/>
<path transform="translate(1352,759)" d="m0 0 9 3 7 5-1 2-12-6-3-2z" fill="#E4E4E3"/>
<path transform="translate(1244,692)" d="m0 0 2 3 1 5v7l-4-3v-11z" fill="#797A7A"/>
<path transform="translate(1456,586)" d="m0 0h9l2 1v4 3l-11-6z" fill="#545353"/>
<path transform="translate(983,548)" d="m0 0h2l-2 4-8 7-4 1 3-5z" fill="#6E6F6F"/>
<path transform="translate(904,295)" d="m0 0 4 4 7 9 6 7-5-2-7-8-5-8z" fill="#292A2A"/>
<path transform="translate(680,1367)" d="m0 0 2 4-1 7h-2l-5 5 2-6z" fill="#606060"/>
<path transform="translate(704,1340)" d="m0 0 2 1v2l8 7v2l-4-1-5-3-1-2z" fill="#4D4B4B"/>
<path transform="translate(1299,805)" d="m0 0v3l-8 13-4 3 1-4 6-9 2-4z" fill="#E4E4E4"/>
<path transform="translate(225,737)" d="m0 0 5 1v4l-8 2 1-5z" fill="#E8E8E7"/>
<path transform="translate(300,695)" d="m0 0 4 1 2 6-6 1-1-1v-6z" fill="#C3C4C3"/>
<path transform="translate(1303,665)" d="m0 0h4v2l-7 4-6 1 1-4z" fill="#EAEAE9"/>
<path transform="translate(1088,829)" d="m0 0 20 2 1 2-5 2-16-5z" fill="#434040"/>
<path transform="translate(888,710)" d="m0 0h11l1 2-3 2-7 1-2-2h2v-2z" fill="#343535"/>
<path transform="translate(1215,623)" d="m0 0 4 2 1 4v15h-1l-3-16z" fill="#514F4F"/>
<path transform="translate(1e3 582)" d="m0 0 2 1-7 7 1 3-3 3h-3l1-5z" fill="#616161"/>
<path transform="translate(1191,513)" d="m0 0h6l2 5h-7l-2 4v-8z" fill="#A6A7A7"/>
<path transform="translate(390,271)" d="m0 0 2 1-19 10h-4v-2l15-6z" fill="#831F07"/>
<path transform="translate(678,1415)" d="m0 0 1 4 3 1-3 1-4 4-3-3 4-6z" fill="#6D6E6E"/>
<path transform="translate(728,1352)" d="m0 0h1v7l-4 8-2 1v-4h2v-8h2z" fill="#161515"/>
<path transform="translate(1122,907)" d="m0 0h4v2l4-1 8 6v2l-6-2v-2l-5-1z" fill="#696A6A"/>
<path transform="translate(898,884)" d="m0 0h19l-1 3h-13l-5-2z" fill="#BABBBA"/>
<path transform="translate(1026,858)" d="m0 0h2l1 5-3 3-3 1-2-2z" fill="#0E0C0D"/>
<path transform="translate(177,695)" d="m0 0 9 1 5-1v2l-16 3-1-3z" fill="#474646"/>
<path transform="translate(1245,626)" d="m0 0 4 3-1 3-3 2-1 7h-1l-1-8z" fill="#C1C2C2"/>
<path transform="translate(1233,606)" d="m0 0h2l1 5h2v7l-3 2-2-9z" fill="#333"/>
<path transform="translate(1287,772)" d="m0 0 4 1 5 5-8 2z" fill="#6D2616"/>
<path transform="translate(1080,529)" d="m0 0 7 1-2 4h-2v-2l-12 3 3-3z" fill="#434040"/>
<path transform="translate(996,510)" d="m0 0m-1 1m-2 1h2l-2 5-7 6-2-1 5-7z" fill="#3D3B3B"/>
<path transform="translate(1234,433)" d="m0 0h5v5l-3 1 6 1v1h-6l-4-4z" fill="#525151"/>
<path transform="translate(468,201)" d="m0 0h2v3l2 1-11 6-2-1z" fill="#D73005"/>
<path transform="translate(1141,902)" d="m0 0 9 1 8 2v1h-11l-5-1z" fill="#7F8080"/>
<path transform="translate(295,695)" d="m0 0h5l-1 6h-8v-2l-2-1h6z" fill="#474545"/>
<path transform="translate(1020,626)" d="m0 0h6l-2 4 1 6 1 2-5-1 1-8-3-1z" fill="#292A2A"/>
<path transform="translate(1017,571)" d="m0 0 4 1v2l-8 4-4 4-4-1 5-3 3-3z" fill="#4F4E4E"/>
<path transform="translate(1029,508)" d="m0 0m-2 1 2 1-5 5-6 2-5 4-2-1 8-7 7-3z" fill="#424141"/>
<path transform="translate(379,499)" d="m0 0h3l-2 14-3 2 1-12z" fill="#7F1F07"/>
<path transform="translate(455,1048)" d="m0 0h1v10l-4 4v-3l2-10z" fill="#151414"/>
<path transform="translate(594,828)" d="m0 0 5 1-4 4-7 1-1-2h3l1-2z" fill="#545353"/>
<path transform="translate(660,766)" d="m0 0m-1 1 3 2h-3v2l-7 4-6 3 1-3z" fill="#82260F"/>
<path transform="translate(1082,483)" d="m0 0h7v2l-8 3-4-1 2-3z" fill="#504E4E"/>
<path transform="translate(326,206)" d="m0 0 3 1-5 9h-3l1-5z" fill="#D73005"/>
<path transform="translate(336,1224)" d="m0 0 3 1-7 8-2-1 2-6z" fill="#BBBCBC"/>
<path transform="translate(443,945)" d="m0 0 3 3v3l3-1 1 3-5-1-5-2v-4z" fill="#454242"/>
<path transform="translate(1567,723)" d="m0 0 3 4-7 4h-5l4-4 5-2z" fill="#5D5D5D"/>
<path transform="translate(1024,571)" d="m0 0 2 1-6 5-4 1-4 4-3-1 3-1 1-3z" fill="#717272"/>
<path transform="translate(388,1064)" d="m0 0 1 3 2 1h-2v9h-3v-9z" fill="#191718"/>
<path transform="translate(1051,578)" d="m0 0m-1 1 1 3-10 9-3-1z" fill="#666767"/>
<path transform="translate(970,554)" d="m0 0 1 2-2 6 3 1-5 2-5-5 1-2 4 3 1-4z" fill="#292A2A"/>
<path transform="translate(336,221)" d="m0 0 2 4-4 9-3 2 3-10z" fill="#932309"/>
<path transform="translate(687,1420)" d="m0 0v3l-3 3h-8v-2h3l1-2h3z" fill="#343535"/>
<path transform="translate(677,1380)" d="m0 0 1 3-1 5h-2l-2 4v-2h-2l2-6z" fill="#4D4A4A"/>
<path transform="translate(1128,919)" d="m0 0 8 4 7 5h-3l-12-6z" fill="#606060"/>
<path transform="translate(1273,670)" d="m0 0 6 1 1 2-3 1h-10l1-2z" fill="#E5E5E4"/>
<path transform="translate(1322,597)" d="m0 0h3v2l-5 3-10 2v-2l7-3z" fill="#878888"/>
<path transform="translate(1016,443)" d="m0 0 10 2 2 2-12-1-7 1 4-3z" fill="#454242"/>
<path transform="translate(409,994)" d="m0 0h1v6l-4 6h-1l1-7z" fill="#131212"/>
<path transform="translate(435,933)" d="m0 0 3 4v4h-2l1 3-2 3-3-2 3-5-1-3z" fill="#616363"/>
<path transform="translate(1114,899)" d="m0 0h4l4 8-6-2-2-3z" fill="#525151"/>
<path transform="translate(105,808)" d="m0 0 2 1-2 10h-2l-2-3 1-5z" fill="#111011"/>
<path transform="translate(310,742)" d="m0 0 9 1 14 2v1h-9l-11-1z" fill="#616161"/>
<path transform="translate(1221,640)" d="m0 0 5 5h7l-2 1v2l-5 1-5-4z" fill="#868787"/>
<path transform="translate(1251,634)" d="m0 0 1 3-6 7h-2v-3h2l1-5 2-1 2 1z" fill="#ACADAD"/>
<path transform="translate(1229,593)" d="m0 0h1l1 10-1-2-6 3v-2l-4-1 5-2h4z" fill="#7D7E7E"/>
<path transform="translate(1017,576)" d="m0 0h3v2l-9 7-5-1 1-2 6-2z" fill="#797B7A"/>
<path transform="translate(1196,556)" d="m0 0 12 1-3 3-7 1z" fill="#797A7A"/>
<path transform="translate(1017,547)" d="m0 0 3 1-5 5-7 5-2-2 10-7z" fill="#6D6E6E"/>
<path transform="translate(950,280)" d="m0 0 1 4-2 8h-2l-1 3-1-7 4-5z" fill="#801F07"/>
<path transform="translate(861,162)" d="m0 0 5 3v3l-11-2 3-2h3z" fill="#E95434"/>
<path transform="translate(464,1012)" d="m0 0 1 3-6 9-2-1 1-4 1-2h2l2-4z" fill="#161415"/>
<path transform="translate(933,882)" d="m0 0 3 1v3h-14l2-2z" fill="#525050"/>
<path transform="translate(493,876)" d="m0 0h8l1 5-5-1-4-2z" fill="#0E0C0D"/>
<path transform="translate(1509,691)" d="m0 0h1v9l-2 5-2 1v-7l2-3z" fill="#121011"/>
<path transform="translate(867,169)" d="m0 0 4 1 2 5 4 2 2 3-5-2-5-5z" fill="#454242"/>
<path transform="translate(711,1310)" d="m0 0 4 2 1 7-3-1v-2l-3-1z" fill="#0E0C0D"/>
<path transform="translate(1169,932)" d="m0 0 7 1 12 3v2l-10-2-9-3z" fill="#6B6B6B"/>
<path transform="translate(956,772)" d="m0 0h7l1 2h-7l-8 8-2-1 5-6z" fill="#565656"/>
<path transform="translate(1343,757)" d="m0 0 12 5-3 1h-6l-3-3z" fill="#373838"/>
<path transform="translate(311,740)" d="m0 0 12 1 1 3-10-1-4-2z" fill="#2A2B2B"/>
<path transform="translate(1248,641)" d="m0 0 2 2v5l-4 1-1-5z" fill="#848584"/>
<path transform="translate(1269,616)" d="m0 0 10 3-3 3-6-1z" fill="#A3A4A4"/>
<path transform="translate(1103,601)" d="m0 0 2 1-5 5h-3l1-2-6 1 2-2z" fill="#413E3E"/>
<path transform="translate(1017,543)" d="m0 0 3 1-5 4h-2l-1 3-6 3 2-4z" fill="#606060"/>
<path transform="translate(1209,530)" d="m0 0 4 2 3 9-5-3-2-4z" fill="#363737"/>
<path transform="translate(1045,527)" d="m0 0 2 1-9 7-3-2 4-2v-2z" fill="#6A6B6B"/>
<path transform="translate(739,1042)" d="m0 0h2l-2 5-5 7-2-1z" fill="#AAABAB"/>
<path transform="translate(455,1027)" d="m0 0 1 4-3 6-3-1v-4z" fill="#0E0D0E"/>
<path transform="translate(502,887)" d="m0 0 5 1-1 4-5 1-1 4-1-4 3-3z" fill="#454242"/>
<path transform="translate(1530,753)" d="m0 0 3 1-10 5-6 1v-2l9-2v-2z" fill="#C3C4C4"/>
<path transform="translate(1336,606)" d="m0 0h3l-2 4-2 2v-2h-5l-1-2z" fill="#bbb"/>
<path transform="translate(1441,580)" d="m0 0 4 2 1 5-4 1-2-1z" fill="#848585"/>
<path transform="translate(1196,554)" d="m0 0 17 3 1 2h-7v-1l-9-1-2-1z" fill="#AEAFAF"/>
<path transform="translate(377,1156)" d="m0 0 1 4-2 4h-3l-3 2 2-4z" fill="#2E2F2F"/>
<path transform="translate(1e3 888)" d="m0 0 2 1-4 5-5 3-2-1 5-5z" fill="#4B4949"/>
<path transform="translate(1235,674)" d="m0 0 4 2 1 7h-4z" fill="#919291"/>
<path transform="translate(1040,620)" d="m0 0h2l-2 4-8 7-2-1 5-5z" fill="#676868"/>
<path transform="translate(1433,579)" d="m0 0h7l2 4-3 3-5-5z" fill="#515050"/>
<path transform="translate(1408,569)" d="m0 0h6l2 4h-11l1-3z" fill="#3B3B3B"/>
<path transform="translate(669,1417)" d="m0 0 1 2 3-1 1 2-1 2h-7l1-4z" fill="#514F4F"/>
<path transform="translate(684,1358)" d="m0 0 3 4 2 4-1 4-1-3-2-1v-2h-3z" fill="#585757"/>
<path transform="translate(740,1232)" d="m0 0h2l-1 8-1 4h-2l1-10z" fill="#515050"/>
<path transform="translate(1283,965)" d="m0 0 3 2v5l-4 4h-2l2-5 1-4z" fill="#E7E7E7"/>
<path transform="translate(1123,893)" d="m0 0 8 1 8 4-2 1-10-3z" fill="#666767"/>
<path transform="translate(1282,787)" d="m0 0 2 1v6h-5l-1-5z" fill="#454242"/>
<path transform="translate(387,736)" d="m0 0 8 3v2h2l-1 2-6-2v-2h-3z" fill="#8C2308"/>
<path transform="translate(1211,582)" d="m0 0 3 1-9 4v6l-2-2v-7z" fill="#B4B5B5"/>
<path transform="translate(997,559)" d="m0 0h2l-2 4-7 6h-2l2-4z" fill="#656565"/>
<path transform="translate(1013,524)" d="m0 0 2 1-9 8-4 1v-2z" fill="#6E6F6F"/>
<path transform="translate(1213,436)" d="m0 0 6 1v2h2v2l-5-1-4-1h-2v-2z" fill="#484646"/>
<path transform="translate(808,164)" d="m0 0 4 1-3 3h-7l1-3z" fill="#E65537"/>
<path transform="translate(339,1207)" d="m0 0 2 1-2 1zm-2 2 2 1-2 4-3 1v2l-4 1 2-4z" fill="#2C2B2B"/>
<path transform="translate(414,1128)" d="m0 0 2 1-4 7h-2l-1 2 1-6z" fill="#D7D7D6"/>
<path transform="translate(787,1072)" d="m0 0 5 1-1 5-6-2z" fill="#464343"/>
<path transform="translate(1143,929)" d="m0 0 13 5v1h-6l-5-2v-2h-2z" fill="#646464"/>
<path transform="translate(1211,831)" d="m0 0m-2 1 2 1-5 5-4 3h-2l1-3z" fill="#B9BABA"/>
<path transform="translate(865,749)" d="m0 0 2 1-4 4-1 5-2-1-1-5z" fill="#4A4A4A"/>
<path transform="translate(316,706)" d="m0 0 5 2 8 8-3 1-4-5-6-5z" fill="#282727"/>
<path transform="translate(1505,655)" d="m0 0 3 3 2 4v3l-4-2-1-1z" fill="#919291"/>
<path transform="translate(1227,625)" d="m0 0h5l-4 3-7 6-1-3z" fill="#9D9E9E"/>
<path transform="translate(1424,572)" d="m0 0 6 1-2 1-1 3-5-1v-3z" fill="#565555"/>
<path transform="translate(979,401)" d="m0 0h1l1 13-5-5v-3l3 2z" fill="#BD2D0B"/>
<path transform="translate(927,211)" d="m0 0 5 5 5 7h-3l-7-10z" fill="#7C1D07"/>
</svg>
