<?xml version="1.0" encoding="UTF-8"?>
<svg version="1.1" viewBox="0 0 800 800" width="200" height="200" xmlns="http://www.w3.org/2000/svg">
<path transform="translate(0)" d="m0 0h800v800h-800z" fill="#2450A6"/>
<path transform="translate(120,331)" d="m0 0h45l10 3 14 8 8 8 6 13 2 7v21l-5 12-8 10-10 9-10 5-9 2h-12l1-27 12-1 8-5 3-3 3-6v-14l-4-8-5-4-10-4-11-1-1 8v18l1 18v28h-27l-1-1z" fill="#F7F8F8"/>
<path transform="translate(474,357)" d="m0 0h18l10 4 9 6 6 8 3 14v30l-2 13-4 10-6 7-10 6-14 3h-13l-6-2v-20l19-1 7-4 2-2 2-5 1-35h-2l-3-5-4-3h-7l-7 7v8l4 6 2 1 12 1v21l-4 3-13-2-12-5-6-4-2-5h-2l-4-10v-15l1-7 4-8 8-7 8-6z" fill="#F9F9F9"/>
<path transform="translate(371,358)" d="m0 0h24l1 38 1 3 5 2v2h5v-2l4-1 1-42h25v31l-1 35-2 11-6 10-7 6-10 5-12 2h-12l-7-2v-21l10 1h9l6-3 5-5 1-4-8 4h-9l-11-4-6-4-4-5-2-10z" fill="#F9F9F9"/>
<path transform="translate(181,438)" d="m0 0h29l25 1h33l11-1h16l11 1 62-1 3 2v16l-42 1h-116l-97-1v-17z" fill="#FAFAFA"/>
<path transform="translate(239,357)" d="m0 0h19l10 4 9 7 5 7 3 10v18l-6 12-6 7-11 7-6 2h-14l-11-4-8-6-8-10-3-9v-16l2-7 5-8 8-8 9-5z" fill="#F9F9F9"/>
<path transform="translate(562,356)" d="m0 0h10l9 2 10 6 7 6 1 6-5 4-7 8-9 10-2 1-1 3-5 5 7-1 9-5 4 1 3 8 2 7v6l-5 4-7 3-5 1h-11l-13-3-9-5-10-10-4-9v-22l4-8 4-6 10-7 5-3z" fill="#F8F8F8"/>
<path transform="translate(293,358)" d="m0 0h25l1 14 3 5h6l6-4 1-15h24v13l-5 12-4 7 1 4 5 6 3 10v18l-10 1h-14l-1-1-1-19-5-5-5-1-3 5-1 19-6 2h-17l-2-1v-21l4-10h2v-3h2v-5l-6-8-3-10z" fill="#F9F9F9"/>
<path transform="translate(630,357)" d="m0 0h19l9 4 8 7 4 7 1 3v50h-23l-1-1-1-44-1-1h-12l-1 13-1 33h-23l-1-1v-42l2-9 5-8 9-8z" fill="#F8F8F8"/>
<path transform="translate(635,438)" d="m0 0h34l8 1v16l-1 1-35 1h-124l1-4 4-5 5-9h54z" fill="#F3F3F3"/>
<path transform="translate(370,440)" d="m0 0h1v16l-42 1h-116l-97-1v-1l6-2v-2l2-1 19-1 60-1 134-1 33-1z" fill="#B8B9B9"/>
<path transform="translate(669,447)" d="m0 0h8v8l-1 1-35 1h-124v-1l8-1 3-1 2-4 2-1 45-1z" fill="#B9BABA"/>
<path transform="translate(436,358)" d="m0 0h1v31l-1 35-2 11-6 10-7 6-10 5-12 2h-12l-6-1 8-8 17-3 10-6 5-7 2-7 2-23 2-28 3-7 3-3h2z" fill="#B9BABA"/>
<path transform="translate(509,377)" d="m0 0 4 2 5-1 2 11v30l-2 13-4 10-6 7-10 6-14 3h-13l-6-2 1-3 5 1 1-4 1-1 16-3 10-5 6-7 3-7 1-6z" fill="#B6B7B7"/>
<path transform="translate(319,393)" d="m0 0h15l3 2-2 1 1 4-2 6 1 2v19l4-1 1-5 7-5 1-3v-9l-1-5 3-6 6 7 3 10v18l-10 1h-14l-1-1-1-19-5-5-5-1-3 5-1 19-6 2h-17l-2-1 1-3v2l5-1 2-5 4-2 3-9 5-13z" fill="#B6B8B8"/>
<path transform="translate(144,348)" d="m0 0h15l13 4 6 4 1 2-9-3h-3l1 2-1 2-16-3h-3l-1 8v18l1 18v28h-27v-1l6-1v-5l3-2h16v-13l-5 3h-2v6h-2v-47l1-14 3-5z" fill="#B7B9B9"/>
<path transform="translate(275,379)" d="m0 0 3 3 2 4 4-5 1 4v18l-6 12-6 7-11 7-6 2h-14l-11-4-8-6 3-1v-7l5 2 6 3 5 1h12l8-3 6-5 5-8 2-6z" fill="#B5B6B7"/>
<path transform="translate(193,360)" d="m0 0h2l3 10 2 2 3-1v-5l2 4v21l-5 12-8 10-10 9-10 5-9 2h-12l1-9 14-3 12-5 6-5 7-11 3-11v-17z" fill="#B4B6B6"/>
<path transform="translate(592,410)" d="m0 0 2 4 1 9-5 4-7 3-5 1h-11l-13-3-9-5-4-3 1-9 5 2 11 4 8 1h11l11-4z" fill="#B7B8B8"/>
<path transform="translate(634,373)" d="m0 0h12l4 2-5 6-12 1-1 13-1 33h-20l3-8 8-2 1-25 1-11 3-6 2-2z" fill="#B7B8B8"/>
<path transform="translate(256,452)" d="m0 0 41 1 6 1h68v2l-42 1h-116l-97-1v-1l64-1 5-1h66z" fill="#A0A4A9"/>
<path transform="translate(244,380)" d="m0 0h8l5 3 3 3 1 4v7l-4 6-5 3h-8l-5-3-4-6v-8l7-8z" fill="#2752A6"/>
<path transform="translate(663,378)" d="m0 0 3 1 1 5h3v-6h1v50h-23l-1-1-1-44-1-2 3 1 1 44 5 1 1-7 7-2v-39z" fill="#B5B6B7"/>
<path transform="translate(349,393)" d="m0 0 6 5 3 7 1 5v18l-10 1h-14l-1-1-1-21 2 1v19l4-1 1-5 7-5 1-3v-9l-1-5 2-4z" fill="#B5B6B7"/>
<path transform="translate(516,426)" d="m0 0 2 2-1 7-5 10-7 6-10 5-11 2h-13l-6-2 1-3 5 1 1-4 1-1 7-1h13l9-6 4-3 3 1-1 2h2l5-15z" fill="#A0A4A9"/>
<path transform="translate(573,453)" d="m0 0h55l3 1 45 1v1l-35 1h-103l3-2 7-1z" fill="#A0A4A9"/>
<path transform="translate(435,402)" d="m0 0h1v22l-2 11-6 10-7 6-10 5-12 2h-12v-1l9-1 2-1v-2l12-6 7-4 5-5 5-4h2l2-6 2-9h1z" fill="#A0A4A9"/>
<path transform="translate(382,413)" d="m0 0h7l16 3 6 4 1 1v5l-1-2-8 4h-9l-11-4-6-4 1-2h2l1-4z" fill="#B5B7B7"/>
<path transform="translate(444,438)" d="m0 0h11l1 1v16l-16 2h-7l-1-4 5-5 5-9z" fill="#F1F1F1"/>
<path transform="translate(181,438)" d="m0 0h29l25 1h33l11-1h16l11 1 62-1 2 2-49 1h-88l-108-1v-1z" fill="#B0B3B5"/>
<path transform="translate(688,438)" d="m0 0h16l1 6-2 10-4 1h-13v-15z" fill="#FBFBFB"/>
<path transform="translate(459,410)" d="m0 0 9 3 7 2 9 1 3 3-2 1 1 3 3 2v2l-4 1-14-3-14-7-1-2h2z" fill="#BBBCBC"/>
<path transform="translate(589,371)" d="m0 0 5 1 4 3 1-3-1 5-21 21-1-3h-2l1-6 5-10 7-7z" fill="#B6B8B8"/>
<path transform="translate(314,408)" d="m0 0 5 1v18l-6 2h-17l-2-1 1-3v2l5-1 2-5 4-3 3-1 2-6z" fill="#A0A4A9"/>
<path transform="translate(476,373)" d="m0 0h15l7 5-2 1-5-2 1 3-5 1h-7l-7 7-1 8h-1l-1-7h-2l-2 3-1 5h-1v-10l3-6 5-6z" fill="#B9BABB"/>
<path transform="translate(89,439)" d="m0 0h17v14l-1 1h-16z" fill="#F7F7F7"/>
<path transform="translate(275,379)" d="m0 0 3 3 2 4 4-5 1 4v18l-6 12-6 7-4-2 4-8 4-7 1-4-1-15-2-1z" fill="#B2B4B5"/>
<path transform="translate(717,438)" d="m0 0h9l5 1-1 14-1 1h-8l-4 1-3-3 1-12z" fill="#AEB1B3"/>
<path transform="translate(276,385)" d="m0 0 2 1 1 15-3 8-7 10-4 3-4 2-8 1-5-1-1-3 13-4 8-6 5-8 2-6z" fill="#A3A7AB"/>
<path transform="translate(62,439)" d="m0 0h16v9l-2 6h-14z" fill="#A5A9AE"/>
<path transform="translate(241,373)" d="m0 0h15l6 4-2 1-6-1-3 3-9 2-5 6h-4l-3 6-1 5-2-4 2-10 6-8z" fill="#ABAEB1"/>
<path transform="translate(193,394)" d="m0 0h3l-1 6-8 11-6 5-1 2-5 2-15 3h-8l1-3 16-4 10-5 5-4 8-12z" fill="#A3A7AB"/>
<path transform="translate(358,362)" d="m0 0h1v9l-5 12-5 10-7-2 1-6 8-16 5-4h2z" fill="#B9BABA"/>
<path transform="translate(349,393)" d="m0 0 6 5 3 7v13l-11 2-6 1 3-3 3-2 1-3v-9l-1-5 2-4z" fill="#B8B9B9"/>
<path transform="translate(147,400)" d="m0 0h1v28h-27v-1l6-1v-5l3-2h16z" fill="#B7B8B9"/>
<path transform="translate(137,368)" d="m0 0h1l1 24 5-1 1-8h1l1 19-2 5-6 2v6h-2z" fill="#D6D7D5"/>
<path transform="translate(394,363)" d="m0 0h1v32h-1l-1-10-2 3v8l-3-1-1-6v-11l1-8 5-3z" fill="#C8CAC9"/>
<path transform="translate(509,377)" d="m0 0 4 2 5-1 1 4v19l-3-3-2-5-2-3-1 26h-1z" fill="#D3D4D3"/>
<path transform="translate(561,380)" d="m0 0h11l-2 5-7 7h-2l-2 5h-4l1-12z" fill="#3F62A6"/>
<path transform="translate(594,417)" d="m0 0h1v6l-5 4h-10l-4-2h-6l-2-3 17-3h7z" fill="#A0A4A9"/>
<path transform="translate(42,439)" d="m0 0 7 1v12l-1 1h-5l-1-4h3v-7h-5l1 10-4 2-2-1 1-13z" fill="#A5A8AC"/>
<path transform="translate(688,438)" d="m0 0h16l1 6-2 10-4 1h-13v-15zm0 1-1 5v10h6l3-8 6 2 1-1v-8z" fill="#ACAFB2"/>
<path transform="translate(480,448)" d="m0 0h6v4l-8 3 7 1-1 2h-13l-6-2 1-3 5 1 1-4 1-1z" fill="#B7B8B9"/>
<path transform="translate(665,379)" d="m0 0 2 3v2h3v22l-2 11-2 1v-10l1-11h-2z" fill="#D6D7D5"/>
<path transform="translate(319,393)" d="m0 0h15l3 2-2 1 1 4-2 6h-3l-4-4 2-1-3-4-10-1z" fill="#D3D5D3"/>
<path transform="translate(719,441)" d="m0 0h7l1 1v11l2 1h-8l-4 1-2-2 4-2z" fill="#ABAEB0"/>
<path transform="translate(241,375)" d="m0 0 8 1 5 1-3 3-9 2-5 6h-4l-3 3v-5l10-8-1-2z" fill="#C0C1C1"/>
<path transform="translate(455,439)" d="m0 0h1v16l-16 2h-7v-1l14-2v-2l-3-1 3-3 7-2z" fill="#B5B6B7"/>
<path transform="translate(358,410)" d="m0 0h1v16l-1-2-3 1h-11l-2-4 8-3h8z" fill="#A0A4A9"/>
<path transform="translate(203,366)" d="m0 0 2 4v15l-1 5-5-5-2-15 3 2 3-1z" fill="#D0D1D0"/>
<path transform="translate(147,400)" d="m0 0h1v28h-1v-5h-15l-4-1v-2l2-1h16z" fill="#A3A7AB"/>
<path transform="translate(304,419)" d="m0 0 3 2h-2v3l4 1h8l1 3-5 1h-17l-2-1 1-3v2l5-1 2-5z" fill="#B4B6B7"/>
<path transform="translate(349,393)" d="m0 0 6 5 2 4v9l-2-4-4-1-1 6h-1l-2-13 2-4z" fill="#D4D5D4"/>
<path transform="translate(562,373)" d="m0 0 4 1-5 1v2h2v2l-8 3-2 3 2 1-5 1-1 2 1-8 5-6z" fill="#C3C4C4"/>
<path transform="translate(750,439)" d="m0 0 7 1v11l-4 2-3-1 1-11-2-1z" fill="#A4A7AB"/>
<path transform="translate(146,402)" d="m0 0h1v15l-5 1-4-3 1-6 6-3z" fill="#FAFAFA"/>
<path transform="translate(275,379)" d="m0 0 3 3 2 4 4-5v21h-1l-1-6-3 1-2-11-2-1z" fill="#CDCECD"/>
<path transform="translate(389,369)" d="m0 0h2v27l-3-1-1-6v-11l1-8z" fill="#B3B5B6"/>
<path transform="translate(592,410)" d="m0 0 2 4-1 7-3-1h-13v-2l11-4z" fill="#B6B8B8"/>
<path transform="translate(193,360)" d="m0 0h2l2 5 2 15v6l-4-4z" fill="#BBBCBC"/>
<path transform="translate(459,410)" d="m0 0 4 2v3l4 2 1 5 4 1h-6l-10-6 3-3z" fill="#CFD0CF"/>
<path transform="translate(624,408)" d="m0 0h1l2 15h-13l3-3 5-2 1-9z" fill="#A1A5AA"/>
<path transform="translate(145,349)" d="m0 0h19l12 5 3 4-9-3-8-3-17-2z" fill="#AEB1B3"/>
<path transform="translate(744,440)" d="m0 0 4 1 1 12-4 1-2-1z" fill="#AAADAF"/>
<path transform="translate(491,374)" d="m0 0 5 2 2 3-7-2 1 3-5 1-8-1 1-2 5-1-3-2z" fill="#D4D5D4"/>
<path transform="translate(358,362)" d="m0 0h1v9l-4 9h-3l2-9 2-6h2z" fill="#BFC0C0"/>
<path transform="translate(695,445)" d="m0 0 8 2-1 6-9 1z" fill="#C6C7C7"/>
<path transform="translate(241,373)" d="m0 0h15l6 4-2 1-8-2h-13v2l-3-1 3-3z" fill="#B1B3B5"/>
<path transform="translate(715,440)" d="m0 0h5v12l-1 1h-5z" fill="#CBCDCC"/>
<path transform="translate(542,411)" d="m0 0 5 2 2 2-2 2 1 6-4-1-3-2z" fill="#D3D5D3"/>
<path transform="translate(354,367)" d="m0 0 2 1-4 9-3 5h-3l1-5 5-9z" fill="#A2A5AA"/>
<path transform="translate(226,413)" d="m0 0 5 2-1 3 1 4v3l-4-1-4-4h3z" fill="#CFD0CF"/>
<path transform="translate(63,440)" d="m0 0h6l-2 1v11l-4 1z" fill="#D6D7D5"/>
<path transform="translate(400,416)" d="m0 0 7 1 5 5-1 1h-6l-1-4-4-1z" fill="#D6D7D5"/>
<path transform="translate(382,413)" d="m0 0h7l5 1v1h-10l-2 6-5-1 1-2h2l1-4z" fill="#D2D4D2"/>
<path transform="translate(70,440)" d="m0 0h7v13l-3-1v-10l-4-1z" fill="#D1D2D0"/>
<path transform="translate(370,440)" d="m0 0h1v13l-1-4-4 1-9-1v-1l7-2h6z" fill="#A3A7AB"/>
<path transform="translate(455,439)" d="m0 0h1v11l-2 1h-7v-3l7-2z" fill="#A9ADB0"/>
<path transform="translate(647,374)" d="m0 0 3 1-4 4-4 1h-7v-1l6-2h-5v-2h11z" fill="#D6D7D5"/>
<path transform="translate(723,442)" d="m0 0h4v9l-3 1-1-3z" fill="#9FA3AA"/>
<path transform="translate(663,419)" d="m0 0h3v2l2 1-1 1h-11v-3z" fill="#A0A4A9"/>
<path transform="translate(96,442)" d="m0 0 3 1 1 9 5 1v1h-9l2-1-2-6z" fill="#B0B2B4"/>
<path transform="translate(722,440)" d="m0 0h8l-1 13h-2l-1-11z" fill="#DCDDDB"/>
<path transform="translate(586,377)" d="m0 0 2 1-2 4-4 3h-3l-1 3-1-4 5-3z" fill="#A1A5A9"/>
<path transform="translate(246,376)" d="m0 0 8 1-3 3-10 1z" fill="#DBDCDC"/>
<path transform="translate(562,373)" d="m0 0 4 1-5 1v2h2v2l-7 1 2-3-1-3z" fill="#D2D3D1"/>
<path transform="translate(350,384)" d="m0 0 1 4-2 5-5-1 3-5z" fill="#CBCCCC"/>
<path transform="translate(137,416)" d="m0 0 10 1-1 3-15-1v-1z" fill="#D6D7D5"/>
<path transform="translate(559,379)" d="m0 0 2 2-4 4-2 3-2-5 3-3z" fill="#F9F9F9"/>
</svg>
