<?xml version="1.0" encoding="UTF-8"?>
<svg version="1.1" viewBox="0 0 2048 2048" width="195" height="195" xmlns="http://www.w3.org/2000/svg">
<path transform="translate(0)" d="m0 0h2048v2048h-2048z" fill="#FDFDFD"/>
<path transform="translate(1026,219)" d="m0 0h7l27 14 37 19 42 22 27 14 19 10 27 14 24 12 65 34 19 10 22 11 19 10 28 15 42 21 18 10 29 15 22 11 22 12 38 19 23 13 38 19 29 15 22 12 16 8 29 15 18 10 16 8-1 857-5 5-14 8-19 10-56 28-22 12-24 12-22 12-29 15-16 8-27 14-22 12-38 19-22 12-42 21-22 12-16 8-23 12-20 10-16 9-50 25-16 9-29 15-28 14-16 9-24 12-19 10-26 14-19 10-28 14-6 4-6-1-23-11-29-15-38-20-38-19-18-10-52-26-22-12-39-20-15-8-16-9-46-23-22-12-44-22-22-12-27-14-30-15-22-12-34-17-18-10-29-15-24-12-22-12-16-8-41-21-29-15-2-6-1-343v-115l1-367 1-32 5-3 29-14 35-18 25-13 19-10 27-14 35-18 19-10 27-14 29-15 19-10 41-21 22-12 42-21 22-12 30-15 19-10 42-22 31-16 16-9 48-24 22-12 42-21 22-12 46-24z" fill="#030102"/>
<path transform="translate(1645,678)" d="m0 0h2v687l-1 19-3 3-29 16-27 14-22 12-35 18-22 12-22 11-19 10-23 12-41 21-16 8-28 15-24 12-19 10-22 11-19 10-77 40-22 12-29 15-18 10-35 18-26 13-15 6-3-1 1-125v-578l2-6 16-8 33-16 26-14 22-12 23-12 76-39 20-10 23-13 64-32 22-12 42-22 34-18 43-22 19-10 27-14 23-13 23-12 16-8 27-13z" fill="#ED2225"/>
<path transform="translate(413,676)" d="m0 0 11 6 38 19 42 22 19 10 24 12 22 12 40 20 19 10 22 12 36 18 22 12 20 10 19 10 31 16 19 10 30 15 22 12 29 15 24 12 22 12 48 24 17 10 17 8 1 1 1 11v481l-1 217h-4l-21-12-21-10-19-10-22-12-47-24-28-15-42-21-22-12-23-12-24-12-22-12-44-22-22-12-54-28-38-20-16-8-27-14-19-10-32-16-44-24-3-4z" fill="#FDFDFD"/>
<path transform="translate(1026,337)" d="m0 0h6l36 19 40 20 23 13 29 15 16 8 25 13 19 10 36 18 21 12 54 27 16 9 44 22 23 13 38 19 22 12 29 15 30 15 22 12 45 23 13 9 2 4-29 14-42 21-22 12-27 14-29 15-28 15-24 12-19 10-23 12-56 29-22 12-38 19-22 12-40 20-22 12-29 15-20 10-19 10-23 12-35 18-12 6h-8l-28-14-45-23-18-10-33-17-23-12-19-10-22-11-57-30-32-16-16-9-26-13-19-10-25-13-22-12-36-18-14-8-16-8-35-18-20-11-16-8-23-11-19-10-16-7v-4l17-11 29-15 24-12 22-12 35-18 25-13 16-9 48-24 22-12 28-14 23-13 52-26 26-14 19-10 28-14 22-12 16-8 56-29 32-16 22-12z" fill="#FDFDFD"/>
</svg>
