<?xml version="1.0" encoding="UTF-8"?>
<svg version="1.1" xmlns="http://www.w3.org/2000/svg" width="300" height="300">
<path d="M0 0 C1.95433215 1.83750231 3.88289939 3.69871114 5.8125 5.5625 C6.72644531 6.41328125 7.64039063 7.2640625 8.58203125 8.140625 C31.66397248 30.1989036 45.47298917 59.5633091 51.8125 90.5625 C52.18181641 92.36460937 52.18181641 92.36460937 52.55859375 94.203125 C55.12016875 109.67857123 57.43187797 132.61323876 51.8125 147.5625 C47.91939327 150.78674698 43.71508963 152.6233786 39 154.375 C37.85917969 154.81457031 36.71835938 155.25414062 35.54296875 155.70703125 C27.85708306 157.46955373 20.65874233 155.17688972 13.25 153 C12.43208984 152.76603516 11.61417969 152.53207031 10.77148438 152.29101562 C8.78329473 151.72130046 6.79761701 151.14283086 4.8125 150.5625 C3.58872616 146.46389096 4.35855057 143.27826766 5.25 139.1875 C10.8873647 109.98728929 4.06652101 80.31413606 -12.140625 55.58203125 C-29.29306816 31.53684705 -54.11630581 15.26671735 -83.21484375 9.77734375 C-90.23876488 8.38383497 -90.23876488 8.38383497 -97.08984375 9.77734375 C-99.31019746 11.34246373 -99.31019746 11.34246373 -99.78125 13.5 C-99.7503125 14.180625 -99.719375 14.86125 -99.6875 15.5625 C-99.6771875 16.243125 -99.666875 16.92375 -99.65625 17.625 C-99.0538445 20.11494272 -98.1448634 20.93256422 -96.1875 22.5625 C-94.26204472 23.21858805 -94.26204472 23.21858805 -92.1171875 23.484375 C-90.90869141 23.68595215 -90.90869141 23.68595215 -89.67578125 23.89160156 C-88.81339844 24.03049805 -87.95101562 24.16939453 -87.0625 24.3125 C-72.12620052 27.03064712 -59.35074173 32.36715788 -47.1875 41.5625 C-45.77017578 42.62984375 -45.77017578 42.62984375 -44.32421875 43.71875 C-24.52099345 59.27647057 -11.05686316 81.72695256 -7.89404297 106.89794922 C-5.98495853 125.93865603 -9.47978739 143.14711437 -17.1875 160.5625 C-28.95412895 161.19285512 -41.39838377 159.40943287 -51.1875 152.5625 C-52.09886719 151.94246094 -53.01023437 151.32242188 -53.94921875 150.68359375 C-56.38281167 149.00349822 -58.79274902 147.2973196 -61.1875 145.5625 C-60.21801424 142.6149155 -59.23210322 139.68267623 -58.15234375 136.7734375 C-53.27062989 123.29767984 -52.77392876 110.60131103 -58.78442383 97.42651367 C-64.91447678 84.82140123 -73.47590911 76.53263907 -86.875 71.56640625 C-90.81358149 70.43523627 -94.75295736 69.63838001 -98.7890625 68.93359375 C-113.64641509 66.28589853 -126.34279785 60.25759684 -135.43994141 47.85498047 C-138.05593366 43.91956141 -140.17893702 39.83635957 -142.1875 35.5625 C-142.75791016 34.36947266 -142.75791016 34.36947266 -143.33984375 33.15234375 C-147.60958328 21.99592757 -146.54132254 6.44621681 -142.50390625 -4.5546875 C-135.36411515 -20.19019441 -124.10693635 -30.40148227 -108.1875 -36.4375 C-72.72200611 -47.4486072 -25.46305113 -23.24851617 0 0 Z " fill="#E7352C" transform="translate(170.1875,113.4375)"/>
<path d="M0 0 C0.96486328 0.23444824 1.92972656 0.46889648 2.92382812 0.71044922 C42.88931991 10.56154763 77.41379306 30.66127895 107 59 C107.75023437 59.70898438 108.50046875 60.41796875 109.2734375 61.1484375 C140.01697122 90.91984367 166.16412307 139.2913126 169.16992188 182.43920898 C168.97729389 185.34219017 168.33857817 186.61191162 166.7265625 189.00390625 C166.23752441 189.73947754 165.74848633 190.47504883 165.24462891 191.23291016 C163.03158169 194.41604199 160.80739339 197.59038982 158.5546875 200.74560547 C157.18058451 202.73814111 155.95298139 204.74967898 154.75 206.84765625 C152.37137427 210.51616174 150.72524773 212.67394819 147 215 C139.74782959 216.37522232 132.29758108 215.74680048 125 215 C124.94054199 214.02111816 124.94054199 214.02111816 124.87988281 213.02246094 C122.3145622 172.55842585 111.29050082 133.99661822 84 103 C83.25878906 102.14921875 82.51757812 101.2984375 81.75390625 100.421875 C79.53565027 97.91528419 77.27893116 95.45145588 75 93 C74.3503125 92.28457031 73.700625 91.56914063 73.03125 90.83203125 C40.92401819 56.93420382 -3.9888614 44.32377094 -49 41 C-49.20504349 37.64675035 -49.32818195 34.29512597 -49.4375 30.9375 C-49.49615234 29.99455078 -49.55480469 29.05160156 -49.61523438 28.08007812 C-49.78305487 21.19943782 -49.78305487 21.19943782 -47.65014648 17.93237305 C-45.86638879 16.09988831 -44.03732538 14.54385732 -42 13 C-41.42999268 12.5460083 -40.85998535 12.0920166 -40.27270508 11.62426758 C-36.84510754 8.98367736 -33.23772103 6.59072654 -29.65576172 4.16601562 C-28.21976829 3.15476458 -26.85367796 2.0456286 -25.50390625 0.921875 C-17.49182913 -5.24339752 -9.0009916 -2.27957771 0 0 Z " fill="#E7352C" transform="translate(115,18)"/>
<path d="M0 0 C36.07841328 -0.64384466 36.07841328 -0.64384466 49 3 C49.79841309 3.22042969 50.59682617 3.44085938 51.41943359 3.66796875 C69.07402259 8.69598505 85.69171776 16.37317995 100 28 C100.51224121 28.40831055 101.02448242 28.81662109 101.55224609 29.23730469 C128.92278465 51.1304897 148.86209222 83.39037723 152.81396484 118.66748047 C153.700078 129.77761833 153.39207843 140.95318406 152 152 C144.375 155 144.375 155 141 155 C140.6596875 154.030625 140.319375 153.06125 139.96875 152.0625 C136.34789642 141.96128611 132.01963253 132.47585956 127 123 C126.4433667 121.92878906 126.4433667 121.92878906 125.87548828 120.8359375 C111.31455671 92.91052532 90.20615886 67.03388149 65 48 C64.36255859 47.51321777 63.72511719 47.02643555 63.06835938 46.52490234 C43.36681148 31.55772918 20.72029605 18.44383998 -3 11 C-2.69078116 9.54096742 -2.37751201 8.08279278 -2.0625 6.625 C-1.88847656 5.81289062 -1.71445313 5.00078125 -1.53515625 4.1640625 C-1 2 -1 2 0 0 Z " fill="#E7352C" transform="translate(147,0)"/>
<path d="M0 0 C3.21524305 1.40844718 5.32183868 3.10344786 7.75 5.625 C8.67039062 6.57246094 8.67039062 6.57246094 9.609375 7.5390625 C10.29773437 8.26222656 10.29773437 8.26222656 11 9 C10.63213379 9.42845215 10.26426758 9.8569043 9.88525391 10.29833984 C8.81749008 11.5428745 7.75066586 12.78821565 6.68457031 14.03417969 C5.65066177 15.240706 4.61414684 16.44501203 3.57324219 17.64550781 C-23.56002199 49.13565456 -35.71326488 89.06809453 -32.72265625 130.27734375 C-29.56197582 165.51934317 -14.03661878 196.50401508 10 222 C10.66 222.72445312 11.32 223.44890625 12 224.1953125 C38.61896101 252.32671448 76.54842224 265.14309157 114.40625 267.18359375 C156.82992917 268.09420303 192.90521573 250.50328943 224 223 C224.47050781 223.40992188 224.94101562 223.81984375 225.42578125 224.2421875 C226.04839844 224.78101563 226.67101562 225.31984375 227.3125 225.875 C228.23482422 226.67550781 228.23482422 226.67550781 229.17578125 227.4921875 C231.13498212 229.1640447 231.13498212 229.1640447 234 231 C232.41320892 235.2651327 229.19479336 237.77464956 225.8125 240.625 C225.19028564 241.15134033 224.56807129 241.67768066 223.92700195 242.2199707 C197.79977767 263.91907361 163.62275296 278.89998448 129.33984375 279.23828125 C128.1120797 279.25310799 128.1120797 279.25310799 126.85951233 279.26823425 C92.31953961 279.59934182 92.31953961 279.59934182 76 275 C74.58871826 274.61328125 74.58871826 274.61328125 73.14892578 274.21875 C47.21639263 266.89781922 23.88127469 254.22335423 4.51953125 235.46826172 C2.94291877 233.94484471 1.34668354 232.44374893 -0.25 230.94140625 C-26.90831809 205.49036115 -45.52041948 167.0650532 -47.17700195 130.04443359 C-47.20307169 128.66252983 -47.22327069 127.28050563 -47.23828125 125.8984375 C-47.24812042 125.14793121 -47.25795959 124.39742493 -47.26809692 123.62417603 C-47.76969561 75.42781409 -33.00342004 35.31525381 0 0 Z " fill="#E9352C" transform="translate(47,21)"/>
<path d="M0 0 C5.875768 3.31094863 8.49829317 7.17194687 11 13.3125 C12.1713154 20.10612933 11.37216887 26.04909178 7.625 31.9375 C3.47620754 36.77775787 -0.81132211 40.45154392 -7.2109375 41.32421875 C-13.76631331 41.56364683 -19.04951646 40.93780508 -24.375 36.9375 C-29.30743269 32.00506731 -32.41652844 26.66315803 -32.875 19.625 C-32.61189213 13.20078292 -30.00287426 7.46312235 -25.3671875 3.0078125 C-17.62258291 -2.96496373 -9.05473638 -4.14047166 0 0 Z " fill="#E8352C" transform="translate(88.375,204.0625)"/>
</svg>
