<?xml version="1.0" encoding="UTF-8"?>
<svg version="1.1" viewBox="0 0 1024 1024" width="256" height="256" xmlns="http://www.w3.org/2000/svg">
<path transform="translate(0)" d="m0 0h1024v1024h-1024z" fill="#435768"/>
<path transform="translate(877)" d="m0 0h147v857l-7 11-8 10-11 12-10 8-13 8-15 7-19 6-22 4-9 1h-43l-26-4-21-6-16-7-14-8-11-9-11-11-9-13-7-14-5-16-3-18v-26l4-21 6-15 7-12 8-10 11-11 16-10 16-8 9-3-3-3-14-8-14-10-12-11-8-9-9-16-5-17-2-13v-20l3-18 5-15 8-15 8-10 12-12 13-9 13-7h-7l-2-1v-2l-5 1-5-2-9-4 1-3v-3l6-2v-2h-11l-6 1h-3-3v2l-7 1-1 2h-7l-1-4 4-1h6l3-3h2v-2h4v2l3-1 2-3 12-2 5-3 9-2 4-3 1-5h6 2l4-4 2-4-4-2v2l-9 4-25 7-25 6-26 4-14 1h-44l-23-3-19-5-19-7-19-10-16-12-3-4-3-1v-2l-4-2-3-5-4-3-1-3-3-2-1-3-4-4-1-3-2-1v-3h-2l-1-5h-2l-10-21-6-19-4-17-3-23v-44l4-26 5-20 7-19 8-16 12-18 12-14 9-9 17-13 19-11 21-8 15-4 24-4 14-1h22l26 2 28 5 22 6-5-2-4-2v-2h-9l-3-1v-3h-2v-2l2-2 4-1 2-1 15 5h18l6-1v-2h8l2-5 4-2h3v-2h-2v-2h2l1-5 6-2 1-7 1-6-2-4-4-3v-6l2-3-3 1 2-4v-3l4-1 1 1 1-4-2-3v-3l9-4 2 1-1-4h-3l-1 2-4-3v-4l2-1v-2l6-3 1-2 4 1-1-3 1-4 4-2h3l1-5 1-9 2-4 7-1 2-6z" fill="#435768"/>
<path transform="translate(885,495)" d="m0 0 26 1 25 4 24 8 19 10 13 10 11 11 10 15 8 18 3 14v271l-7 11-8 10-11 12-10 8-13 8-15 7-19 6-22 4-9 1h-43l-26-4-21-6-16-7-14-8-11-9-11-11-9-13-7-14-5-16-3-18v-26l4-21 6-15 7-12 8-10 11-11 16-10 16-8 9-3-3-3-14-8-14-10-12-11-8-9-9-16-5-17-2-13v-20l3-18 5-15 8-15 8-10 12-12 13-9 15-8 21-7 20-4z" fill="#A5B6BF"/>
<path transform="translate(337,120)" d="m0 0h18l23 1 23 5 16 6 12 6v2l7 2 4 3v2l4 1 4 3v2l4 1 6 7 8 7 10 13 9 14 8 16 8 20 6 24 3 20 1 11v34l-4 29-5 21-7 19-8 17h-2l-4 10-2 1-3 6-3 1v3l-3 2-1 3-2 1-3 5-11 11-4 2-1 2-3 1-4 4-6 3-3 3-16 8-21 7-19 4-12 1h-37l-22-3-22-6-18-8-15-9-11-9-9-10-6-5v-3l-4-2v-3l-3-1-2-3v-3h-2v-3h-2v-3h-2l-2-4v-3h-2l-10-21-7-22-5-25-2-17v-39l3-23 6-25 7-19 8-17 10-16 11-14 14-14 15-11 16-9 18-7 21-5 6-1z" fill="#FBFCFC"/>
<path transform="translate(368,500)" d="m0 0h76l3 4 17 48 19 53 13 37 10 28 22 62 13 36 16 50 4 11 24-72 16-47 11-30 20-56 18-50 14-39 13-35h73l-3 11-10 28-21 57-18 50-8 21-7 20-9 24-7 20-9 24-7 20-9 24-7 20-17 46-18 49-1 2-35 1h-35l-10-1-5-12-15-41-21-57-23-64-21-57-22-61-44-121z" fill="#A5B6BF"/>
<path transform="translate(1e3 120)" d="m0 0h24v363l-3 1h-22l-25-3-21-5-18-7-15-8-11-8-4-2-7-8-14-14-3-6-2-1-1-3-2-1-3-7-3-3-2-7h-2l-10-24-7-32-2-13-1-12v-38l2-17 4-20 5-18 9-21 8-15 11-16 11-12 10-10 16-11 7-4 4-1v-2l17-6h3v-2l26-5z" fill="#FDFDFD"/>
<path transform="translate(692,119)" d="m0 0h22l26 2 28 5 22 6v2l9 2 17 7 2 2-1 5-14 33h-2l-1 5-1 3-6-1-27-9-26-6-14-2-25-1-25 2v2l-20 6-8 3-1 2-7 2v2l-3 1-1 2-5 3-6 7-2 1-2 4-2 1-2 4-3 3-1 3h-2l-3 9-7 16-4 13-4 21-1 9-1 42h2l4 20 6 17 9 17 8 10 5 7 7 5v2l4 1v2l4 1 3 3 4 1v2l5 1 5 3 7 2v2l9 1 5 2 13 2h28l13-2h5v-2l21-5v-81l-63-1-1-1v-50l123-1 2 1v172l-18 8-25 7-26 5-14 2-14 1h-44l-23-3-19-5-19-7-19-10-16-12-3-4-3-1v-2l-4-2-3-5-4-3-1-3-3-2-1-3-4-4-1-3-2-1v-3h-2l-1-5h-2l-10-21-6-19-4-17-3-23v-44l4-26 5-20 7-19 8-16 12-18 12-14 9-9 17-13 19-11 21-8 15-4 24-4z" fill="#FCFCFC"/>
<path transform="translate(331,173)" d="m0 0h28l14 3 13 5 14 8 6 4 7 8 4 3 1 3 2 1v3h2v3h2l4 6 5 13 7 21 4 24 1 16v21l-2 19-5 23-7 19-9 16-9 11-9 9-10 7-12 6-17 5-5 1h-27l-18-4-11-4v-2l-7-2v-2h-3v-2h-3l-16-16-9-13-8-16-6-18-4-21-1-8v-40l3-21 5-19 7-19 1-2h2l1-5h2l1-5 4-4 2-4h2l1-4 6-5 3-4 3-1 2-3 5-1v-2l5-3 18-6z" fill="#435768"/>
<path transform="translate(877)" d="m0 0h147v120l-37 2-19 3-8 2h-7v2l-16 6h-4v2l-8 4-16 11-10 9-10 10-12 17-9 16-8 18-4 11h-1l-1-10 3-4v-5h-3-2v6l-4 4-2 7-2 1-1 6-6 2-4 1-1 3-2-1 2-4 1-14 1-3 2-1-2-1 1-4 5-13h-1l-4-1 2-5h2v2h4v-6l1-2 7 1 1-7 5-9 4-3 3-8 5-6-5-1v-3l-1-4 2-2h4v-4h2l2-4 5-5 5-4h2l-4-5-3 1-9-3-2 3 3 1 1 3h-4l-4-1-1 6h6l-2 4-3-2h-8l-1-4h-4l1 6-5 4-1 3h2l1 4h-3v-2l-3 2 2 4 4-1-3 5-6 1 1 3-3 7-3 12 1 3-1 2-5 3-1 5h-2v4h-2l-2 4-5 4-2 4-2-2-7 1-9 4-2 1v-2l-4 1-7-3h-8l-2-4-4-1-4-4-5-3v-2l-5-1-8-5-2-2 1-2-11-4 3-3-1-2-3-3-10-2h-36l-13 1v-1l12-2 13-1 25 1 24 4 23 6 20 7 6 2 1-5 1-3h2l3-9 11-26-1-4-20-8-6-2 2-2-10-3-1-3h-9l-3-1v-3h-2v-2l2-2 4-1 2-1 15 5h18l6-1v-2h8l2-5 4-2h3v-2h-2v-2h2l1-5 6-2 1-7 1-6-2-4-4-3v-6l2-3-3 1 2-4v-3l4-1 1 1 1-4-2-3v-3l9-4 2 1-1-4h-3l-1 2-4-3v-4l2-1v-2l6-3 1-2 4 1-1-3 1-4 4-2h3l1-5 1-9 2-4 7-1 2-6z" fill="#596F81"/>
<path transform="translate(0,124)" d="m0 0h50l1 2v302h151l1 1v51l-10 1h-193z" fill="#FBFCFC"/>
<path transform="translate(995,172)" d="m0 0h27l2 1v259h-26l-18-4-8-3v-2l-5-1-7-4v-2l-6-2v-2l-4-1-14-16-7-11v-2h-2l-7-15-6-20-4-26v-37l3-21 5-20 6-15 7-13 10-14 10-10 15-10 15-6z" fill="#596F81"/>
<path transform="translate(853,237)" d="m0 0 1 4-4 18-2 12-1 11v38l2 19 5 24 3 14 9 22v2h2l3 9 3 1 2 3v4l3 1v3l3 1 2 3v3l4 2 9 10 8 8v2l4 1 11 8 19 10 21 7 20 4 19 2h25v103h-1l-3-14-9-20-10-14-11-11-13-9-19-10-22-7-25-4-26-1-26 2-24 5-18 6h-8l-2-1v-2l-5 1-5-2-9-4 1-3v-3l6-2v-2h-11l-6 1h-3-3v2l-7 1-1 2h-7l-1-4 4-1h6l3-3h2v-2h4v2l3-1 2-3 12-2 5-3 9-2 4-3 1-5h6 2l4-4 2-4-4-2v2l-9 4-4-1 10-4 1-172h-125l1 51h-2l-1-3v-45l2-5h126l-1-3h-7l-17-3-10-1h-11l-9-1h-2v-2l11-2 15-2 4-1h27l9-17 4-7 2-4h6l-2 7 2 4-1 3v9l2 5 1-2h3l1-13-1-4 3-4 3-9z" fill="#5B7182"/>
<path transform="translate(1023,857)" d="m0 0h1v143h-186l-4-3-3 2-5-1v-2l-5 2v-2l-2-1 7-5 3 2 7-4h3l-1-2-8-1v-2h-7l-2-5-5-4-5-7-3-3-1-6h-2l2-6-1-3-4-2v-6l3-1-1-8 6-2v-3l-2-1v-2h-2l-5-5v-5l6 2 25 5 5 2 12 2 8 2h17l2-1-3-2 37-1 21-3 17-4 19-7 15-8 11-8 12-11 8-10 7-10z" fill="#586E80"/>
<path transform="translate(883,729)" d="m0 0 9 1 16 7 13 7 14 10 12 12 8 13 4 13 1 6v14l-4 16-6 11-11 12-14 9-13 5-16 3h-11l-15-2-15-5-11-6-12-11-6-8-5-11-2-7-1-8v-14l3-15 8-16 11-12 8-7 15-9 13-6z" fill="#586E80"/>
<path transform="translate(886,552)" d="m0 0 16 1 10 2 12 5 11 7 9 10 5 10 2 7 1 13-3 17-7 14-11 13-15 11-16 8-7 1-13-5-16-8-13-8-10-9-8-11-5-13-1-6v-13l3-14 7-12 12-10 13-6 13-3z" fill="#586E80"/>
<path transform="translate(10,999)" d="m0 0 11 1 7 1 1-2 7 1 3-1 9 1 209 1h30l138 1h28l-1 2-13 1-8 1-4-1-17 1h-8l-15 3-7-1-7 1-5 1-5-1-1 2-9 1v2l4 1 5-2v2h2v4l6 1 1 2-1 2h-370v-24h9z" fill="#314153"/>
<path transform="translate(0,115)" d="m0 0 10 1 4-1 14 1 13 1 5 2h6v2l3 1 5 16-1 5 1 6v12l2 6-1 5v17l1 6-1 2v21l1 5-1 5v37l1 6-1 10 1 6-1 14 1 12-1 15 1 6v14l-1 9 1 14v18l-2 21-1 5 2 6v5l28-1 2-1v-2l8 1 4-1h10l10 2v2l5-1 29 1v1l-106 1-1-304h-50z" fill="#334355"/>
<path transform="translate(1023,622)" d="m0 0h1v129l-5-5-7-10-11-11-14-10-23-13-6-4 4-3 14-8 14-10 11-10 10-14 8-16z" fill="#586E80"/>
<path transform="translate(695,340)" d="m0 0h63l1 1v81l-6 2-11 3h-5v2l-18 3h-28l-17-3-7-2-3-2 4-1v-4h17l8 1 4-1 25-1 8-2 10-1 2-4 1-1 7-1 3-5 1-4 1-30-1-12-2-2-4-3v-2l5-2 4-9h-62z" fill="#64798A"/>
<path transform="translate(6,481)" d="m0 0h191l-4 1-1 3h-22l-2 1-12-1-3 1h-30l-2 1h-81l-4-1-4 1-9-1-4 1-5-2-4-1-2 1v-2h-5z" fill="#314153"/>
<path transform="translate(849,357)" d="m0 0h2v2h2l4 18 9 22v2h2l3 9 3 1 2 3v4l3 1v3l3 1 3 6-1 3-6-7v-2h-2l-2-4-7-6-2-8h-2l-1-5h-2l-6-10-2-7v-4h-2l-1-6v-3l-3-7 1-5z" fill="#4D6171"/>
<path transform="translate(762,114)" d="m0 0h4l2 5-1 3h2v3h10l3 3 10 3 1 2-10-2-25-6-4-1v-2l-5-1v-3l4-2h8z" fill="#45596A"/>
<path transform="translate(818,146)" d="m0 0h2l2 6-5 10-3 9-6 12-4 4h-2l1-6 14-33z" fill="#445869"/>
<path transform="translate(863,737)" d="m0 0h2v2l-3 1-2 3h-3l-2 4-11 8-1 2h-2v2h-2v2h-2v2h-2l-2 5-4 5v2h-2v2h-3l1-5 7-11 12-12 15-10z" fill="#465A6B"/>
<path transform="translate(899,734)" d="m0 0 5 1 17 9 14 10 12 12 5 8v2l-4-2-3-4v-2l-5-2-1-3-3-2-3-3v-2l-4-1-3-3-8-5v-2l-6-2-1-2-7-2-1-2-4-2z" fill="#45596A"/>
<path transform="translate(853,237)" d="m0 0 1 4-4 18-2 12-1 11v50h-1l-2-25v-16l2-21 1-13-1-4 3-4 3-9z" fill="#A5B6BF"/>
<path transform="translate(954,826)" d="m0 0 1 4-6 10-9 10-13 9-9 4-4-1 9-4 1-2 5-2 6-4 5-6 8-7 5-9z" fill="#475B6C"/>
<path transform="translate(1023,857)" d="m0 0h1v10h-2v-2h-2l-2 7-7 8-4 1v2l-2-1 8-10 7-10z" fill="#465A6C"/>
<path transform="translate(771,487)" d="m0 0h4v2h2v2l-5 1v2l-7 1-1 2h-7l-1-4 4-1h6l3-3h2z" fill="#586E80"/>
<path transform="translate(762,114)" d="m0 0h4l2 5-5 2v-2l-7 3-7-1v-3l4-2h8z" fill="#586E80"/>
<path transform="translate(846,564)" d="m0 0h2l-2 4-3 5h-2v2l-5 4-4 7-1-4 7-11z" fill="#475C6D"/>
<path transform="translate(943,632)" d="m0 0 1 3-7 9-6 7-5 4-3-1 5-6 7-6 5-5z" fill="#475B6D"/>
<path transform="translate(1014,555)" d="m0 0 4 5 3 7 2 1 1-2v20h-1l-3-14-6-14z" fill="#495E6F"/>
<path transform="translate(751,421)" d="m0 0h6l-1 2-19 5h-7l4-3 1-3h3l1 2h4v-2l8 1z" fill="#44596A"/>
<path transform="translate(1023,622)" d="m0 0h1v18l-4-1-2 7-2 1 1-6 4-10z" fill="#485C6D"/>
<path transform="translate(849,357)" d="m0 0h2l1 2v12l-4-2-2-9z" fill="#435768"/>
<path transform="translate(1021,483)" d="m0 0h3v4l-4 1-1-1-23-1v-1l20-1z" fill="#506474"/>
<path transform="translate(899,734)" d="m0 0 5 1 15 8v1l-7-1-1-2-7-2-1-2-4-2z" fill="#485C6D"/>
<path transform="translate(778,125)" d="m0 0 3 1 1 2 10 3 1 2-10-2-10-3v-2z" fill="#465A6B"/>
<path transform="translate(719,173)" d="m0 0 13 1-4 2-3 3-5-1v-2l-2-1z" fill="#576D7F"/>
<path transform="translate(859,219)" d="m0 0 1 3-4 11h-1l-1-10z" fill="#738796"/>
<path transform="translate(821,437)" d="m0 0h2l1 17h-3z" fill="#435768"/>
<path transform="translate(853,237)" d="m0 0 1 4-3 12h-2v5l-3-2 1-5 3-3z" fill="#7E919F"/>
<path transform="translate(1012,734)" d="m0 0 5 4 4 6 3 2v5l-5-5-7-10z" fill="#465A6C"/>
<path transform="translate(859,166)" d="m0 0h3l-1 5-3 4h-4l2-4h2v-2l-2-1z" fill="#596F81"/>
<path transform="translate(825,831)" d="m0 0 2 1 3 6 8 8-1 3-7-7-5-8z" fill="#475B6C"/>
<path transform="translate(735,422)" d="m0 0h3l3 3v2l-4 1h-7l4-3z" fill="#435768"/>
<path transform="translate(759,492)" d="m0 0 5 1 1 4h-8l-1-4z" fill="#596F81"/>
<path transform="translate(801,951)" d="m0 0 2 4 1 4-3 1v-2h-2v-5z" fill="#596F81"/>
<path transform="translate(1023,857)" d="m0 0h1v10h-2v-2l-3-1z" fill="#445869"/>
</svg>
