<?xml version="1.0" encoding="UTF-8"?>
<svg version="1.1" xmlns="http://www.w3.org/2000/svg" width="300" height="281">
<path d="M0 0 C0.99991974 0.32920944 1.99983948 0.65841888 3.03005981 0.99760437 C6.38670052 2.10565618 9.73816142 3.22860996 13.08984375 4.3515625 C15.46691466 5.13946328 17.84428289 5.92646755 20.22192383 6.71264648 C26.95944045 8.94407965 33.69206093 11.18995296 40.42370605 13.43902588 C45.34578489 15.08337459 50.26901882 16.72424994 55.19238281 18.36474609 C56.06462651 18.65540703 56.93687021 18.94606796 57.83554554 19.2455368 C61.40971925 20.43656543 64.98390709 21.62755163 68.55809593 22.81853485 C77.42108366 25.77201957 86.28373633 28.72647057 95.14319229 31.69053555 C98.47604831 32.80550239 101.80925244 33.91942641 105.14248276 35.0332737 C106.70647266 35.5562579 108.27028057 36.07978671 109.83389664 36.60388756 C111.98411437 37.32458837 114.13493253 38.04346945 116.28588867 38.76196289 C117.49677658 39.1673378 118.70766449 39.57271271 119.95524597 39.9903717 C122.30707454 40.74534497 124.62191901 41.42560657 127.02734375 41.9765625 C127.24038829 49.9543198 126.40707849 57.71968697 125.49609375 65.63671875 C125.33871786 67.03628242 125.18178355 68.43589582 125.02526855 69.83555603 C124.61537198 73.49052716 124.19954336 77.14479892 123.78240967 80.7989502 C123.35651247 84.53938543 122.93632019 88.28046114 122.515625 92.02148438 C121.69173057 99.34047883 120.86103105 106.65867584 120.02734375 113.9765625 C125.63734375 116.6165625 131.24734375 119.2565625 137.02734375 121.9765625 C136.69734375 122.9665625 136.36734375 123.9565625 136.02734375 124.9765625 C37.35734375 124.9765625 -61.31265625 124.9765625 -162.97265625 124.9765625 C-162.97265625 123.9865625 -162.97265625 122.9965625 -162.97265625 121.9765625 C-160.51644774 120.80523192 -158.05790708 119.63934528 -155.59765625 118.4765625 C-154.89898437 118.14269531 -154.2003125 117.80882813 -153.48046875 117.46484375 C-148.19921875 114.9765625 -148.19921875 114.9765625 -145.97265625 114.9765625 C-146.07510147 114.13575638 -146.17754669 113.29495026 -146.28309631 112.42866516 C-147.24782252 104.49915327 -148.20498074 96.56877225 -149.15367985 88.63732624 C-149.64166446 84.55986489 -150.13255339 80.48279737 -150.63012695 76.40649414 C-151.11033318 72.47157646 -151.5828483 68.53580408 -152.05007744 64.59932518 C-152.22954964 63.09872748 -152.4117762 61.59845651 -152.59681892 60.09853554 C-152.85581295 57.9952852 -153.10492979 55.89107915 -153.35180664 53.78637695 C-153.56831627 51.9910125 -153.56831627 51.9910125 -153.78919983 50.15937805 C-153.96107135 47.1775509 -153.71963301 44.85241563 -152.97265625 41.9765625 C-125.7957633 32.88297614 -98.6169758 23.7998511 -71.34741211 14.98730469 C-62.50697967 12.12682742 -53.6867945 9.21673414 -44.890625 6.22265625 C-43.08066944 5.60906699 -41.27069255 4.99554062 -39.46069336 4.38208008 C-36.05764018 3.22817507 -32.65962888 2.06080147 -29.26391602 0.88549805 C-27.73470979 0.36586717 -26.20534051 -0.15328422 -24.67578125 -0.671875 C-23.99553391 -0.91172623 -23.31528656 -1.15157745 -22.61442566 -1.3986969 C-14.22573381 -4.21108045 -8.07167227 -2.7322764 0 0 Z " fill="#2E3E45" transform="translate(162.97265625,3.0234375)"/>
<path d="M0 0 C92.07 0 184.14 0 279 0 C279 0.66 279 1.32 279 2 C278.19780029 2.28327148 278.19780029 2.28327148 277.37939453 2.57226562 C274.93026727 3.48143958 272.53324695 4.48773231 270.125 5.5 C269.28324219 5.79519531 268.44148438 6.09039062 267.57421875 6.39453125 C264.70184031 7.65837776 263.05444276 8.60008163 261 11 C259.32945595 16.14481902 259.18939086 21.63366158 259 27 C257.89865723 27.41548096 256.79731445 27.83096191 255.66259766 28.2590332 C232.93223246 36.83521299 210.20926718 45.43059398 187.5 54.0625 C185.96028534 54.64772934 185.96028534 54.64772934 184.38946533 55.24478149 C182.37641392 56.00999619 180.36350266 56.77557968 178.35073853 57.54154968 C176.40666288 58.28010097 174.46167067 59.01624462 172.51571655 59.74983215 C167.71230723 61.56447684 162.93484462 63.42310792 158.18359375 65.37060547 C157.24334351 65.74873886 156.30309326 66.12687225 155.33435059 66.51646423 C153.570001 67.22760494 151.811617 67.95382637 150.06115723 68.69850159 C140.25182666 72.61205554 132.78091946 69.89750763 123.28515625 66.1953125 C122.25626282 65.80403168 121.22736938 65.41275085 120.16729736 65.00961304 C116.79517075 63.72459919 113.42891654 62.42489077 110.0625 61.125 C107.71221835 60.2262044 105.36154517 59.328432 103.01049805 58.43164062 C98.13197378 56.5692459 93.25564295 54.70126479 88.38085938 52.82910156 C81.17239611 50.06274263 73.9548509 47.32076549 66.734375 44.5859375 C64.45564511 43.72250056 62.17691785 42.85905667 59.89819336 41.99560547 C58.80135223 41.5800238 57.70451111 41.16444214 56.57443237 40.73626709 C51.39887467 38.7747391 46.22424172 36.8108026 41.05078125 34.84375 C40.17689758 34.51224945 39.30301392 34.1807489 38.40264893 33.83920288 C36.75533572 33.21239352 35.10949237 32.58170402 33.46533203 31.94667053 C31.7165001 31.27513111 29.96193197 30.61844497 28.20361328 29.97215271 C27.29828857 29.63063675 26.39296387 29.28912079 25.46020508 28.93725586 C24.63917801 28.63363632 23.81815094 28.33001678 22.97224426 28.01719666 C21 27 21 27 19.5859375 24.16015625 C19.51632813 23.13792969 19.44671875 22.11570313 19.375 21.0625 C19.27960937 20.04285156 19.18421875 19.02320313 19.0859375 17.97265625 C19.00903198 15.31242443 18.97059561 12.6610974 19 10 C18.15179687 9.73445312 17.30359375 9.46890625 16.4296875 9.1953125 C12.87259054 7.95559534 9.53406601 6.47517384 6.125 4.875 C4.97257813 4.33617187 3.82015625 3.79734375 2.6328125 3.2421875 C1.32957031 2.62730469 1.32957031 2.62730469 0 2 C0 1.34 0 0.68 0 0 Z " fill="#2D3D44" transform="translate(10,210)"/>
<path d="M0 0 C0.99991974 0.32920944 1.99983948 0.65841888 3.03005981 0.99760437 C6.38670052 2.10565618 9.73816142 3.22860996 13.08984375 4.3515625 C15.46691466 5.13946328 17.84428289 5.92646755 20.22192383 6.71264648 C26.95944045 8.94407965 33.69206093 11.18995296 40.42370605 13.43902588 C45.34578489 15.08337459 50.26901882 16.72424994 55.19238281 18.36474609 C56.06462651 18.65540703 56.93687021 18.94606796 57.83554554 19.2455368 C61.40971925 20.43656543 64.98390709 21.62755163 68.55809593 22.81853485 C77.42108366 25.77201957 86.28373633 28.72647057 95.14319229 31.69053555 C98.47604831 32.80550239 101.80925244 33.91942641 105.14248276 35.0332737 C106.70647266 35.5562579 108.27028057 36.07978671 109.83389664 36.60388756 C111.98411437 37.32458837 114.13493253 38.04346945 116.28588867 38.76196289 C117.49677658 39.1673378 118.70766449 39.57271271 119.95524597 39.9903717 C122.30707454 40.74534497 124.62191901 41.42560657 127.02734375 41.9765625 C127.24038829 49.9543198 126.40707849 57.71968697 125.49609375 65.63671875 C125.33871786 67.03628242 125.18178355 68.43589582 125.02526855 69.83555603 C124.61537198 73.49052716 124.19954336 77.14479892 123.78240967 80.7989502 C123.35651247 84.53938543 122.93632019 88.28046114 122.515625 92.02148438 C121.69173057 99.34047883 120.86103105 106.65867584 120.02734375 113.9765625 C125.63734375 116.6165625 131.24734375 119.2565625 137.02734375 121.9765625 C136.69734375 122.9665625 136.36734375 123.9565625 136.02734375 124.9765625 C126.45734375 124.6465625 116.88734375 124.3165625 107.02734375 123.9765625 C108.08433985 108.82628506 109.40701657 93.75465713 111.08984375 78.6640625 C111.22163025 77.47363342 111.22163025 77.47363342 111.3560791 76.25915527 C111.60931177 73.9810048 111.86626214 71.70331247 112.125 69.42578125 C112.2009993 68.74656113 112.2769986 68.067341 112.3553009 67.36753845 C112.66168331 64.7149697 112.99558134 62.11731221 113.58374023 59.51098633 C114.20376341 55.96863046 114.08827006 52.57121506 114.02734375 48.9765625 C112.49980469 48.53957031 112.49980469 48.53957031 110.94140625 48.09375 C99.43603554 44.77290976 88.094974 41.0537067 76.75683594 37.20605469 C66.55743566 33.75064013 56.32414027 30.52461236 45.97569275 27.54490662 C37.08589153 24.95170272 28.30237775 22.1100002 19.58984375 18.9765625 C13.78128995 16.89204118 7.94697136 14.9721527 2.02734375 13.2265625 C1.35775635 13.02804688 0.68816895 12.82953125 -0.00170898 12.625 C-1.31536819 12.24488011 -2.63314281 11.8787042 -3.95458984 11.52661133 C-5.33870924 11.14935256 -6.71184089 10.7300244 -8.07275391 10.27612305 C-14.88273416 8.26259888 -19.8103616 9.9422346 -26.34765625 12.2890625 C-27.42619873 12.65499512 -28.50474121 13.02092773 -29.6159668 13.39794922 C-31.90482774 14.17589504 -34.1905142 14.96323534 -36.47314453 15.75927734 C-42.22585693 17.76032548 -48.00675567 19.67625176 -53.78515625 21.6015625 C-54.91163574 21.97990234 -56.03811523 22.35824219 -57.19873047 22.74804688 C-64.90826672 25.32798771 -72.65543663 27.72840364 -80.45556641 30.01782227 C-85.43858136 31.48807579 -90.29941234 33.14640621 -95.16015625 34.984375 C-99.50322405 36.51651281 -103.92361403 37.76695129 -108.34643555 39.04663086 C-118.96232335 42.11962002 -129.50664477 45.42559432 -139.97265625 48.9765625 C-140.1283849 56.09373274 -139.5244753 62.9318575 -138.66015625 69.9921875 C-138.38661339 72.31899803 -138.1131793 74.64582135 -137.83984375 76.97265625 C-137.40774664 80.59747092 -136.97320964 84.22197381 -136.53613281 87.84619141 C-136.11270777 91.37329324 -135.69855002 94.9013979 -135.28515625 98.4296875 C-135.15391357 99.4936676 -135.0226709 100.55764771 -134.88745117 101.65386963 C-134.00295226 109.2458186 -133.97265625 116.21472264 -133.97265625 123.9765625 C-143.54265625 124.3065625 -153.11265625 124.6365625 -162.97265625 124.9765625 C-162.97265625 123.9865625 -162.97265625 122.9965625 -162.97265625 121.9765625 C-160.51644774 120.80523192 -158.05790708 119.63934528 -155.59765625 118.4765625 C-154.89898437 118.14269531 -154.2003125 117.80882813 -153.48046875 117.46484375 C-148.19921875 114.9765625 -148.19921875 114.9765625 -145.97265625 114.9765625 C-146.07510147 114.13575638 -146.17754669 113.29495026 -146.28309631 112.42866516 C-147.24782252 104.49915327 -148.20498074 96.56877225 -149.15367985 88.63732624 C-149.64166446 84.55986489 -150.13255339 80.48279737 -150.63012695 76.40649414 C-151.11033318 72.47157646 -151.5828483 68.53580408 -152.05007744 64.59932518 C-152.22954964 63.09872748 -152.4117762 61.59845651 -152.59681892 60.09853554 C-152.85581295 57.9952852 -153.10492979 55.89107915 -153.35180664 53.78637695 C-153.56831627 51.9910125 -153.56831627 51.9910125 -153.78919983 50.15937805 C-153.96107135 47.1775509 -153.71963301 44.85241563 -152.97265625 41.9765625 C-125.7957633 32.88297614 -98.6169758 23.7998511 -71.34741211 14.98730469 C-62.50697967 12.12682742 -53.6867945 9.21673414 -44.890625 6.22265625 C-43.08066944 5.60906699 -41.27069255 4.99554062 -39.46069336 4.38208008 C-36.05764018 3.22817507 -32.65962888 2.06080147 -29.26391602 0.88549805 C-27.73470979 0.36586717 -26.20534051 -0.15328422 -24.67578125 -0.671875 C-23.99553391 -0.91172623 -23.31528656 -1.15157745 -22.61442566 -1.3986969 C-14.22573381 -4.21108045 -8.07167227 -2.7322764 0 0 Z " fill="#2F3F46" transform="translate(162.97265625,3.0234375)"/>
<path d="M0 0 C9.57 0 19.14 0 29 0 C29.66 4.29 30.32 8.58 31 13 C31.25318711 18.75385797 31.25318711 18.75385797 33.7756958 20.34622192 C34.55515564 20.62787201 35.33461548 20.90952209 36.13769531 21.19970703 C37.47547028 21.70386894 37.47547028 21.70386894 38.840271 22.21821594 C39.82626282 22.56128281 40.81225464 22.90434967 41.828125 23.2578125 C42.86036194 23.63951096 43.89259888 24.02120941 44.95611572 24.41447449 C48.37939566 25.67456965 51.8141206 26.8997213 55.25 28.125 C57.62654016 28.99129845 60.00218198 29.86006504 62.37695312 30.73120117 C66.0864083 32.09102766 69.7962874 33.44947116 73.51049805 34.79624939 C81.799996 37.80481846 90.05082599 40.9026571 98.27889252 44.07528687 C101.33029107 45.2515748 104.38363608 46.42279738 107.43652344 47.59521484 C110.95724862 48.94785728 114.47667127 50.30343687 117.99230957 51.66925049 C121.2509366 52.93313451 124.51523415 54.18114007 127.78125 55.42578125 C128.74661682 55.80494186 129.71198364 56.18410248 130.706604 56.57475281 C131.59813171 56.91142471 132.48965942 57.24809662 133.40820312 57.5949707 C134.17878052 57.89216507 134.94935791 58.18935944 135.74328613 58.49555969 C140.55883553 59.57197317 144.97245887 57.37368001 149.45385742 55.70605469 C150.08272354 55.47319763 150.71158966 55.24034058 151.35951233 55.00042725 C153.44287775 54.22790251 155.52417759 53.44996907 157.60546875 52.671875 C159.08618291 52.1212371 160.56700486 51.57088898 162.04792786 51.02081299 C165.17173461 49.85961219 168.29459627 48.69591655 171.41674805 47.53027344 C176.83058722 45.50910681 182.24769426 43.4967595 187.6649189 41.48468781 C191.48830066 40.06321039 195.30893107 38.63496892 199.12472534 37.1932373 C200.65648875 36.614977 202.18831866 36.03689284 203.72021484 35.45898438 C204.47748304 35.17329338 205.23475124 34.88760239 206.01496696 34.59325409 C210.77888553 32.80574947 215.56249234 31.08705092 220.36735439 29.41283798 C223.55128409 28.2990585 226.72502485 27.15788614 229.89785194 26.01291656 C231.40247286 25.47803196 232.91175084 24.95605123 234.42558861 24.44783783 C242.36582295 22.14842169 242.36582295 22.14842169 248.31967163 16.96228027 C249.04076733 14.35166506 249.04076733 14.35166506 249 10 C249.33 6.7 249.66 3.4 250 0 C259.57 0 269.14 0 279 0 C279 0.66 279 1.32 279 2 C278.19780029 2.28327148 278.19780029 2.28327148 277.37939453 2.57226562 C274.93026727 3.48143958 272.53324695 4.48773231 270.125 5.5 C269.28324219 5.79519531 268.44148438 6.09039062 267.57421875 6.39453125 C264.70184031 7.65837776 263.05444276 8.60008163 261 11 C259.32945595 16.14481902 259.18939086 21.63366158 259 27 C257.89865723 27.41548096 256.79731445 27.83096191 255.66259766 28.2590332 C232.93223246 36.83521299 210.20926718 45.43059398 187.5 54.0625 C185.96028534 54.64772934 185.96028534 54.64772934 184.38946533 55.24478149 C182.37641392 56.00999619 180.36350266 56.77557968 178.35073853 57.54154968 C176.40666288 58.28010097 174.46167067 59.01624462 172.51571655 59.74983215 C167.71230723 61.56447684 162.93484462 63.42310792 158.18359375 65.37060547 C157.24334351 65.74873886 156.30309326 66.12687225 155.33435059 66.51646423 C153.570001 67.22760494 151.811617 67.95382637 150.06115723 68.69850159 C140.25182666 72.61205554 132.78091946 69.89750763 123.28515625 66.1953125 C122.25626282 65.80403168 121.22736938 65.41275085 120.16729736 65.00961304 C116.79517075 63.72459919 113.42891654 62.42489077 110.0625 61.125 C107.71221835 60.2262044 105.36154517 59.328432 103.01049805 58.43164062 C98.13197378 56.5692459 93.25564295 54.70126479 88.38085938 52.82910156 C81.17239611 50.06274263 73.9548509 47.32076549 66.734375 44.5859375 C64.45564511 43.72250056 62.17691785 42.85905667 59.89819336 41.99560547 C58.80135223 41.5800238 57.70451111 41.16444214 56.57443237 40.73626709 C51.39887467 38.7747391 46.22424172 36.8108026 41.05078125 34.84375 C40.17689758 34.51224945 39.30301392 34.1807489 38.40264893 33.83920288 C36.75533572 33.21239352 35.10949237 32.58170402 33.46533203 31.94667053 C31.7165001 31.27513111 29.96193197 30.61844497 28.20361328 29.97215271 C27.29828857 29.63063675 26.39296387 29.28912079 25.46020508 28.93725586 C24.63917801 28.63363632 23.81815094 28.33001678 22.97224426 28.01719666 C21 27 21 27 19.5859375 24.16015625 C19.51632813 23.13792969 19.44671875 22.11570313 19.375 21.0625 C19.27960937 20.04285156 19.18421875 19.02320313 19.0859375 17.97265625 C19.00903198 15.31242443 18.97059561 12.6610974 19 10 C18.15179687 9.73445312 17.30359375 9.46890625 16.4296875 9.1953125 C12.87259054 7.95559534 9.53406601 6.47517384 6.125 4.875 C4.97257813 4.33617187 3.82015625 3.79734375 2.6328125 3.2421875 C1.32957031 2.62730469 1.32957031 2.62730469 0 2 C0 1.34 0 0.68 0 0 Z " fill="#2E3E45" transform="translate(10,210)"/>
<path d="M0 0 C8.765625 -0.061875 17.53125 -0.12375 26.5625 -0.1875 C30.69567749 -0.22846802 30.69567749 -0.22846802 34.91235352 -0.27026367 C37.10953331 -0.27902996 39.30671799 -0.28667356 41.50390625 -0.29296875 C42.63405151 -0.30831665 43.76419678 -0.32366455 44.92858887 -0.33947754 C53.75350435 -0.34239808 59.75209223 1.18867841 66.42578125 7.1875 C72.39127916 14.05596409 73.36547991 22.81748899 73.27734375 31.54296875 C72.68774836 38.89215076 70.14798962 46.12935663 64.87814331 51.44830322 C57.77507936 57.31675926 49.22837934 57.55532894 40.4296875 57.390625 C38.88196655 57.38458252 38.88196655 57.38458252 37.30297852 57.37841797 C33.49346828 57.35768213 29.68421396 57.30183852 25.875 57.25 C17.33625 57.1675 8.7975 57.085 0 57 C0 38.19 0 19.38 0 0 Z M15 13 C15 23.23 15 33.46 15 44 C19.75111878 44.06900495 24.50048771 44.12869507 29.25170898 44.16479492 C30.86667789 44.17984876 32.48160613 44.20029648 34.09643555 44.22631836 C36.42246555 44.26285286 38.74795341 44.27976015 41.07421875 44.29296875 C41.79212082 44.30845261 42.51002289 44.32393646 43.24967957 44.33988953 C47.70342052 44.34137291 50.45696222 43.7245142 54 41 C57.59857039 36.70170759 59.24476928 32.60929594 59 27 C58.01062652 21.31110247 56.38868789 17.7879138 51.80073547 14.06990051 C48.63852237 12.19108296 45.3119015 12.38686642 41.7578125 12.51171875 C40.60525467 12.52233086 40.60525467 12.52233086 39.42941284 12.53315735 C36.99358583 12.56097704 34.56012296 12.62368398 32.125 12.6875 C30.46617922 12.7125993 28.80732212 12.73540961 27.1484375 12.75585938 C23.09733198 12.80649819 19.05128718 12.90435051 15 13 Z " fill="#2D3D44" transform="translate(150,140)"/>
<path d="M0 0 C20.13 0 40.26 0 61 0 C61 4.29 61 8.58 61 13 C46.15 13 31.3 13 16 13 C16 15.64 16 18.28 16 21 C17.17357056 20.99214478 17.17357056 20.99214478 18.37084961 20.98413086 C21.89305833 20.96342894 25.4152543 20.95036162 28.9375 20.9375 C30.78504883 20.92493164 30.78504883 20.92493164 32.66992188 20.91210938 C34.4246582 20.90727539 34.4246582 20.90727539 36.21484375 20.90234375 C37.84087524 20.89448853 37.84087524 20.89448853 39.49975586 20.88647461 C42 21 42 21 43 22 C43.09873816 23.99799572 43.12971799 25.99957158 43.125 28 C43.12886719 29.6396875 43.12886719 29.6396875 43.1328125 31.3125 C43 34 43 34 42 35 C40.07332493 35.08748207 38.14348139 35.10697334 36.21484375 35.09765625 C35.04501953 35.09443359 33.87519531 35.09121094 32.66992188 35.08789062 C31.43822266 35.07951172 30.20652344 35.07113281 28.9375 35.0625 C27.08415039 35.05573242 27.08415039 35.05573242 25.19335938 35.04882812 C22.12885883 35.03699608 19.06445279 35.02051173 16 35 C16 37.64 16 40.28 16 43 C30.85 43 45.7 43 61 43 C61 47.62 61 52.24 61 57 C40.87 57 20.74 57 0 57 C0 38.19 0 19.38 0 0 Z " fill="#2C3D44" transform="translate(234,140)"/>
<path d="M0 0 C5.28 0 10.56 0 16 0 C17.1258983 4.16642579 18.25074812 8.33312993 19.375 12.5 C19.69210938 13.67304687 20.00921875 14.84609375 20.3359375 16.0546875 C25.28665103 34.41358351 25.28665103 34.41358351 25 39 C25.66 39 26.32 39 27 39 C27.12632813 37.86046875 27.25265625 36.7209375 27.3828125 35.546875 C27.94696709 31.04551521 28.86157396 26.66895879 29.875 22.25 C30.05135986 21.47084229 30.22771973 20.69168457 30.40942383 19.88891602 C34.62794923 1.37205077 34.62794923 1.37205077 36 0 C41.28 0 46.56 0 52 0 C52 16.83 52 33.66 52 51 C48.04 51 44.08 51 40 51 C39.505 38.625 39.505 38.625 39 26 C37.02 34.25 35.04 42.5 33 51 C28.38 51 23.76 51 19 51 C17.02 42.42 15.04 33.84 13 25 C12.67 33.58 12.34 42.16 12 51 C8.04 51 4.08 51 0 51 C0 34.17 0 17.34 0 0 Z " fill="#F3F4F4" transform="translate(44,64)"/>
<path d="M0 0 C1.24813477 0.3727002 1.24813477 0.3727002 2.52148438 0.75292969 C5.23463235 1.57208782 7.92978411 2.43624044 10.625 3.3125 C12.07024048 3.77716675 12.07024048 3.77716675 13.54467773 4.2512207 C20.26475061 6.41802816 26.96297174 8.64646279 33.65625 10.89453125 C37.86523862 12.28605436 42.09996936 13.5813077 46.33984375 14.875 C66.23363276 20.98963312 85.99476489 27.53747516 105.78125 33.98828125 C106.62110443 34.26200058 107.46095886 34.53571991 108.32626343 34.81773376 C112.55571065 36.19751539 116.78144423 37.58715774 121 39 C121.13772734 44.99802563 120.61101802 50.63334054 119.75 56.5625 C117.93915377 69.62503371 116.65301347 82.73617105 115.35839844 95.85766602 C115.27564667 96.68793808 115.1928949 97.51821014 115.1076355 98.37364197 C114.95165685 99.94052564 114.79782021 101.50762458 114.64651489 103.07496643 C114.2786252 106.76804129 113.81289409 110.37714561 113 114 C111.35 114 109.7 114 108 114 C108.58145285 100.862173 110.05055988 87.85180886 111.58398438 74.79589844 C112.00397872 71.21608752 112.41649607 67.63546902 112.828125 64.0546875 C113.09331498 61.77078278 113.35892441 59.48692671 113.625 57.203125 C113.74794434 56.13652649 113.87088867 55.06992798 113.99755859 53.9710083 C114.11437988 52.98187439 114.23120117 51.99274048 114.3515625 50.97363281 C114.50359131 49.67368378 114.50359131 49.67368378 114.65869141 48.34747314 C114.97422728 46.17726119 115.42482052 44.11451808 116 42 C115.11924805 41.92072266 114.23849609 41.84144531 113.33105469 41.75976562 C107.2661543 40.88441918 101.50773503 38.74243564 95.703125 36.84375 C94.38790692 36.41786967 93.07253485 35.99246466 91.75701904 35.56750488 C88.28709783 34.44502652 84.81949963 33.31552899 81.35229492 32.18469238 C78.60373254 31.28951839 75.85357372 30.39931658 73.10330009 29.50941658 C58.31137588 24.72290056 43.53932462 19.88065343 28.80523682 14.9185791 C22.02218581 12.64163285 15.21712313 10.48958848 8.33001709 8.5486908 C4.80063498 7.55326051 1.4098096 6.40663996 -2 5.0625 C-10.132381 2.36531263 -20.29303881 7.66623921 -28 10.3125 C-35.37620464 12.83865643 -42.75983564 15.2553739 -50.25 17.41796875 C-59.2551503 20.02254335 -68.12429764 22.98798746 -77 26 C-87.37233552 29.51990225 -97.75861454 32.87697159 -108.28173828 35.91943359 C-113.20509923 37.35021465 -118.0875898 38.89361654 -122.96679688 40.46679688 C-127.79030258 42 -127.79030258 42 -130 42 C-129.16614731 49.58082438 -128.32969821 57.16135906 -127.49145508 64.74169922 C-127.20667889 67.3197584 -126.92249417 69.89788298 -126.63891602 72.47607422 C-126.23089082 76.18474458 -125.8207298 79.8931735 -125.41015625 83.6015625 C-125.22103416 85.32688705 -125.22103416 85.32688705 -125.02809143 87.08706665 C-124.90804245 88.16773407 -124.78799347 89.24840149 -124.66430664 90.36181641 C-124.5599379 91.30779694 -124.45556915 92.25377747 -124.34803772 93.22842407 C-124.09931204 95.20913499 -123.79892274 97.18363326 -123.46458435 99.15170288 C-122.9553243 102.27390002 -122.90237747 105.21397222 -122.9375 108.375 C-122.94652344 109.43460937 -122.95554687 110.49421875 -122.96484375 111.5859375 C-122.97644531 112.38257812 -122.98804688 113.17921875 -123 114 C-124.65 114 -126.3 114 -128 114 C-128.10546143 112.92443848 -128.21092285 111.84887695 -128.31958008 110.74072266 C-128.81448282 105.70187684 -129.31303058 100.66339499 -129.8125 95.625 C-129.90237183 94.7168454 -129.99224365 93.8086908 -130.08483887 92.87301636 C-131.30532991 80.56803222 -132.58548619 68.27696413 -134.13598633 56.00830078 C-134.83574049 50.28767564 -135.11824331 44.76436122 -135 39 C-127.26924497 35.72197787 -119.37609233 33.18267848 -111.35449219 30.72705078 C-107.01895855 29.3882682 -102.69773108 28.00444913 -98.375 26.625 C-96.48830253 26.02337077 -94.60158355 25.42180897 -92.71484375 24.8203125 C-91.7697998 24.51899414 -90.82475586 24.21767578 -89.85107422 23.90722656 C-87.04889191 23.01555766 -84.24538899 22.12817675 -81.44140625 21.2421875 C-71.35124028 18.05031827 -61.29277217 14.77990215 -51.25927734 11.4140625 C-45.72465659 9.56185552 -40.17862771 7.77489497 -34.58203125 6.1171875 C-31.57387451 5.17898376 -28.61005926 4.17376427 -25.63671875 3.1328125 C-24.66855225 2.8028125 -23.70038574 2.4728125 -22.70288086 2.1328125 C-20.7794791 1.47635922 -18.86184291 0.8026818 -16.95141602 0.109375 C-10.53740942 -2.04841462 -6.38658781 -2.12431764 0 0 Z " fill="#F1F2F3" transform="translate(157,13)"/>
<path d="M0 0 C4.351875 -0.0825 8.70375 -0.165 13.1875 -0.25 C14.55156982 -0.28641602 15.91563965 -0.32283203 17.32104492 -0.36035156 C18.40490479 -0.3703418 19.48876465 -0.38033203 20.60546875 -0.390625 C22.26292114 -0.4220459 22.26292114 -0.4220459 23.95385742 -0.45410156 C27.72803284 0.10853098 29.3644378 1.27765048 32 4 C32.43348958 6.85557473 32.56982721 9.04683021 32.4375 11.875 C32.43169922 12.56980469 32.42589844 13.26460937 32.41992188 13.98046875 C32.3177112 18.32237839 31.57552924 21.96310178 30 26 C30.73089844 26.56074219 30.73089844 26.56074219 31.4765625 27.1328125 C33.60123116 29.73689358 33.39986527 31.55134272 33.375 34.875 C33.38660156 36.41800781 33.38660156 36.41800781 33.3984375 37.9921875 C32.94691166 41.40076493 32.02926284 43.24668094 30 46 C19.7370594 53.69720545 15.84293098 51 0 51 C0 34.17 0 17.34 0 0 Z " fill="#F7F7F8" transform="translate(214,64)"/>
<path d="M0 0 C5.99690308 -1.14834314 11.90695848 -2.08624612 17.18261719 1.47216797 C21.89451326 5.5590166 26.02929939 10.19941019 30 15 C34.14761013 11.6442912 37.36211122 8.50576963 40.4375 4.125 C44.01303002 0.35363706 46.89646669 -0.29770104 51.9140625 -0.57421875 C57.95494513 -0.65766503 63.974173 -0.41771641 70 0 C68.39626852 4.00517396 65.57886014 6.6771098 62.5546875 9.640625 C61.75987473 10.43119293 61.75987473 10.43119293 60.94900513 11.23773193 C59.26232175 12.91325675 57.56880436 14.58167722 55.875 16.25 C54.72740612 17.38755851 53.58026539 18.52557436 52.43359375 19.6640625 C49.62761863 22.44803465 46.81549536 25.2256576 44 28 C49.90989906 35.17630601 56.54008513 41.56559082 63.18359375 48.05664062 C64.05886719 48.92095703 64.93414062 49.78527344 65.8359375 50.67578125 C66.63563965 51.45864502 67.4353418 52.24150879 68.25927734 53.0480957 C70 55 70 55 70 57 C63.29126854 57.93803022 57.58552913 58.54721954 51.66125488 55.00204468 C48.25936006 52.17871111 45.27169431 48.96266957 42.265625 45.73046875 C41.13173592 44.56853566 39.99443944 43.40991901 38.85394287 42.25447083 C35.88122828 39.22489782 32.95631355 36.15310444 30.03967285 33.06964111 C27.05943765 29.93542404 24.03585466 26.8436546 21.015625 23.74804688 C15.72028685 18.30969001 10.46384595 12.83617284 5.23394775 7.33488464 C3.91927436 5.96081011 2.58158395 4.60711498 1.19525146 3.30537415 C0 2 0 2 0 0 Z " fill="#2D3D44" transform="translate(13,140)"/>
<path d="M0 0 C1.65 0 3.3 0 5 0 C6.14077657 3.42232972 6.09815117 6.08673217 6.0625 9.6875 C6.05347656 10.86699219 6.04445313 12.04648438 6.03515625 13.26171875 C6.02355469 14.16535156 6.01195312 15.06898438 6 16 C6.57468018 16.16263336 7.14936035 16.32526672 7.74145508 16.49282837 C14.85047101 18.5591347 21.7585306 21.04789177 28.6875 23.6484375 C29.89240082 24.09800308 31.09730164 24.54756866 32.3387146 25.01075745 C34.90466793 25.96833744 37.46981569 26.9280342 40.03436279 27.88937378 C43.35543571 29.13418484 46.67809965 30.37468243 50.00129509 31.61381435 C62.11883437 36.13289082 74.2296932 40.66574911 86.2734375 45.37890625 C87.07968567 45.6931958 87.88593384 46.00748535 88.71661377 46.33129883 C92.30624949 47.73155342 95.89009767 49.14369824 99.46484375 50.58154297 C100.68042969 51.05865723 101.89601563 51.53577148 103.1484375 52.02734375 C104.17114746 52.43718506 105.19385742 52.84702637 106.24755859 53.26928711 C111.40781705 54.63922267 115.89656874 52.39562499 120.74853516 50.56665039 C121.40815247 50.31922089 122.06776978 50.07179138 122.74737549 49.81686401 C124.92931005 48.99739247 127.10915952 48.1725152 129.2890625 47.34765625 C130.83135856 46.76734006 132.3737908 46.18738568 133.91635132 45.60777283 C137.99416521 44.07454175 142.07027509 42.53683134 146.14599609 40.99804688 C150.18890892 39.4722992 154.23311466 37.94998895 158.27734375 36.42773438 C159.06683788 36.1305419 159.85633202 35.83334942 160.66975021 35.52715111 C163.04282121 34.63389818 165.41593408 33.74075661 167.7890625 32.84765625 C168.56682289 32.55493458 169.34458328 32.26221291 170.14591217 31.96062088 C175.42998358 29.97208373 180.71462601 27.98507247 186 26 C186.70565598 25.73494408 187.41131195 25.46988815 188.13835144 25.19680023 C192.66037847 23.49904561 197.18495322 21.80827058 201.7109375 20.12109375 C202.83803131 19.69828629 203.96512512 19.27547882 205.12637329 18.83985901 C206.14476288 18.46143356 207.16315247 18.08300812 208.21240234 17.69311523 C209.09519867 17.36367416 209.977995 17.03423309 210.88754272 16.69480896 C213 16 213 16 215 16 C215.33 10.72 215.66 5.44 216 0 C217.65 0 219.3 0 221 0 C221.12556861 3.34152026 221.10240723 6.65780035 221 10 C220.99226562 10.82242188 220.98453125 11.64484375 220.9765625 12.4921875 C220.72018041 15.11789376 220.3028149 16.69712008 219 19 C216.6940918 20.3137207 216.6940918 20.3137207 213.76171875 21.42578125 C212.12614014 22.05987915 212.12614014 22.05987915 210.45751953 22.70678711 C209.31653809 23.13354736 208.17555664 23.56030762 207 24 C205.94796387 24.41064697 204.89592773 24.82129395 203.81201172 25.24438477 C196.45379305 28.11651318 189.0601858 30.89828934 181.67428589 33.69833374 C175.62991994 35.99244521 169.59434254 38.30889412 163.56202221 40.63445091 C158.05157577 42.75805303 152.53689851 44.87044663 147.01974964 46.97657204 C143.53886638 48.30589641 140.06011398 49.64029763 136.58572388 50.98651123 C133.26665049 52.27230161 129.94257446 53.544215 126.61441994 54.80630493 C124.77638383 55.50741347 122.9438552 56.22290678 121.11149597 56.9387207 C119.99930191 57.35774658 118.88710785 57.77677246 117.74121094 58.20849609 C116.77342712 58.58009857 115.80564331 58.95170105 114.80853271 59.33456421 C110.28842318 60.40553007 106.36769578 59.30185111 102.10839844 57.67504883 C101.393004 57.40494492 100.67760956 57.134841 99.9405365 56.85655212 C98.78661156 56.41128929 98.78661156 56.41128929 97.609375 55.95703125 C96.77567886 55.64081314 95.94198273 55.32459503 95.08302307 54.99879456 C92.30301022 53.94272025 89.5262783 52.8783507 86.75 51.8125 C82.71807955 50.26787671 78.68542423 48.72518548 74.65234375 47.18359375 C73.58151047 46.77365173 72.51067719 46.36370972 71.40739441 45.94134521 C64.0361604 43.12918144 56.64048056 40.39215655 49.22714233 37.69371033 C44.55309007 35.99216143 39.88599179 34.27189276 35.22028923 32.54759693 C31.94342117 31.33799719 28.6634256 30.13889915 25.37463379 28.96206665 C21.6722827 27.6369581 17.98646254 26.26926824 14.30078125 24.8984375 C13.18514297 24.50725235 12.0695047 24.1160672 10.9200592 23.71302795 C3.40511512 20.86443785 3.40511512 20.86443785 1.31958008 16.41430664 C1.21411865 15.28758545 1.10865723 14.16086426 1 13 C0.86335938 11.83597656 0.72671875 10.67195312 0.5859375 9.47265625 C0.51632813 8.34730469 0.44671875 7.22195312 0.375 6.0625 C0.26285156 4.34740234 0.26285156 4.34740234 0.1484375 2.59765625 C0.09945312 1.74042969 0.05046875 0.88320312 0 0 Z " fill="#F2F3F3" transform="translate(39,210)"/>
<path d="M0 0 C4.516875 -0.103125 9.03375 -0.20625 13.6875 -0.3125 C15.10377686 -0.35802002 16.52005371 -0.40354004 17.97924805 -0.45043945 C19.66594604 -0.46917114 19.66594604 -0.46917114 21.38671875 -0.48828125 C23.10701294 -0.52755737 23.10701294 -0.52755737 24.86206055 -0.56762695 C28.99411616 0.17982728 30.44710375 1.73133022 33 5 C33.61523438 7.03295898 33.61523438 7.03295898 33.59375 8.99609375 C33.59117187 9.71990234 33.58859375 10.44371094 33.5859375 11.18945312 C33.54339844 12.30223633 33.54339844 12.30223633 33.5 13.4375 C33.50386719 14.54448242 33.50386719 14.54448242 33.5078125 15.67382812 C33.42258583 20.46782817 32.6188769 23.85808831 30 28 C23.92918234 32.90832066 18.64125431 32.34342716 11 32 C11 38.27 11 44.54 11 51 C7.37 51 3.74 51 0 51 C0 34.17 0 17.34 0 0 Z " fill="#FBFBFB" transform="translate(103,64)"/>
<path d="M0 0 C5.28 0 10.56 0 16 0 C16.38671875 1.96839844 16.7734375 3.93679687 17.171875 5.96484375 C17.69707006 8.62256716 18.22291926 11.28015084 18.75 13.9375 C18.8856134 14.62173035 19.02122681 15.30596069 19.16094971 16.01092529 C21.02133954 25.3740878 23.00689712 34.68595684 25.3359375 43.9453125 C26 47 26 47 26 51 C22.37 51 18.74 51 15 51 C14.5359375 49.3603125 14.5359375 49.3603125 14.0625 47.6875 C13.41662103 45.44592006 12.7376883 43.2130649 12 41 C9.03 40.67 6.06 40.34 3 40 C2.34 43.63 1.68 47.26 1 51 C-2.63 51 -6.26 51 -10 51 C-9.42005505 40.91439488 -7.25228394 31.37560318 -5 21.5625 C-4.62697105 19.91225236 -4.25457066 18.2618625 -3.8828125 16.61132812 C-1.35636704 5.42546814 -1.35636704 5.42546814 0 0 Z " fill="#F8F8F8" transform="translate(184,64)"/>
<path d="M0 0 C99 0 198 0 300 0 C299.34 1.32 298.68 2.64 298 4 C200.32 4 102.64 4 2 4 C1.34 2.68 0.68 1.36 0 0 Z " fill="#2C3D44" transform="translate(0,129)"/>
<path d="M0 0 C91.08 0 182.16 0 276 0 C276.66 1.32 277.32 2.64 278 4 C185.6 4 93.2 4 -2 4 C-1.34 2.68 -0.68 1.36 0 0 Z " fill="#2C3D43" transform="translate(12,204)"/>
<path d="M0 0 C5.94 0 11.88 0 18 0 C18 18.81 18 37.62 18 57 C12.39 57 6.78 57 1 57 C0 56 0 56 -0.12025452 53.75376892 C-0.11803391 52.76115555 -0.11581329 51.76854218 -0.11352539 50.74584961 C-0.11344986 49.62476303 -0.11337433 48.50367645 -0.11329651 47.34861755 C-0.10813522 46.1288472 -0.10297394 44.90907684 -0.09765625 43.65234375 C-0.0962413 42.41078018 -0.09482635 41.16921661 -0.09336853 39.89002991 C-0.08870591 36.58394509 -0.07971497 33.27792854 -0.06866455 29.97186279 C-0.05844827 26.6003885 -0.05387045 23.22890717 -0.04882812 19.85742188 C-0.03777395 13.23825982 -0.0204966 6.61913929 0 0 Z " fill="#2D3D43" transform="translate(117,140)"/>
<path d="M0 0 C4.28286176 -0.42840917 6.35912819 -0.45379413 9.92979431 2.07455444 C10.91885857 3.03742034 11.88917576 4.01978703 12.84350586 5.01708984 C13.38097443 5.55032364 13.91844299 6.08355743 14.47219849 6.63294983 C16.23710602 8.39255492 17.97575833 10.175837 19.71484375 11.9609375 C20.93656391 13.19064116 22.15969434 14.41894517 23.38417053 15.64590454 C25.94244491 18.21640649 28.48893421 20.79783581 31.02661133 23.38867188 C34.28538885 26.7154851 37.56347674 30.02238288 40.84935665 33.32240868 C43.97793426 36.46608384 47.09675774 39.61936168 50.21484375 42.7734375 C50.81324507 43.37711529 51.41164639 43.98079308 52.02818108 44.60276413 C53.71166339 46.30462223 55.38805072 48.01314194 57.06225586 49.72412109 C57.56554916 50.23122116 58.06884247 50.73832123 58.58738708 51.26078796 C62 54.77039325 62 54.77039325 62 57 C59.4921875 57.46875 59.4921875 57.46875 56 57 C53.04661385 54.81567742 50.62089618 52.1845395 48.125 49.5 C47.43664063 48.78457031 46.74828125 48.06914062 46.0390625 47.33203125 C44.34505484 45.56743993 42.66661507 43.79042076 41 42 C36.84661423 45.3551547 33.66795741 48.46642269 30.625 52.875 C26.98146148 56.72489823 23.97187736 57.30334859 18.86328125 57.57421875 C12.56382002 57.65780413 6.28505485 57.41710234 0 57 C0 56.34 0 55.68 0 55 C1.3984375 53.62280273 1.3984375 53.62280273 3.375 51.99609375 C8.52433397 47.61757057 13.24681932 42.86313947 18 38.0625 C18.87011719 37.18787109 19.74023438 36.31324219 20.63671875 35.41210938 C22.76013549 33.27702551 24.88116378 31.13962795 27 29 C21.76758419 22.64006024 15.98521744 16.90234568 10.125 11.125 C8.20808063 9.23459928 6.29454481 7.34097983 4.3828125 5.4453125 C3.54121582 4.61531738 2.69961914 3.78532227 1.83251953 2.93017578 C0 1 0 1 0 0 Z " fill="#2D3D44" transform="translate(3,140)"/>
<path d="M0 0 C3.63 0 7.26 0 11 0 C11 13.53 11 27.06 11 41 C15.95 41 20.9 41 26 41 C26 43.97 26 46.94 26 50 C17.42 50 8.84 50 0 50 C0 33.5 0 17 0 0 Z " fill="#FBFBFB" transform="translate(142,64)"/>
<path d="M0 0 C3.63 0 7.26 0 11 0 C11.05389087 1.95803507 11.09274217 3.91648909 11.125 5.875 C11.14820312 6.96554688 11.17140625 8.05609375 11.1953125 9.1796875 C11 12 11 12 9 14 C5.98173347 14.27240673 3.03629378 14.08675125 0 14 C0 9.38 0 4.76 0 0 Z " fill="#3B4A50" transform="translate(114,73)"/>
<path d="M0 0 C3.3 0 6.6 0 10 0 C10.1953125 6.8359375 10.1953125 6.8359375 10 9 C8 11 8 11 6.0546875 11.1953125 C4.03645833 11.13020833 2.01822917 11.06510417 0 11 C0 7.37 0 3.74 0 0 Z " fill="#4F5D63" transform="translate(225,73)"/>
<path d="M0 0 C6.0546875 -0.1953125 6.0546875 -0.1953125 8 0 C10 2 10 2 10.1953125 3.9453125 C10.13020833 5.96354167 10.06510417 7.98177083 10 10 C6.78548731 11.60725635 3.56387464 11.05748185 0 11 C0 7.37 0 3.74 0 0 Z " fill="#2E3E44" transform="translate(226,94)"/>
<path d="M0 0 C2.375 0.75 2.375 0.75 3.375 1.75 C3.5625 4.6875 3.5625 4.6875 3.375 7.75 C2.715 8.41 2.055 9.07 1.375 9.75 C-1.75 9.375 -1.75 9.375 -4.625 8.75 C-5.95341008 3.31559513 -5.95341008 3.31559513 -4.5 0.8125 C-2.625 -0.25 -2.625 -0.25 0 0 Z " fill="#B9BFC1" transform="translate(253.625,63.25)"/>
<path d="M0 0 C4.55555556 0.55555556 4.55555556 0.55555556 6 2 C6.1875 4.4375 6.1875 4.4375 6 7 C5.34 7.66 4.68 8.32 4 9 C-0.55555556 8.44444444 -0.55555556 8.44444444 -2 7 C-2.1875 4.5625 -2.1875 4.5625 -2 2 C-1.34 1.34 -0.68 0.68 0 0 Z " fill="#F2F3F3" transform="translate(148,249)"/>
<path d="M0 0 C4.55555556 0.55555556 4.55555556 0.55555556 6 2 C6.1875 4.4375 6.1875 4.4375 6 7 C5.34 7.66 4.68 8.32 4 9 C-0.55555556 8.44444444 -0.55555556 8.44444444 -2 7 C-2.1875 4.5625 -2.1875 4.5625 -2 2 C-1.34 1.34 -0.68 0.68 0 0 Z " fill="#F1F2F3" transform="translate(243,216)"/>
<path d="M0 0 C4.55555556 0.55555556 4.55555556 0.55555556 6 2 C6.1875 4.4375 6.1875 4.4375 6 7 C5.34 7.66 4.68 8.32 4 9 C-0.55555556 8.44444444 -0.55555556 8.44444444 -2 7 C-2.1875 4.5625 -2.1875 4.5625 -2 2 C-1.34 1.34 -0.68 0.68 0 0 Z " fill="#F2F3F3" transform="translate(52,216)"/>
<path d="M0 0 C3.66829266 5.50243899 3.12789125 11.60543766 3 18 C1.35 18 -0.3 18 -2 18 C-1.85805236 15.93722893 -1.71127784 13.87478969 -1.5625 11.8125 C-1.48128906 10.66394531 -1.40007812 9.51539062 -1.31640625 8.33203125 C-1.04596188 5.48401829 -0.62478253 2.78789518 0 0 Z " fill="#3B4A50" transform="translate(191,77)"/>
<path d="M0 0 C4.55555556 0.55555556 4.55555556 0.55555556 6 2 C6.1875 4.4375 6.1875 4.4375 6 7 C5.34 7.66 4.68 8.32 4 9 C-0.55555556 8.44444444 -0.55555556 8.44444444 -2 7 C-2.1875 4.5625 -2.1875 4.5625 -2 2 C-1.34 1.34 -0.68 0.68 0 0 Z " fill="#F2F3F3" transform="translate(148,23)"/>
<path d="M0 0 C1.98 0 3.96 0 6 0 C6.33 2.64 6.66 5.28 7 8 C4.3333581 9.33332095 2.83319697 8.67102033 0 8 C0 5.36 0 2.72 0 0 Z " fill="#2C3C43" transform="translate(227,75)"/>
<path d="M0 0 C1.4606285 2.64738916 2 3.89448334 2 7 C-1.75 8.125 -1.75 8.125 -4 7 C-3.67 5.68 -3.34 4.36 -3 3 C-2.34 3 -1.68 3 -1 3 C-0.67 2.01 -0.34 1.02 0 0 Z " fill="#4E5C62" transform="translate(49,219)"/>
<path d="M0 0 C0.33 0 0.66 0 1 0 C1 2.97 1 5.94 1 9 C-0.65 9 -2.3 9 -4 9 C-4 7.35 -4 5.7 -4 4 C-3.01 4.33 -2.02 4.66 -1 5 C-0.67 3.35 -0.34 1.7 0 0 Z " fill="#515E64" transform="translate(193,86)"/>
<path d="M0 0 C2.17175481 3.25763222 2.46043998 4.22439213 2 8 C0.5 10.3125 0.5 10.3125 -1 12 C-1.14285714 3.42857143 -1.14285714 3.42857143 0 0 Z " fill="#404F55" transform="translate(81,93)"/>
<path d="M0 0 C1.37562854 1.28965176 2.70766393 2.62689293 4 4 C4 4.66 4 5.32 4 6 C3.01 6.33 2.02 6.66 1 7 C0.34 6.67 -0.32 6.34 -1 6 C-1.042721 4.33388095 -1.04063832 2.66617115 -1 1 C-0.67 0.67 -0.34 0.34 0 0 Z " fill="#808A8E" transform="translate(250,66)"/>
<path d="M0 0 C0.99 0 1.98 0 3 0 C2.67 2.31 2.34 4.62 2 7 C1.34 7 0.68 7 0 7 C0 4.69 0 2.38 0 0 Z " fill="#3E4D53" transform="translate(69,96)"/>
</svg>
