<?xml version="1.0" encoding="UTF-8"?>
<svg version="1.1" xmlns="http://www.w3.org/2000/svg" width="300" height="300">
<path d="M0 0 C2.51406481 1.56383284 4.95053631 3.21065599 7.3846283 4.89624023 C8.28561249 5.50445618 9.18659668 6.11267212 10.11488342 6.73931885 C12.98651021 8.68078874 15.84607461 10.63916506 18.7049408 12.59936523 C21.55868963 14.54209664 24.41487147 16.48113168 27.27357483 18.41656494 C29.04782664 19.61926841 30.81892978 20.82663513 32.58625793 22.03948975 C37.84913372 25.62474081 43.20586814 28.86157333 48.8299408 31.84936523 C49.40518494 31.33164551 49.98042908 30.81392578 50.57310486 30.28051758 C56.86565508 24.61722238 56.86565508 24.61722238 60.8299408 22.84936523 C60.8299408 22.18936523 60.8299408 21.52936523 60.8299408 20.84936523 C62.32103314 19.51955431 63.87700794 18.26237793 65.4549408 17.03686523 C70.9442013 12.67251155 76.03723901 7.99980351 81.05699158 3.10400391 C81.62015076 2.56622314 82.18330994 2.02844238 82.76353455 1.47436523 C83.25909851 0.99225586 83.75466248 0.51014648 84.26524353 0.01342773 C86.08231857 -1.33839217 87.62028794 -1.74014707 89.8299408 -2.15063477 C94.71265729 27.85851182 94.71265729 27.85851182 96.6424408 40.47436523 C96.7659491 41.26488281 96.8894574 42.05540039 97.01670837 42.86987305 C97.57338841 46.56037988 97.97016411 50.11499704 97.8299408 53.84936523 C98.61240173 53.76557617 99.39486267 53.68178711 100.20103455 53.59545898 C101.21294861 53.49362305 102.22486267 53.39178711 103.2674408 53.28686523 C104.7814447 53.13024414 104.7814447 53.13024414 106.32603455 52.97045898 C107.15232361 52.93049805 107.97861267 52.89053711 108.8299408 52.84936523 C109.8299408 53.84936523 109.8299408 53.84936523 109.94346619 55.70703125 C109.93822937 56.49779053 109.93299255 57.2885498 109.92759705 58.10327148 C109.92437439 58.95727539 109.92115173 59.8112793 109.91783142 60.69116211 C109.90945251 61.58899414 109.90107361 62.48682617 109.8924408 63.41186523 C109.88792908 64.31356445 109.88341736 65.21526367 109.87876892 66.14428711 C109.86694304 68.37937837 109.850463 70.6143396 109.8299408 72.84936523 C110.42597107 73.12699707 111.02200134 73.40462891 111.63609314 73.69067383 C113.68255857 74.77152459 115.20191065 75.86760775 116.9315033 77.38842773 C117.49877136 77.88221924 118.06603943 78.37601074 118.65049744 78.88476562 C119.24596375 79.4093335 119.84143005 79.93390137 120.4549408 80.47436523 C124.54413278 84.03066704 128.63851467 87.55203195 132.8924408 90.91186523 C136.75188977 93.96146262 140.52124935 97.10038663 144.2674408 100.28686523 C154.23929509 108.97504925 154.23929509 108.97504925 164.8299408 116.84936523 C163.22494789 122.38465535 160.67526636 127.2319821 158.00572205 132.30639648 C157.04955506 134.15935064 156.09451124 136.01288472 155.14048767 137.86694336 C153.64317716 140.76898014 152.13974261 143.66698312 150.61680603 146.55566406 C149.14255863 149.35828596 147.69715286 152.17428673 146.25572205 154.99389648 C145.7974855 155.84732132 145.33924896 156.70074615 144.86712646 157.58003235 C141.89593639 163.47012788 141.32726854 167.44225211 142.8299408 173.84936523 C143.09855171 175.04090462 143.09855171 175.04090462 143.37258911 176.2565155 C144.00785119 178.88927145 144.70526755 181.4987575 145.41978455 184.11108398 C145.6801651 185.08400391 145.94054565 186.05692383 146.20881653 187.05932617 C146.76695739 189.14175345 147.32805272 191.22339076 147.89186096 193.30429077 C148.77624124 196.56935579 149.65223605 199.83656748 150.52598572 203.10449219 C152.55617574 210.69241239 154.59830563 218.27710267 156.64134216 225.86157227 C158.09708062 231.26788606 159.54706612 236.67566209 160.98744202 242.08609009 C161.63013653 244.490827 162.28150818 246.89310208 162.93321228 249.29541016 C163.32243318 250.75467678 163.71121333 252.21406106 164.09947205 253.67358398 C164.43567566 254.92228271 164.77187927 256.17098145 165.11827087 257.45751953 C165.79919419 260.70282573 165.96995952 263.5461243 165.8299408 266.84936523 C162.92393818 268.10601501 161.03389495 268.84936523 157.8299408 268.84936523 C157.4999408 269.50936523 157.1699408 270.16936523 156.8299408 270.84936523 C155.0198822 271.62719727 155.0198822 271.62719727 152.6815033 272.35717773 C151.84103455 272.62143555 151.0005658 272.88569336 150.1346283 273.15795898 C149.25033142 273.42737305 148.36603455 273.69678711 147.4549408 273.97436523 C146.14009705 274.39008789 146.14009705 274.39008789 144.7986908 274.81420898 C138.24207903 276.84936523 138.24207903 276.84936523 134.8299408 276.84936523 C134.4999408 277.50936523 134.1699408 278.16936523 133.8299408 278.84936523 C131.8611908 279.59545898 131.8611908 279.59545898 129.3299408 280.28686523 C122.19176056 282.26341831 115.21374662 284.68823115 108.24742126 287.19696045 C104.97341579 288.37415544 101.69162099 289.52899466 98.41001892 290.68481445 C96.68769994 291.29531851 94.96763047 291.91220568 93.24986267 292.53540039 C90.74073127 293.44402749 88.2241055 294.32837417 85.7049408 295.20874023 C84.94842224 295.48884949 84.19190369 295.76895874 83.41246033 296.05755615 C75.26107802 298.85246338 67.95612375 297.09952018 59.8299408 294.97436523 C59.13715027 294.79800537 58.44435974 294.62164551 57.73057556 294.43994141 C53.3213406 293.29799242 49.02704691 291.96141817 44.7361908 290.44311523 C41.793266 289.52646653 38.89017987 289.17492258 35.8299408 288.84936523 C35.8299408 288.18936523 35.8299408 287.52936523 35.8299408 286.84936523 C34.5099408 287.17936523 33.1899408 287.50936523 31.8299408 287.84936523 C31.8299408 287.18936523 31.8299408 286.52936523 31.8299408 285.84936523 C25.0502247 284.43836834 25.0502247 284.43836834 18.2049408 283.41186523 C14.81752153 282.84729536 12.03026556 281.86175372 8.85728455 280.60717773 C6.26037829 279.63646518 3.66880866 278.93913842 0.95884705 278.36108398 C-1.1700592 277.84936523 -1.1700592 277.84936523 -3.58021545 276.93139648 C-6.34497124 276.0212064 -8.26414471 275.5642054 -11.1700592 275.84936523 C-14.89707228 278.60384123 -17.43460912 282.14141714 -20.1700592 285.84936523 C-21.74066833 287.88010371 -23.32373001 289.90128201 -24.9200592 291.91186523 C-25.61615295 292.8309668 -26.3122467 293.75006836 -27.0294342 294.69702148 C-29.55123286 297.2326256 -30.64929555 297.58004351 -34.1700592 297.84936523 C-36.61439514 296.84887695 -36.61439514 296.84887695 -39.1544342 295.27905273 C-40.09029358 294.71186523 -41.02615295 294.14467773 -41.9903717 293.56030273 C-42.95716858 292.95444336 -43.92396545 292.34858398 -44.9200592 291.72436523 C-46.83087973 290.55405239 -48.74233122 289.38476908 -50.6544342 288.21655273 C-51.57675842 287.64646484 -52.49908264 287.07637695 -53.44935608 286.48901367 C-56.73909895 284.50642994 -60.09827761 282.68063666 -63.49916077 280.89672852 C-65.1700592 279.84936523 -65.1700592 279.84936523 -66.1700592 277.84936523 C-67.81040113 277.12032438 -69.48307838 276.46281281 -71.1700592 275.84936523 C-72.83672587 275.18269857 -74.50339254 274.5160319 -76.1700592 273.84936523 C-76.1700592 273.18936523 -76.1700592 272.52936523 -76.1700592 271.84936523 C-76.73337952 271.73463867 -77.29669983 271.61991211 -77.87709045 271.50170898 C-80.44612506 270.7708252 -82.52577097 269.71072909 -84.8575592 268.41186523 C-85.64517639 267.9800293 -86.43279358 267.54819336 -87.24427795 267.10327148 C-89.1700592 265.84936523 -89.1700592 265.84936523 -90.1700592 263.84936523 C-91.82703299 263.15895949 -93.49592131 262.49704149 -95.1700592 261.84936523 C-97.10455713 260.77674558 -99.02043754 259.67010514 -100.9200592 258.53686523 C-107.48386074 254.63192983 -114.01623767 250.79293788 -120.98646545 247.65795898 C-132.98171561 241.90294831 -132.98171561 241.90294831 -135.01527405 236.67749023 C-135.99571852 230.67304446 -135.03281925 224.81258764 -134.1700592 218.84936523 C-133.86538006 216.28366463 -133.57036803 213.7182103 -133.2872467 211.15014648 C-133.20364899 210.39746994 -133.12005127 209.6447934 -133.03392029 208.86930847 C-131.83997232 197.99933694 -130.77392967 187.11597973 -129.70199299 176.23343468 C-129.25837184 171.73554369 -128.80676071 167.23853181 -128.34988117 162.74196911 C-126.54322703 144.92855455 -124.92227006 127.11579512 -123.58156586 109.26088333 C-123.13071482 103.33912633 -122.64984139 97.41971822 -122.16872406 91.50035286 C-121.70296827 85.72292242 -121.28801181 79.94455655 -120.90799999 74.16089153 C-120.6580564 70.5407357 -120.36062116 66.92560957 -120.05032539 63.31017494 C-119.91560898 61.6246358 -119.80075746 59.93737327 -119.70728874 58.24904442 C-119.42102803 53.17970963 -119.01686876 48.60721433 -117.1700592 43.84936523 C-113.50461133 40.66665299 -109.77012945 39.25919279 -105.1700592 37.84936523 C-104.03052795 37.33962158 -102.8909967 36.82987793 -101.7169342 36.3046875 C-100.79396545 35.92884521 -99.8709967 35.55300293 -98.9200592 35.16577148 C-97.83611877 34.72112549 -96.75217834 34.27647949 -95.63539124 33.81835938 C-94.49183167 33.35421631 -93.34827209 32.89007324 -92.1700592 32.41186523 C-90.26887004 31.63357437 -88.36841226 30.8535138 -86.46794128 30.07347107 C-85.12902704 29.52408224 -83.7898919 28.97523147 -82.45054626 28.42689514 C-75.14572578 25.43531112 -67.8592317 22.40011038 -60.57395935 19.36129761 C-58.29807195 18.4131204 -56.02095697 17.46794759 -53.74354553 16.5234375 C-46.95387147 13.70406566 -40.17478394 10.86657796 -33.43537903 7.92869568 C-30.58757465 6.68768708 -27.73494894 5.457975 -24.88215637 4.22848511 C-23.54762266 3.64900435 -22.21570286 3.06346078 -20.88667297 2.47146606 C-19.05414152 1.65536427 -17.21187202 0.86123615 -15.36927795 0.06811523 C-14.33633606 -0.3862793 -13.30339417 -0.84067383 -12.239151 -1.30883789 C-7.62542671 -2.57429978 -4.27123602 -2.26474588 0 0 Z " fill="#020202" transform="translate(134.17005920410156,2.150634765625)"/>
<path d="M0 0 C2.51406481 1.56383284 4.95053631 3.21065599 7.3846283 4.89624023 C8.28561249 5.50445618 9.18659668 6.11267212 10.11488342 6.73931885 C12.98651021 8.68078874 15.84607461 10.63916506 18.7049408 12.59936523 C21.55868963 14.54209664 24.41487147 16.48113168 27.27357483 18.41656494 C29.04782664 19.61926841 30.81892978 20.82663513 32.58625793 22.03948975 C37.84913372 25.62474081 43.20586814 28.86157333 48.8299408 31.84936523 C49.40518494 31.33164551 49.98042908 30.81392578 50.57310486 30.28051758 C56.86565508 24.61722238 56.86565508 24.61722238 60.8299408 22.84936523 C60.8299408 22.18936523 60.8299408 21.52936523 60.8299408 20.84936523 C62.32103314 19.51955431 63.87700794 18.26237793 65.4549408 17.03686523 C70.9442013 12.67251155 76.03723901 7.99980351 81.05699158 3.10400391 C81.62015076 2.56622314 82.18330994 2.02844238 82.76353455 1.47436523 C83.25909851 0.99225586 83.75466248 0.51014648 84.26524353 0.01342773 C86.08231857 -1.33839217 87.62028794 -1.74014707 89.8299408 -2.15063477 C94.71265729 27.85851182 94.71265729 27.85851182 96.6424408 40.47436523 C96.7659491 41.26488281 96.8894574 42.05540039 97.01670837 42.86987305 C97.58166449 46.61524608 97.8299408 50.0379842 97.8299408 53.84936523 C39.7499408 53.84936523 -18.3300592 53.84936523 -78.1700592 53.84936523 C-78.1700592 115.88936523 -78.1700592 177.92936523 -78.1700592 241.84936523 C-16.1300592 241.84936523 45.9099408 241.84936523 109.8299408 241.84936523 C109.8299408 205.21936523 109.8299408 168.58936523 109.8299408 130.84936523 C124.8299408 124.84936523 124.8299408 124.84936523 128.8299408 124.84936523 C131.98548929 135.73445511 135.06578805 146.62787272 137.89463806 157.60266113 C139.34561837 163.16293175 140.96419959 168.65466166 142.65415955 174.14624023 C145.80713258 184.53255087 148.50766447 195.00937849 151.1424408 205.53686523 C152.08916398 209.29564482 153.04014817 213.0533269 153.9940033 216.81030273 C154.34802467 218.20473351 154.34802467 218.20473351 154.709198 219.62733459 C156.25700323 225.69066984 157.86908123 231.7331481 159.5408783 237.76342773 C159.85864479 238.9113253 159.85864479 238.9113253 160.18283081 240.08241272 C161.17288116 243.64906855 162.17377905 247.21228437 163.18858337 250.77197266 C163.53816101 252.02083252 163.88773865 253.26969238 164.24790955 254.55639648 C164.55494812 255.63381104 164.86198669 256.71122559 165.17832947 257.82128906 C165.84564677 260.92235181 165.94987618 263.68751323 165.8299408 266.84936523 C162.92393818 268.10601501 161.03389495 268.84936523 157.8299408 268.84936523 C157.4999408 269.50936523 157.1699408 270.16936523 156.8299408 270.84936523 C155.0198822 271.62719727 155.0198822 271.62719727 152.6815033 272.35717773 C151.84103455 272.62143555 151.0005658 272.88569336 150.1346283 273.15795898 C149.25033142 273.42737305 148.36603455 273.69678711 147.4549408 273.97436523 C146.14009705 274.39008789 146.14009705 274.39008789 144.7986908 274.81420898 C138.24207903 276.84936523 138.24207903 276.84936523 134.8299408 276.84936523 C134.4999408 277.50936523 134.1699408 278.16936523 133.8299408 278.84936523 C131.8611908 279.59545898 131.8611908 279.59545898 129.3299408 280.28686523 C122.19176056 282.26341831 115.21374662 284.68823115 108.24742126 287.19696045 C104.97341579 288.37415544 101.69162099 289.52899466 98.41001892 290.68481445 C96.68769994 291.29531851 94.96763047 291.91220568 93.24986267 292.53540039 C90.74073127 293.44402749 88.2241055 294.32837417 85.7049408 295.20874023 C84.94842224 295.48884949 84.19190369 295.76895874 83.41246033 296.05755615 C75.26107802 298.85246338 67.95612375 297.09952018 59.8299408 294.97436523 C59.13715027 294.79800537 58.44435974 294.62164551 57.73057556 294.43994141 C53.3213406 293.29799242 49.02704691 291.96141817 44.7361908 290.44311523 C41.793266 289.52646653 38.89017987 289.17492258 35.8299408 288.84936523 C35.8299408 288.18936523 35.8299408 287.52936523 35.8299408 286.84936523 C34.5099408 287.17936523 33.1899408 287.50936523 31.8299408 287.84936523 C31.8299408 287.18936523 31.8299408 286.52936523 31.8299408 285.84936523 C25.0502247 284.43836834 25.0502247 284.43836834 18.2049408 283.41186523 C14.81752153 282.84729536 12.03026556 281.86175372 8.85728455 280.60717773 C6.26037829 279.63646518 3.66880866 278.93913842 0.95884705 278.36108398 C-1.1700592 277.84936523 -1.1700592 277.84936523 -3.58021545 276.93139648 C-6.34497124 276.0212064 -8.26414471 275.5642054 -11.1700592 275.84936523 C-14.89707228 278.60384123 -17.43460912 282.14141714 -20.1700592 285.84936523 C-21.74066833 287.88010371 -23.32373001 289.90128201 -24.9200592 291.91186523 C-25.61615295 292.8309668 -26.3122467 293.75006836 -27.0294342 294.69702148 C-29.55123286 297.2326256 -30.64929555 297.58004351 -34.1700592 297.84936523 C-36.61439514 296.84887695 -36.61439514 296.84887695 -39.1544342 295.27905273 C-40.09029358 294.71186523 -41.02615295 294.14467773 -41.9903717 293.56030273 C-42.95716858 292.95444336 -43.92396545 292.34858398 -44.9200592 291.72436523 C-46.83087973 290.55405239 -48.74233122 289.38476908 -50.6544342 288.21655273 C-51.57675842 287.64646484 -52.49908264 287.07637695 -53.44935608 286.48901367 C-56.73909895 284.50642994 -60.09827761 282.68063666 -63.49916077 280.89672852 C-65.1700592 279.84936523 -65.1700592 279.84936523 -66.1700592 277.84936523 C-67.81040113 277.12032438 -69.48307838 276.46281281 -71.1700592 275.84936523 C-72.83672587 275.18269857 -74.50339254 274.5160319 -76.1700592 273.84936523 C-76.1700592 273.18936523 -76.1700592 272.52936523 -76.1700592 271.84936523 C-76.73337952 271.73463867 -77.29669983 271.61991211 -77.87709045 271.50170898 C-80.44612506 270.7708252 -82.52577097 269.71072909 -84.8575592 268.41186523 C-85.64517639 267.9800293 -86.43279358 267.54819336 -87.24427795 267.10327148 C-89.1700592 265.84936523 -89.1700592 265.84936523 -90.1700592 263.84936523 C-91.82703299 263.15895949 -93.49592131 262.49704149 -95.1700592 261.84936523 C-97.10455713 260.77674558 -99.02043754 259.67010514 -100.9200592 258.53686523 C-107.48386074 254.63192983 -114.01623767 250.79293788 -120.98646545 247.65795898 C-132.98171561 241.90294831 -132.98171561 241.90294831 -135.01527405 236.67749023 C-135.99571852 230.67304446 -135.03281925 224.81258764 -134.1700592 218.84936523 C-133.86538006 216.28366463 -133.57036803 213.7182103 -133.2872467 211.15014648 C-133.20364899 210.39746994 -133.12005127 209.6447934 -133.03392029 208.86930847 C-131.83997232 197.99933694 -130.77392967 187.11597973 -129.70199299 176.23343468 C-129.25837184 171.73554369 -128.80676071 167.23853181 -128.34988117 162.74196911 C-126.54322703 144.92855455 -124.92227006 127.11579512 -123.58156586 109.26088333 C-123.13071482 103.33912633 -122.64984139 97.41971822 -122.16872406 91.50035286 C-121.70296827 85.72292242 -121.28801181 79.94455655 -120.90799999 74.16089153 C-120.6580564 70.5407357 -120.36062116 66.92560957 -120.05032539 63.31017494 C-119.91560898 61.6246358 -119.80075746 59.93737327 -119.70728874 58.24904442 C-119.42102803 53.17970963 -119.01686876 48.60721433 -117.1700592 43.84936523 C-113.50461133 40.66665299 -109.77012945 39.25919279 -105.1700592 37.84936523 C-104.03052795 37.33962158 -102.8909967 36.82987793 -101.7169342 36.3046875 C-100.79396545 35.92884521 -99.8709967 35.55300293 -98.9200592 35.16577148 C-97.83611877 34.72112549 -96.75217834 34.27647949 -95.63539124 33.81835938 C-94.49183167 33.35421631 -93.34827209 32.89007324 -92.1700592 32.41186523 C-90.26887004 31.63357437 -88.36841226 30.8535138 -86.46794128 30.07347107 C-85.12902704 29.52408224 -83.7898919 28.97523147 -82.45054626 28.42689514 C-75.14572578 25.43531112 -67.8592317 22.40011038 -60.57395935 19.36129761 C-58.29807195 18.4131204 -56.02095697 17.46794759 -53.74354553 16.5234375 C-46.95387147 13.70406566 -40.17478394 10.86657796 -33.43537903 7.92869568 C-30.58757465 6.68768708 -27.73494894 5.457975 -24.88215637 4.22848511 C-23.54762266 3.64900435 -22.21570286 3.06346078 -20.88667297 2.47146606 C-19.05414152 1.65536427 -17.21187202 0.86123615 -15.36927795 0.06811523 C-14.33633606 -0.3862793 -13.30339417 -0.84067383 -12.239151 -1.30883789 C-7.62542671 -2.57429978 -4.27123602 -2.26474588 0 0 Z " fill="#2AD788" transform="translate(134.17005920410156,2.150634765625)"/>
<path d="M0 0 C3.1555485 10.88508987 6.23584725 21.77850749 9.06469727 32.7532959 C10.51567757 38.31356651 12.13425879 43.80529643 13.82421875 49.296875 C16.97719178 59.68318564 19.67772368 70.16001326 22.3125 80.6875 C23.25922318 84.44627959 24.21020737 88.20396166 25.1640625 91.9609375 C25.40007675 92.89055801 25.636091 93.82017853 25.8792572 94.77796936 C27.42706244 100.84130461 29.03914044 106.88378287 30.7109375 112.9140625 C31.02870399 114.06196007 31.02870399 114.06196007 31.35289001 115.23304749 C32.34294036 118.79970332 33.34383826 122.36291914 34.35864258 125.92260742 C34.88300903 127.79589722 34.88300903 127.79589722 35.41796875 129.70703125 C35.72500732 130.7844458 36.0320459 131.86186035 36.34838867 132.97192383 C37.01570597 136.07298657 37.11993538 138.838148 37 142 C34.09399739 143.25664978 32.20395416 144 29 144 C28.67 144.66 28.34 145.32 28 146 C26.18994141 146.77783203 26.18994141 146.77783203 23.8515625 147.5078125 C22.59085937 147.90419922 22.59085937 147.90419922 21.3046875 148.30859375 C20.42039062 148.57800781 19.53609375 148.84742188 18.625 149.125 C17.7484375 149.40214844 16.871875 149.67929687 15.96875 149.96484375 C9.41213824 152 9.41213824 152 6 152 C5.67 152.66 5.34 153.32 5 154 C3.03125 154.74609375 3.03125 154.74609375 0.5 155.4375 C-6.63818024 157.41405307 -13.61619417 159.83886591 -20.58251953 162.34759521 C-23.85652501 163.52479021 -27.13831981 164.67962942 -30.41992188 165.83544922 C-32.14224085 166.44595328 -33.86231032 167.06284044 -35.58007812 167.68603516 C-38.08920952 168.59466226 -40.60583529 169.47900893 -43.125 170.359375 C-43.88151855 170.63948425 -44.63803711 170.91959351 -45.41748047 171.20819092 C-53.56886278 174.00309815 -60.87381704 172.25015495 -69 170.125 C-70.03918579 169.86046021 -70.03918579 169.86046021 -71.09936523 169.59057617 C-75.50860019 168.44862719 -79.80289389 167.11205293 -84.09375 165.59375 C-87.03667479 164.67710129 -89.93976093 164.32555735 -93 164 C-93 163.34 -93 162.68 -93 162 C-94.32 162.33 -95.64 162.66 -97 163 C-97 162.34 -97 161.68 -97 161 C-103.7797161 159.58900311 -103.7797161 159.58900311 -110.625 158.5625 C-114.01265038 157.9978916 -116.79825413 157.01600749 -119.96875 155.75390625 C-121.94776497 155.01938723 -123.88446098 154.48474532 -125.9375 154 C-131.42482647 152.69197451 -136.71129211 150.93559697 -141.93359375 148.80078125 C-149.17997604 145.84723743 -156.00345992 144.02697794 -163.6875 142.7734375 C-167.04300615 141.98995847 -169.15419861 140.89399619 -172 139 C-173.32 138.34 -174.64 137.68 -176 137 C-175.01 130.4 -174.02 123.8 -173 117 C-122.18 117 -71.36 117 -19 117 C-19 80.37 -19 43.74 -19 6 C-4 0 -4 0 0 0 Z " fill="#F0F54F" transform="translate(263,127)"/>
<path d="M0 0 C42.9047619 0 42.9047619 0 53 6.625 C58.81510293 12.45460444 61.29594659 18.81813144 61.625 27 C61.32377499 34.48991927 59.44071451 40.3084817 54.28515625 45.83984375 C52.5890542 47.35779941 50.86348523 48.69556034 49 50 C48.21625 50.5775 47.4325 51.155 46.625 51.75 C39.72280991 55.03675718 32.45622223 55.27544101 24.9375 55.125 C21.988125 55.08375 19.03875 55.0425 16 55 C16 62.59 16 70.18 16 78 C10.72 78 5.44 78 0 78 C0 52.26 0 26.52 0 0 Z " fill="#F8F8F8" transform="translate(74,80)"/>
<path d="M0 0 C1.36898437 -0.0309375 1.36898437 -0.0309375 2.765625 -0.0625 C10.97470848 -0.1092754 17.95642684 1.51346821 24.8125 6.1875 C25.54339844 6.67089844 26.27429688 7.15429688 27.02734375 7.65234375 C28.875 9.25 28.875 9.25 30.875 13.25 C27.905 16.88 24.935 20.51 21.875 24.25 C18.37655755 23.37538939 16.70331249 22.6660684 13.8125 20.75 C7.48129918 16.56970617 1.32134199 16.4833352 -6.125 17.25 C-12.33673233 19.45225168 -15.77416441 23.76681448 -19.125 29.25 C-21.53049136 36.46647408 -21.27626305 45.84951525 -18.1875 52.8125 C-15.17016844 57.83300446 -11.65980638 61.20625684 -6.125 63.25 C2.88732909 64.69239379 10.31942694 63.40152708 17.875 58.25 C18.535 57.59 19.195 56.93 19.875 56.25 C23.72552606 56.50076955 25.55701567 58.61611645 28.125 61.3125 C29.18460938 62.41271484 29.18460938 62.41271484 30.265625 63.53515625 C31.06226563 64.38400391 31.06226563 64.38400391 31.875 65.25 C28.70822417 72.38293196 21.91538503 76.41932973 14.875 79.25 C4.66264738 82.18343585 -8.98558554 81.74965566 -18.44921875 76.984375 C-27.86675426 70.8801622 -35.62017695 63.07133336 -38.75390625 52.03515625 C-39.31064882 47.85665671 -39.39077372 43.71159555 -39.4375 39.5 C-39.48100586 38.21609375 -39.48100586 38.21609375 -39.52539062 36.90625 C-39.62223412 27.0729104 -35.55375075 19.50826697 -29.125 12.25 C-20.43554753 3.41632425 -12.23058945 0.06738617 0 0 Z " fill="#FAFAFA" transform="translate(181.125,79.75)"/>
<path d="M0 0 C2.97750045 1.48875023 4.72490787 2.44928496 7.1015625 4.5390625 C7.66883057 5.032854 8.23609863 5.52664551 8.82055664 6.03540039 C9.7137561 6.8222522 9.7137561 6.8222522 10.625 7.625 C14.71419199 11.18130181 18.80857387 14.70266672 23.0625 18.0625 C26.92194897 21.11209738 30.69130855 24.2510214 34.4375 27.4375 C44.4093543 36.12568402 44.4093543 36.12568402 55 44 C53.3286852 49.7456643 50.68091821 54.89241552 47.9921875 60.2109375 C47.50670441 61.17907379 47.02122131 62.14721008 46.52102661 63.14468384 C44.97610983 66.22336085 43.42564044 69.29920251 41.875 72.375 C40.82385068 74.46726304 39.7730653 76.55970896 38.72265625 78.65234375 C36.15265018 83.77035551 33.57808475 88.88605337 31 94 C28.07262719 91.07262719 27.65729323 87.47378014 26.6875 83.5625 C26.25029769 81.8462783 25.81278826 80.13013482 25.375 78.4140625 C25.15070313 77.5262207 24.92640625 76.63837891 24.6953125 75.72363281 C24.00158805 73.0062206 23.28635296 70.29546861 22.5625 67.5859375 C22.33216064 66.72282959 22.10182129 65.85972168 21.86450195 64.97045898 C21.41883049 63.30300807 20.97208141 61.63584474 20.52416992 59.96899414 C19 54.22281829 19 54.22281829 19 52 C17.79601562 52.433125 16.59203125 52.86625 15.3515625 53.3125 C13.77610058 53.87516497 12.20057651 54.43765597 10.625 55 C9.43390625 55.42925781 9.43390625 55.42925781 8.21875 55.8671875 C7.45820313 56.13789063 6.69765625 56.40859375 5.9140625 56.6875 C5.2123291 56.93886719 4.5105957 57.19023437 3.78759766 57.44921875 C2 58 2 58 0 58 C0 38.86 0 19.72 0 0 Z " fill="#0AC5E6" transform="translate(244,75)"/>
<path d="M0 0 C4.88271649 30.00914659 4.88271649 30.00914659 6.8125 42.625 C6.9360083 43.41551758 7.0595166 44.20603516 7.18676758 45.02050781 C7.75172369 48.76588085 8 52.18861897 8 56 C-15.43 56 -38.86 56 -63 56 C-59.40331514 51.68397816 -56.83170373 48.86280643 -52.5625 45.5625 C-48.73525809 42.50786976 -45.52314519 39.50215011 -42.46484375 35.69921875 C-38.67617992 31.30436871 -34.29690178 27.41303303 -29 25 C-29 24.34 -29 23.68 -29 23 C-27.50890766 21.67018907 -25.95293286 20.4130127 -24.375 19.1875 C-18.86211454 14.79296322 -13.71134967 10.104902 -8.59716797 5.25463867 C-3.03158064 0 -3.03158064 0 0 0 Z " fill="#9DE36F" transform="translate(224,0)"/>
<path d="M0 0 C23.43 0 46.86 0 71 0 C71 3.96 71 7.92 71 12 C47.57 12 24.14 12 0 12 C0 8.04 0 4.08 0 0 Z " fill="#F3F3F3" transform="translate(74,208)"/>
<path d="M0 0 C2.84625 -0.061875 5.6925 -0.12375 8.625 -0.1875 C9.51010254 -0.21481201 10.39520508 -0.24212402 11.30712891 -0.27026367 C16.28219813 -0.32233226 19.7215708 0.17623673 24 3 C26.15164703 6.22747055 26.27245079 7.20505639 26.25 10.9375 C26.25515625 11.79214844 26.2603125 12.64679688 26.265625 13.52734375 C25.85423151 17.35693318 24.91071263 19.21307355 21.98828125 21.73828125 C17.69400866 23.55141856 13.79060744 23.32033846 9.1875 23.1875 C6.155625 23.125625 3.12375 23.06375 0 23 C0 15.41 0 7.82 0 0 Z " fill="#010101" transform="translate(91,97)"/>
<path d="M0 0 C0.33 0 0.66 0 1 0 C1 9.9 1 19.8 1 30 C0.34 30.33 -0.32 30.66 -1 31 C-4.33333333 27.66666667 -7.66666667 24.33333333 -11 21 C-12.32 21.99 -13.64 22.98 -15 24 C-13.69330806 20.44518524 -12.13581025 17.47636497 -9.99609375 14.35546875 C-9.42052734 13.51435547 -8.84496094 12.67324219 -8.25195312 11.80664062 C-7.65318359 10.94232422 -7.05441406 10.07800781 -6.4375 9.1875 C-5.83486328 8.30384766 -5.23222656 7.42019531 -4.61132812 6.50976562 C-1.30161103 1.69934628 -1.30161103 1.69934628 0 0 Z " fill="#75E077" transform="translate(55,157)"/>
<path d="M0 0 C0.33 0 0.66 0 1 0 C3 8 3 8 3.44140625 10.203125 C3.71791016 11.09257812 3.71791016 11.09257812 4 12 C4.66 12.33 5.32 12.66 6 13 C4.728373 19.1038096 2.15003315 23.34179953 -2 28 C-2.33 28 -2.66 28 -3 28 C-3.57446809 8.46808511 -3.57446809 8.46808511 0 0 Z " fill="#42DC82" transform="translate(3,211)"/>
<path d="M0 0 C0.33 0 0.66 0 1 0 C1.05380578 2.79192205 1.09357669 5.5828141 1.125 8.375 C1.15013672 9.56609375 1.15013672 9.56609375 1.17578125 10.78125 C1.19335473 12.85492015 1.10335168 14.92883241 1 17 C0.34 17.66 -0.32 18.32 -1 19 C-1.8971875 17.7625 -1.8971875 17.7625 -2.8125 16.5 C-3.534375 15.675 -4.25625 14.85 -5 14 C-5.99 14 -6.98 14 -8 14 C-6.67726488 10.40241608 -5.0805802 7.36262865 -2.9375 4.1875 C-2.14666016 3.00220703 -2.14666016 3.00220703 -1.33984375 1.79296875 C-0.89769531 1.20128906 -0.45554687 0.60960937 0 0 Z " fill="#85E174" transform="translate(55,157)"/>
<path d="M0 0 C0.33 0 0.66 0 1 0 C0.49511407 5.82913754 -1.21368557 10.19545257 -3.875 15.375 C-4.22691406 16.09816406 -4.57882812 16.82132813 -4.94140625 17.56640625 C-7.61971335 22.87323778 -7.61971335 22.87323778 -11 24 C-9.39323547 18.54406329 -6.94969106 13.6697853 -4.375 8.625 C-3.95476562 7.79355469 -3.53453125 6.96210938 -3.1015625 6.10546875 C-2.07133925 4.06843641 -1.03741179 2.03337811 0 0 Z " fill="#06C7F4" transform="translate(289,134)"/>
<path d="M0 0 C0.33 0 0.66 0 1 0 C0.86040799 3.22946798 0.71221895 6.45848691 0.5625 9.6875 C0.50352539 11.05551758 0.50352539 11.05551758 0.44335938 12.45117188 C0.40146484 13.33740234 0.35957031 14.22363281 0.31640625 15.13671875 C0.27974854 15.94842529 0.24309082 16.76013184 0.20532227 17.59643555 C-0.01037431 20.12144485 -0.45899452 22.52600697 -1 25 C-1.33 25 -1.66 25 -2 25 C-2.94870788 18.14011227 -2.94870788 11.85988773 -2 5 C-1.34 5 -0.68 5 0 5 C0 3.35 0 1.7 0 0 Z " fill="#25DC8D" transform="translate(18,53)"/>
<path d="M0 0 C2.72042564 1.72325895 5.4383846 3.45016178 8.15234375 5.18359375 C9.78540773 6.22526007 11.4215672 7.26218451 13.06640625 8.28515625 C14.41209702 9.13796751 15.71305675 10.06087925 17 11 C17 11.66 17 12.32 17 13 C12.56829827 11.48103632 8.96975924 9.07360191 5.1875 6.375 C4.59001953 5.95476563 3.99253906 5.53453125 3.37695312 5.1015625 C1.91479435 4.07220272 0.45695101 3.0367177 -1 2 C-0.67 1.34 -0.34 0.68 0 0 Z " fill="#20DA97" transform="translate(163,22)"/>
<path d="M0 0 C2.03448779 0.41740567 4.05401678 0.90895178 6.0625 1.4375 C7.71958984 1.86869141 7.71958984 1.86869141 9.41015625 2.30859375 C10.26480469 2.53675781 11.11945313 2.76492188 12 3 C12.33 4.32 12.66 5.64 13 7 C12.319375 6.71125 11.63875 6.4225 10.9375 6.125 C7.91132151 4.90947291 7.91132151 4.90947291 4.3125 4 C1 3 1 3 -1 1 C-0.67 0.67 -0.34 0.34 0 0 Z " fill="#C9ED5F" transform="translate(123,274)"/>
<path d="M0 0 C0.33 0 0.66 0 1 0 C1.66 4.95 2.32 9.9 3 15 C2.01 15 1.02 15 0 15 C-0.95348275 10.23258627 -1.16407956 5.84034716 -1 1 C-0.67 0.67 -0.34 0.34 0 0 Z " fill="#AAE76C" transform="translate(229,38)"/>
<path d="M0 0 C0.33 0 0.66 0 1 0 C1.66 4.95 2.32 9.9 3 15 C2.01 15 1.02 15 0 15 C-0.19517554 13.06325815 -0.38087873 11.12555991 -0.5625 9.1875 C-0.66691406 8.10855469 -0.77132812 7.02960937 -0.87890625 5.91796875 C-1 3 -1 3 0 0 Z " fill="#ADE86C" transform="translate(226,18)"/>
<path d="M0 0 C-2.28779038 1.03040167 -4.57951136 2.04952018 -6.875 3.0625 C-7.85146484 3.50432617 -7.85146484 3.50432617 -8.84765625 3.95507812 C-10.54010541 4.69661513 -12.26868575 5.35439001 -14 6 C-14.66 5.67 -15.32 5.34 -16 5 C-15.01 4.67 -14.02 4.34 -13 4 C-13 3.34 -13 2.68 -13 2 C-11.39935157 1.46845258 -9.79431126 0.95011647 -8.1875 0.4375 C-7.29417969 0.14746094 -6.40085937 -0.14257812 -5.48046875 -0.44140625 C-3 -1 -3 -1 0 0 Z " fill="#22DC8D" transform="translate(59,31)"/>
<path d="M0 0 C0.99 0.66 1.98 1.32 3 2 C1.23494565 2.86604534 -0.53728074 3.71748642 -2.3125 4.5625 C-3.79169922 5.27599609 -3.79169922 5.27599609 -5.30078125 6.00390625 C-8 7 -8 7 -11 6 C-3.91764706 1.05882353 -3.91764706 1.05882353 0 0 Z " fill="#23DB8D" transform="translate(39,36)"/>
<path d="M0 0 C0 0.66 0 1.32 0 2 C-1.45381897 2.69699552 -2.91322953 3.38233866 -4.375 4.0625 C-5.18710938 4.44535156 -5.99921875 4.82820313 -6.8359375 5.22265625 C-7.55007812 5.47917969 -8.26421875 5.73570313 -9 6 C-9.66 5.67 -10.32 5.34 -11 5 C-7.92351092 1.43774949 -4.70156256 0 0 0 Z " fill="#23DB8D" transform="translate(85,18)"/>
<path d="M0 0 C0.66 0.33 1.32 0.66 2 1 C-0.31 3.64 -2.62 6.28 -5 9 C-5.66 8.67 -6.32 8.34 -7 8 C-4.69 5.36 -2.38 2.72 0 0 Z " fill="#35DD89" transform="translate(112,287)"/>
<path d="M0 0 C1.98 0 3.96 0 6 0 C4.7934375 1.0828125 4.7934375 1.0828125 3.5625 2.1875 C0.97707928 5.02515689 0.31957187 6.27166147 0 10 C-0.33 10 -0.66 10 -1 10 C-0.67 6.7 -0.34 3.4 0 0 Z " fill="#A1E46C" transform="translate(90,244)"/>
<path d="M0 0 C-1.44077046 3.36179774 -3.24750021 5.59156268 -6 8 C-6.66 8 -7.32 8 -8 8 C-8 7.01 -8 6.02 -8 5 C-2.65116279 0 -2.65116279 0 0 0 Z " fill="#AAE86D" transform="translate(203,18)"/>
<path d="M0 0 C0.99 0.66 1.98 1.32 3 2 C1.5437455 2.67119549 0.08492133 3.33681807 -1.375 4 C-2.59316406 4.556875 -2.59316406 4.556875 -3.8359375 5.125 C-6 6 -6 6 -8 6 C-7 3 -7 3 -3.625 1.1875 C-2.42875 0.795625 -1.2325 0.40375 0 0 Z " fill="#23DB8E" transform="translate(99,11)"/>
<path d="M0 0 C-1.44077046 3.36179774 -3.24750021 5.59156268 -6 8 C-6.66 8 -7.32 8 -8 8 C-6.48291727 4.46014029 -4.24676932 0 0 0 Z " fill="#AEE96D" transform="translate(212,10)"/>
<path d="M0 0 C-1.49097658 3.7952131 -3.75700849 5.61042731 -7 8 C-7 5 -7 5 -4.625 2.3125 C-2 0 -2 0 0 0 Z " fill="#ABE86D" transform="translate(193,27)"/>
<path d="M0 0 C-1.50223584 4.20626034 -4.28550034 5.73900021 -8 8 C-6.48291727 4.46014029 -4.24676932 0 0 0 Z " fill="#B0EA6D" transform="translate(221,2)"/>
<path d="M0 0 C2.64 1.98 5.28 3.96 8 6 C7.01 6.33 6.02 6.66 5 7 C2.3125 5.25 2.3125 5.25 0 3 C0 2.01 0 1.02 0 0 Z " fill="#10CAE0" transform="translate(280,104)"/>
</svg>
