<?xml version="1.0" encoding="UTF-8"?>
<svg version="1.1" xmlns="http://www.w3.org/2000/svg" width="249" height="300">
<path d="M0 0 C4.94866052 0.84340782 9.90149472 1.66137282 14.85412598 2.4810791 C23.32750803 3.88725884 31.79781837 5.31089715 40.26672363 6.74377441 C59.64345131 10.02055616 79.02947581 13.24173397 98.41438365 16.46969366 C103.22027196 17.27004423 108.02609697 18.07077468 112.83192444 18.87149048 C121.8920085 20.38098149 130.95214813 21.89013864 140.0123291 23.39904785 C140.10584037 50.4592511 140.17634169 77.51943008 140.21957779 104.57976246 C140.24018816 117.1448234 140.26827975 129.70978384 140.31408691 142.27478027 C140.35400119 153.22858314 140.379773 164.18231321 140.38868308 175.13618678 C140.39389 180.93423933 140.4060967 186.73208365 140.43524933 192.53006935 C140.46249079 197.99244401 140.4707564 203.45452554 140.46475983 208.91696167 C140.46585616 210.91676618 140.47375772 212.91658096 140.489151 214.91632652 C140.60008591 230.07737335 139.32661774 241.75601961 128.35217285 253.11779785 C122.03074791 258.99283516 114.53286659 260.73853327 106.2076416 261.96936035 C105.40245087 262.0959201 104.59726013 262.22247986 103.76766968 262.35287476 C101.22538874 262.75126865 98.68155825 263.13830988 96.1373291 263.52404785 C93.57200661 263.91874983 91.00710075 264.3158786 88.44271851 264.71664429 C86.85407398 264.96433779 85.26483056 265.20822659 83.67495728 265.44790649 C79.72348706 266.01270807 79.72348706 266.01270807 76.0123291 267.39904785 C74.65340463 267.59450708 73.28819824 267.74765493 71.92126465 267.87561035 C67.40129651 268.33944557 62.94742172 269.0117024 58.46936035 269.77404785 C57.6972673 269.9034375 56.92517426 270.03282715 56.12968445 270.1661377 C53.69433687 270.5747941 51.25957878 270.98684582 48.8248291 271.39904785 C47.18228931 271.6753175 45.53971145 271.95136095 43.89709473 272.22717285 C40.88294109 272.73358838 37.86901195 273.24129682 34.85534668 273.75061035 C28.92780714 274.75077203 22.9971716 275.73118539 17.06549072 276.7064209 C12.76385866 277.41447609 8.46278523 278.12589518 4.16174316 278.83752441 C1.88849558 279.21302495 -0.38494365 279.58736696 -2.65856934 279.96057129 C-5.94065326 280.49953399 -9.22203119 281.04262286 -12.5032959 281.58654785 C-13.52409241 281.75323975 -14.54488892 281.91993164 -15.59661865 282.0916748 C-16.53809753 282.2485376 -17.47957642 282.40540039 -18.44958496 282.5670166 C-19.27976135 282.70389893 -20.10993774 282.84078125 -20.965271 282.98181152 C-23.04483163 283.32043299 -23.04483163 283.32043299 -24.9876709 284.39904785 C-27.02562024 284.62211776 -29.06390828 284.84234279 -31.10339355 285.05090332 C-37.84369617 285.86448649 -44.52535349 287.14840107 -51.21203613 288.31774902 C-53.19248479 288.66299553 -55.1740535 289.00179738 -57.15563965 289.3404541 C-58.32377197 289.54356201 -59.4919043 289.74666992 -60.69543457 289.95593262 C-63.84064107 290.37925852 -66.81901831 290.48052663 -69.9876709 290.39904785 C-70.3176709 291.05904785 -70.6476709 291.71904785 -70.9876709 292.39904785 C-74.00883858 292.7310443 -77.02258208 293.01524144 -80.0501709 293.27404785 C-80.89772949 293.3720166 -81.74528809 293.46998535 -82.61853027 293.57092285 C-87.45989257 293.94477322 -90.20835802 293.75226165 -93.98376465 290.53186035 C-95.00869773 289.51077288 -96.01352274 288.46869396 -96.9876709 287.39904785 C-97.6476709 286.73904785 -98.3076709 286.07904785 -98.9876709 285.39904785 C-100.65433757 283.73238118 -102.32100423 282.06571452 -103.9876709 280.39904785 C-104.85514419 279.72759295 -105.72261747 279.05613804 -106.61637783 278.36433601 C-110.03644857 274.08755749 -109.68141931 270.59745119 -109.61585999 265.26693726 C-109.62295437 264.23728761 -109.63004876 263.20763796 -109.63735813 262.14678681 C-109.65498134 258.69127058 -109.63680992 255.2368727 -109.61877441 251.78137207 C-109.62391173 249.3058979 -109.63119158 246.83042737 -109.64045715 244.35496521 C-109.65708093 238.32457 -109.65031538 232.2946142 -109.63236893 226.26425652 C-109.61833791 221.35979365 -109.61445121 216.45541867 -109.6178112 211.55093765 C-109.61828865 210.85262466 -109.61876609 210.15431167 -109.619258 209.43483768 C-109.62028436 208.01610737 -109.62133972 206.59737708 -109.62242376 205.17864682 C-109.63099322 192.62997881 -109.6143122 180.08146692 -109.58459473 167.53283691 C-109.55579377 155.37098623 -109.54865586 143.20936077 -109.56408691 131.04748535 C-109.58087631 117.79695794 -109.58485255 104.54653752 -109.56737655 91.29600728 C-109.56553225 89.88068908 -109.56369752 88.46537087 -109.56187248 87.05005264 C-109.56096039 86.35375552 -109.5600483 85.65745839 -109.55910857 84.94006135 C-109.55351731 80.04796269 -109.55679751 75.15591645 -109.56341743 70.26382065 C-109.57199082 63.66622044 -109.5588966 57.06889536 -109.53156853 50.47133064 C-109.52470028 48.05389553 -109.5245699 45.63643015 -109.53178406 43.21899605 C-109.54051833 39.90999395 -109.52445393 36.60198013 -109.50233459 33.2930603 C-109.51057536 32.34410224 -109.51881613 31.39514417 -109.52730662 30.4174298 C-109.40880648 20.76255874 -106.4337961 11.38409731 -99.9251709 4.08654785 C-97.9876709 2.39904785 -97.9876709 2.39904785 -95.9876709 2.39904785 C-95.9876709 1.73904785 -95.9876709 1.07904785 -95.9876709 0.39904785 C-94.43682985 -0.4152214 -92.87087215 -1.20068449 -91.3001709 -1.97595215 C-89.99499512 -2.63724121 -89.99499512 -2.63724121 -88.66345215 -3.31188965 C-60.96368012 -13.0259436 -27.86896715 -4.77526069 0 0 Z " fill="#65AF36" transform="translate(108.9876708984375,6.6009521484375)"/>
<path d="M0 0 C1.35448242 -0.01160156 1.35448242 -0.01160156 2.73632812 -0.0234375 C15.28122383 0.01289819 27.82993338 4.30931665 37.0625 13.0625 C47.23014685 24.35747657 53.03440834 39.34949766 54.31640625 54.3671875 C54.46926996 56.33647436 54.46926996 56.33647436 55.5625 58.25 C59.7022286 87.11066112 58.2528305 126.13909785 41.3671875 150.8515625 C35.83883009 158.19877343 29.79776681 162.18448854 21.5625 166.25 C22.28436723 170.37795922 23.65465817 173.51726598 25.5625 177.25 C25.5625 177.91 25.5625 178.57 25.5625 179.25 C29.8525 179.91 34.1425 180.57 38.5625 181.25 C38.5625 187.52 38.5625 193.79 38.5625 200.25 C34.33241866 201.66002711 30.30656267 201.47440253 25.875 201.5 C24.56499023 201.5309375 24.56499023 201.5309375 23.22851562 201.5625 C15.25642408 201.61013012 8.32082373 199.90237486 2.29296875 194.37109375 C-2.7363621 188.20647377 -6.12534501 180.36685634 -7.6875 172.625 C-8.21644774 170.21544687 -8.21644774 170.21544687 -9.4375 168.25 C-12.05113914 166.84646229 -14.60665955 166.0945661 -17.45703125 165.28125 C-26.48991787 162.15584755 -32.8660445 154.34065781 -37.4375 146.25 C-53.81595776 112.51126958 -54.74013743 66.19483537 -42.5546875 30.9609375 C-37.37494529 18.3919127 -30.05963098 8.05656101 -17.4375 2.25 C-11.54987117 0.11500588 -6.1780032 -0.05269086 0 0 Z " fill="#FCFDFC" transform="translate(108.4375,55.75)"/>
<path d="M0 0 C0 0.33 0 0.66 0 1 C-1.7325 1.3403125 -1.7325 1.3403125 -3.5 1.6875 C-12.35296531 3.96308615 -18.83037721 9.56078672 -24 17 C-28.3838987 26.10890767 -29.14864775 34.8636802 -29.15821838 44.81991577 C-29.16315636 45.91126725 -29.16809434 47.00261873 -29.17318195 48.12704146 C-29.18854154 51.78439982 -29.19691345 55.44174064 -29.20532227 59.09912109 C-29.21490199 61.720664 -29.22491213 64.34220537 -29.23532104 66.96374512 C-29.25705209 72.60798795 -29.27520886 78.25223316 -29.29092598 83.89649582 C-29.31365537 92.05711357 -29.34179391 100.21770564 -29.37124526 108.37830158 C-29.41888357 121.61888892 -29.46215793 134.85948678 -29.50268555 148.10009766 C-29.54205962 160.96078306 -29.58349042 173.82145913 -29.62768555 186.68212891 C-29.63040982 187.47509339 -29.63313409 188.26805787 -29.63594092 189.08505158 C-29.64962071 193.06319084 -29.66334092 197.04132997 -29.67708123 201.01946902 C-29.79098692 234.01296008 -29.89780931 267.00647055 -30 300 C-32.93869593 298.60759107 -34.66753503 297.48916289 -36.625 294.875 C-37.40875 293.92625 -38.1925 292.9775 -39 292 C-39.66 292 -40.32 292 -41 292 C-42.65625 290.3203125 -42.65625 290.3203125 -44.5 288.125 C-46.28933258 286.00964496 -48.04019124 283.95980876 -50 282 C-50.25299966 280.14201695 -50.25299966 280.14201695 -50.25726891 277.83343601 C-50.2637178 276.95493852 -50.27016669 276.07644103 -50.276811 275.17132241 C-50.2737138 274.20024149 -50.2706166 273.22916057 -50.26742554 272.22865295 C-50.27195665 271.20156658 -50.27648776 270.17448021 -50.28115618 269.11627001 C-50.29388327 265.65176858 -50.29217444 262.1874227 -50.29052734 258.72290039 C-50.29650767 256.24787187 -50.30331206 253.77284522 -50.31088257 251.29782104 C-50.32676262 245.25713158 -50.33299354 239.21650396 -50.33410732 233.17579938 C-50.33505711 228.26270111 -50.33916396 223.34961573 -50.34550858 218.43652153 C-50.36313428 204.50365889 -50.37234619 190.5708271 -50.37084763 176.63795323 C-50.37076772 175.88626411 -50.3706878 175.134575 -50.37060547 174.36010742 C-50.37052371 173.6074983 -50.37044195 172.85488918 -50.37035771 172.07947373 C-50.369546 159.90080969 -50.38865109 147.7222697 -50.4168822 135.54364152 C-50.44564794 123.03540899 -50.45942025 110.52723685 -50.45769465 98.01897043 C-50.45703168 90.99808328 -50.46248215 83.97732589 -50.48405075 76.95646858 C-50.50422611 70.34663457 -50.50355098 63.737027 -50.48901749 57.12716293 C-50.486929 54.70487887 -50.49163259 52.28257767 -50.5037384 49.86032295 C-50.51923154 46.54462941 -50.50985469 43.22987395 -50.49447632 39.91419983 C-50.50476344 38.96319541 -50.51505057 38.01219098 -50.52564943 37.03236824 C-50.42710804 27.36884871 -47.45151697 17.99109478 -40.9375 10.6875 C-39 9 -39 9 -37 9 C-37 8.34 -37 7.68 -37 7 C-24.93646457 0.66603951 -13.47608728 -0.39700421 0 0 Z " fill="#0B471E" transform="translate(50,0)"/>
<path d="M0 0 C10.04853575 8.61303064 11.99497311 20.26063542 13.1875 32.875 C13.60668892 40.4171366 13.57945614 47.96465158 13.52368164 55.51586914 C13.50001073 58.93594924 13.50315595 62.35524869 13.50976562 65.77539062 C13.45639771 107.17784443 13.45639771 107.17784443 3.1875 119.875 C-0.15844271 122.9167661 -2.80643448 124.15296432 -7.25 124.5 C-11.62557452 124.25732108 -14.16745341 122.95754659 -17.25 119.875 C-23.99801445 111.2375415 -25.4820521 100.45303824 -26.8125 89.875 C-26.90893799 89.12420166 -27.00537598 88.37340332 -27.10473633 87.59985352 C-28.05487572 78.9284567 -27.99859168 70.22918209 -27.99780273 61.5168457 C-27.99997567 58.84244531 -28.0181495 56.16846771 -28.03710938 53.49414062 C-28.16292449 14.94314448 -28.16292449 14.94314448 -18.41015625 2.43359375 C-13.47263759 -2.38320318 -6.17911736 -2.47164694 0 0 Z " fill="#66B037" transform="translate(121.8125,79.125)"/>
<path d="M0 0 C5.61 0.33 11.22 0.66 17 1 C17 10.9 17 20.8 17 31 C22.94 31 28.88 31 35 31 C35 36.94 35 42.88 35 49 C29.06 49 23.12 49 17 49 C17.08549361 58.57945516 17.17923954 68.15873185 17.28752708 77.737957 C17.33747883 82.18595 17.38380898 86.63391939 17.421875 91.08203125 C17.45874198 95.37448419 17.50510578 99.66673899 17.55806351 103.95902252 C17.57659995 105.59684016 17.5917107 107.23470026 17.60334396 108.87258148 C17.62021936 111.1662374 17.64925702 113.45944029 17.68115234 115.75292969 C17.69447601 117.05864929 17.70779968 118.3643689 17.7215271 119.70965576 C17.9787806 122.74927858 18.38919895 124.45732684 20 127 C21.70824133 127.02735618 23.41661405 127.04655506 25.125 127.0625 C26.07632813 127.07410156 27.02765625 127.08570313 28.0078125 127.09765625 C31.52107974 127.04895943 31.52107974 127.04895943 37 126 C37 131.28 37 136.56 37 142 C33.6896875 143.2065625 33.6896875 143.2065625 30.3125 144.4375 C29.62712158 144.68943115 28.94174316 144.9413623 28.2355957 145.20092773 C19.3674137 148.39943592 10.98519212 149.3977636 2.0078125 146.03515625 C-3.28148868 143.30818191 -5.46223341 138.50939164 -7.38393593 133.19599915 C-8.3975383 129.58294972 -8.39375119 126.11145152 -8.34057617 122.38085938 C-8.34101425 121.56039124 -8.34145233 120.7399231 -8.34190369 119.89459229 C-8.33983101 117.21072724 -8.31657277 114.5275045 -8.29296875 111.84375 C-8.28736737 109.97188661 -8.28309983 108.10001879 -8.28010559 106.22814941 C-8.2686995 101.32246572 -8.23926908 96.41705221 -8.20599365 91.51147461 C-8.17520111 86.49727024 -8.16158069 81.48302184 -8.14648438 76.46875 C-8.11439507 66.6457152 -8.06325035 56.82288015 -8 47 C-10.97 47 -13.94 47 -17 47 C-17 40.73 -17 34.46 -17 28 C-13.37 28.33 -9.74 28.66 -6 29 C-5.88785156 27.906875 -5.77570313 26.81375 -5.66015625 25.6875 C-4.99426164 20.36034313 -3.71952111 15.20708855 -2.4375 10 C-2.20353516 9.03449219 -1.96957031 8.06898437 -1.72851562 7.07421875 C-1.15627564 4.71518859 -0.57868733 2.35745687 0 0 Z " fill="#FCFDFC" transform="translate(186,66)"/>
<path d="M0 0 C1.8253125 0.0309375 1.8253125 0.0309375 3.6875 0.0625 C1.3510808 2.3989192 -0.24282234 2.77642579 -3.375 3.75 C-16.04584996 8.2717543 -22.84652622 17.48260612 -28.5 29.3125 C-32.40743504 38.81989542 -33.82153391 48.94154285 -35.3125 59.0625 C-35.50585938 60.30644531 -35.69921875 61.55039063 -35.8984375 62.83203125 C-37.82301572 79.13240769 -36.97429386 96.49435523 -34.5625 112.6875 C-34.40563721 113.74493408 -34.24877441 114.80236816 -34.0871582 115.8918457 C-32.38925256 126.18107247 -29.62341185 136.18960356 -24.875 145.5 C-24.31941406 146.61246094 -23.76382813 147.72492188 -23.19140625 148.87109375 C-18.03601257 157.62776036 -10.75020707 163.86561491 -0.9375 166.75 C2.26919953 167.92379188 3.38725211 168.48987154 4.9921875 171.55078125 C5.63691602 173.60485433 6.23007678 175.67565258 6.77734375 177.7578125 C9.13087023 186.30323484 13.00064674 194.27162401 20.6875 199.0625 C23.43297874 200.43300596 23.43297874 200.43300596 25.6875 201.0625 C25.3575 201.7225 25.0275 202.3825 24.6875 203.0625 C15.53220878 201.82441791 9.20201151 199.69067762 3.20703125 192.3828125 C-1.40240178 185.34424381 -4.40710379 177.41344859 -5.3125 169.0625 C-6.116875 169.000625 -6.92125 168.93875 -7.75 168.875 C-17.45669005 166.6611935 -25.84474352 160.02357864 -31.48046875 151.9609375 C-44.27533655 131.37827597 -46.50025595 107.34435838 -46.49780273 83.67578125 C-46.49998322 81.33054267 -46.5181889 78.98578054 -46.53710938 76.640625 C-46.58542343 64.01878584 -45.84511024 51.51183203 -42.0625 39.375 C-41.73608521 38.31321533 -41.73608521 38.31321533 -41.40307617 37.22998047 C-37.15074011 23.91031839 -30.62702038 11.64923804 -17.859375 4.8605957 C-11.90644912 1.90523689 -6.67955952 -0.11321287 0 0 Z " fill="#104B20" transform="translate(96.3125,54.9375)"/>
<path d="M0 0 C9.71428571 -0.57142857 9.71428571 -0.57142857 14 3 C27.17837147 16.80591296 25.46730929 38.88771311 25.33618164 56.64086914 C25.31251073 60.06094924 25.31565595 63.48024869 25.32226562 66.90039062 C25.26885114 108.33897331 25.26885114 108.33897331 15 121 C11.53499857 124.08000127 9.17930573 125.21787086 4.625 125.25 C3.42875 125.1675 2.2325 125.085 1 125 C1 124.34 1 123.68 1 123 C2.13888672 122.36384766 2.13888672 122.36384766 3.30078125 121.71484375 C8.82203565 118.20712931 11.13839286 111.1990364 12.7890625 105.0703125 C15.39125177 90.73885221 15.20593536 75.89011806 15.1875 61.375 C15.18659363 60.0563797 15.18659363 60.0563797 15.18566895 58.71112061 C16.09047859 29.79454552 16.09047859 29.79454552 5 4 C2.3908613 1.67722584 2.3908613 1.67722584 0 0 Z " fill="#0F4B20" transform="translate(110,78)"/>
<path d="M0 0 C2.64 0 5.28 0 8 0 C8 6.27 8 12.54 8 19 C11.3 19 14.6 19 18 19 C18.00364563 20.03015228 18.00729126 21.06030457 18.01104736 22.12167358 C18.0480932 31.86083257 18.1059702 41.59967818 18.18390274 51.33859825 C18.22330233 56.34472278 18.2555276 61.35067338 18.27099609 66.35693359 C18.2862123 71.19416611 18.32074551 76.03092023 18.36830902 80.867939 C18.38307178 82.70733085 18.39103807 84.54679102 18.39188385 86.38624191 C18.14306634 100.24681655 18.14306634 100.24681655 23 113 C25.35832772 115.47208796 25.35832772 115.47208796 28 117 C28.763125 117.5775 29.52625 118.155 30.3125 118.75 C30.869375 119.1625 31.42625 119.575 32 120 C26.48390844 120.34475572 21.81177062 119.91829496 17 117 C11.2734497 111.50099475 8.9963741 104.80970555 8.75949097 96.96289062 C8.75379201 95.52734805 8.75878336 94.09173399 8.77294922 92.65625 C8.77265717 91.86504257 8.77236511 91.07383514 8.77206421 90.25865173 C8.7734452 87.67231856 8.78894769 85.08628215 8.8046875 82.5 C8.80842202 80.69539548 8.81126692 78.89078892 8.81326294 77.08618164 C8.82086486 72.35811676 8.84048349 67.63017658 8.8626709 62.90216064 C8.88320377 58.0689055 8.89228051 53.23563003 8.90234375 48.40234375 C8.92373288 38.93484133 8.9578269 29.46743107 9 20 C7.02 20 5.04 20 3 20 C1.6442471 17.28849421 1.39548374 14.68305292 0.9375 11.6875 C0.76089844 10.55699219 0.58429688 9.42648438 0.40234375 8.26171875 C0.05647221 5.4578087 -0.07933085 2.81888956 0 0 Z " fill="#0C481D" transform="translate(160,94)"/>
<path d="M0 0 C2.05078125 0.03255208 4.1015625 0.06510417 6.15234375 0.09765625 C5.53861449 6.97565662 4.25337623 13.46408855 2.58984375 20.16015625 C2.35587891 21.12115234 2.12191406 22.08214844 1.88085938 23.07226562 C1.30967575 25.41528417 0.73171628 27.75664918 0.15234375 30.09765625 C-2.81765625 29.76765625 -5.78765625 29.43765625 -8.84765625 29.09765625 C-7.58176632 22.55722492 -6.20790333 16.04300207 -4.78515625 9.53515625 C-4.61081055 8.7251416 -4.43646484 7.91512695 -4.25683594 7.08056641 C-2.7278551 0.14417839 -2.7278551 0.14417839 0 0 Z " fill="#134E22" transform="translate(179.84765625,64.90234375)"/>
<path d="M0 0 C2.64 0 5.28 0 8 0 C8 6.27 8 12.54 8 19 C11.3 19 14.6 19 18 19 C18 45.4 18 71.8 18 99 C17.67 99 17.34 99 17 99 C17 72.93 17 46.86 17 20 C12.38 20 7.76 20 3 20 C1.6442471 17.28849421 1.39548374 14.68305292 0.9375 11.6875 C0.76089844 10.55699219 0.58429688 9.42648438 0.40234375 8.26171875 C0.05647221 5.4578087 -0.07933085 2.81888956 0 0 Z " fill="#32663F" transform="translate(160,94)"/>
<path d="M0 0 C-2.59121224 2.59121224 -4.41493567 2.64674398 -8 3.25 C-9.60875 3.53617188 -9.60875 3.53617188 -11.25 3.828125 C-12.61125 3.91320313 -12.61125 3.91320313 -14 4 C-14.66 3.34 -15.32 2.68 -16 2 C-10.42932723 0.40837921 -5.78898419 -0.20674944 0 0 Z " fill="#1F5D23" transform="translate(100,55)"/>
<path d="M0 0 C1.8871875 0.0309375 1.8871875 0.0309375 3.8125 0.0625 C0.66658067 2.86295623 -1.254564 3.41511589 -5.4375 3.25 C-6.32953125 3.22292969 -7.2215625 3.19585937 -8.140625 3.16796875 C-8.81609375 3.13316406 -9.4915625 3.09835938 -10.1875 3.0625 C-6.61118771 0.67829181 -4.20439261 -0.06892447 0 0 Z " fill="#175322" transform="translate(217.1875,190.9375)"/>
</svg>
