<?xml version="1.0" encoding="UTF-8"?>
<svg version="1.1" xmlns="http://www.w3.org/2000/svg" width="245" height="300">
<path d="M0 0 C0.88429687 0.00064453 1.76859375 0.00128906 2.6796875 0.00195312 C6.58249021 0.02848275 9.96541007 0.22588153 13.75 1.1875 C14.760625 1.166875 15.77125 1.14625 16.8125 1.125 C19.75 1.1875 19.75 1.1875 22.75 3.1875 C24.89704485 3.53191352 24.89704485 3.53191352 27.1875 3.625 C30.8424993 3.95835499 33.16228013 4.37476101 35.75 7.1875 C35.75 7.8475 35.75 8.5075 35.75 9.1875 C36.575 9.043125 37.4 8.89875 38.25 8.75 C43.54687597 9.4121095 46.278496 12.27253042 49.75 16.1875 C51.45162375 18.68448946 52.97077096 21.20810046 54.42578125 23.85546875 C55.7133366 26.12293348 57.14308669 28.13762525 58.75 30.1875 C59.11351562 29.47464844 59.47703125 28.76179688 59.8515625 28.02734375 C63.55464131 20.97250386 67.60190512 13.30306978 74.75 9.1875 C75.925625 8.8575 77.10125 8.5275 78.3125 8.1875 C81.67672165 7.52434738 81.67672165 7.52434738 83.1875 5.66015625 C85.20991238 3.75403258 86.44825074 3.76819853 89.1875 3.625 C92.60717109 3.4340539 94.71213676 2.71868107 97.75 1.1875 C100.08297433 1.14657063 102.41705225 1.14508277 104.75 1.1875 C105.74 0.8575 106.73 0.5275 107.75 0.1875 C117.74309777 -0.65547604 128.368003 -0.66510728 137.75 3.1875 C138.08 3.5175 138.41 3.8475 138.75 4.1875 C141.48808268 4.68533321 144.23494038 5.08782502 146.98828125 5.4921875 C149.94733737 6.23718324 151.38334088 7.32728645 153.75 9.1875 C155.776604 9.80987359 157.76474425 10.17870048 159.84765625 10.5625 C162.23526558 11.34693017 163.26510957 12.16014186 164.75 14.1875 C165.0078125 16.37890625 165.0078125 16.37890625 164.875 18.75 C164.64514189 22.09907562 164.64514189 22.09907562 165.75 25.1875 C166.31976822 31.73983452 164.80546704 37.97395514 162.75 44.1875 C161.76 45.1775 161.76 45.1775 160.75 46.1875 C160.17214485 48.44327528 159.79962025 50.70090296 159.41015625 52.99609375 C158.64901931 55.52270808 157.64510664 56.40901531 155.75 58.1875 C155.275625 59.321875 154.80125 60.45625 154.3125 61.625 C152.81414093 65.04125867 151.6227414 66.87077306 148.75 69.1875 C148.09 69.1875 147.43 69.1875 146.75 69.1875 C146.688125 69.93 146.62625 70.6725 146.5625 71.4375 C145.49359613 75.05532848 143.84234428 76.12593714 140.75 78.1875 C139.76 78.5175 138.77 78.8475 137.75 79.1875 C136.925 80.1775 136.1 81.1675 135.25 82.1875 C132.75 85.1875 132.75 85.1875 129.75 86.1875 C130.3790625 86.66058594 131.008125 87.13367188 131.65625 87.62109375 C144.15699314 97.27904741 151.61302359 106.57814567 153.75048828 122.60913086 C153.98901558 124.65575112 154.1966862 126.70263052 154.390625 128.75390625 C154.69331622 132.57211829 154.69331622 132.57211829 155.75 136.1875 C157.61431635 137.30214935 157.61431635 137.30214935 159.75 138.1875 C167.99704355 144.81526103 174.17954258 154.68749959 175.75 165.1875 C176.82407259 178.39364462 176.60995353 189.94247355 168.3125 200.8125 C162.60770506 208.50422138 160.98865644 218.07508928 158.765625 227.23046875 C154.57837554 244.06527089 146.7172266 256.09682871 131.75 265.1875 C129.78075537 266.21314824 127.79183864 267.16790889 125.78125 268.109375 C123.42754732 269.35864796 121.3918435 270.85253581 119.25 272.4375 C114.38755471 275.94263695 109.29927451 278.48166205 103.91601562 281.06103516 C99.26386725 283.32727114 95.01829008 285.89544682 90.75 288.8125 C77.10336375 298.04578961 60.74857835 302.6907065 44.3828125 299.5390625 C35.99104154 296.988836 29.3116095 292.43940432 22.875 286.5625 C19.11073866 283.70166138 15.28962874 282.29665253 10.9140625 280.5703125 C3.82564201 277.47241021 -2.38490199 272.8551137 -8.5859375 268.28515625 C-10.35372522 267.11908031 -12.12856509 266.29659858 -14.0625 265.4375 C-25.39154662 260.00395725 -34.70715882 248.73709622 -39.25 237.1875 C-40.35955427 233.46169047 -41.33541487 229.72074776 -42.27734375 225.94921875 C-43.66116497 220.59733186 -45.44160373 215.40753462 -47.25 210.1875 C-47.7140625 208.66576172 -47.7140625 208.66576172 -48.1875 207.11328125 C-49.21255245 204.29061845 -50.35515447 202.34008823 -52.125 199.9375 C-59.10798474 189.71058591 -61.30991965 179.34166508 -59.5625 167.0625 C-57.11602374 154.71745201 -51.70085719 145.27947519 -41.73046875 137.4765625 C-37.73425575 133.99701028 -37.79506081 130.09406576 -37.375 125.1875 C-35.82393302 110.33238737 -30.62784485 100.37778059 -19.14453125 90.6953125 C-17.20725212 89.15347798 -15.23964501 87.66098433 -13.25 86.1875 C-13.971875 85.795625 -14.69375 85.40375 -15.4375 85 C-18.48755544 83.03440871 -20.68882142 80.74867858 -23.25 78.1875 C-24.301875 77.5275 -25.35375 76.8675 -26.4375 76.1875 C-29.63646949 73.91267725 -29.87035764 72.72283354 -31.25 69.1875 C-32.260625 68.40375 -33.27125 67.62 -34.3125 66.8125 C-37.25 64.1875 -37.25 64.1875 -38.125 60.375 C-38.16625 59.323125 -38.2075 58.27125 -38.25 57.1875 C-39.735 56.6925 -39.735 56.6925 -41.25 56.1875 C-43.25 53.1875 -43.25 53.1875 -43.6875 49.75 C-43.9459048 46.24336347 -43.9459048 46.24336347 -45.8125 44.1875 C-47.90767799 41.27246975 -47.31381584 38.69737109 -47.25 35.1875 C-47.91 34.1975 -48.57 33.2075 -49.25 32.1875 C-49.44850603 28.48205413 -49.42664871 25.71744613 -48.25 22.1875 C-48.37375 20.2384375 -48.37375 20.2384375 -48.5 18.25 C-48.53033634 14.94333853 -48.47231622 14.4435005 -46.1875 11.8125 C-42.92262643 10.00639973 -39.85233893 9.13548393 -36.25 8.1875 C-35.280625 7.671875 -34.31125 7.15625 -33.3125 6.625 C-30.58583678 5.34513767 -29.02793836 4.925489 -26.125 4.625 C-22.61912708 4.22917564 -21.21793474 3.76421533 -18.25 2.1875 C-12.04252323 0.30855524 -6.46227395 -0.09108546 0 0 Z " fill="#020100" transform="translate(69.25,-0.1875)"/>
<path d="M0 0 C5.70709064 0.46588495 9.15939723 1.93757784 14 5 C13.505 2.525 13.505 2.525 13 0 C16.48249231 1.25756667 19.06465849 2.7731892 22 5 C22.66 5 23.32 5 24 5 C24.66 4.01 25.32 3.02 26 2 C28.64 3.98 31.28 5.96 34 8 C34 6.68 34 5.36 34 4 C37.01614813 5.1170919 38.64508669 6.6125776 40.625 9.0625 C42.67119397 12.00824713 42.67119397 12.00824713 45 13 C45 12.01 45 11.02 45 10 C51.48075447 12.57805837 54.61777633 19.59225555 57.9375 25.375 C59.80950853 31.76185262 59.95840947 38.1752142 57.8125 44.5 C55.77415729 47.31150719 53.97113271 49.18833371 51 51 C46.97011319 50.7021388 44.25977741 48.0639876 41.1875 45.6875 C27.33315211 35.40767584 11.19042624 27.83162272 -5 22 C-3.98164062 22.51046875 -2.96328125 23.0209375 -1.9140625 23.546875 C12.11634067 30.70284986 25.372996 38.92837207 37.5625 48.9375 C38.10487305 49.37368652 38.64724609 49.80987305 39.20605469 50.25927734 C41.51349997 52.22917721 42.89857619 53.72055848 43.94140625 56.59375 C44.03372756 60.38507861 42.2020293 63.06863615 40 66 C32.93303298 72.87066238 24.82377292 75.15983609 15.1875 75.0625 C14.02605469 75.05347656 12.86460938 75.04445313 11.66796875 75.03515625 C10.78753906 75.02355469 9.90710938 75.01195313 9 75 C9.495 73.515 9.495 73.515 10 72 C9.15695313 71.93941406 8.31390625 71.87882812 7.4453125 71.81640625 C5.80175781 71.69072266 5.80175781 71.69072266 4.125 71.5625 C2.48917969 71.44068359 2.48917969 71.44068359 0.8203125 71.31640625 C-2 71 -2 71 -4 70 C-4 69.34 -4 68.68 -4 68 C-3.34 68 -2.68 68 -2 68 C-2 67.34 -2 66.68 -2 66 C-2.845625 65.9175 -3.69125 65.835 -4.5625 65.75 C-8.72113491 64.84266147 -11.39582699 63.23458727 -15 61 C-13.68 60.34 -12.36 59.68 -11 59 C-11.71027344 58.59007812 -12.42054687 58.18015625 -13.15234375 57.7578125 C-14.07144531 57.21898437 -14.99054687 56.68015625 -15.9375 56.125 C-16.85402344 55.59132812 -17.77054688 55.05765625 -18.71484375 54.5078125 C-21 53 -21 53 -22 51 C-20.68 51 -19.36 51 -18 51 C-18 50.34 -18 49.68 -18 49 C-18.53625 48.773125 -19.0725 48.54625 -19.625 48.3125 C-22.78500863 46.56617944 -25.2676983 44.3597151 -28 42 C-26.68 41.34 -25.36 40.68 -24 40 C-24.5053125 39.51789062 -25.010625 39.03578125 -25.53125 38.5390625 C-26.1809375 37.90742187 -26.830625 37.27578125 -27.5 36.625 C-28.1496875 35.99851563 -28.799375 35.37203125 -29.46875 34.7265625 C-31 33 -31 33 -31 31 C-29.35 30.67 -27.7 30.34 -26 30 C-26.5053125 29.51789062 -27.010625 29.03578125 -27.53125 28.5390625 C-28.1809375 27.90742187 -28.830625 27.27578125 -29.5 26.625 C-30.1496875 25.99851562 -30.799375 25.37203125 -31.46875 24.7265625 C-33 23 -33 23 -33 21 C-31.35 21 -29.7 21 -28 21 C-28.64525977 19.5414128 -29.2912272 18.08313863 -29.9375 16.625 C-30.29714844 15.81289063 -30.65679688 15.00078125 -31.02734375 14.1640625 C-31.6569903 12.76316215 -32.31312642 11.37374716 -33 10 C-28.71 10 -24.42 10 -20 10 C-20.66 8.68 -21.32 7.36 -22 6 C-20.25008666 5.97284617 -18.50005055 5.95353449 -16.75 5.9375 C-15.28820313 5.92009766 -15.28820313 5.92009766 -13.796875 5.90234375 C-11.34241322 5.98804423 -9.33831086 6.29293934 -7 7 C-7.66 5.35 -8.32 3.7 -9 2 C-7.046875 2.52083333 -5.09375 3.04166667 -3.140625 3.5625 C-0.71098139 4.13349349 -0.71098139 4.13349349 3 4 C3 3.34 3 2.68 3 2 C2.01 1.67 1.02 1.34 0 1 C0 0.67 0 0.34 0 0 Z " fill="#73A727" transform="translate(62,8)"/>
<path d="M0 0 C0.66 0.33 1.32 0.66 2 1 C1.67 2.32 1.34 3.64 1 5 C1.67546875 4.62746094 2.3509375 4.25492188 3.046875 3.87109375 C3.93890625 3.39800781 4.8309375 2.92492187 5.75 2.4375 C6.63171875 1.96183594 7.5134375 1.48617188 8.421875 0.99609375 C11.20701188 -0.07998186 12.26980214 -0.06528748 15 1 C13.68 2.32 12.36 3.64 11 5 C11.86625 4.67 12.7325 4.34 13.625 4 C16.95718275 3.01268659 19.55159538 2.83579026 23 3 C22.67 4.32 22.34 5.64 22 7 C22.99 6.67 23.98 6.34 25 6 C27.06145107 5.931009 29.12501401 5.91532273 31.1875 5.9375 C32.81751953 5.95103516 32.81751953 5.95103516 34.48046875 5.96484375 C35.31191406 5.97644531 36.14335937 5.98804688 37 6 C36.34 6.99 35.68 7.98 35 9 C38.96 9.33 42.92 9.66 47 10 C46.34 11.65 45.68 13.3 45 15 C44.32204472 16.99620166 43.65266469 18.99538701 43 21 C44.65 21 46.3 21 48 21 C46.28032649 24.02990095 44.70761694 26.76327296 42 29 C41.34 29 40.68 29 40 29 C40 29.66 40 30.32 40 31 C41.98 31 43.96 31 46 31 C44.28032649 34.02990095 42.70761694 36.76327296 40 39 C39.34 39 38.68 39 38 39 C38 39.66 38 40.32 38 41 C39.32 41 40.64 41 42 41 C40.88378181 44.34865457 40.32525771 44.71566145 37.5 46.5625 C34.74463406 48.31619395 34.74463406 48.31619395 33 51 C34.98 51.495 34.98 51.495 37 52 C35.56839732 53.00842453 34.12948547 54.00647891 32.6875 55 C31.88699219 55.556875 31.08648437 56.11375 30.26171875 56.6875 C28 58 28 58 25 58 C25 58.66 25 59.32 25 60 C26.32 60 27.64 60 29 60 C29 60.66 29 61.32 29 62 C25.04 63.65 21.08 65.3 17 67 C17.99 67.495 17.99 67.495 19 68 C19 68.66 19 69.32 19 70 C15.84493858 70.93619813 13.03413498 71.1057123 9.75 71.0625 C8.41195312 71.04896484 8.41195312 71.04896484 7.046875 71.03515625 C6.37140625 71.02355469 5.6959375 71.01195313 5 71 C5 71.99 5 72.98 5 74 C5.99 74.33 6.98 74.66 8 75 C8 75.33 8 75.66 8 76 C-3.99691352 76.63763123 -14.58932294 74.87220119 -24 67 C-27.31279271 63.60226389 -28.72838312 60.55662716 -30 56 C-25.52309759 51.33812993 -20.9293842 47.11682321 -15.75 43.25 C-15.07541748 42.74412354 -14.40083496 42.23824707 -13.70581055 41.71704102 C-6.16369516 36.19358846 1.90180177 31.61874616 10.06396484 27.08544922 C12.4060463 25.77234781 14.70908966 24.40025582 17 23 C0.3226547 29.80861865 -15.44490503 36.90539846 -29.546875 48.25 C-31.84498771 49.88941799 -33.1964776 50.82991182 -36 51 C-39.76560954 48.36407333 -42.31567697 46.34337005 -44 42 C-45.40910794 30.82544635 -42.22232992 22.34084085 -35.46484375 13.59375 C-34 12 -34 12 -31 10 C-30.67 10.99 -30.34 11.98 -30 13 C-29.34 13 -28.68 13 -28 13 C-27.690625 12.1646875 -27.690625 12.1646875 -27.375 11.3125 C-25.44999226 8.07498698 -22.96149098 6.31768859 -20 4 C-20 5.32 -20 6.64 -20 8 C-19.278125 7.566875 -18.55625 7.13375 -17.8125 6.6875 C-15.20833333 5.125 -12.60416667 3.5625 -10 2 C-9.505 3.485 -9.505 3.485 -9 5 C-6.6810321 3.8834599 -4.54511944 2.70757679 -2.375 1.3125 C-1.59125 0.879375 -0.8075 0.44625 0 0 Z " fill="#73A727" transform="translate(179,8)"/>
<path d="M0 0 C6.50410694 3.76051785 11.86932347 9.21111258 14.6875 16.25 C17.38593318 26.3558968 16.45797165 36.78576743 11.6875 46.0625 C5.71431657 55.61959349 -2.43242667 63.63546014 -13.50390625 66.55078125 C-21.63649267 68.03251814 -29.22114209 68.32480483 -36.31640625 63.6640625 C-44.0233891 57.48037763 -48.43840014 50.17449433 -49.65625 40.265625 C-50.0721959 27.99522107 -45.345948 17.87184247 -37.27734375 8.765625 C-27.30397552 -0.86383398 -13.24717312 -5.82226445 0 0 Z " fill="#BA1041" transform="translate(105.3125,124.9375)"/>
<path d="M0 0 C1.84780475 1.0879834 3.66455829 2.23136238 5.4375 3.4375 C6.55898437 4.19740234 6.55898437 4.19740234 7.703125 4.97265625 C15.04806929 10.67760344 20.0428013 19.52515435 22.4375 28.4375 C23.47639665 39.30967425 22.50168451 48.46716806 15.75 57.25 C9.66618223 63.57357414 3.95643931 65.94528201 -4.875 66.125 C-15.06167322 66.01920204 -23.57852835 62.08384676 -31.0390625 55.1328125 C-39.40047944 45.82805621 -42.92548471 35.90705232 -42.7734375 23.5 C-42.2226556 15.50346281 -39.02121541 9.25084193 -33.5625 3.4375 C-24.39717796 -4.40459084 -10.81266795 -5.19892986 0 0 Z " fill="#BA1041" transform="translate(176.5625,124.5625)"/>
<path d="M0 0 C6.86364911 4.8643547 11.15374069 10.19035688 14.00390625 18.12890625 C15.41355684 28.65211181 14.3115936 37.3384058 8.00390625 46.12890625 C1.07832984 53.98074288 -6.96254399 57.62055727 -17.29296875 58.3671875 C-29.4634721 58.62877072 -36.91585403 56.07499869 -45.79296875 47.64453125 C-52.06983934 40.47732441 -54.38227932 32.61980844 -54.26953125 23.26171875 C-53.43246501 13.67133122 -47.33412023 7.23861554 -40.62109375 0.87890625 C-39.75484375 0.30140625 -38.88859375 -0.27609375 -37.99609375 -0.87109375 C-37.44308594 -1.24234375 -36.89007813 -1.61359375 -36.3203125 -1.99609375 C-25.03558846 -8.30677438 -10.74119833 -6.16094226 0 0 Z " fill="#BA1041" transform="translate(147.99609375,190.87109375)"/>
<path d="M0 0 C2.21513739 1.44709821 2.91947011 2.63788287 4.03515625 5.01953125 C4.35871094 5.68597656 4.68226563 6.35242188 5.015625 7.0390625 C8.41216917 15.88921281 8.00061734 27.04588367 4.8828125 35.90625 C-0.27583875 47.3720824 -8.64409545 55.38099164 -20.15234375 60.20703125 C-21.12171875 60.64015625 -22.09109375 61.07328125 -23.08984375 61.51953125 C-29.25473039 62.90348539 -34.97386663 63.27716036 -40.71484375 60.45703125 C-43.831666 57.57996456 -44.97696949 55.65692772 -45.48828125 51.4296875 C-45.67978116 35.93734518 -40.43035596 23.69324013 -29.88427734 12.47192383 C-21.7792081 4.19388836 -12.36682602 -4.55619906 0 0 Z " fill="#BA1041" transform="translate(210.15234375,198.79296875)"/>
<path d="M0 0 C6.29864758 3.28477858 11.4612468 8.25413028 16.4921875 13.19921875 C17.08257812 13.77671875 17.67296875 14.35421875 18.28125 14.94921875 C25.14741952 22.27313291 28.60464231 31.72200293 28.7421875 41.63671875 C28.78085938 43.30541016 28.78085938 43.30541016 28.8203125 45.0078125 C28.36386514 49.44730646 26.83450605 51.89146634 23.671875 54.97265625 C18.96330622 57.62228098 13.67829441 56.96465485 8.4921875 56.19921875 C-2.90398493 52.21116265 -11.24668574 45.95053135 -16.8828125 35.13671875 C-20.20142161 28.23067466 -21.86821827 21.80598556 -21.8828125 14.13671875 C-21.90730469 13.45544922 -21.93179688 12.77417969 -21.95703125 12.07226562 C-21.98641118 6.9748477 -20.71097551 4.11088808 -17.5078125 0.19921875 C-12.54791525 -2.28072987 -5.162113 -1.64833826 0 0 Z " fill="#BA1041" transform="translate(59.5078125,203.80078125)"/>
<path d="M0 0 C4.50480637 3.73569309 7.89839809 7.02201062 9.6875 12.6875 C9.52744869 17.08891116 8.43228219 18.81371286 5.5625 22.125 C-4.40211931 30.63138234 -18.5426128 30.07516158 -30.91796875 29.375 C-38.51599492 28.62108733 -44.33233462 25.66766538 -49.6875 20.3125 C-52.14767869 17.06067965 -53.65383657 14.34238188 -53.23828125 10.203125 C-50.59736723 3.34963105 -44.01314317 -0.89558377 -37.625 -3.875 C-24.1559676 -9.47251996 -12.57193831 -6.8574209 0 0 Z " fill="#BA1041" transform="translate(149.4375,90.875)"/>
<path d="M0 0 C1.40765625 -0.01836914 1.40765625 -0.01836914 2.84375 -0.03710938 C10.91635665 -0.05383439 18.85855333 0.70917215 26.25 4.1875 C26.971875 4.5175 27.69375 4.8475 28.4375 5.1875 C30.25 6.1875 30.25 6.1875 32.25 8.1875 C32.81559966 12.33523084 32.29623312 15.21160842 29.76953125 18.61328125 C21.56500162 27.11308958 10.40927854 32.14785205 -1.3125 32.5625 C-13.24885598 32.47419157 -23.09054166 25.86292898 -31.75 18.1875 C-33.90369773 14.95695341 -34.25794675 13.93579669 -33.75 10.1875 C-25.6036655 0.55396002 -11.58851513 0.00783008 0 0 Z " fill="#B91041" transform="translate(127.75,258.8125)"/>
<path d="M0 0 C6.7408283 1.17964495 11.12240925 6.91105397 15.1015625 12.1484375 C20.30805441 20.90817507 20.51676095 30.65839163 19.125 40.546875 C17.27613391 47.61916358 14.21021768 53.31636538 9.125 58.546875 C6.9375 58.546875 6.9375 58.546875 4.125 57.546875 C-5.3512804 47.44640847 -6.0650808 30.9943312 -6.125 17.984375 C-6.145625 16.86095703 -6.16625 15.73753906 -6.1875 14.58007812 C-6.19265625 13.49533203 -6.1978125 12.41058594 -6.203125 11.29296875 C-6.2124707 10.30997803 -6.22181641 9.3269873 -6.23144531 8.31420898 C-5.66489646 3.91569443 -4.54076781 0.86373301 0 0 Z " fill="#BA1041" transform="translate(212.875,141.453125)"/>
<path d="M0 0 C2.9886555 1.26791446 3.63356259 3.0038804 5.0625 5.875 C5.45068359 8.63891602 5.45068359 8.63891602 5.4609375 11.62890625 C5.46673828 13.2830957 5.46673828 13.2830957 5.47265625 14.97070312 C5.46105469 16.11474609 5.44945313 17.25878906 5.4375 18.4375 C5.44910156 19.55447266 5.46070312 20.67144531 5.47265625 21.82226562 C5.43750933 31.92700461 3.51668713 41.12234764 -0.4375 50.4375 C-1.04078125 51.89349609 -1.04078125 51.89349609 -1.65625 53.37890625 C-2.88538414 55.7734694 -3.72042683 57.3480452 -5.9375 58.875 C-9.19621075 58.65860124 -10.82501126 57.39951166 -12.9375 55 C-20.30131443 45.74850726 -20.89664931 35.21901278 -19.9375 23.875 C-18.23878546 14.01964785 -11.77424282 6.71216153 -3.9375 0.875 C-1.9375 -0.125 -1.9375 -0.125 0 0 Z " fill="#BA1041" transform="translate(39.9375,142.125)"/>
<path d="M0 0 C2.83392926 -0.08174796 5.66544819 -0.14084985 8.5 -0.1875 C9.29148438 -0.21263672 10.08296875 -0.23777344 10.8984375 -0.26367188 C20.97041777 -0.3875077 30.36974176 3.87502134 37.828125 10.6640625 C46.07843242 19.78940252 48.44310903 29.98682185 48 42 C32.24504367 41.64988986 16.59214565 23.64261877 6 13 C0.54842342 7.07207207 0.54842342 7.07207207 -1 4 C-0.56103516 1.87890625 -0.56103516 1.87890625 0 0 Z " fill="#B81040" transform="translate(162,91)"/>
<path d="M0 0 C1.11503906 -0.00257812 2.23007813 -0.00515625 3.37890625 -0.0078125 C5.92943728 0.10293853 8.01340829 0.3782138 10.4375 1.125 C7.82388319 15.66324348 -11.977369 28.02055841 -23.3203125 36.0859375 C-32.72562923 42.4492706 -32.72562923 42.4492706 -38.5625 42.125 C-39.21252972 30.8096678 -36.55294189 21.18668393 -29.5625 12.125 C-21.24679059 3.93457435 -11.58833925 -0.02685594 0 0 Z " fill="#B91040" transform="translate(80.5625,89.875)"/>
<path d="M0 0 C5.44876003 1.72066106 10.71169451 3.84705349 16 6 C15.01 7.485 15.01 7.485 14 9 C7.07 5.04 7.07 5.04 0 1 C0 0.67 0 0.34 0 0 Z " fill="#192508" transform="translate(56,29)"/>
<path d="M0 0 C0.66 0.33 1.32 0.66 2 1 C-1.96 2.98 -5.92 4.96 -10 7 C-10.66 6.34 -11.32 5.68 -12 5 C-10.04578965 4.13644222 -8.08648653 3.28440066 -6.125 2.4375 C-5.03445312 1.96183594 -3.94390625 1.48617188 -2.8203125 0.99609375 C-1.88960937 0.66738281 -0.95890625 0.33867187 0 0 Z " fill="#21310B" transform="translate(198,29)"/>
<path d="M0 0 C0 3 0 3 -1.875 5.1875 C-4 7 -4 7 -6 7 C-4.60667426 3.63279613 -3.0210714 2.0140476 0 0 Z " fill="#AC0F3C" transform="translate(56,98)"/>
</svg>
