<?xml version="1.0" encoding="UTF-8"?>
<svg version="1.1" xmlns="http://www.w3.org/2000/svg" width="102" height="102">
<path d="M0 0 C33.66 0 67.32 0 102 0 C102 33.66 102 67.32 102 102 C68.34 102 34.68 102 0 102 C0 68.34 0 34.68 0 0 Z " fill="#FBFBFB" transform="translate(0,0)"/>
<path d="M0 0 C0.1875 2.875 0.1875 2.875 0 6 C-3.57705803 8.38470535 -5.5514417 8.38406058 -9.8125 8.625 C-11.61654297 8.73714844 -11.61654297 8.73714844 -13.45703125 8.8515625 C-19.6334851 9.11603418 -25.81943536 9.02936652 -32 9 C-31.99214478 10.48040771 -31.99214478 10.48040771 -31.98413086 11.99072266 C-31.9657591 15.72199564 -31.95445293 19.45326482 -31.94506836 23.18457031 C-31.9401005 24.78646522 -31.93332392 26.38835574 -31.92456055 27.99023438 C-31.77452409 56.16178613 -31.77452409 56.16178613 -35 61 C-39.875 60.125 -39.875 60.125 -41 59 C-41.08995873 56.85452232 -41.10624188 54.70592023 -41.09375 52.55859375 C-41.09016479 51.89315048 -41.08657959 51.22770721 -41.08288574 50.542099 C-41.01910123 42.37915815 -40.76038863 34.22105261 -40.5 26.0625 C-40.45161299 24.492845 -40.4034349 22.92318354 -40.35546875 21.35351562 C-40.23975611 17.56891443 -40.11980273 13.78448259 -40 10 C-44.95 10 -49.9 10 -55 10 C-55.33 7.69 -55.66 5.38 -56 3 C-53.54211335 0.54211335 -52.74486897 0.709376 -49.35424805 0.57348633 C-47.90715706 0.50880913 -47.90715706 0.50880913 -46.43083191 0.44282532 C-44.8621209 0.38798225 -44.8621209 0.38798225 -43.26171875 0.33203125 C-42.18880081 0.28809738 -41.11588287 0.24416351 -40.01045227 0.19889832 C-37.7367203 0.10792013 -35.46279575 0.02165314 -33.1887207 -0.06030273 C-29.71183123 -0.18661606 -26.23591209 -0.32941043 -22.75976562 -0.47460938 C-20.5521216 -0.56088061 -18.34444006 -0.64619827 -16.13671875 -0.73046875 C-14.57711678 -0.79442085 -14.57711678 -0.79442085 -12.98600769 -0.85966492 C-12.01182388 -0.89332657 -11.03764008 -0.92698822 -10.03393555 -0.96166992 C-9.18059128 -0.99338791 -8.32724701 -1.0251059 -7.44804382 -1.05778503 C-4.86032469 -0.99670302 -2.51854988 -0.5789881 0 0 Z " fill="#292929" transform="translate(71,20)"/>
<path d="M0 0 C2.4375 0.1875 2.4375 0.1875 3.4375 1.1875 C3.51063567 3.71799402 3.52997527 6.22054837 3.5 8.75 C3.49548828 9.46091797 3.49097656 10.17183594 3.48632812 10.90429688 C3.47450864 12.66540013 3.45657263 14.42646036 3.4375 16.1875 C4.13875 16.11789063 4.84 16.04828125 5.5625 15.9765625 C12.20250294 15.59764929 15.80641157 16.31375652 20.87890625 20.6796875 C24.42600529 24.11121689 24.42600529 24.11121689 24.73828125 26.18359375 C24.77062867 32.92263863 23.48346879 38.78166914 21.4375 45.1875 C16.6875 46.3125 16.6875 46.3125 14.4375 45.1875 C14.7675 38.9175 15.0975 32.6475 15.4375 26.1875 C11.5648408 25.2193352 8.40138638 25.11127142 4.4375 25.1875 C4.41244385 25.78812256 4.3873877 26.38874512 4.36157227 27.00756836 C4.2459472 29.71361437 4.12307064 32.41928283 4 35.125 C3.94102539 36.54329102 3.94102539 36.54329102 3.88085938 37.99023438 C3.83896484 38.88935547 3.79707031 39.78847656 3.75390625 40.71484375 C3.69891968 41.96382446 3.69891968 41.96382446 3.64282227 43.23803711 C3.4375 45.1875 3.4375 45.1875 2.4375 46.1875 C-0 46.4375 -0 46.4375 -2.5625 46.1875 C-4.59452361 43.13946458 -4.8136751 42.53951655 -4.82128906 39.11499023 C-4.82759338 38.30082138 -4.83389771 37.48665253 -4.84039307 36.64781189 C-4.83432037 35.33521141 -4.83432037 35.33521141 -4.828125 33.99609375 C-4.83003845 33.0950441 -4.8319519 32.19399445 -4.83392334 31.26564026 C-4.83528397 29.36174236 -4.83159606 27.45783514 -4.82324219 25.55395508 C-4.81252848 22.63276451 -4.823148 19.71218719 -4.8359375 16.79101562 C-4.83461613 14.94270697 -4.8320542 13.0943987 -4.828125 11.24609375 C-4.83419769 9.93045692 -4.83419769 9.93045692 -4.84039307 8.58824158 C-4.77635031 0.34948905 -4.77635031 0.34948905 0 0 Z " fill="#D8D8D8" transform="translate(55.5625,34.8125)"/>
<path d="M0 0 C0 1.32 0 2.64 0 4 C-10.69240075 4.87157852 -21.27592816 5.11813543 -32 5 C-31.82726562 6.11761719 -31.65453125 7.23523438 -31.4765625 8.38671875 C-30.8728898 13.24489742 -31.07893633 17.93750105 -31.375 22.8125 C-31.44944336 24.16770752 -31.44944336 24.16770752 -31.52539062 25.55029297 C-31.62863901 27.42738786 -31.73445234 29.30434335 -31.84277344 31.18115234 C-31.99719242 33.94966404 -32.13115958 36.71837201 -32.2578125 39.48828125 C-32.2985791 40.35283936 -32.3393457 41.21739746 -32.38134766 42.1081543 C-32.45894005 43.75403913 -32.53423063 45.40003452 -32.60693359 47.04614258 C-32.76622038 50.24126851 -32.98288664 52.94865992 -34 56 C-35.32 55.67 -36.64 55.34 -38 55 C-37.90912109 53.26097412 -37.90912109 53.26097412 -37.81640625 51.48681641 C-37.59017225 47.14450054 -37.36735098 42.80201487 -37.14550781 38.45947266 C-37.04941926 36.58768058 -36.95243169 34.71593442 -36.85449219 32.84423828 C-36.71307045 30.13846515 -36.57498994 27.43253794 -36.4375 24.7265625 C-36.37187866 23.49155502 -36.37187866 23.49155502 -36.30493164 22.2315979 C-36.01714305 16.48125479 -35.96415488 10.75762259 -36 5 C-41.61 5 -47.22 5 -53 5 C-53 4.01 -53 3.02 -53 2 C-50.03170015 0.51585007 -46.97066836 0.76086051 -43.7109375 0.68359375 C-42.9748526 0.66281265 -42.2387677 0.64203156 -41.4803772 0.62062073 C-39.91178269 0.57729378 -38.34312347 0.53625973 -36.77441406 0.49731445 C-34.4327699 0.43894013 -32.09141621 0.37347434 -29.75 0.30664062 C-19.8308944 0.03503011 -9.92277348 -0.05347602 0 0 Z " fill="#EDEDED" transform="translate(69,22)"/>
<path d="M0 0 C2.4375 0.1875 2.4375 0.1875 3.4375 1.1875 C3.51063567 3.71799402 3.52997527 6.22054837 3.5 8.75 C3.49548828 9.46091797 3.49097656 10.17183594 3.48632812 10.90429688 C3.47450864 12.66540013 3.45657263 14.42646036 3.4375 16.1875 C4.13875 16.11789063 4.84 16.04828125 5.5625 15.9765625 C12.20250294 15.59764929 15.80641157 16.31375652 20.87890625 20.6796875 C24.42600529 24.11121689 24.42600529 24.11121689 24.73828125 26.18359375 C24.77062867 32.92263863 23.48346879 38.78166914 21.4375 45.1875 C16.6875 46.3125 16.6875 46.3125 14.4375 45.1875 C14.7675 38.9175 15.0975 32.6475 15.4375 26.1875 C11.5648408 25.2193352 8.40138638 25.11127142 4.4375 25.1875 C4.41244385 25.78812256 4.3873877 26.38874512 4.36157227 27.00756836 C4.2459472 29.71361437 4.12307064 32.41928283 4 35.125 C3.94102539 36.54329102 3.94102539 36.54329102 3.88085938 37.99023438 C3.83896484 38.88935547 3.79707031 39.78847656 3.75390625 40.71484375 C3.69891968 41.96382446 3.69891968 41.96382446 3.64282227 43.23803711 C3.4375 45.1875 3.4375 45.1875 2.4375 46.1875 C-0 46.4375 -0 46.4375 -2.5625 46.1875 C-4.59452361 43.13946458 -4.8136751 42.53951655 -4.82128906 39.11499023 C-4.82759338 38.30082138 -4.83389771 37.48665253 -4.84039307 36.64781189 C-4.83432037 35.33521141 -4.83432037 35.33521141 -4.828125 33.99609375 C-4.83003845 33.0950441 -4.8319519 32.19399445 -4.83392334 31.26564026 C-4.83528397 29.36174236 -4.83159606 27.45783514 -4.82324219 25.55395508 C-4.81252848 22.63276451 -4.823148 19.71218719 -4.8359375 16.79101562 C-4.83461613 14.94270697 -4.8320542 13.0943987 -4.828125 11.24609375 C-4.83419769 9.93045692 -4.83419769 9.93045692 -4.84039307 8.58824158 C-4.77635031 0.34948905 -4.77635031 0.34948905 0 0 Z M-2.5625 3.1875 C-6.26427629 15.49737513 -3.17911273 31.49774126 -2.5625 44.1875 C-1.2425 44.1875 0.0775 44.1875 1.4375 44.1875 C1.4375 37.2575 1.4375 30.3275 1.4375 23.1875 C11.4375 22.1875 11.4375 22.1875 14.54296875 23.578125 C17.27996949 27.34784973 16.99424203 30.405871 16.75 34.9375 C16.72744141 35.73027344 16.70488281 36.52304688 16.68164062 37.33984375 C16.62290471 39.2898762 16.53322654 41.23893312 16.4375 43.1875 C17.7575 43.1875 19.0775 43.1875 20.4375 43.1875 C21.61308256 39.4005824 21.71077567 35.69768656 21.8125 31.75 C21.86148438 30.45191406 21.91046875 29.15382813 21.9609375 27.81640625 C21.30841317 23.29256221 19.97565409 21.98051276 16.4375 19.1875 C11.74054433 15.97478232 6.82570938 17.5460465 1.4375 18.1875 C1.4375 13.2375 1.4375 8.2875 1.4375 3.1875 C0.1175 3.1875 -1.2025 3.1875 -2.5625 3.1875 Z " fill="#1E1E1E" transform="translate(55.5625,34.8125)"/>
<path d="M0 0 C2.4375 0.1875 2.4375 0.1875 3.4375 1.1875 C3.51075168 4.05017567 3.52988205 6.888219 3.5 9.75 C3.49548828 10.55630859 3.49097656 11.36261719 3.48632812 12.19335938 C3.47450518 14.19143756 3.45656914 16.18947783 3.4375 18.1875 C2.7775 18.1875 2.1175 18.1875 1.4375 18.1875 C1.4375 13.2375 1.4375 8.2875 1.4375 3.1875 C0.1175 3.1875 -1.2025 3.1875 -2.5625 3.1875 C-2.5625 16.7175 -2.5625 30.2475 -2.5625 44.1875 C-1.2425 44.1875 0.0775 44.1875 1.4375 44.1875 C1.4375 37.9175 1.4375 31.6475 1.4375 25.1875 C2.0975 24.8575 2.7575 24.5275 3.4375 24.1875 C3.46637814 27.66664941 3.48425687 31.14576831 3.5 34.625 C3.50837891 35.61822266 3.51675781 36.61144531 3.52539062 37.63476562 C3.52861328 38.57900391 3.53183594 39.52324219 3.53515625 40.49609375 C3.54039307 41.37064209 3.54562988 42.24519043 3.55102539 43.14624023 C3.4375 45.1875 3.4375 45.1875 2.4375 46.1875 C-0 46.4375 -0 46.4375 -2.5625 46.1875 C-4.59452361 43.13946458 -4.8136751 42.53951655 -4.82128906 39.11499023 C-4.82759338 38.30082138 -4.83389771 37.48665253 -4.84039307 36.64781189 C-4.83432037 35.33521141 -4.83432037 35.33521141 -4.828125 33.99609375 C-4.83003845 33.0950441 -4.8319519 32.19399445 -4.83392334 31.26564026 C-4.83528397 29.36174236 -4.83159606 27.45783514 -4.82324219 25.55395508 C-4.81252848 22.63276451 -4.823148 19.71218719 -4.8359375 16.79101562 C-4.83461613 14.94270697 -4.8320542 13.0943987 -4.828125 11.24609375 C-4.83419769 9.93045692 -4.83419769 9.93045692 -4.84039307 8.58824158 C-4.77635031 0.34948905 -4.77635031 0.34948905 0 0 Z " fill="#1A1A1A" transform="translate(55.5625,34.8125)"/>
<path d="M0 0 C3.3 0 6.6 0 10 0 C10 0.33 10 0.66 10 1 C7.03 1 4.06 1 1 1 C1.00523682 1.98693848 1.01047363 2.97387695 1.01586914 3.99072266 C1.0342409 7.72199564 1.04554707 11.45326482 1.05493164 15.18457031 C1.0598995 16.78646522 1.06667608 18.38835574 1.07543945 19.99023438 C1.22547591 48.16178613 1.22547591 48.16178613 -2 53 C-6.875 52.125 -6.875 52.125 -8 51 C-8.55445342 39.68262721 -7.6808117 28.29417973 -7 17 C-6.67 17 -6.34 17 -6 17 C-6 27.56 -6 38.12 -6 49 C-5.01 49.33 -4.02 49.66 -3 50 C-2.94465088 49.05382812 -2.88930176 48.10765625 -2.83227539 47.1328125 C-2.62198096 43.53936938 -2.41126594 39.94595101 -2.20043945 36.35253906 C-2.11015982 34.81283199 -2.01998637 33.27311868 -1.92993164 31.73339844 C-1.3110719 21.15400838 -0.66912593 10.57633225 0 0 Z " fill="#131313" transform="translate(38,28)"/>
<path d="M0 0 C5.48729979 -0.89328136 8.58237806 1.02660062 13 4 C15.41280181 7.61920271 15.26353585 10.26353212 15.1875 14.4375 C15.18105469 15.75621094 15.17460938 17.07492188 15.16796875 18.43359375 C15.03837648 21.18516918 14.83059751 23.40189099 14 26 C12.68 26 11.36 26 10 26 C10.05800781 24.81921875 10.11601563 23.6384375 10.17578125 22.421875 C10.22268643 20.86462289 10.26818579 19.30732799 10.3125 17.75 C10.35439453 16.97269531 10.39628906 16.19539063 10.43945312 15.39453125 C10.56142223 10.46916123 10.56142223 10.46916123 7.71875 6.53125 C5.47812602 5.26928937 3.66967062 4.33404015 1.1875 3.75 C0.135625 3.5025 -0.91625 3.255 -2 3 C-1.34 2.01 -0.68 1.02 0 0 Z " fill="#F5F5F5" transform="translate(62,52)"/>
<path d="M0 0 C0 1.32 0 2.64 0 4 C-10.36053092 4.83360594 -20.6094206 5.12288464 -31 5 C-31 4.01 -31 3.02 -31 2 C-22.6648137 -2.16759315 -9.27920611 -0.10720521 0 0 Z " fill="#F0F0F0" transform="translate(69,22)"/>
<path d="M0 0 C0.99 0.33 1.98 0.66 3 1 C3.02473868 4.93268867 3.04287835 8.86534713 3.05493164 12.7980957 C3.06242729 14.79314768 3.07513345 16.78817786 3.08789062 18.78320312 C3.09111328 20.03681641 3.09433594 21.29042969 3.09765625 22.58203125 C3.10289307 23.73936768 3.10812988 24.8967041 3.11352539 26.08911133 C3 29 3 29 2 32 C0.68 31.67 -0.64 31.34 -2 31 C-1.34 20.77 -0.68 10.54 0 0 Z " fill="#F6F6F6" transform="translate(33,46)"/>
<path d="M0 0 C1.32 0 2.64 0 4 0 C4.8984165 9.86875973 4.98945341 19.12068829 4 29 C3.67 29 3.34 29 3 29 C1.98536078 20.28497384 1.91961599 11.76185714 2 3 C-2.95 3 -7.9 3 -13 3 C-13 2.67 -13 2.34 -13 2 C-8.71 2 -4.42 2 0 2 C0 1.34 0 0.68 0 0 Z " fill="#545454" transform="translate(29,27)"/>
<path d="M0 0 C1.12067871 0.01047363 2.24135742 0.02094727 3.39599609 0.03173828 C5.21357422 0.04140625 5.21357422 0.04140625 7.06787109 0.05126953 C8.33888672 0.06802734 9.60990234 0.08478516 10.91943359 0.10205078 C12.19818359 0.11107422 13.47693359 0.12009766 14.79443359 0.12939453 C17.96128526 0.15302775 21.12776783 0.18597449 24.29443359 0.22705078 C24.29443359 0.55705078 24.29443359 0.88705078 24.29443359 1.22705078 C15.05443359 1.88705078 5.81443359 2.54705078 -3.70556641 3.22705078 C-3.70556641 4.21705078 -3.70556641 5.20705078 -3.70556641 6.22705078 C0.58443359 6.22705078 4.87443359 6.22705078 9.29443359 6.22705078 C9.29443359 6.88705078 9.29443359 7.54705078 9.29443359 8.22705078 C7.14866723 8.25391017 5.00280714 8.27338166 2.85693359 8.28955078 C1.66197266 8.30115234 0.46701172 8.31275391 -0.76416016 8.32470703 C-3.70556641 8.22705078 -3.70556641 8.22705078 -4.70556641 7.22705078 C-4.89306641 4.78955078 -4.89306641 4.78955078 -4.70556641 2.22705078 C-2.70556641 0.22705078 -2.70556641 0.22705078 0 0 Z " fill="#3B3B3B" transform="translate(19.70556640625,20.77294921875)"/>
<path d="M0 0 C3.33388318 0.16951948 4.94441987 0.43192871 7.6875 2.1875 C7.6875 3.1775 7.6875 4.1675 7.6875 5.1875 C1.53515625 5.28515625 1.53515625 5.28515625 -0.3125 5.1875 C-0.6425 4.8575 -0.9725 4.5275 -1.3125 4.1875 C-2.83356634 7.22963267 -2.68679338 10.46797572 -2.875 13.8125 C-2.91818359 14.51890625 -2.96136719 15.2253125 -3.00585938 15.953125 C-3.11194751 17.69768537 -3.21272889 19.44256697 -3.3125 21.1875 C-3.6425 21.1875 -3.9725 21.1875 -4.3125 21.1875 C-4.34138146 17.87501813 -4.35925799 14.56256833 -4.375 11.25 C-4.38337891 10.30447266 -4.39175781 9.35894531 -4.40039062 8.38476562 C-4.40361328 7.48564453 -4.40683594 6.58652344 -4.41015625 5.66015625 C-4.41539307 4.82750244 -4.42062988 3.99484863 -4.42602539 3.13696289 C-4.22938605 -0.23973627 -3.4765203 0.19678417 0 0 Z " fill="#E4E4E4" transform="translate(63.3125,58.8125)"/>
<path d="M0 0 C0.66 0 1.32 0 2 0 C2 5.28 2 10.56 2 16 C0.68 16 -0.64 16 -2 16 C-2 11.38 -2 6.76 -2 2 C-1.34 2 -0.68 2 0 2 C0 1.34 0 0.68 0 0 Z " fill="#F5F5F5" transform="translate(55,63)"/>
<path d="M0 0 C5.98882304 -0.59447876 10.6073634 -0.88469849 15.5625 2.875 C20.96076418 7.52132302 20.96076418 7.52132302 21.1953125 10.3828125 C21.17210938 11.28773437 21.14890625 12.19265625 21.125 13.125 C21.10695313 14.03507812 21.08890625 14.94515625 21.0703125 15.8828125 C21.04710938 16.58148438 21.02390625 17.28015625 21 18 C20.01 17.67 19.02 17.34 18 17 C17.93941406 16.38511719 17.87882812 15.77023438 17.81640625 15.13671875 C17.69072266 13.92435547 17.69072266 13.92435547 17.5625 12.6875 C17.48128906 11.88699219 17.40007812 11.08648437 17.31640625 10.26171875 C17.04734307 7.83912821 17.04734307 7.83912821 16 5 C13.57616923 3.83046584 13.57616923 3.83046584 11 3 C10.34 2.67 9.68 2.34 9 2 C7.45976004 1.93049459 5.91665012 1.91547643 4.375 1.9375 C3.55773438 1.94652344 2.74046875 1.95554688 1.8984375 1.96484375 C1.27195313 1.97644531 0.64546875 1.98804688 0 2 C0 1.34 0 0.68 0 0 Z " fill="#262626" transform="translate(59,51)"/>
<path d="M0 0 C4.63908179 -0.61854424 7.21981549 0.33163446 11 3 C10.67 4.65 10.34 6.3 10 8 C9.319375 7.54625 8.63875 7.0925 7.9375 6.625 C4.69564814 4.83163514 1.5796559 3.91246131 -2 3 C-1.34 2.01 -0.68 1.02 0 0 Z " fill="#E6E6E6" transform="translate(62,52)"/>
<path d="M0 0 C1.09570312 0.00902344 2.19140625 0.01804687 3.3203125 0.02734375 C4.16335937 0.03894531 5.00640625 0.05054687 5.875 0.0625 C6.205 1.0525 6.535 2.0425 6.875 3.0625 C3.58980525 4.15756492 1.13836585 4.16210608 -2.3125 4.125 C-3.94251953 4.11146484 -3.94251953 4.11146484 -5.60546875 4.09765625 C-6.43691406 4.08605469 -7.26835938 4.07445312 -8.125 4.0625 C-8.125 3.0725 -8.125 2.0825 -8.125 1.0625 C-5.36047967 -0.31976016 -3.0788637 -0.03275387 0 0 Z " fill="#FBFBFB" transform="translate(46.125,22.9375)"/>
<path d="M0 0 C1.66611905 -0.042721 3.33382885 -0.04063832 5 0 C6 1 6 1 6.09765625 4.81640625 C6.09098089 6.39846682 6.07901875 7.98051159 6.0625 9.5625 C6.05798828 10.36880859 6.05347656 11.17511719 6.04882812 12.00585938 C6.03700518 14.00393756 6.01906914 16.00197783 6 18 C5.34 18 4.68 18 4 18 C4 13.05 4 8.1 4 3 C2.02 3.33 0.04 3.66 -2 4 C-1.34 2.68 -0.68 1.36 0 0 Z " fill="#0B0B0B" transform="translate(53,35)"/>
<path d="M0 0 C0.33 0 0.66 0 1 0 C0.67 6.93 0.34 13.86 0 21 C-0.33 21 -0.66 21 -1 21 C-1.1953125 18.98177083 -1.390625 16.96354167 -1.5859375 14.9453125 C-1.86374749 12.77331755 -1.86374749 12.77331755 -4 11 C-4 9.68 -4 8.36 -4 7 C-3.34 7 -2.68 7 -2 7 C-1.855625 6.401875 -1.71125 5.80375 -1.5625 5.1875 C-1.1127561 3.43849596 -0.57107659 1.71322977 0 0 Z " fill="#E1E1E1" transform="translate(37,35)"/>
<path d="M0 0 C2.8125 2.125 2.8125 2.125 5 5 C4.8125 8.8125 4.8125 8.8125 4 12 C3.67 12 3.34 12 3 12 C3 9.36 3 6.72 3 4 C-0.15506142 3.06380187 -2.96586502 2.8942877 -6.25 2.9375 C-7.58804688 2.95103516 -7.58804688 2.95103516 -8.953125 2.96484375 C-9.62859375 2.97644531 -10.3040625 2.98804688 -11 3 C-11 2.34 -11 1.68 -11 1 C-3.13953488 -1.56976744 -3.13953488 -1.56976744 0 0 Z " fill="#3B3B3B" transform="translate(68,57)"/>
<path d="M0 0 C1.32 0 2.64 0 4 0 C3.67 4.29 3.34 8.58 3 13 C2.01 13.33 1.02 13.66 0 14 C0 9.38 0 4.76 0 0 Z " fill="#F7F7F7" transform="translate(53,38)"/>
<path d="M0 0 C0 0.66 0 1.32 0 2 C0.66 2.66 1.32 3.32 2 4 C-1.3 4 -4.6 4 -8 4 C-8 3.01 -8 2.02 -8 1 C-5.29120665 -0.35439668 -2.99066732 -0.06501451 0 0 Z " fill="#E7E7E7" transform="translate(24,23)"/>
<path d="M0 0 C0.66 0 1.32 0 2 0 C2 2.97 2 5.94 2 9 C0.68 9 -0.64 9 -2 9 C-2 6.69 -2 4.38 -2 2 C-1.34 2 -0.68 2 0 2 C0 1.34 0 0.68 0 0 Z " fill="#FCFCFC" transform="translate(55,63)"/>
<path d="M0 0 C0.99 0.33 1.98 0.66 3 1 C3 4.3 3 7.6 3 11 C2.01 10.67 1.02 10.34 0 10 C0 6.7 0 3.4 0 0 Z " fill="#505050" transform="translate(77,58)"/>
<path d="M0 0 C0.99 0.33 1.98 0.66 3 1 C2.67 1.66 2.34 2.32 2 3 C2 3.66 2 4.32 2 5 C-0.5 6.625 -0.5 6.625 -3 8 C-3.66 7.01 -4.32 6.02 -5 5 C-4 3 -4 3 -1 2 C-0.67 1.34 -0.34 0.68 0 0 Z " fill="#ECECEC" transform="translate(77,78)"/>
<path d="M0 0 C0.99 1.485 0.99 1.485 2 3 C2.99 3.33 3.98 3.66 5 4 C5.33 3.01 5.66 2.02 6 1 C6.33 2.65 6.66 4.3 7 6 C4.625 6.625 4.625 6.625 2 7 C0 5 0 5 -0.125 2.375 C-0.08375 1.59125 -0.0425 0.8075 0 0 Z " fill="#474747" transform="translate(30,74)"/>
<path d="M0 0 C1.32 0.33 2.64 0.66 4 1 C4 2.65 4 4.3 4 6 C2.68 6 1.36 6 0 6 C0 4.02 0 2.04 0 0 Z " fill="#EEEEEE" transform="translate(72,72)"/>
<path d="M0 0 C2.625 0.375 2.625 0.375 5 1 C5 2.98 5 4.96 5 7 C4.01 7.495 4.01 7.495 3 8 C3 6.02 3 4.04 3 2 C1.35 2 -0.3 2 -2 2 C-1.34 1.34 -0.68 0.68 0 0 Z " fill="#303030" transform="translate(66,19)"/>
<path d="M0 0 C1.65 0 3.3 0 5 0 C5 0.99 5 1.98 5 3 C2.69 3.33 0.38 3.66 -2 4 C-1.34 2.68 -0.68 1.36 0 0 Z " fill="#4A4A4A" transform="translate(53,35)"/>
<path d="M0 0 C3.14737182 0.69941596 6.02588876 1.76078698 9 3 C5.06329512 4.31223496 2.87511856 3.24296256 -1 2 C-0.67 1.34 -0.34 0.68 0 0 Z " fill="#FAFAFA" transform="translate(61,53)"/>
<path d="M0 0 C0.99 0.33 1.98 0.66 3 1 C3.1875 3.875 3.1875 3.875 3 7 C2.01 7.66 1.02 8.32 0 9 C0 6.03 0 3.06 0 0 Z " fill="#FEFEFE" transform="translate(34,33)"/>
</svg>
