<?xml version="1.0" encoding="UTF-8"?>
<svg version="1.1" viewBox="0 0 1876 1840" width="469" height="460" xmlns="http://www.w3.org/2000/svg">
<path transform="translate(65,4)" d="m0 0h1747l17 6 14 7 5 4v2l4 2 10 11 9 17 3 10 2 1v1715l-3 5-4 11-7 13-15 15-10 6-11 6-13 2-1 3h-1748l-1-3-5-1-9-1-10-5-8-5-22-22-5-10-2-8-2-2v-1723h2l3-11 4-8 12-13 13-13 7-4 6-3 13-1v-2z" fill="#3E4357"/>
<path transform="translate(1289,88)" d="m0 0h192l3 5 18 52 15 42 13 37 17 48 19 54 17 48 15 42 14 40 17 48 57 161 19 54 34 96 8 21-1 3h-169l-4-9-17-55-25-82-9-31-3-1h-270l-2 9-9 30-17 56-9 30-9 29-7 22-2 2h-169l-1-2 12-34 20-57 17-48 14-40 13-37 12-34 19-54 18-51 17-48 18-52 17-48 14-40 13-37 7-20 17-48 21-60 11-31z" fill="#FDFDFD"/>
<path transform="translate(71,1067)" d="m0 0h147l4 9 10 32 10 31 14 45 10 31 14 45 10 31 32 101 16 51 12 39 11 39 20 82 4 17 3-13 9-41 12-48 14-49 12-38 20-62 8-26 10-31 19-59 13-41 23-72 18-57 5-15 1-1h146l1 2-15 46-14 41-23 67-17 51-15 43-12 36-18 53-14 41-19 56-14 41-17 50-13 37-12 36-21 61-10 29-2 1h-154l-5-2-33-97-14-41-18-54-15-43-23-69-14-41-20-60-10-29-17-50-21-62-14-41-14-42-13-36-7-22z" fill="#8EB8FD"/>
<path transform="translate(92,91)" d="m0 0h564l1 1v130l-1 1-201 1-1 614-1 1h-158l-1-1-1-73v-461l1-80-202-1-1-2v-107z" fill="#FCFDFD"/>
<path transform="translate(1301,1067)" d="m0 0h417l55 1v91l-6 17-19 43-9 21-14 32-13 30-11 25-14 32-11 25-13 30-11 25-17 39-20 45-20 46-17 39-18 41-19 43-26 60-3 5-2 1h-148l-2-1 1-5 13-28 13-29 16-35 15-33 18-39 15-33 13-28 9-20 18-39 15-33 24-52 16-35 15-33 18-39 11-24 16-35 12-27-2 1-308 1h-29l-1-1-1-123z" fill="#8EB8FD"/>
<path transform="translate(979,1067)" d="m0 0h119l1 1 1 57v632l-1 1h-146l-1-1v-372l1-56 2-56 1-41 1-11h-2l-2 4-4 2v2h-2l-2 4-12 11-16 16-11 9-17 14-14 11-17 14-14 11-16 13-5-4-9-12-14-17-11-14-12-15-11-14-8-10 1-4 16-13 9-7 16-13 14-11 16-13 17-13 17-14 14-11 16-13 14-11 10-8 14-11 16-13 28-22z" fill="#8EB8FD"/>
<path transform="translate(772,91)" d="m0 0h157l1 1 1 745-2 2h-158l-1-38v-618l1-91z" fill="#FCFDFD"/>
<path transform="translate(1386,206)" d="m0 0h1l4 19 14 47 17 55 25 80 36 117 1 3-3 1h-180l-11-1 2-9 13-42 13-43 9-29 13-43 14-47 19-65 12-42z" fill="#3E4357"/>
<path transform="translate(64,1836)" d="m0 0 55 1h1606l85-1 2 1v3h-1748z" fill="#8EB8FD"/>
<path transform="translate(5,1791)" d="m0 0 3 3 3 6 8 10 13 13 6 4-3 1-8-7-18-18-5-11z" fill="#7797CF"/>
<path transform="translate(1821,9)" d="m0 0h6l16 8 3 3-1 2-14-8-10-4z" fill="#6A84B3"/>
<path transform="translate(12,38)" d="m0 0 2 1-6 9-3 6-1-2 5-11z" fill="#81A6E3"/>
<path transform="translate(1863,1803)" d="m0 0 1 2-7 8-3 1 2-4z" fill="#7A9AD3"/>
<path transform="translate(1821,9)" d="m0 0h6l7 3 1 3-9-3-5-2z" fill="#7594C9"/>
</svg>
