<svg id="svg" version="1.1" xmlns="http://www.w3.org/2000/svg" xmlns:xlink="http://www.w3.org/1999/xlink" width="400" height="400" viewBox="0, 0, 400,400"><g id="svgg"><path id="path0" d="M90.800 75.484 C 83.678 76.812,78.736 80.969,76.315 87.669 L 75.400 90.200 75.400 131.600 C 75.400 170.247,75.446 173.080,76.098 174.200 C 76.481 174.860,76.796 175.651,76.798 175.959 C 76.809 178.647,83.776 184.993,87.600 185.798 C 88.370 185.960,89.204 186.256,89.454 186.457 C 92.106 188.587,101.317 186.276,106.139 182.271 C 111.526 177.796,111.717 176.908,111.980 155.120 C 112.237 133.778,112.084 134.504,115.535 138.275 C 120.367 143.554,123.896 147.355,126.200 149.758 C 132.598 156.435,137.426 161.726,137.672 162.331 C 137.821 162.699,137.956 168.445,137.972 175.100 L 138.000 187.200 154.767 187.200 C 174.391 187.200,172.795 187.478,172.817 184.057 C 172.839 180.830,173.369 177.877,173.962 177.679 C 174.203 177.599,174.400 177.312,174.400 177.042 C 174.400 176.421,176.483 174.400,177.122 174.400 C 177.385 174.400,177.600 174.232,177.600 174.027 C 177.600 173.430,179.079 173.117,183.172 172.850 L 187.000 172.600 187.104 155.300 L 187.208 138.000 175.104 137.972 C 168.447 137.956,162.698 137.821,162.329 137.672 C 161.744 137.435,156.806 132.879,148.160 124.600 C 146.782 123.280,144.161 120.850,142.336 119.200 C 135.505 113.023,135.756 113.294,136.320 112.724 C 136.726 112.314,140.803 112.152,155.120 111.980 C 171.988 111.776,173.555 111.699,175.400 110.979 C 186.435 106.674,190.401 93.117,183.558 83.091 C 181.118 79.517,180.024 78.669,174.600 76.145 C 173.068 75.431,94.408 74.812,90.800 75.484 M227.600 75.566 C 226.830 75.723,225.807 76.065,225.326 76.326 C 224.846 76.587,224.179 76.800,223.844 76.800 C 223.022 76.800,220.569 78.482,218.513 80.456 C 209.052 89.538,212.377 106.211,224.600 110.979 C 226.445 111.699,228.012 111.776,244.880 111.980 C 259.197 112.152,263.274 112.314,263.680 112.724 C 264.244 113.294,264.507 113.011,257.667 119.200 C 255.843 120.850,252.853 123.640,251.023 125.400 C 243.724 132.417,238.282 137.414,237.658 137.672 C 237.296 137.821,231.553 137.956,224.896 137.972 L 212.792 138.000 212.896 155.300 L 213.000 172.600 216.828 172.850 C 220.921 173.117,222.400 173.430,222.400 174.027 C 222.400 174.232,222.615 174.400,222.878 174.400 C 223.517 174.400,225.600 176.421,225.600 177.042 C 225.600 177.312,225.797 177.599,226.038 177.679 C 226.631 177.877,227.161 180.830,227.183 184.057 C 227.205 187.478,225.609 187.200,245.233 187.200 L 262.000 187.200 262.028 175.100 C 262.044 168.445,262.179 162.699,262.328 162.331 C 262.572 161.731,267.082 156.785,273.800 149.750 C 276.009 147.436,281.083 141.981,285.100 137.600 C 287.823 134.631,287.770 134.313,288.020 155.120 C 288.283 176.908,288.474 177.796,293.861 182.271 C 298.683 186.276,307.894 188.587,310.546 186.457 C 310.796 186.256,311.630 185.960,312.400 185.798 C 314.934 185.264,321.600 180.428,321.600 179.123 C 321.600 178.905,321.960 178.269,322.400 177.709 C 322.840 177.150,323.201 176.401,323.202 176.046 C 323.204 175.691,323.519 174.860,323.902 174.200 C 324.554 173.080,324.600 170.247,324.600 131.600 L 324.600 90.200 323.685 87.669 C 321.619 81.952,318.255 78.534,312.533 76.336 L 310.200 75.440 269.600 75.360 C 247.270 75.317,228.370 75.409,227.600 75.566 M138.000 230.216 C 138.000 244.452,138.103 247.840,138.566 248.734 C 138.877 249.335,139.257 250.496,139.410 251.314 C 139.564 252.131,139.837 252.800,140.018 252.800 C 140.198 252.800,140.462 253.166,140.604 253.613 C 141.098 255.168,144.832 258.902,146.387 259.396 C 146.834 259.538,147.200 259.802,147.200 259.982 C 147.200 260.163,147.869 260.436,148.686 260.590 C 149.504 260.743,150.665 261.123,151.266 261.434 C 152.160 261.897,155.548 262.000,169.784 262.000 L 187.208 262.000 187.104 244.700 L 187.000 227.400 182.952 227.110 C 175.958 226.610,173.390 224.046,172.891 217.066 L 172.600 213.000 155.300 212.896 L 138.000 212.792 138.000 230.216 M227.421 213.300 C 227.337 213.575,227.165 215.452,227.040 217.470 C 226.636 223.994,223.915 226.619,217.048 227.110 L 213.000 227.400 212.896 244.700 L 212.792 262.000 224.896 262.028 C 231.553 262.044,237.305 262.179,237.677 262.328 C 238.284 262.572,243.307 267.153,250.255 273.800 C 252.553 275.999,257.926 280.998,262.400 285.100 C 265.369 287.823,265.687 287.770,244.880 288.020 C 223.432 288.279,222.362 288.493,218.070 293.382 C 213.832 298.208,211.281 307.742,213.493 310.486 C 213.721 310.768,214.040 311.630,214.202 312.400 C 214.736 314.934,219.572 321.600,220.877 321.600 C 221.095 321.600,221.731 321.960,222.291 322.400 C 222.850 322.840,223.599 323.201,223.954 323.202 C 224.309 323.204,225.140 323.519,225.800 323.902 C 227.658 324.983,309.505 324.980,311.480 323.900 C 312.184 323.515,313.066 323.200,313.439 323.200 C 315.892 323.200,323.200 315.892,323.200 313.439 C 323.200 313.066,323.515 312.184,323.900 311.480 C 325.012 309.446,324.977 228.288,323.863 225.587 C 321.126 218.952,317.943 215.949,311.375 213.805 C 302.485 210.903,292.479 215.735,289.021 224.600 C 288.302 226.443,288.224 228.012,288.020 244.600 C 287.767 265.304,287.744 265.450,285.179 262.500 C 283.196 260.219,278.089 254.655,275.400 251.845 C 266.861 242.924,262.939 238.609,262.518 237.672 C 262.178 236.917,262.031 233.087,262.018 224.700 L 262.000 212.800 244.787 212.800 C 231.366 212.800,227.541 212.910,227.421 213.300 " stroke="none" fill="#fbe374" fill-rule="evenodd"></path><path id="path1" d="M39.400 31.488 C 38.960 31.597,38.420 31.822,38.200 31.988 C 37.980 32.154,37.306 32.408,36.702 32.552 C 36.099 32.696,34.513 33.563,33.180 34.478 C 31.075 35.923,30.009 37.044,27.001 40.977 C 26.675 41.404,26.295 42.351,26.158 43.081 C 25.921 44.348,25.200 45.339,25.200 44.400 C 25.200 44.154,25.020 44.064,24.800 44.200 C 23.902 44.755,24.288 360.000,25.186 360.000 C 26.064 360.000,26.800 361.100,26.800 362.411 C 26.800 362.885,27.160 363.731,27.600 364.291 C 28.040 364.850,28.400 365.550,28.400 365.847 C 28.400 366.548,33.452 371.600,34.153 371.600 C 34.450 371.600,35.150 371.960,35.709 372.400 C 36.269 372.840,37.224 373.200,37.832 373.200 C 38.440 373.200,39.285 373.515,39.710 373.900 C 40.914 374.990,359.086 374.990,360.290 373.900 C 360.715 373.515,361.560 373.200,362.168 373.200 C 362.776 373.200,363.731 372.840,364.291 372.400 C 364.850 371.960,365.550 371.600,365.847 371.600 C 366.656 371.600,371.548 366.546,371.832 365.417 C 371.967 364.876,372.331 364.223,372.639 363.967 C 372.948 363.711,373.200 362.904,373.200 362.174 C 373.200 360.852,374.509 359.373,375.265 359.840 C 375.449 359.954,375.600 289.037,375.600 202.247 C 375.600 97.479,375.466 44.364,375.200 44.200 C 374.980 44.064,374.800 44.154,374.800 44.400 C 374.800 45.356,374.018 44.300,373.777 43.020 C 373.638 42.277,373.272 41.338,372.964 40.934 C 370.041 37.099,368.916 35.917,366.820 34.478 C 365.487 33.563,363.901 32.696,363.298 32.552 C 362.694 32.408,361.947 32.090,361.639 31.845 C 361.073 31.397,41.203 31.043,39.400 31.488 M374.312 35.671 C 374.004 36.453,374.974 37.489,375.388 36.819 C 375.531 36.589,375.470 36.400,375.253 36.400 C 375.036 36.400,374.795 36.085,374.718 35.700 C 374.588 35.057,374.555 35.054,374.312 35.671 M176.509 75.200 C 177.069 75.640,177.813 76.000,178.163 76.000 C 178.513 76.000,179.160 76.360,179.600 76.800 C 180.040 77.240,180.499 77.600,180.619 77.600 C 180.928 77.600,184.800 81.507,184.800 81.818 C 184.800 81.959,185.160 82.531,185.600 83.091 C 186.040 83.650,186.400 84.419,186.400 84.800 C 186.400 85.181,186.760 85.950,187.200 86.509 C 188.053 87.594,188.456 99.271,187.657 99.765 C 187.469 99.881,187.304 100.927,187.292 102.088 C 187.249 106.233,184.055 112.147,180.275 115.081 C 175.830 118.531,175.778 118.540,158.800 118.784 C 145.549 118.975,143.928 119.066,144.900 119.564 C 145.505 119.875,146.000 120.349,146.000 120.618 C 146.000 120.887,146.360 121.201,146.800 121.316 C 147.240 121.431,147.600 121.812,147.600 122.163 C 147.600 122.513,147.804 122.800,148.054 122.800 C 148.304 122.800,148.893 123.205,149.362 123.700 C 149.832 124.195,151.460 125.680,152.980 127.000 C 154.499 128.320,157.144 130.795,158.857 132.500 C 160.570 134.205,162.139 135.600,162.343 135.600 C 162.547 135.600,162.817 135.867,162.942 136.194 C 163.136 136.699,165.028 136.804,175.485 136.894 L 187.800 137.000 187.904 155.300 C 187.961 165.365,187.871 173.600,187.704 173.599 C 187.537 173.599,187.461 174.686,187.536 176.015 C 187.721 179.286,187.394 179.600,183.801 179.600 C 178.201 179.600,174.000 182.328,174.000 185.965 C 174.000 187.007,173.819 187.600,173.500 187.599 C 173.146 187.599,173.000 188.445,173.000 190.499 L 173.000 193.400 155.400 193.400 L 137.800 193.400 137.800 190.600 C 137.800 188.777,137.618 187.657,137.279 187.390 C 136.871 187.069,136.785 184.893,136.879 177.328 C 136.946 172.019,136.879 167.750,136.732 167.841 C 136.585 167.933,136.094 167.537,135.641 166.962 C 134.902 166.022,127.147 157.694,123.607 154.038 C 122.841 153.247,120.141 150.350,117.607 147.600 L 113.000 142.600 113.113 158.239 C 113.191 169.045,113.088 174.237,112.780 175.039 C 112.534 175.678,112.299 177.190,112.257 178.400 C 112.112 182.568,108.690 187.892,104.425 190.584 C 92.661 198.010,76.253 191.031,75.309 178.200 C 75.212 176.880,74.968 175.629,74.766 175.420 C 73.896 174.517,74.321 86.879,75.200 86.000 C 75.640 85.560,76.000 84.840,76.000 84.400 C 76.000 83.960,76.360 83.240,76.800 82.800 C 77.240 82.360,77.600 81.826,77.600 81.614 C 77.600 81.402,77.960 81.035,78.400 80.800 C 78.840 80.565,79.200 80.108,79.200 79.786 C 79.200 79.464,79.464 79.200,79.786 79.200 C 80.108 79.200,80.565 78.840,80.800 78.400 C 81.035 77.960,81.402 77.600,81.614 77.600 C 81.826 77.600,82.360 77.240,82.800 76.800 C 83.240 76.360,83.960 76.000,84.400 76.000 C 84.840 76.000,85.560 75.640,86.000 75.200 C 86.790 74.410,87.333 74.400,131.146 74.400 C 174.886 74.400,175.506 74.411,176.509 75.200 M314.176 75.300 C 314.458 75.685,315.073 76.000,315.544 76.000 C 316.015 76.000,316.760 76.360,317.200 76.800 C 317.640 77.240,318.174 77.600,318.386 77.600 C 318.598 77.600,318.965 77.960,319.200 78.400 C 319.435 78.840,319.892 79.200,320.214 79.200 C 320.536 79.200,320.800 79.464,320.800 79.786 C 320.800 80.108,321.160 80.565,321.600 80.800 C 322.040 81.035,322.400 81.402,322.400 81.614 C 322.400 81.826,322.760 82.360,323.200 82.800 C 323.640 83.240,324.000 83.985,324.000 84.456 C 324.000 84.927,324.315 85.542,324.700 85.824 C 325.524 86.426,325.714 172.218,324.904 177.800 C 323.819 185.270,319.676 190.156,312.214 192.766 C 301.626 196.468,288.095 188.524,287.743 178.400 C 287.701 177.190,287.466 175.678,287.220 175.039 C 286.912 174.237,286.809 169.045,286.887 158.239 L 287.000 142.600 285.400 144.378 C 283.081 146.954,283.133 146.898,276.776 153.631 C 273.573 157.024,269.267 161.600,267.208 163.800 C 265.148 166.000,263.359 167.770,263.232 167.733 C 263.104 167.696,263.054 172.012,263.121 177.323 C 263.215 184.892,263.129 187.069,262.721 187.390 C 262.382 187.657,262.200 188.777,262.200 190.600 L 262.200 193.400 244.600 193.400 L 227.000 193.400 227.000 190.499 C 227.000 188.445,226.854 187.599,226.500 187.599 C 226.181 187.600,226.000 187.007,226.000 185.965 C 226.000 182.328,221.799 179.600,216.199 179.600 C 212.606 179.600,212.279 179.286,212.464 176.015 C 212.539 174.686,212.463 173.599,212.296 173.599 C 212.129 173.600,212.039 165.365,212.096 155.300 L 212.200 137.000 224.700 136.894 C 235.444 136.803,237.200 136.705,237.200 136.194 C 237.200 135.867,237.396 135.600,237.635 135.600 C 237.874 135.600,239.014 134.633,240.168 133.451 C 241.322 132.268,244.141 129.629,246.433 127.586 C 248.725 125.543,250.744 123.630,250.920 123.335 C 251.096 123.041,251.501 122.800,251.820 122.800 C 252.139 122.800,252.400 122.513,252.400 122.163 C 252.400 121.812,252.760 121.431,253.200 121.316 C 253.640 121.201,254.000 120.887,254.000 120.618 C 254.000 120.349,254.495 119.875,255.100 119.564 C 256.072 119.066,254.451 118.975,241.200 118.784 C 224.221 118.540,224.158 118.529,219.735 115.081 C 215.848 112.051,212.630 106.012,212.715 101.909 C 212.737 100.870,212.585 99.914,212.377 99.786 C 211.568 99.286,211.940 87.499,212.800 86.400 C 213.230 85.850,213.586 85.023,213.591 84.562 C 213.596 84.101,213.960 83.398,214.400 83.000 C 214.840 82.602,215.200 82.115,215.200 81.919 C 215.200 81.538,219.012 77.600,219.381 77.600 C 219.501 77.600,219.960 77.240,220.400 76.800 C 220.840 76.360,221.487 76.000,221.837 76.000 C 222.187 76.000,222.934 75.638,223.497 75.195 C 224.993 74.019,313.314 74.121,314.176 75.300 M173.915 215.915 C 174.010 218.975,174.169 219.769,174.815 220.415 C 175.247 220.847,175.600 221.462,175.600 221.782 C 175.600 222.536,177.464 224.400,178.218 224.400 C 178.538 224.400,179.153 224.753,179.585 225.185 C 180.231 225.831,181.025 225.990,184.085 226.085 L 187.800 226.200 187.904 244.500 C 187.961 254.565,187.871 262.800,187.704 262.799 C 187.537 262.799,187.461 263.886,187.536 265.215 C 187.754 269.071,189.086 268.801,169.851 268.790 C 153.554 268.781,151.818 268.676,148.800 267.516 C 142.919 265.256,137.323 257.759,137.621 252.541 C 137.669 251.693,137.505 250.493,137.255 249.874 C 136.755 248.636,136.579 212.754,137.071 212.263 C 137.220 212.114,145.545 212.039,155.571 212.096 L 173.800 212.200 173.915 215.915 M263.106 224.515 C 263.196 234.972,263.301 236.864,263.806 237.058 C 264.133 237.183,264.400 237.453,264.400 237.657 C 264.400 237.861,265.795 239.430,267.500 241.143 C 269.205 242.856,271.680 245.501,273.000 247.020 C 274.320 248.540,275.805 250.168,276.300 250.638 C 276.795 251.107,277.200 251.675,277.200 251.899 C 277.200 252.123,277.560 252.401,278.000 252.516 C 278.440 252.631,278.800 253.012,278.800 253.363 C 278.800 253.713,279.070 254.000,279.400 254.000 C 279.730 254.000,280.000 254.162,280.000 254.360 C 280.000 254.559,281.080 255.808,282.400 257.136 C 283.720 258.464,284.800 259.721,284.800 259.929 C 284.800 260.137,285.160 260.401,285.600 260.516 C 286.040 260.631,286.441 261.057,286.491 261.463 C 286.540 261.868,286.675 253.590,286.791 243.067 C 286.983 225.451,287.055 223.894,287.700 223.423 C 288.085 223.142,288.400 222.527,288.400 222.056 C 288.400 221.585,288.760 220.840,289.200 220.400 C 289.640 219.960,290.000 219.501,290.000 219.381 C 290.000 219.072,293.907 215.200,294.218 215.200 C 294.359 215.200,294.931 214.840,295.491 214.400 C 296.050 213.960,296.819 213.600,297.200 213.600 C 297.581 213.600,298.350 213.240,298.909 212.800 C 299.828 212.077,300.532 212.000,306.200 212.000 C 311.868 212.000,312.572 212.077,313.491 212.800 C 314.050 213.240,314.906 213.600,315.392 213.600 C 315.878 213.600,316.602 213.960,317.000 214.400 C 317.398 214.840,317.885 215.200,318.081 215.200 C 318.462 215.200,322.400 219.012,322.400 219.381 C 322.400 219.501,322.760 219.960,323.200 220.400 C 323.640 220.840,324.000 221.487,324.000 221.837 C 324.000 222.187,324.360 222.931,324.800 223.491 C 325.709 224.647,326.102 312.043,325.200 312.600 C 324.980 312.736,324.797 313.782,324.793 314.924 C 324.772 321.488,319.840 327.727,312.600 330.348 L 310.200 331.216 268.000 331.108 L 225.800 331.000 223.000 329.636 C 220.230 328.286,215.600 324.136,215.600 323.003 C 215.600 322.725,215.353 322.293,215.052 322.043 C 214.167 321.309,212.672 316.361,212.715 314.309 C 212.737 313.270,212.585 312.314,212.377 312.186 C 211.553 311.677,211.925 300.022,212.800 298.909 C 213.240 298.350,213.600 297.581,213.600 297.200 C 213.600 296.819,213.960 296.050,214.400 295.491 C 214.840 294.931,215.200 294.359,215.200 294.218 C 215.200 293.907,219.072 290.000,219.381 290.000 C 219.501 290.000,219.960 289.640,220.400 289.200 C 220.840 288.760,221.585 288.400,222.056 288.400 C 222.527 288.400,223.142 288.085,223.424 287.700 C 223.897 287.053,225.180 287.000,240.380 287.000 L 256.825 287.000 253.712 284.054 C 245.475 276.258,240.068 271.201,238.747 270.058 L 237.294 268.800 225.296 268.800 C 211.519 268.800,212.250 269.004,212.464 265.215 C 212.539 263.886,212.463 262.799,212.296 262.799 C 212.129 262.800,212.039 254.565,212.096 244.500 L 212.200 226.200 215.915 226.085 C 218.975 225.990,219.769 225.831,220.415 225.185 C 220.847 224.753,221.462 224.400,221.782 224.400 C 222.536 224.400,224.400 222.536,224.400 221.782 C 224.400 221.462,224.760 220.840,225.200 220.400 C 225.879 219.721,226.000 219.067,226.000 216.067 C 226.000 214.123,226.122 212.412,226.271 212.263 C 226.420 212.114,234.745 212.039,244.771 212.096 L 263.000 212.200 263.106 224.515 " stroke="none" fill="#437bc3" fill-rule="evenodd"></path><path id="path2" d="M35.521 24.881 C 36.258 25.618,36.092 26.038,35.100 25.953 C 33.180 25.788,32.160 25.986,32.800 26.400 C 33.236 26.682,33.257 26.789,32.876 26.794 C 32.588 26.797,32.440 26.941,32.547 27.113 C 32.653 27.286,32.261 27.421,31.675 27.413 C 31.090 27.406,30.608 27.610,30.605 27.867 C 30.598 28.467,30.063 29.000,29.467 29.000 C 29.210 29.000,29.000 29.210,29.000 29.467 C 29.000 30.064,28.465 30.600,27.867 30.602 C 27.610 30.603,27.374 30.963,27.343 31.402 C 27.311 31.841,27.266 32.357,27.243 32.549 C 27.219 32.741,26.930 32.674,26.600 32.400 C 25.876 31.799,25.796 32.420,26.500 33.179 C 26.802 33.504,26.819 33.616,26.542 33.461 C 25.923 33.115,25.635 33.995,25.899 35.425 C 26.116 36.600,26.116 36.600,25.258 35.838 C 24.368 35.048,24.034 35.474,24.880 36.320 C 25.253 36.693,25.253 36.800,24.880 36.800 C 24.540 36.800,24.400 37.916,24.400 40.624 C 24.400 43.071,24.544 44.358,24.800 44.200 C 25.020 44.064,25.200 44.154,25.200 44.400 C 25.200 45.339,25.921 44.348,26.158 43.081 C 26.295 42.351,26.675 41.404,27.001 40.977 C 30.009 37.044,31.075 35.923,33.180 34.478 C 34.513 33.563,36.099 32.696,36.702 32.552 C 37.306 32.408,38.053 32.090,38.361 31.845 C 39.164 31.209,360.836 31.209,361.639 31.845 C 361.947 32.090,362.694 32.408,363.298 32.552 C 363.901 32.696,365.487 33.563,366.820 34.478 C 368.916 35.917,370.041 37.099,372.964 40.934 C 373.272 41.338,373.638 42.277,373.777 43.020 C 374.018 44.300,374.800 45.356,374.800 44.400 C 374.800 44.154,374.980 44.064,375.200 44.200 C 375.456 44.358,375.600 43.063,375.600 40.600 C 375.600 38.465,375.442 36.850,375.245 36.972 C 374.705 37.306,374.144 36.322,374.235 35.200 C 374.279 34.650,374.037 33.885,373.696 33.500 C 373.308 33.062,373.249 32.800,373.538 32.800 C 373.792 32.800,374.000 32.609,374.000 32.376 C 374.000 32.143,373.820 32.064,373.599 32.200 C 373.379 32.337,373.027 31.996,372.817 31.444 C 372.555 30.757,372.194 30.486,371.672 30.586 C 371.103 30.696,370.921 30.514,370.955 29.869 C 370.980 29.393,370.790 29.003,370.533 29.002 C 369.937 28.999,369.402 28.466,369.393 27.867 C 369.389 27.610,369.010 27.412,368.550 27.426 C 367.934 27.445,367.764 27.260,367.904 26.726 C 368.097 25.986,367.200 25.755,364.900 25.953 C 363.908 26.038,363.742 25.618,364.479 24.881 C 364.850 24.510,328.023 24.403,200.000 24.403 C 71.977 24.403,35.150 24.510,35.521 24.881 M86.000 75.200 C 85.560 75.640,84.840 76.000,84.400 76.000 C 83.960 76.000,83.240 76.360,82.800 76.800 C 82.360 77.240,81.826 77.600,81.614 77.600 C 81.402 77.600,81.035 77.960,80.800 78.400 C 80.565 78.840,80.108 79.200,79.786 79.200 C 79.464 79.200,79.200 79.464,79.200 79.786 C 79.200 80.108,78.840 80.565,78.400 80.800 C 77.960 81.035,77.600 81.402,77.600 81.614 C 77.600 81.826,77.240 82.360,76.800 82.800 C 76.360 83.240,76.000 83.960,76.000 84.400 C 76.000 84.840,75.640 85.560,75.200 86.000 C 74.371 86.829,73.878 174.830,74.700 175.338 C 74.865 175.440,74.946 155.966,74.881 132.062 C 74.778 94.718,74.843 88.431,75.342 87.400 C 75.662 86.740,76.335 85.300,76.839 84.200 C 78.018 81.629,81.640 78.010,84.200 76.847 C 85.300 76.347,86.678 75.682,87.262 75.369 C 89.174 74.344,173.657 74.565,175.800 75.600 C 176.680 76.025,177.527 76.379,177.682 76.386 C 179.608 76.479,185.585 83.125,186.251 85.914 C 186.394 86.511,186.710 87.252,186.955 87.561 C 187.200 87.869,187.508 89.219,187.639 90.561 L 187.878 93.000 187.939 90.263 C 187.988 88.070,187.841 87.324,187.200 86.509 C 186.760 85.950,186.400 85.181,186.400 84.800 C 186.400 84.419,186.040 83.650,185.600 83.091 C 185.160 82.531,184.800 81.959,184.800 81.818 C 184.800 81.507,180.928 77.600,180.619 77.600 C 180.499 77.600,180.040 77.240,179.600 76.800 C 179.160 76.360,178.513 76.000,178.163 76.000 C 177.813 76.000,177.069 75.640,176.509 75.200 C 175.506 74.411,174.886 74.400,131.146 74.400 C 87.333 74.400,86.790 74.410,86.000 75.200 M223.497 75.195 C 222.934 75.638,222.187 76.000,221.837 76.000 C 221.487 76.000,220.840 76.360,220.400 76.800 C 219.960 77.240,219.501 77.600,219.381 77.600 C 219.012 77.600,215.200 81.538,215.200 81.919 C 215.200 82.115,214.840 82.602,214.400 83.000 C 213.960 83.398,213.596 84.101,213.591 84.562 C 213.586 85.023,213.230 85.850,212.800 86.400 C 212.178 87.195,212.028 87.975,212.070 90.200 L 212.122 93.000 212.361 90.561 C 212.492 89.219,212.800 87.869,213.045 87.561 C 213.290 87.252,213.611 86.495,213.758 85.877 C 214.426 83.086,220.384 76.479,222.318 76.386 C 222.473 76.379,223.320 76.025,224.200 75.600 C 225.750 74.851,227.134 74.827,268.540 74.814 C 315.082 74.799,310.945 74.614,316.000 76.931 C 318.313 77.991,322.009 81.687,323.069 84.000 C 325.385 89.055,325.200 84.912,325.200 131.587 C 325.200 160.839,325.066 174.730,324.778 175.326 C 324.368 176.175,324.374 176.177,324.983 175.417 C 326.002 174.144,325.725 86.573,324.700 85.824 C 324.315 85.542,324.000 84.927,324.000 84.456 C 324.000 83.985,323.640 83.240,323.200 82.800 C 322.760 82.360,322.400 81.826,322.400 81.614 C 322.400 81.402,322.040 81.035,321.600 80.800 C 321.160 80.565,320.800 80.108,320.800 79.786 C 320.800 79.464,320.536 79.200,320.214 79.200 C 319.892 79.200,319.435 78.840,319.200 78.400 C 318.965 77.960,318.598 77.600,318.386 77.600 C 318.174 77.600,317.640 77.240,317.200 76.800 C 316.760 76.360,316.015 76.000,315.544 76.000 C 315.073 76.000,314.458 75.685,314.176 75.300 C 313.314 74.121,224.993 74.019,223.497 75.195 M187.676 96.667 C 187.634 97.804,187.484 99.064,187.341 99.467 C 187.145 100.023,187.198 100.093,187.563 99.758 C 187.868 99.478,187.990 98.457,187.897 96.958 L 187.751 94.600 187.676 96.667 M212.032 97.276 C 212.014 98.528,212.153 99.647,212.340 99.763 C 212.527 99.878,212.603 99.034,212.508 97.887 C 212.262 94.893,212.068 94.645,212.032 97.276 M148.086 123.288 C 152.531 127.568,157.817 132.491,161.448 135.730 L 163.097 137.200 175.129 137.200 C 186.155 137.200,187.197 137.258,187.595 137.900 C 187.992 138.540,188.019 138.531,187.909 137.800 C 187.793 137.023,187.442 136.997,175.480 136.894 C 165.028 136.804,163.136 136.699,162.942 136.194 C 162.817 135.867,162.547 135.600,162.343 135.600 C 162.139 135.600,160.570 134.205,158.857 132.500 C 157.144 130.795,154.499 128.320,152.980 127.000 C 151.460 125.680,149.832 124.195,149.362 123.700 C 148.893 123.205,148.325 122.800,148.101 122.800 C 147.877 122.800,147.599 122.440,147.484 122.000 C 147.369 121.560,146.988 121.200,146.637 121.200 C 146.287 121.200,145.999 120.975,145.997 120.700 C 145.996 120.425,145.411 119.880,144.697 119.488 C 143.955 119.081,145.404 120.706,148.086 123.288 M255.101 119.537 C 254.496 119.901,254.001 120.425,254.001 120.700 C 254.000 120.975,253.713 121.200,253.363 121.200 C 253.012 121.200,252.631 121.560,252.516 122.000 C 252.401 122.440,252.067 122.800,251.773 122.800 C 251.480 122.800,251.096 123.041,250.920 123.335 C 250.744 123.630,248.725 125.543,246.433 127.586 C 244.141 129.629,241.322 132.268,240.168 133.451 C 239.014 134.633,237.874 135.600,237.635 135.600 C 237.396 135.600,237.200 135.867,237.200 136.194 C 237.200 136.705,235.444 136.803,224.705 136.894 C 212.558 136.997,212.207 137.022,212.091 137.800 C 211.981 138.531,212.008 138.540,212.405 137.900 C 212.803 137.258,213.844 137.200,224.862 137.200 L 236.885 137.200 238.142 136.147 C 239.634 134.897,246.238 128.788,249.759 125.400 C 251.131 124.080,253.077 122.249,254.083 121.331 C 255.674 119.882,256.717 118.720,256.324 118.837 C 256.256 118.857,255.705 119.172,255.101 119.537 M112.885 158.203 C 112.838 166.674,112.626 174.012,112.407 174.776 C 112.096 175.862,112.116 176.044,112.507 175.654 C 113.012 175.149,113.390 157.148,113.101 147.400 C 113.029 144.980,112.932 149.841,112.885 158.203 M286.982 159.080 C 286.997 172.314,287.099 175.253,287.559 175.680 C 288.023 176.112,288.057 176.099,287.759 175.600 C 287.561 175.270,287.302 167.800,287.182 159.000 L 286.965 143.000 286.982 159.080 M136.882 177.676 C 136.837 182.888,136.935 187.237,137.100 187.339 C 137.265 187.441,137.354 184.707,137.297 181.263 C 137.101 169.408,136.964 168.222,136.882 177.676 M262.799 177.881 C 262.690 183.205,262.738 187.423,262.908 187.253 C 263.077 187.084,263.166 182.727,263.107 177.572 L 262.999 168.200 262.799 177.881 M187.502 172.600 C 187.397 173.150,187.466 173.600,187.655 173.600 C 187.845 173.600,188.000 173.150,188.000 172.600 C 188.000 172.050,187.931 171.600,187.847 171.600 C 187.762 171.600,187.607 172.050,187.502 172.600 M212.000 172.600 C 212.000 173.150,212.155 173.600,212.345 173.600 C 212.534 173.600,212.603 173.150,212.498 172.600 C 212.393 172.050,212.238 171.600,212.153 171.600 C 212.069 171.600,212.000 172.050,212.000 172.600 M173.537 185.800 C 173.459 186.790,173.531 187.600,173.697 187.600 C 173.864 187.600,174.000 186.790,174.000 185.800 C 174.000 184.810,173.928 184.000,173.840 184.000 C 173.752 184.000,173.616 184.810,173.537 185.800 M226.032 185.700 C 226.014 186.745,226.144 187.600,226.320 187.600 C 226.496 187.600,226.572 186.925,226.491 186.100 C 226.261 183.778,226.066 183.609,226.032 185.700 M136.976 212.519 C 136.479 213.814,137.002 249.963,137.525 250.480 C 137.958 250.909,137.976 250.803,137.625 249.874 C 136.805 247.701,137.060 212.921,137.900 212.432 C 138.563 212.046,138.563 212.024,137.887 212.012 C 137.496 212.005,137.085 212.234,136.976 212.519 M172.400 212.338 C 173.346 212.617,173.413 212.828,173.633 216.217 L 173.865 219.800 173.833 216.000 L 173.800 212.200 172.600 212.122 C 171.484 212.049,171.470 212.064,172.400 212.338 M226.267 212.267 C 226.120 212.413,226.034 214.168,226.076 216.167 L 226.151 219.800 226.376 216.217 C 226.588 212.818,226.652 212.619,227.600 212.356 L 228.600 212.080 227.567 212.040 C 226.998 212.018,226.413 212.120,226.267 212.267 M262.100 212.405 C 262.742 212.803,262.800 213.845,262.800 224.871 L 262.800 236.903 264.270 238.552 C 266.803 241.391,272.098 247.134,274.600 249.755 C 275.920 251.138,279.138 254.545,281.750 257.327 C 284.363 260.109,286.658 262.288,286.850 262.169 C 287.043 262.050,287.200 253.948,287.200 244.164 L 287.200 226.376 288.247 223.888 C 290.144 219.376,294.901 214.566,298.260 213.763 C 298.887 213.612,299.652 213.290,299.961 213.045 C 300.269 212.800,301.619 212.492,302.961 212.361 L 305.400 212.122 302.663 212.061 C 300.470 212.012,299.724 212.159,298.909 212.800 C 298.350 213.240,297.581 213.600,297.200 213.600 C 296.819 213.600,296.050 213.960,295.491 214.400 C 294.931 214.840,294.359 215.200,294.218 215.200 C 293.907 215.200,290.000 219.072,290.000 219.381 C 290.000 219.501,289.640 219.960,289.200 220.400 C 288.760 220.840,288.400 221.585,288.400 222.056 C 288.400 222.527,288.085 223.142,287.700 223.423 C 287.055 223.894,286.983 225.451,286.791 243.067 C 286.675 253.590,286.540 261.868,286.491 261.463 C 286.441 261.057,286.040 260.631,285.600 260.516 C 285.160 260.401,284.800 260.137,284.800 259.929 C 284.800 259.721,283.720 258.464,282.400 257.136 C 281.080 255.808,280.000 254.559,280.000 254.360 C 280.000 254.162,279.730 254.000,279.400 254.000 C 279.070 254.000,278.800 253.713,278.800 253.363 C 278.800 253.012,278.440 252.631,278.000 252.516 C 277.560 252.401,277.200 252.123,277.200 251.899 C 277.200 251.675,276.795 251.107,276.300 250.638 C 275.805 250.168,274.320 248.540,273.000 247.020 C 271.680 245.501,269.205 242.856,267.500 241.143 C 265.795 239.430,264.400 237.861,264.400 237.657 C 264.400 237.453,264.133 237.183,263.806 237.058 C 263.301 236.864,263.196 234.972,263.106 224.520 C 263.003 212.558,262.977 212.207,262.200 212.091 C 261.469 211.981,261.460 212.008,262.100 212.405 M309.639 212.359 C 310.870 212.491,312.130 212.800,312.439 213.045 C 312.747 213.290,313.489 213.606,314.086 213.749 C 316.809 214.399,323.600 220.460,323.600 222.240 C 323.600 222.352,323.962 223.239,324.405 224.212 C 325.199 225.953,325.209 226.621,325.105 269.351 C 325.047 293.206,325.135 312.640,325.300 312.538 C 326.121 312.031,325.629 224.545,324.800 223.491 C 324.360 222.931,324.000 222.187,324.000 221.837 C 324.000 221.487,323.640 220.840,323.200 220.400 C 322.760 219.960,322.400 219.501,322.400 219.381 C 322.400 219.012,318.462 215.200,318.081 215.200 C 317.885 215.200,317.398 214.840,317.000 214.400 C 316.602 213.960,315.878 213.600,315.392 213.600 C 314.906 213.600,314.050 213.240,313.491 212.800 C 312.692 212.172,311.929 212.013,309.937 212.059 L 307.400 212.118 309.639 212.359 M174.000 220.383 C 174.000 221.781,178.219 226.000,179.617 226.000 C 180.468 226.000,179.733 224.999,178.589 224.600 C 177.128 224.090,175.910 222.872,175.400 221.411 C 175.001 220.267,174.000 219.532,174.000 220.383 M224.814 220.774 C 224.586 221.199,224.400 221.731,224.400 221.956 C 224.400 222.618,222.648 224.168,221.411 224.600 C 220.267 224.999,219.532 226.000,220.383 226.000 C 221.760 226.000,226.000 221.785,226.000 220.416 C 226.000 219.724,225.256 219.949,224.814 220.774 M183.783 226.367 C 187.172 226.587,187.383 226.654,187.662 227.600 C 187.936 228.530,187.951 228.516,187.878 227.400 L 187.800 226.200 184.000 226.167 L 180.200 226.135 183.783 226.367 M212.267 226.267 C 212.120 226.413,212.018 226.998,212.040 227.567 L 212.080 228.600 212.356 227.600 C 212.619 226.652,212.818 226.588,216.217 226.376 L 219.800 226.151 216.167 226.076 C 214.168 226.034,212.413 226.120,212.267 226.267 M224.100 287.212 C 223.605 287.411,223.200 287.760,223.200 287.987 C 223.200 288.214,222.750 288.400,222.200 288.400 C 221.650 288.400,220.840 288.760,220.400 289.200 C 219.960 289.640,219.501 290.000,219.381 290.000 C 219.072 290.000,215.200 293.907,215.200 294.218 C 215.200 294.359,214.840 294.931,214.400 295.491 C 213.960 296.050,213.600 296.819,213.600 297.200 C 213.600 297.581,213.240 298.350,212.800 298.909 C 212.159 299.724,212.012 300.470,212.061 302.663 L 212.122 305.400 212.371 303.000 C 212.508 301.680,212.812 300.240,213.047 299.800 C 213.282 299.360,213.898 298.125,214.416 297.055 C 215.609 294.594,217.133 292.673,219.076 291.180 C 219.914 290.536,220.793 289.850,221.030 289.655 C 223.619 287.516,224.455 287.413,241.000 287.189 L 256.600 286.977 240.800 286.914 C 232.110 286.879,224.595 287.013,224.100 287.212 M212.054 309.476 C 212.025 310.838,212.135 312.036,212.300 312.138 C 212.465 312.240,212.547 311.486,212.483 310.462 C 212.284 307.288,212.111 306.891,212.054 309.476 " stroke="none" fill="#548ccb" fill-rule="evenodd"></path><path id="path3" d="M87.200 75.382 C 86.650 75.690,85.300 76.350,84.200 76.849 C 81.636 78.012,78.014 81.633,76.847 84.200 C 76.347 85.300,75.682 86.678,75.369 87.262 C 74.887 88.161,74.802 94.906,74.813 131.462 L 74.825 174.600 75.725 176.400 C 78.243 181.436,80.737 183.968,85.200 186.018 C 85.750 186.271,86.816 186.775,87.569 187.139 C 89.523 188.082,98.080 188.082,100.031 187.139 C 100.784 186.775,101.850 186.271,102.400 186.019 C 106.335 184.216,110.496 180.116,111.409 177.141 C 111.568 176.624,111.901 175.948,112.149 175.639 C 112.465 175.246,112.632 169.630,112.706 156.839 C 112.830 135.541,112.640 136.829,115.251 139.630 C 116.363 140.824,119.282 143.924,121.737 146.521 C 126.890 151.972,128.699 153.908,131.200 156.649 C 132.190 157.733,133.945 159.641,135.100 160.887 L 137.200 163.152 137.200 175.096 C 137.200 183.852,137.328 187.168,137.680 187.520 C 138.388 188.228,172.537 188.209,173.097 187.500 C 173.314 187.225,173.596 185.316,173.723 183.257 C 173.881 180.694,174.150 179.297,174.577 178.826 C 174.920 178.447,175.200 177.960,175.200 177.743 C 175.200 177.266,177.304 175.200,177.790 175.200 C 177.981 175.200,178.445 174.922,178.821 174.581 C 179.283 174.163,180.775 173.872,183.435 173.681 C 187.183 173.413,187.379 173.353,187.643 172.400 C 188.106 170.730,188.053 138.846,187.586 137.974 C 187.191 137.235,186.626 137.200,175.134 137.200 L 163.097 137.200 161.448 135.730 C 158.569 133.161,152.847 127.884,150.249 125.400 C 140.491 116.073,137.675 113.258,137.889 113.044 C 138.023 112.910,146.248 112.794,156.167 112.786 C 173.154 112.774,174.293 112.728,175.800 112.000 C 176.680 111.575,177.527 111.221,177.682 111.214 C 178.796 111.160,184.800 105.640,184.800 104.670 C 184.800 104.481,185.160 103.869,185.600 103.309 C 186.040 102.750,186.400 101.950,186.400 101.532 C 186.400 101.114,186.689 100.330,187.043 99.791 C 187.926 98.442,187.975 89.238,187.106 87.895 C 186.787 87.403,186.406 86.511,186.259 85.914 C 185.567 83.104,179.603 76.479,177.682 76.386 C 177.527 76.379,176.680 76.025,175.800 75.600 C 173.673 74.573,89.016 74.364,87.200 75.382 M224.200 75.600 C 223.320 76.025,222.473 76.379,222.318 76.386 C 220.389 76.479,214.443 83.066,213.750 85.877 C 213.598 86.495,213.214 87.401,212.897 87.891 C 211.997 89.281,212.055 97.863,212.980 100.094 C 214.614 104.036,215.220 105.049,217.276 107.280 C 218.995 109.145,221.691 111.200,222.419 111.200 C 222.630 111.200,223.475 111.560,224.296 112.000 C 225.725 112.766,226.552 112.800,243.827 112.800 C 253.749 112.800,261.982 112.915,262.123 113.056 C 262.264 113.197,260.105 115.492,257.324 118.156 C 254.544 120.820,251.143 124.080,249.767 125.400 C 246.117 128.901,239.597 134.929,238.142 136.147 L 236.885 137.200 224.856 137.200 C 213.374 137.200,212.809 137.235,212.414 137.974 C 211.947 138.846,211.894 170.730,212.357 172.400 C 212.621 173.353,212.817 173.413,216.565 173.681 C 219.225 173.872,220.717 174.163,221.179 174.581 C 221.555 174.922,222.019 175.200,222.210 175.200 C 222.696 175.200,224.800 177.266,224.800 177.743 C 224.800 177.960,225.080 178.447,225.423 178.826 C 225.850 179.297,226.119 180.694,226.277 183.257 C 226.404 185.316,226.686 187.225,226.903 187.500 C 227.463 188.209,261.612 188.228,262.320 187.520 C 262.672 187.168,262.800 183.864,262.800 175.149 C 262.800 166.127,262.922 163.130,263.304 162.729 C 263.582 162.438,265.438 160.400,267.429 158.200 C 272.242 152.883,274.906 150.011,277.800 147.022 C 279.120 145.658,281.633 142.993,283.384 141.100 C 285.135 139.206,286.710 137.744,286.884 137.852 C 287.058 137.959,287.206 146.182,287.214 156.124 C 287.226 173.154,287.272 174.293,288.000 175.800 C 288.425 176.680,288.779 177.527,288.786 177.682 C 288.818 178.345,290.992 181.131,292.720 182.724 C 294.539 184.400,295.535 185.073,297.600 186.019 C 298.150 186.271,299.216 186.775,299.969 187.139 C 301.011 187.642,302.496 187.800,306.199 187.800 C 309.902 187.800,311.388 187.642,312.431 187.139 C 313.184 186.775,314.250 186.271,314.800 186.019 C 317.182 184.928,318.293 184.214,319.731 182.851 C 321.468 181.205,323.381 178.529,323.815 177.138 C 323.976 176.622,324.354 175.845,324.654 175.411 C 325.107 174.756,325.200 167.314,325.200 131.671 C 325.200 84.904,325.386 89.055,323.069 84.000 C 322.009 81.687,318.313 77.991,316.000 76.931 C 310.945 74.614,315.082 74.799,268.540 74.814 C 227.134 74.827,225.750 74.851,224.200 75.600 M174.600 76.145 C 180.024 78.669,181.118 79.517,183.558 83.091 C 190.401 93.117,186.435 106.674,175.400 110.979 C 173.555 111.699,171.988 111.776,155.120 111.980 C 140.803 112.152,136.726 112.314,136.320 112.724 C 135.756 113.294,135.505 113.023,142.336 119.200 C 144.161 120.850,146.782 123.280,148.160 124.600 C 156.806 132.879,161.744 137.435,162.329 137.672 C 162.698 137.821,168.447 137.956,175.104 137.972 L 187.208 138.000 187.104 155.300 L 187.000 172.600 183.172 172.850 C 179.079 173.117,177.600 173.430,177.600 174.027 C 177.600 174.232,177.385 174.400,177.122 174.400 C 176.483 174.400,174.400 176.421,174.400 177.042 C 174.400 177.312,174.203 177.599,173.962 177.679 C 173.369 177.877,172.839 180.830,172.817 184.057 C 172.795 187.478,174.391 187.200,154.767 187.200 L 138.000 187.200 137.972 175.100 C 137.956 168.445,137.821 162.699,137.672 162.331 C 137.426 161.726,132.598 156.435,126.200 149.758 C 123.896 147.355,120.367 143.554,115.535 138.275 C 112.084 134.504,112.237 133.778,111.980 155.120 C 111.717 176.908,111.526 177.796,106.139 182.271 C 101.317 186.276,92.106 188.587,89.454 186.457 C 89.204 186.256,88.370 185.960,87.600 185.798 C 83.776 184.993,76.809 178.647,76.798 175.959 C 76.796 175.651,76.481 174.860,76.098 174.200 C 75.446 173.080,75.400 170.247,75.400 131.600 L 75.400 90.200 76.315 87.669 C 78.736 80.969,83.678 76.812,90.800 75.484 C 94.408 74.812,173.068 75.431,174.600 76.145 M312.533 76.336 C 318.255 78.534,321.619 81.952,323.685 87.669 L 324.600 90.200 324.600 131.600 C 324.600 170.247,324.554 173.080,323.902 174.200 C 323.519 174.860,323.204 175.691,323.202 176.046 C 323.201 176.401,322.840 177.150,322.400 177.709 C 321.960 178.269,321.600 178.905,321.600 179.123 C 321.600 180.428,314.934 185.264,312.400 185.798 C 311.630 185.960,310.796 186.256,310.546 186.457 C 307.894 188.587,298.683 186.276,293.861 182.271 C 288.474 177.796,288.283 176.908,288.020 155.120 C 287.770 134.313,287.823 134.631,285.100 137.600 C 281.083 141.981,276.009 147.436,273.800 149.750 C 267.082 156.785,262.572 161.731,262.328 162.331 C 262.179 162.699,262.044 168.445,262.028 175.100 L 262.000 187.200 245.233 187.200 C 225.609 187.200,227.205 187.478,227.183 184.057 C 227.161 180.830,226.631 177.877,226.038 177.679 C 225.797 177.599,225.600 177.312,225.600 177.042 C 225.600 176.421,223.517 174.400,222.878 174.400 C 222.615 174.400,222.400 174.232,222.400 174.027 C 222.400 173.430,220.921 173.117,216.828 172.850 L 213.000 172.600 212.896 155.300 L 212.792 138.000 224.896 137.972 C 231.553 137.956,237.296 137.821,237.658 137.672 C 238.282 137.414,243.724 132.417,251.023 125.400 C 252.853 123.640,255.843 120.850,257.667 119.200 C 264.507 113.011,264.244 113.294,263.680 112.724 C 263.274 112.314,259.197 112.152,244.880 111.980 C 228.012 111.776,226.445 111.699,224.600 110.979 C 212.377 106.211,209.052 89.538,218.513 80.456 C 220.569 78.482,223.022 76.800,223.844 76.800 C 224.179 76.800,224.846 76.587,225.326 76.326 C 227.135 75.345,229.971 75.283,269.600 75.360 L 310.200 75.440 312.533 76.336 M137.900 212.432 C 137.250 212.811,137.200 214.120,137.200 230.859 C 137.200 250.283,137.046 248.635,139.322 253.569 C 140.410 255.927,144.189 259.645,146.631 260.762 C 147.714 261.257,149.078 261.918,149.662 262.231 C 151.097 263.000,186.756 263.084,187.520 262.320 C 188.050 261.790,188.164 229.482,187.643 227.600 C 187.377 226.639,187.211 226.591,183.376 226.380 C 176.598 226.007,173.993 223.402,173.620 216.624 C 173.409 212.789,173.361 212.623,172.400 212.357 C 170.752 211.900,138.693 211.970,137.900 212.432 M227.600 212.357 C 226.639 212.623,226.591 212.789,226.380 216.624 C 226.194 220.007,226.011 220.826,225.180 221.997 C 222.757 225.413,221.379 226.118,216.624 226.380 C 212.789 226.591,212.623 226.639,212.357 227.600 C 211.836 229.482,211.950 261.790,212.480 262.320 C 212.832 262.672,216.148 262.800,224.904 262.800 L 236.848 262.800 239.113 264.900 C 240.359 266.055,242.267 267.810,243.351 268.800 C 246.141 271.346,248.094 273.172,253.479 278.271 C 256.075 280.730,259.148 283.622,260.307 284.698 C 261.465 285.773,262.290 286.776,262.140 286.927 C 261.990 287.077,253.881 287.200,244.121 287.200 L 226.376 287.200 223.947 288.222 C 222.612 288.784,221.312 289.417,221.059 289.627 C 220.807 289.837,219.914 290.536,219.076 291.180 C 217.134 292.672,215.610 294.592,214.415 297.055 C 213.895 298.125,213.209 299.513,212.889 300.139 C 212.066 301.754,212.087 311.098,212.918 312.676 C 213.243 313.294,213.719 314.250,213.974 314.800 C 216.125 319.428,218.663 321.894,223.740 324.286 L 225.679 325.200 268.951 325.200 C 304.865 325.200,312.356 325.107,313.011 324.654 C 313.445 324.354,314.222 323.976,314.738 323.815 C 317.557 322.935,323.520 317.200,323.614 315.280 C 323.621 315.126,323.975 314.280,324.400 313.400 C 325.149 311.849,325.173 310.478,325.173 268.800 C 325.173 227.122,325.149 225.751,324.400 224.200 C 323.975 223.320,323.621 222.473,323.614 222.318 C 323.521 220.397,316.896 214.433,314.086 213.741 C 313.489 213.594,312.589 213.207,312.086 212.881 C 310.798 212.048,301.589 212.056,300.298 212.892 C 299.804 213.212,298.887 213.600,298.260 213.754 C 294.880 214.587,290.142 219.382,288.247 223.888 L 287.200 226.376 287.200 244.164 C 287.200 253.948,287.043 262.050,286.850 262.169 C 286.658 262.288,284.363 260.109,281.750 257.327 C 279.138 254.545,275.920 251.138,274.600 249.755 C 272.098 247.134,266.803 241.391,264.270 238.552 L 262.800 236.903 262.800 224.866 C 262.800 213.374,262.765 212.809,262.026 212.414 C 261.154 211.947,229.271 211.894,227.600 212.357 M172.891 217.066 C 173.390 224.046,175.958 226.610,182.952 227.110 L 187.000 227.400 187.104 244.700 L 187.208 262.000 169.784 262.000 C 155.548 262.000,152.160 261.897,151.266 261.434 C 150.665 261.123,149.504 260.743,148.686 260.590 C 147.869 260.436,147.200 260.163,147.200 259.982 C 147.200 259.802,146.834 259.538,146.387 259.396 C 144.832 258.902,141.098 255.168,140.604 253.613 C 140.462 253.166,140.198 252.800,140.018 252.800 C 139.837 252.800,139.564 252.131,139.410 251.314 C 139.257 250.496,138.877 249.335,138.566 248.734 C 138.103 247.840,138.000 244.452,138.000 230.216 L 138.000 212.792 155.300 212.896 L 172.600 213.000 172.891 217.066 M262.018 224.700 C 262.031 233.087,262.178 236.917,262.518 237.672 C 262.939 238.609,266.861 242.924,275.400 251.845 C 278.089 254.655,283.196 260.219,285.179 262.500 C 287.744 265.450,287.767 265.304,288.020 244.600 C 288.224 228.012,288.302 226.443,289.021 224.600 C 292.479 215.735,302.485 210.903,311.375 213.805 C 317.943 215.949,321.126 218.952,323.863 225.587 C 324.977 228.288,325.012 309.446,323.900 311.480 C 323.515 312.184,323.200 313.066,323.200 313.439 C 323.200 315.892,315.892 323.200,313.439 323.200 C 313.066 323.200,312.184 323.515,311.480 323.900 C 309.505 324.980,227.658 324.983,225.800 323.902 C 225.140 323.519,224.309 323.204,223.954 323.202 C 223.599 323.201,222.850 322.840,222.291 322.400 C 221.731 321.960,221.095 321.600,220.877 321.600 C 219.572 321.600,214.736 314.934,214.202 312.400 C 214.040 311.630,213.721 310.768,213.493 310.486 C 211.281 307.742,213.832 298.208,218.070 293.382 C 222.362 288.493,223.432 288.279,244.880 288.020 C 265.687 287.770,265.369 287.823,262.400 285.100 C 257.926 280.998,252.553 275.999,250.255 273.800 C 243.307 267.153,238.284 262.572,237.677 262.328 C 237.305 262.179,231.553 262.044,224.896 262.028 L 212.792 262.000 212.896 244.700 L 213.000 227.400 217.048 227.110 C 223.915 226.619,226.636 223.994,227.040 217.470 C 227.165 215.452,227.337 213.575,227.421 213.300 C 227.541 212.910,231.366 212.800,244.787 212.800 L 262.000 212.800 262.018 224.700 " stroke="none" fill="#98a484" fill-rule="evenodd"></path><path id="path4" d="M186.691 100.242 C 186.531 100.402,186.400 100.929,186.400 101.413 C 186.400 101.896,186.040 102.750,185.600 103.309 C 185.160 103.869,184.800 104.481,184.800 104.670 C 184.800 105.640,178.796 111.160,177.682 111.214 C 177.527 111.221,176.680 111.575,175.800 112.000 C 174.293 112.728,173.154 112.774,156.167 112.786 C 146.248 112.794,138.017 112.916,137.875 113.059 C 137.732 113.201,138.917 114.550,140.508 116.055 L 143.400 118.793 157.908 118.796 C 178.127 118.801,182.167 117.097,186.172 106.869 C 187.536 103.387,187.875 99.058,186.691 100.242 M212.765 101.000 C 212.268 107.673,217.773 115.372,224.795 117.825 C 227.555 118.790,227.740 118.800,242.092 118.794 L 256.600 118.788 259.509 116.069 C 261.108 114.574,262.293 113.227,262.142 113.075 C 261.990 112.924,253.749 112.800,243.827 112.800 C 226.552 112.800,225.725 112.766,224.296 112.000 C 223.475 111.560,222.630 111.200,222.419 111.200 C 221.691 111.200,218.995 109.145,217.276 107.280 C 215.331 105.169,214.597 103.981,213.271 100.800 L 212.854 99.800 212.765 101.000 M113.073 137.860 C 112.923 138.010,112.800 139.099,112.800 140.279 L 112.800 142.425 117.507 147.513 C 120.096 150.311,122.841 153.247,123.607 154.038 C 127.147 157.694,134.902 166.022,135.641 166.962 C 136.768 168.394,137.200 167.949,137.200 165.352 C 137.200 163.252,137.104 163.049,135.100 160.887 C 133.945 159.641,132.190 157.733,131.200 156.649 C 128.699 153.908,126.890 151.972,121.737 146.521 C 119.282 143.924,116.390 140.852,115.310 139.693 C 114.230 138.535,113.224 137.710,113.073 137.860 M283.384 141.100 C 281.633 142.993,279.120 145.658,277.800 147.022 C 274.906 150.011,272.242 152.883,267.429 158.200 C 265.438 160.400,263.582 162.438,263.304 162.729 C 262.766 163.293,262.597 167.429,263.100 167.736 C 263.265 167.837,265.097 166.093,267.172 163.860 C 269.247 161.627,273.567 157.024,276.772 153.631 C 282.937 147.106,282.859 147.190,285.500 144.287 C 287.065 142.567,287.200 142.244,287.200 140.233 C 287.200 137.172,286.967 137.225,283.384 141.100 M180.530 173.879 C 179.831 173.971,179.044 174.306,178.781 174.623 C 178.517 174.940,178.088 175.200,177.826 175.200 C 177.243 175.200,175.200 177.279,175.200 177.873 C 175.200 178.109,174.953 178.507,174.651 178.758 C 174.045 179.261,173.453 182.752,173.814 183.693 C 173.985 184.137,174.587 183.758,176.180 182.203 C 178.552 179.887,179.391 179.600,183.801 179.600 C 187.354 179.600,187.685 179.292,187.521 176.134 L 187.400 173.800 184.600 173.756 C 183.060 173.732,181.228 173.788,180.530 173.879 M212.700 173.820 C 212.213 174.329,212.358 178.598,212.880 179.120 C 213.164 179.404,214.531 179.600,216.230 179.600 C 220.606 179.600,221.451 179.890,223.820 182.203 C 225.413 183.758,226.015 184.137,226.186 183.693 C 226.547 182.752,225.955 179.261,225.349 178.758 C 225.047 178.507,224.800 178.109,224.800 177.873 C 224.800 177.325,222.778 175.200,222.257 175.200 C 222.040 175.200,221.550 174.917,221.167 174.570 C 220.407 173.882,213.248 173.248,212.700 173.820 M75.331 178.200 C 76.597 197.851,110.101 198.521,112.308 178.940 C 112.579 176.532,112.070 175.383,111.447 177.000 C 110.073 180.569,106.452 184.181,102.400 186.023 C 101.850 186.273,100.784 186.775,100.031 187.139 C 98.989 187.642,97.504 187.800,93.801 187.800 C 90.098 187.800,88.612 187.642,87.569 187.139 C 86.816 186.775,85.750 186.271,85.200 186.018 C 83.079 185.044,81.698 184.148,80.238 182.800 C 78.766 181.441,76.400 178.270,76.400 177.656 C 76.400 177.489,76.125 177.004,75.788 176.576 C 75.224 175.861,75.188 175.988,75.331 178.200 M287.795 176.519 C 286.441 179.814,290.694 187.503,295.575 190.584 C 307.288 197.978,323.704 191.053,324.693 178.300 C 324.874 175.966,324.312 175.102,323.839 176.986 C 323.496 178.353,321.559 181.119,319.731 182.851 C 318.293 184.214,317.182 184.928,314.800 186.019 C 314.250 186.271,313.184 186.775,312.431 187.139 C 311.388 187.642,309.902 187.800,306.199 187.800 C 302.496 187.800,301.011 187.642,299.969 187.139 C 299.216 186.775,298.150 186.273,297.600 186.023 C 293.548 184.181,289.927 180.569,288.553 177.000 C 288.159 175.978,288.047 175.906,287.795 176.519 M137.682 190.700 L 137.800 193.400 155.400 193.400 L 173.000 193.400 173.118 190.700 L 173.237 188.000 155.400 188.000 L 137.563 188.000 137.682 190.700 M226.882 190.700 L 227.000 193.400 244.600 193.400 L 262.200 193.400 262.318 190.700 L 262.437 188.000 244.600 188.000 L 226.763 188.000 226.882 190.700 M137.887 251.046 C 135.006 253.927,142.374 265.047,148.800 267.516 C 151.818 268.676,153.554 268.781,169.851 268.790 C 189.003 268.801,187.714 269.053,187.521 265.334 L 187.400 263.000 168.800 262.800 C 155.567 262.658,149.969 262.464,149.400 262.129 C 148.960 261.869,147.728 261.260,146.663 260.775 C 143.521 259.344,139.733 255.261,138.653 252.142 C 138.390 251.381,138.045 250.888,137.887 251.046 M212.667 263.067 C 212.204 263.529,212.378 267.818,212.880 268.320 C 213.232 268.672,216.553 268.800,225.327 268.800 L 237.294 268.800 238.747 270.058 C 240.125 271.250,246.786 277.486,253.800 284.148 L 257.000 287.188 259.433 287.194 C 262.688 287.202,262.765 286.980,260.307 284.698 C 259.148 283.622,256.075 280.730,253.479 278.271 C 248.094 273.172,246.141 271.346,243.351 268.800 C 242.267 267.810,240.359 266.055,239.113 264.900 L 236.848 262.800 224.891 262.800 C 218.314 262.800,212.813 262.920,212.667 263.067 M212.738 313.676 C 212.578 316.050,213.992 321.164,215.052 322.043 C 215.353 322.293,215.600 322.725,215.600 323.003 C 215.600 324.136,220.230 328.286,223.000 329.636 L 225.800 331.000 268.000 331.108 L 310.200 331.216 312.600 330.348 C 319.766 327.754,324.771 321.485,324.793 315.076 C 324.800 313.098,324.280 312.828,323.840 314.582 C 323.078 317.620,317.963 322.808,314.738 323.815 C 314.222 323.976,313.445 324.354,313.011 324.654 C 312.356 325.107,304.865 325.200,268.951 325.200 L 225.679 325.200 223.740 324.286 C 219.884 322.469,215.200 318.567,215.200 317.172 C 215.200 316.927,214.840 316.269,214.400 315.709 C 213.960 315.150,213.600 314.367,213.600 313.970 C 213.600 312.882,212.809 312.613,212.738 313.676 M374.065 360.239 C 373.474 360.654,373.200 361.265,373.200 362.174 C 373.200 362.904,372.948 363.711,372.639 363.967 C 372.331 364.223,371.967 364.876,371.832 365.417 C 371.548 366.546,366.656 371.600,365.847 371.600 C 365.550 371.600,364.850 371.960,364.291 372.400 C 363.731 372.840,362.776 373.200,362.168 373.200 C 361.560 373.200,360.715 373.515,360.290 373.900 C 359.556 374.564,351.359 374.600,200.000 374.600 C 48.641 374.600,40.444 374.564,39.710 373.900 C 39.285 373.515,38.440 373.200,37.832 373.200 C 37.224 373.200,36.269 372.840,35.709 372.400 C 35.150 371.960,34.450 371.600,34.153 371.600 C 33.452 371.600,28.400 366.548,28.400 365.847 C 28.400 365.550,28.040 364.850,27.600 364.291 C 27.160 363.731,26.800 362.885,26.800 362.411 C 26.800 361.100,26.064 360.000,25.186 360.000 C 23.963 360.000,23.976 370.145,25.200 370.800 C 25.721 371.079,26.000 371.638,26.000 372.400 C 26.000 373.162,26.279 373.721,26.800 374.000 C 27.240 374.235,27.600 374.692,27.600 375.014 C 27.600 375.336,27.849 375.600,28.153 375.600 C 28.458 375.600,28.801 375.960,28.916 376.400 C 29.031 376.840,29.412 377.200,29.763 377.200 C 30.113 377.200,30.400 377.474,30.400 377.810 C 30.400 378.145,30.825 378.582,31.345 378.779 C 31.865 378.977,32.400 379.423,32.533 379.769 C 32.673 380.135,33.244 380.400,33.891 380.400 C 34.574 380.400,35.201 380.710,35.507 381.200 C 36.005 381.998,36.440 382.000,200.000 382.000 C 363.560 382.000,363.995 381.998,364.493 381.200 C 364.799 380.710,365.426 380.400,366.109 380.400 C 366.756 380.400,367.327 380.135,367.467 379.769 C 367.600 379.423,368.135 378.977,368.655 378.779 C 369.175 378.582,369.600 378.166,369.600 377.857 C 369.600 377.547,369.960 377.199,370.400 377.084 C 370.840 376.969,371.200 376.588,371.200 376.237 C 371.200 375.887,371.470 375.600,371.800 375.600 C 372.130 375.600,372.400 375.336,372.400 375.014 C 372.400 374.692,372.760 374.235,373.200 374.000 C 373.721 373.721,374.000 373.162,374.000 372.400 C 374.000 371.638,374.279 371.079,374.800 370.800 C 375.537 370.406,375.600 369.962,375.600 365.210 C 375.600 359.757,375.450 359.270,374.065 360.239 " stroke="none" fill="#34649c" fill-rule="evenodd"></path></g></svg>