<?xml version="1.0" encoding="UTF-8"?>
<svg version="1.1" viewBox="0 0 1024 1024" width="256" height="256" xmlns="http://www.w3.org/2000/svg">
<path transform="translate(0)" d="m0 0h1024v1024h-1024z" fill="#30A1FB"/>
<path transform="translate(581,200)" d="m0 0 5 1-1 7-23 75-15 50-20 66-34 112-16 53-30 99-17 56-15 50-6 16-7 11-9 9-12 7-9 3-13 1-16-3-14-7-9-8-6-10-5-12-14-45-14-47-21-69-24-79-16-53-24-79-16-53-18-59-20-66-6-20 1-3 31-1h21l4 4 9 27 12 40 14 46 12 40 17 56 13 43 16 53 18 59 12 40 13 43 18 59 12 40 1 4h2l2-9 14-45 16-53 18-59 17-56 12-40 24-79 13-43 20-66 16-53 15-49 3-3z" fill="#C3E4FE"/>
<path transform="translate(723,203)" d="m0 0h32l18 3 19 6 19 9 12 8 10 8 10 9 12 15 11 18 8 20 4 16 2 14 1 25v128l-1 1-33 1h-19l-2-1-1-151-3-14-5-12-8-14-11-12-10-8-17-9-17-5-8-1h-15l-14 3-14 5-12 7-10 8-10 11-10 17-5 15-1 6-1 18v134l-2 2h-52l-1-53v-86l1-19 4-20 6-17 8-16 7-11 11-13 4-5 8-7 13-10 15-9 19-8 21-5z" fill="#C3E4FE"/>
<path transform="translate(753,534)" d="m0 0h125l2 1 1 27v25l-3 2h-142l-15 2-18 6-15 9-11 10-9 12-8 15-4 13-2 14v11l3 16 7 18 10 15 4 5 11 9 13 8 12 5 13 3 133 1 19 1 1 1 1 27v24l-5 2-152-1-17-3-24-8-16-8-15-10-13-12-10-11-10-15-8-16-6-17-5-23-1-10v-14l2-18 5-19 6-16 6-11 8-12 12-14 9-9 13-10 13-8 17-8 21-6 14-2z" fill="#C3E4FE"/>
<path transform="translate(1023,942)" d="m0 0h1v82h-84l4-2 18-6 19-10 11-9 9-9 10-15 8-19z"/>
<path transform="translate(0,943)" d="m0 0 2 4 8 20 6 11 9 12 10 10 14 10 15 7 18 6v1h-82z"/>
<path transform="translate(944)" d="m0 0h80v82l-2-4-8-21-8-14-8-10-11-11-14-9-12-6-17-6z"/>
<path transform="translate(0)" d="m0 0h80l-3 2-19 7-16 9-13 11-10 12-6 9-7 16-5 14h-1z"/>
</svg>
