<?xml version="1.0" encoding="UTF-8"?>
<svg version="1.1" xmlns="http://www.w3.org/2000/svg" width="299" height="300">
<path d="M0 0 C19.48070377 -0.02340758 38.96140466 -0.04101769 58.4421196 -0.05181217 C67.48827333 -0.05695847 76.5344183 -0.06396928 85.58056641 -0.07543945 C93.46936494 -0.08543734 101.35815713 -0.09186554 109.24696183 -0.09408849 C113.42020088 -0.09538696 117.59342177 -0.09841773 121.76665497 -0.10573006 C125.70313996 -0.11257098 129.63959949 -0.11460071 133.57608986 -0.11310768 C135.01267702 -0.11338041 136.44926512 -0.11533727 137.88584709 -0.11920547 C139.8653589 -0.12426938 141.8448847 -0.12236881 143.82440186 -0.12025452 C145.47809847 -0.12163721 145.47809847 -0.12163721 147.16520309 -0.12304783 C152.45400508 0.04665493 157.72675427 0.56056286 163 1 C163 47.86 163 94.72 163 143 C153.9999013 143 153.9999013 143 149.35354614 142.34356689 C147.77789383 142.12505569 147.77789383 142.12505569 146.17041016 141.90213013 C144.47948242 141.65908646 144.47948242 141.65908646 142.75439453 141.41113281 C141.5465329 141.24199371 140.33867126 141.07285461 139.09420776 140.89859009 C135.79492312 140.43542842 132.49640503 139.96737408 129.19814539 139.4970026 C125.71416492 139.00126468 122.22932984 138.51160502 118.74459839 138.0211792 C112.87494287 137.19423264 107.00588136 136.36317695 101.13720703 135.52929688 C93.68828059 134.47089573 86.23845793 133.41895502 78.78830147 132.36925125 C72.30282036 131.45542985 65.81774702 130.53872638 59.33274603 129.62150478 C57.29170956 129.33291779 55.25062616 129.0446645 53.20953751 128.75644684 C35.78665528 126.29344719 18.38440148 123.7218286 1 121 C0.10356967 106.30517485 -0.13447848 91.67272684 -0.09765625 76.953125 C-0.09578532 74.71726514 -0.09436462 72.48140486 -0.09336853 70.24554443 C-0.08959645 64.43266619 -0.07981321 58.61981395 -0.06866455 52.8069458 C-0.05833459 46.84656119 -0.05384639 40.88617228 -0.04882812 34.92578125 C-0.03818476 23.2838429 -0.02117429 11.64192363 0 0 Z " fill="#00ADEF" transform="translate(136,157)"/>
<path d="M0 0 C0 47.19 0 94.38 0 143 C-39.02176168 143.60971503 -77.98330788 144.14084956 -117 144.0625 C-139.275 144.0315625 -139.275 144.0315625 -162 144 C-162 104.07 -162 64.14 -162 23 C-151.87497273 20.74999394 -151.87497273 20.74999394 -147.66435242 20.14102173 C-146.70798889 20.00101242 -145.75162537 19.86100311 -144.76628113 19.7167511 C-143.23974663 19.49851936 -143.23974663 19.49851936 -141.68237305 19.27587891 C-140.58486725 19.11620132 -139.48736145 18.95652374 -138.3565979 18.79200745 C-134.74209888 18.26695703 -131.12692371 17.74672802 -127.51171875 17.2265625 C-124.96844879 16.85814782 -122.42522135 16.48943947 -119.8820343 16.12045288 C-113.86346473 15.24798264 -107.84446057 14.37857104 -101.8252371 13.51062524 C-95.0840061 12.53838164 -88.34337456 11.56201419 -81.60277879 10.58537793 C-55.70056879 6.8329056 -55.70056879 6.8329056 -46.36054516 5.49286842 C-40.34164175 4.62924692 -34.32491794 3.75313847 -28.31045532 2.85906982 C-27.04508595 2.67306402 -25.77971659 2.48705822 -24.47600269 2.29541588 C-22.06095341 1.94038599 -19.64653057 1.58105749 -17.2328825 1.21662331 C-16.14011407 1.05702818 -15.04734564 0.89743305 -13.92146301 0.73300171 C-12.96859815 0.59113119 -12.01573328 0.44926067 -11.03399372 0.30309105 C-7.37283175 -0.06265309 -3.67938524 0 0 0 Z " fill="#00ADEF" transform="translate(299,0)"/>
<path d="M0 0 C0 39.27 0 78.54 0 119 C-2.95014174 119.98338058 -4.84255198 120.12346651 -7.91642761 120.12025452 C-8.93025009 120.12162918 -9.94407257 120.12300385 -10.98861694 120.12442017 C-12.09991974 120.12082489 -13.21122253 120.11722961 -14.35620117 120.11352539 C-16.11250099 120.11374443 -16.11250099 120.11374443 -17.90428162 120.1139679 C-21.11476276 120.11339025 -24.32520043 120.10837198 -27.5356729 120.10139394 C-30.89091157 120.09514631 -34.24615107 120.09455548 -37.60139465 120.09336853 C-43.95492753 120.09025938 -50.30844322 120.08205158 -56.66196853 120.07201904 C-63.89527173 120.06084501 -71.12857575 120.0553442 -78.36188543 120.05032361 C-93.24126653 120.03986864 -108.12063155 120.02227722 -123 120 C-123.0231207 106.58774207 -123.04091369 93.17548883 -123.05181217 79.76321507 C-123.0570416 73.53606528 -123.06414033 67.30892908 -123.07543945 61.08178711 C-123.08626621 55.07773135 -123.09227638 49.07368871 -123.09487724 43.06962395 C-123.09673188 40.7733839 -123.10035321 38.47714461 -123.10573006 36.18091011 C-123.11293768 32.97679186 -123.11399106 29.7727285 -123.11352539 26.56860352 C-123.11712067 25.60907272 -123.12071594 24.64954193 -123.12442017 23.66093445 C-123.1230455 22.79290192 -123.12167084 21.92486938 -123.12025452 21.03053284 C-123.12117631 20.27189721 -123.1220981 19.51326159 -123.12304783 18.731637 C-123 17 -123 17 -122 16 C-119.67882939 15.60277608 -117.37176833 15.2626821 -115.03808594 14.95605469 C-114.30733353 14.85665085 -113.57658112 14.75724701 -112.82368469 14.65483093 C-110.37777399 14.32315036 -107.93109423 13.99753343 -105.484375 13.671875 C-103.75835251 13.43902995 -102.03238085 13.20580788 -100.30645752 12.972229 C-95.71796593 12.35227545 -91.1288059 11.73741187 -86.53948975 11.12359619 C-82.02462938 10.51892122 -77.51037921 9.90973082 -72.99609375 9.30078125 C-67.64790531 8.57961674 -62.29960512 7.8593204 -56.95080566 7.1427002 C-48.03658047 5.94830847 -39.12356488 4.74601644 -30.21289062 3.52539062 C-27.6526995 3.17565544 -25.09248475 2.82609362 -22.53226471 2.47657013 C-20.91046456 2.25456326 -19.28879314 2.03161374 -17.66725922 1.80767059 C-15.43896914 1.49996492 -13.21026314 1.19545715 -10.98144531 0.89160156 C-9.72438782 0.7187262 -8.46733032 0.54585083 -7.17218018 0.36773682 C-4 0 -4 0 0 0 Z " fill="#00ADEF" transform="translate(123,25)"/>
<path d="M0 0 C40.59 0 81.18 0 123 0 C123 39.6 123 79.2 123 120 C101.1650069 117.70157967 101.1650069 117.70157967 92.61914062 116.50366211 C91.63607437 116.36842636 90.65300812 116.23319061 89.64015198 116.09385681 C86.47841945 115.65807836 83.31731998 115.2179002 80.15625 114.77734375 C77.92617352 114.46852618 75.69607046 114.15990046 73.46594238 113.85145569 C68.83687788 113.21050752 64.20812372 112.567376 59.57958984 111.92260742 C53.64304879 111.0957977 47.7057692 110.2744311 41.76825714 109.45462704 C37.18360513 108.82104437 32.59933653 108.18472305 28.0151825 107.54754829 C25.82398461 107.24330386 23.63267027 106.93989692 21.4412384 106.63734245 C18.39728039 106.21665345 15.35385518 105.79230339 12.31054688 105.36694336 C11.40675797 105.24277039 10.50296906 105.11859741 9.5717926 104.99066162 C8.74529709 104.87437912 7.91880157 104.75809662 7.06726074 104.63829041 C5.99121204 104.48870833 5.99121204 104.48870833 4.89342499 104.33610439 C3 104 3 104 0 103 C0 69.01 0 35.02 0 0 Z " fill="#00ADEF" transform="translate(0,156)"/>
</svg>
